999
dxfrw 0.6.3
  0
SECTION
  2
HEADER
  9
$ACADVER
  1
AC1021
  9
$DWGCODEPAGE
  3
ANSI_1252
  9
$INSBASE
 10
0
 20
0
 30
0
  9
$EXTMIN
 10
0
 20
0
 30
0
  9
$EXTMAX
 10
48
 20
47.99999999999999
 30
0
  9
$LIMMIN
 10
0
 20
0
  9
$LIMMAX
 10
12
 20
9
  9
$ORTHOMODE
 70
    0
  9
$REGENMODE
 70
    1
  9
$FILLMODE
 70
    1
  9
$QTEXTMODE
 70
    0
  9
$MIRRTEXT
 70
    0
  9
$LTSCALE
 40
1
  9
$ATTMODE
 70
    1
  9
$TEXTSIZE
 40
0.2
  9
$TRACEWID
 40
0.05
  9
$TEXTSTYLE
  7
Standard
  9
$CLAYER
  8
0
  9
$CELTYPE
  6
ByLayer
  9
$CECOLOR
 62
  256
  9
$CELTSCALE
 40
1
  9
$DISPSILH
 70
    0
  9
$DIMSCALE
 40
1
  9
$DIMASZ
 40
0.18
  9
$DIMEXO
 40
0.0625
  9
$DIMDLI
 40
0.38
  9
$DIMRND
 40
0
  9
$DIMDLE
 40
0
  9
$DIMEXE
 40
0.18
  9
$DIMTP
 40
0
  9
$DIMTM
 40
0
  9
$DIMTXT
 40
0.18
  9
$DIMCEN
 40
0.09
  9
$DIMTSZ
 40
0
  9
$DIMTOL
 70
    0
  9
$DIMLIM
 70
    0
  9
$DIMTIH
 70
    1
  9
$DIMTOH
 70
    1
  9
$DIMSE1
 70
    0
  9
$DIMSE2
 70
    0
  9
$DIMTAD
 70
    0
  9
$DIMZIN
 70
    0
  9
$DIMBLK
  1

  9
$DIMASO
 70
    1
  9
$DIMSHO
 70
    1
  9
$DIMPOST
  1

  9
$DIMAPOST
  1

  9
$DIMALT
 70
    0
  9
$DIMALTD
 70
    2
  9
$DIMALTF
 40
25.4
  9
$DIMLFAC
 40
1
  9
$DIMTOFL
 70
    0
  9
$DIMTVP
 40
0
  9
$DIMTIX
 70
    0
  9
$DIMSOXD
 70
    0
  9
$DIMSAH
 70
    0
  9
$DIMBLK1
  1

  9
$DIMBLK2
  1

  9
$DIMSTYLE
  2
Standard
  9
$DIMCLRD
 70
    0
  9
$DIMCLRE
 70
    0
  9
$DIMCLRT
 70
    0
  9
$DIMTFAC
 40
1
  9
$DIMGAP
 40
0.09
  9
$DIMJUST
 70
    0
  9
$DIMSD1
 70
    0
  9
$DIMSD2
 70
    0
  9
$DIMTOLJ
 70
    1
  9
$DIMTZIN
 70
    0
  9
$DIMALTZ
 70
    0
  9
$DIMALTTZ
 70
    0
  9
$DIMUPT
 70
    0
  9
$DIMDEC
 70
    4
  9
$DIMTDEC
 70
    4
  9
$DIMALTU
 70
    2
  9
$DIMALTTD
 70
    2
  9
$DIMTXSTY
  7
Standard
  9
$DIMAUNIT
 70
    0
  9
$DIMADEC
 70
    0
  9
$DIMALTRND
 40
0
  9
$DIMAZIN
 70
    0
  9
$DIMDSEP
 70
   46
  9
$DIMATFIT
 70
    3
  9
$DIMFRAC
 70
    0
  9
$DIMLDRBLK
  1

  9
$DIMLUNIT
 70
    2
  9
$DIMLWD
 70
   -2
  9
$DIMLWE
 70
   -2
  9
$DIMTMOVE
 70
    0
  9
$DIMFXL
 40
1
  9
$DIMFXLON
 70
    0
  9
$DIMJOGANG
 40
0.7853981633974483
  9
$DIMTFILL
 70
    0
  9
$DIMTFILLCLR
 70
    0
  9
$DIMARCSYM
 70
    0
  9
$DIMLTYPE
  6

  9
$DIMLTEX1
  6

  9
$DIMLTEX2
  6

  9
$LUNITS
 70
    2
  9
$LUPREC
 70
    4
  9
$SKETCHINC
 40
0.1
  9
$FILLETRAD
 40
0
  9
$AUNITS
 70
    0
  9
$AUPREC
 70
    0
  9
$MENU
  1
.
  9
$ELEVATION
 40
0
  9
$PELEVATION
 40
0
  9
$THICKNESS
 40
0
  9
$LIMCHECK
 70
    0
  9
$CHAMFERA
 40
0
  9
$CHAMFERB
 40
0
  9
$CHAMFERC
 40
0
  9
$CHAMFERD
 40
0
  9
$SKPOLY
 70
    0
  9
$USRTIMER
 70
    1
  9
$ANGBASE
 50
0
  9
$ANGDIR
 70
    0
  9
$PDMODE
 70
    0
  9
$PDSIZE
 40
0
  9
$PLINEWID
 40
0
  9
$SPLFRAME
 70
    0
  9
$SPLINETYPE
 70
    6
  9
$SPLINESEGS
 70
    8
  9
$HANDSEED
  5
20000
  9
$SURFTAB1
 70
    6
  9
$SURFTAB2
 70
    6
  9
$SURFTYPE
 70
    6
  9
$SURFU
 70
    6
  9
$SURFV
 70
    6
  9
$UCSBASE
  2

  9
$UCSNAME
  2

  9
$UCSORG
 10
0
 20
0
 30
0
  9
$UCSXDIR
 10
1
 20
0
 30
0
  9
$UCSYDIR
 10
0
 20
1
 30
0
  9
$UCSORTHOREF
  2

  9
$UCSORTHOVIEW
 70
    0
  9
$UCSORGTOP
 10
0
 20
0
 30
0
  9
$UCSORGBOTTOM
 10
0
 20
0
 30
0
  9
$UCSORGLEFT
 10
0
 20
0
 30
0
  9
$UCSORGRIGHT
 10
0
 20
0
 30
0
  9
$UCSORGFRONT
 10
0
 20
0
 30
0
  9
$UCSORGBACK
 10
0
 20
0
 30
0
  9
$PUCSBASE
  2

  9
$PUCSNAME
  2

  9
$PUCSORG
 10
0
 20
0
 30
0
  9
$PUCSXDIR
 10
1
 20
0
 30
0
  9
$PUCSYDIR
 10
0
 20
1
 30
0
  9
$PUCSORTHOREF
  2

  9
$PUCSORTHOVIEW
 70
    0
  9
$PUCSORGTOP
 10
0
 20
0
 30
0
  9
$PUCSORGBOTTOM
 10
0
 20
0
 30
0
  9
$PUCSORGLEFT
 10
0
 20
0
 30
0
  9
$PUCSORGRIGHT
 10
0
 20
0
 30
0
  9
$PUCSORGFRONT
 10
0
 20
0
 30
0
  9
$PUCSORGBACK
 10
0
 20
0
 30
0
  9
$USERI1
 70
    0
  9
$USERI2
 70
    0
  9
$USERI3
 70
    0
  9
$USERI4
 70
    0
  9
$USERI5
 70
    0
  9
$USERR1
 40
0
  9
$USERR2
 40
0
  9
$USERR3
 40
0
  9
$USERR4
 40
0
  9
$USERR5
 40
0
  9
$WORLDVIEW
 70
    1
  9
$SHADEDGE
 70
    3
  9
$SHADEDIF
 70
   70
  9
$TILEMODE
 70
    1
  9
$MAXACTVP
 70
   64
  9
$PINSBASE
 10
1.499999999999999
 20
0
 30
0
  9
$PLIMCHECK
 70
    0
  9
$PEXTMIN
 10
1e+20
 20
1e+20
 30
1e+20
  9
$PEXTMAX
 10
-1e+20
 20
-1e+20
 30
-1e+20
  9
$GRIDMODE
 70
    1
  9
$SNAPSTYLE
 70
    0
  9
$PLIMMIN
 10
0
 20
0
  9
$PLIMMAX
 10
12
 20
9
  9
$UNITMODE
 70
    0
  9
$VISRETAIN
 70
    1
  9
$PLINEGEN
 70
    0
  9
$PSLTSCALE
 70
    1
  9
$TREEDEPTH
 70
 3020
  9
$CMLSTYLE
  2
Standard
  9
$CMLJUST
 70
    0
  9
$CMLSCALE
 40
1
  9
$PROXYGRAPHICS
 70
    1
  9
$MEASUREMENT
 70
    0
  9
$CELWEIGHT
370
   -1
  9
$ENDCAPS
280
    0
  9
$JOINSTYLE
280
    0
  9
$LWDISPLAY
290
    0
  9
$INSUNITS
 70
    1
  9
$HYPERLINKBASE
  1

  9
$STYLESHEET
  1

  9
$XEDIT
290
    1
  9
$CEPSNTYPE
380
    0
  9
$PSTYLEMODE
290
    1
  9
$EXTNAMES
290
    1
  9
$PSVPSCALE
 40
0.1875
  9
$OLESTARTUP
290
    0
  9
$SORTENTS
280
  127
  9
$INDEXCTL
280
    0
  9
$HIDETEXT
280
    1
  9
$XCLIPFRAME
290
    2
  9
$HALOGAP
280
    0
  9
$OBSCOLOR
 70
  257
  9
$OBSLTYPE
280
    0
  9
$INTERSECTIONDISPLAY
280
    0
  9
$INTERSECTIONCOLOR
 70
  257
  9
$DIMASSOC
280
    2
  9
$PROJECTNAME
  1

  9
$CAMERADISPLAY
290
    0
  9
$LENSLENGTH
 40
50
  9
$CAMERAHEIGHT
 40
0
  9
$STEPSPERSEC
 40
2
  9
$STEPSIZE
 40
6
  9
$3DDWFPREC
 40
2
  9
$PSOLWIDTH
 40
0.25
  9
$PSOLHEIGHT
 40
4
  9
$LOFTANG1
 40
1.570796326794896
  9
$LOFTANG2
 40
1.570796326794896
  9
$LOFTMAG1
 40
0
  9
$LOFTMAG2
 40
0
  9
$LOFTPARAM
 70
    7
  9
$LOFTNORMALS
280
    1
  9
$LATITUDE
 40
37.795
  9
$LONGITUDE
 40
-122.394
  9
$NORTHDIRECTION
 40
0
  9
$TIMEZONE
 70
-8000
  9
$LIGHTGLYPHDISPLAY
280
    1
  9
$TILEMODELIGHTSYNCH
280
    1
  9
$SOLIDHIST
280
    0
  9
$SHOWHIST
280
    1
  9
$DWFFRAME
280
    2
  9
$DGNFRAME
280
    0
  9
$REALWORLDSCALE
290
    1
  9
$INTERFERECOLOR
 62
    1
  9
$CSHADOW
280
    0
  9
$SHADOWPLANELOCATION
 40
0
  0
ENDSEC
  0
SECTION
  2
CLASSES
  0
ENDSEC
  0
SECTION
  2
TABLES
  0
TABLE
  2
VPORT
  5
8
330
0
100
AcDbSymbolTable
 70
    1
  0
VPORT
  5
31
330
2
100
AcDbSymbolTableRecord
100
AcDbViewportTableRecord
  2
*ACTIVE
 70
    0
 10
0
 20
0
 11
1
 21
1
 12
44.33454838070823
 22
26.21340692088677
 13
0
 23
0
 14
10
 24
10
 15
10
 25
10
 16
0
 26
0
 36
1
 17
0
 27
0
 37
0
 40
52.42681384177354
 41
2.030343007915567
 42
50
 43
0
 44
0
 50
0
 51
0
 71
    0
 72
  100
 73
    1
 74
    3
 75
    0
 76
    1
 77
    0
 78
    0
281
    0
 65
    1
110
0
120
0
130
0
111
1
121
0
131
0
112
0
122
1
132
0
 79
    0
146
0
348
10020
 60
    7
 61
    5
292
1
282
    1
141
0
142
0
 63
  250
421
3358443
  0
ENDTAB
  0
TABLE
  2
LTYPE
  5
5
330
0
100
AcDbSymbolTable
 70
    4
  0
LTYPE
  5
14
330
5
100
AcDbSymbolTableRecord
100
AcDbLinetypeTableRecord
  2
ByBlock
 70
    0
  3

 72
   65
 73
    0
 40
0
  0
LTYPE
  5
15
330
5
100
AcDbSymbolTableRecord
100
AcDbLinetypeTableRecord
  2
ByLayer
 70
    0
  3

 72
   65
 73
    0
 40
0
  0
LTYPE
  5
16
330
5
100
AcDbSymbolTableRecord
100
AcDbLinetypeTableRecord
  2
Continuous
 70
    0
  3
Solid line
 72
   65
 73
    0
 40
0
  0
LTYPE
  5
32
330
5
100
AcDbSymbolTableRecord
100
AcDbLinetypeTableRecord
  2
DOT
 70
    0
  3
Dot . . . . . . . . . . . . . . . . . . . . . .
 72
   65
 73
    2
 40
6.35
 49
0
 74
    0
 49
-6.35
 74
    0
  0
LTYPE
  5
33
330
5
100
AcDbSymbolTableRecord
100
AcDbLinetypeTableRecord
  2
DOTTINY
 70
    0
  3
Dot (.15x) .....................................
 72
   65
 73
    2
 40
0.9525
 49
0
 74
    0
 49
-0.9525
 74
    0
  0
LTYPE
  5
34
330
5
100
AcDbSymbolTableRecord
100
AcDbLinetypeTableRecord
  2
DOT2
 70
    0
  3
Dot (.5x) .....................................
 72
   65
 73
    2
 40
3.175
 49
0
 74
    0
 49
-3.175
 74
    0
  0
LTYPE
  5
35
330
5
100
AcDbSymbolTableRecord
100
AcDbLinetypeTableRecord
  2
DOTX2
 70
    0
  3
Dot (2x) .  .  .  .  .  .  .  .  .  .  .  .  .
 72
   65
 73
    2
 40
12.7
 49
0
 74
    0
 49
-12.7
 74
    0
  0
LTYPE
  5
36
330
5
100
AcDbSymbolTableRecord
100
AcDbLinetypeTableRecord
  2
DASHED
 70
    0
  3
Dashed _ _ _ _ _ _ _ _ _ _ _ _ _ _ _ _ _
 72
   65
 73
    2
 40
19.05
 49
12.7
 74
    0
 49
-6.35
 74
    0
  0
LTYPE
  5
37
330
5
100
AcDbSymbolTableRecord
100
AcDbLinetypeTableRecord
  2
DASHEDTINY
 70
    0
  3
Dashed (.15x) _ _ _ _ _ _ _ _ _ _ _ _ _ _ _ _ _
 72
   65
 73
    2
 40
2.8575
 49
1.905
 74
    0
 49
-0.9525
 74
    0
  0
LTYPE
  5
38
330
5
100
AcDbSymbolTableRecord
100
AcDbLinetypeTableRecord
  2
DASHED2
 70
    0
  3
Dashed (.5x) _ _ _ _ _ _ _ _ _ _ _ _ _ _ _ _ _
 72
   65
 73
    2
 40
9.524999999999999
 49
6.35
 74
    0
 49
-3.175
 74
    0
  0
LTYPE
  5
39
330
5
100
AcDbSymbolTableRecord
100
AcDbLinetypeTableRecord
  2
DASHEDX2
 70
    0
  3
Dashed (2x) ____  ____  ____  ____  ____  ___
 72
   65
 73
    2
 40
38.09999999999999
 49
25.4
 74
    0
 49
-12.7
 74
    0
  0
LTYPE
  5
3A
330
5
100
AcDbSymbolTableRecord
100
AcDbLinetypeTableRecord
  2
DASHDOT
 70
    0
  3
Dash dot __ . __ . __ . __ . __ . __ . __ . __
 72
   65
 73
    4
 40
25.4
 49
12.7
 74
    0
 49
-6.35
 74
    0
 49
0
 74
    0
 49
-6.35
 74
    0
  0
LTYPE
  5
3B
330
5
100
AcDbSymbolTableRecord
100
AcDbLinetypeTableRecord
  2
DASHDOTTINY
 70
    0
  3
Dash dot (.15x) _._._._._._._._._._._._._._._.
 72
   65
 73
    4
 40
3.81
 49
1.905
 74
    0
 49
-0.9525
 74
    0
 49
0
 74
    0
 49
-0.9525
 74
    0
  0
LTYPE
  5
3C
330
5
100
AcDbSymbolTableRecord
100
AcDbLinetypeTableRecord
  2
DASHDOT2
 70
    0
  3
Dash dot (.5x) _._._._._._._._._._._._._._._.
 72
   65
 73
    4
 40
12.7
 49
6.35
 74
    0
 49
-3.175
 74
    0
 49
0
 74
    0
 49
-3.175
 74
    0
  0
LTYPE
  5
3D
330
5
100
AcDbSymbolTableRecord
100
AcDbLinetypeTableRecord
  2
DASHDOTX2
 70
    0
  3
Dash dot (2x) ____  .  ____  .  ____  .  ___
 72
   65
 73
    4
 40
50.8
 49
25.4
 74
    0
 49
-12.7
 74
    0
 49
0
 74
    0
 49
-12.7
 74
    0
  0
LTYPE
  5
3E
330
5
100
AcDbSymbolTableRecord
100
AcDbLinetypeTableRecord
  2
DIVIDE
 70
    0
  3
Divide ____ . . ____ . . ____ . . ____ . . ____
 72
   65
 73
    6
 40
31.75
 49
12.7
 74
    0
 49
-6.35
 74
    0
 49
0
 74
    0
 49
-6.35
 74
    0
 49
0
 74
    0
 49
-6.35
 74
    0
  0
LTYPE
  5
3F
330
5
100
AcDbSymbolTableRecord
100
AcDbLinetypeTableRecord
  2
DIVIDETINY
 70
    0
  3
Divide (.15x) __..__..__..__..__..__..__..__.._
 72
   65
 73
    6
 40
4.7625
 49
1.905
 74
    0
 49
-0.9525
 74
    0
 49
0
 74
    0
 49
-0.9525
 74
    0
 49
0
 74
    0
 49
-0.9525
 74
    0
  0
LTYPE
  5
40
330
5
100
AcDbSymbolTableRecord
100
AcDbLinetypeTableRecord
  2
DIVIDE2
 70
    0
  3
Divide (.5x) __..__..__..__..__..__..__..__.._
 72
   65
 73
    6
 40
15.875
 49
6.35
 74
    0
 49
-3.175
 74
    0
 49
0
 74
    0
 49
-3.175
 74
    0
 49
0
 74
    0
 49
-3.175
 74
    0
  0
LTYPE
  5
41
330
5
100
AcDbSymbolTableRecord
100
AcDbLinetypeTableRecord
  2
DIVIDEX2
 70
    0
  3
Divide (2x) ________  .  .  ________  .  .  _
 72
   65
 73
    6
 40
63.5
 49
25.4
 74
    0
 49
-12.7
 74
    0
 49
0
 74
    0
 49
-12.7
 74
    0
 49
0
 74
    0
 49
-12.7
 74
    0
  0
LTYPE
  5
42
330
5
100
AcDbSymbolTableRecord
100
AcDbLinetypeTableRecord
  2
BORDER
 70
    0
  3
Border __ __ . __ __ . __ __ . __ __ . __ __ .
 72
   65
 73
    6
 40
44.45
 49
12.7
 74
    0
 49
-6.35
 74
    0
 49
12.7
 74
    0
 49
-6.35
 74
    0
 49
0
 74
    0
 49
-6.35
 74
    0
  0
LTYPE
  5
43
330
5
100
AcDbSymbolTableRecord
100
AcDbLinetypeTableRecord
  2
BORDERTINY
 70
    0
  3
Border (.15x) __.__.__.__.__.__.__.__.__.__.__.
 72
   65
 73
    6
 40
6.6675
 49
1.905
 74
    0
 49
-0.9525
 74
    0
 49
1.905
 74
    0
 49
-0.9525
 74
    0
 49
0
 74
    0
 49
-0.9525
 74
    0
  0
LTYPE
  5
44
330
5
100
AcDbSymbolTableRecord
100
AcDbLinetypeTableRecord
  2
BORDER2
 70
    0
  3
Border (.5x) __.__.__.__.__.__.__.__.__.__.__.
 72
   65
 73
    6
 40
22.225
 49
6.35
 74
    0
 49
-3.175
 74
    0
 49
6.35
 74
    0
 49
-3.175
 74
    0
 49
0
 74
    0
 49
-3.175
 74
    0
  0
LTYPE
  5
45
330
5
100
AcDbSymbolTableRecord
100
AcDbLinetypeTableRecord
  2
BORDERX2
 70
    0
  3
Border (2x) ____  ____  .  ____  ____  .  ___
 72
   65
 73
    6
 40
88.89999999999999
 49
25.4
 74
    0
 49
-12.7
 74
    0
 49
25.4
 74
    0
 49
-12.7
 74
    0
 49
0
 74
    0
 49
-12.7
 74
    0
  0
LTYPE
  5
46
330
5
100
AcDbSymbolTableRecord
100
AcDbLinetypeTableRecord
  2
CENTER
 70
    0
  3
Center ____ _ ____ _ ____ _ ____ _ ____ _ ____
 72
   65
 73
    4
 40
50.8
 49
31.75
 74
    0
 49
-6.35
 74
    0
 49
6.35
 74
    0
 49
-6.35
 74
    0
  0
LTYPE
  5
47
330
5
100
AcDbSymbolTableRecord
100
AcDbLinetypeTableRecord
  2
CENTERTINY
 70
    0
  3
Center (.15x) ___ _ ___ _ ___ _ ___ _ ___ _ ___
 72
   65
 73
    4
 40
7.619999999999999
 49
4.7625
 74
    0
 49
-0.9525
 74
    0
 49
0.9525
 74
    0
 49
-0.9525
 74
    0
  0
LTYPE
  5
48
330
5
100
AcDbSymbolTableRecord
100
AcDbLinetypeTableRecord
  2
CENTER2
 70
    0
  3
Center (.5x) ___ _ ___ _ ___ _ ___ _ ___ _ ___
 72
   65
 73
    4
 40
28.575
 49
19.05
 74
    0
 49
-3.175
 74
    0
 49
3.175
 74
    0
 49
-3.175
 74
    0
  0
LTYPE
  5
49
330
5
100
AcDbSymbolTableRecord
100
AcDbLinetypeTableRecord
  2
CENTERX2
 70
    0
  3
Center (2x) ________  __  ________  __  _____
 72
   65
 73
    4
 40
101.6
 49
63.5
 74
    0
 49
-12.7
 74
    0
 49
12.7
 74
    0
 49
-12.7
 74
    0
  0
ENDTAB
  0
TABLE
  2
LAYER
  5
2
330
0
100
AcDbSymbolTable
 70
    1
  0
LAYER
  5
10
330
2
100
AcDbSymbolTableRecord
100
AcDbLayerTableRecord
  2
0
 70
    0
 62
    7
  6
CONTINUOUS
370
   -3
390
F
  0
LAYER
  5
4A
330
2
100
AcDbSymbolTableRecord
100
AcDbLayerTableRecord
  2
Cardboard Layout REV0 v8_Sketch1
 70
    0
 62
    7
  6
CONTINUOUS
370
   -3
390
F
  0
LAYER
  5
4B
330
2
100
AcDbSymbolTableRecord
100
AcDbLayerTableRecord
  2
Cardboard Layout REV0 v8_Sketch3
 70
    0
 62
    7
  6
CONTINUOUS
370
   -3
390
F
  0
LAYER
  5
4C
330
2
100
AcDbSymbolTableRecord
100
AcDbLayerTableRecord
  2
Cardboard Layout REV0 v8_Sketch4
 70
    0
 62
    7
  6
CONTINUOUS
370
   -3
390
F
  0
LAYER
  5
4D
330
2
100
AcDbSymbolTableRecord
100
AcDbLayerTableRecord
  2
Cardboard Layout REV0 v8_Sketch5
 70
    0
 62
    7
  6
CONTINUOUS
370
   -3
390
F
  0
ENDTAB
  0
TABLE
  2
STYLE
  5
3
330
0
100
AcDbSymbolTable
 70
    3
  0
STYLE
  5
4E
330
2
100
AcDbSymbolTableRecord
100
AcDbTextStyleTableRecord
  2
standard
 70
    0
 40
0
 41
1
 50
0
 71
    0
 42
1
  3
standard
  4

  0
ENDTAB
  0
TABLE
  2
VIEW
  5
6
330
0
100
AcDbSymbolTable
 70
    0
  0
ENDTAB
  0
TABLE
  2
UCS
  5
7
330
0
100
AcDbSymbolTable
 70
    0
  0
ENDTAB
  0
TABLE
  2
APPID
  5
9
330
0
100
AcDbSymbolTable
 70
    1
  0
APPID
  5
12
330
9
100
AcDbSymbolTableRecord
100
AcDbRegAppTableRecord
  2
ACAD
 70
    0
  0
APPID
  5
4F
330
9
100
AcDbSymbolTableRecord
100
AcDbRegAppTableRecord
  2
LibreCad
 70
    0
  0
ENDTAB
  0
TABLE
  2
DIMSTYLE
  5
A
330
0
100
AcDbSymbolTable
 70
    1
100
AcDbDimStyleTable
 71
    1
  0
DIMSTYLE
105
50
330
A
100
AcDbSymbolTableRecord
100
AcDbDimStyleTableRecord
  2
Standard
 70
    0
 40
1
 41
0.18
 42
0.0625
 43
0.38
 44
0.18
 45
0
 46
0
 47
0
 48
0
 49
1
140
0.18
141
0.09
142
0
143
25.4
144
1
145
0
146
1
147
0.09
148
0
 71
    0
 72
    0
 73
    1
 74
    1
 75
    0
 76
    0
 77
    0
 78
    0
 79
    0
170
    0
171
    2
172
    0
173
    0
174
    0
175
    0
176
    0
177
    0
178
    0
179
    0
271
    4
272
    4
273
    2
274
    2
275
    0
276
    0
277
    2
278
   46
279
    0
280
    0
281
    0
282
    0
283
    1
284
    0
285
    0
286
    0
288
    0
289
    3
340
4E
  0
ENDTAB
  0
TABLE
  2
BLOCK_RECORD
  5
1
330
0
100
AcDbSymbolTable
 70
    2
  0
BLOCK_RECORD
  5
1F
330
1
100
AcDbSymbolTableRecord
100
AcDbBlockTableRecord
  2
*Model_Space
 70
    0
280
    1
281
    0
  0
BLOCK_RECORD
  5
1E
330
1
100
AcDbSymbolTableRecord
100
AcDbBlockTableRecord
  2
*Paper_Space
 70
    0
280
    1
281
    0
  0
ENDTAB
  0
ENDSEC
  0
SECTION
  2
BLOCKS
  0
BLOCK
  5
20
330
1F
100
AcDbEntity
  8
0
100
AcDbBlockBegin
  2
*Model_Space
 70
    0
 10
0
 20
0
 30
0
  3
*Model_Space
  1

  0
ENDBLK
  5
21
330
1F
100
AcDbEntity
  8
0
100
AcDbBlockEnd
  0
BLOCK
  5
1C
330
1B
100
AcDbEntity
  8
0
100
AcDbBlockBegin
  2
*Paper_Space
 70
    0
 10
0
 20
0
 30
0
  3
*Paper_Space
  1

  0
ENDBLK
  5
1D
330
1F
100
AcDbEntity
  8
0
100
AcDbBlockEnd
  0
ENDSEC
  0
SECTION
  2
ENTITIES
  0
HATCH
  5
51
100
AcDbEntity
  8
0
  6
CONTINUOUS
 62
    7
370
   -3
100
AcDbHatch
 10
0
 20
0
 30
0
210
0
220
0
230
1
  2
SOLID
 70
    1
 71
    0
 91
    1
 92
    0
 93
    4
 72
    1
 10
7.775459258630619
 20
2.052157674696988
 11
8.475459258630615
 21
2.052157674696988
 72
    1
 10
8.475459258630615
 20
2.052157674696988
 11
8.475459258630615
 21
1.852157674696989
 72
    1
 10
8.475459258630615
 20
1.852157674696989
 11
7.775459258630619
 21
1.852157674696989
 72
    1
 10
7.775459258630619
 20
1.852157674696989
 11
7.775459258630619
 21
2.052157674696988
 97
    0
 75
    0
 76
    1
 98
    0
  0
HATCH
  5
52
100
AcDbEntity
  8
0
  6
CONTINUOUS
 62
    7
370
   -3
100
AcDbHatch
 10
0
 20
0
 30
0
210
0
220
0
230
1
  2
SOLID
 70
    1
 71
    0
 91
    1
 92
    0
 93
    3
 72
    1
 10
7.775459258630612
 20
1.752157674696988
 11
8.475459258630615
 21
1.752157674696988
 72
    1
 10
8.475459258630615
 20
1.752157674696988
 11
8.111459258630617
 21
1.347157674696987
 72
    1
 10
8.111459258630617
 20
1.347157674696987
 11
7.775459258630619
 21
1.752157674696988
 97
    0
 75
    0
 76
    1
 98
    0
  0
HATCH
  5
53
100
AcDbEntity
  8
0
  6
CONTINUOUS
 62
    7
370
   -3
100
AcDbHatch
 10
0
 20
0
 30
0
210
0
220
0
230
1
  2
SOLID
 70
    1
 71
    0
 91
    1
 92
    0
 93
    4
 72
    1
 10
33.8
 20
21
 11
34.5
 21
21
 72
    1
 10
34.5
 20
21
 11
34.5
 21
20.8
 72
    1
 10
34.5
 20
20.8
 11
33.8
 21
20.8
 72
    1
 10
33.8
 20
20.8
 11
33.8
 21
21
 97
    0
 75
    0
 76
    1
 98
    0
  0
HATCH
  5
54
100
AcDbEntity
  8
0
  6
CONTINUOUS
 62
    7
370
   -3
100
AcDbHatch
 10
0
 20
0
 30
0
210
0
220
0
230
1
  2
SOLID
 70
    1
 71
    0
 91
    1
 92
    0
 93
    3
 72
    1
 10
33.8
 20
20.7
 11
34.5
 21
20.7
 72
    1
 10
34.5
 20
20.7
 11
34.136
 21
20.295
 72
    1
 10
34.136
 20
20.295
 11
33.8
 21
20.7
 97
    0
 75
    0
 76
    1
 98
    0
  0
HATCH
  5
55
100
AcDbEntity
  8
0
  6
CONTINUOUS
 62
    7
370
   -3
100
AcDbHatch
 10
0
 20
0
 30
0
210
0
220
0
230
1
  2
SOLID
 70
    1
 71
    0
 91
    1
 92
    0
 93
   15
 72
    2
 10
38.5335353729886
 20
21.95702239336687
 40
0.06307685137282344
 50
0
 51
360
 73
    1
 72
    2
 10
38.5335353729886
 20
22.25702239336687
 40
0.06307685137282344
 50
0
 51
360
 73
    1
 72
    2
 10
38.5335353729886
 20
21.65702239336687
 40
0.06307685137282344
 50
0
 51
360
 73
    1
 72
    1
 10
37.65925658999193
 20
22.08183084640478
 11
38.18043375209484
 21
22.08183084640478
 72
    1
 10
38.18043375209484
 20
22.08183084640478
 11
38.18043375209484
 21
21.78449259366658
 72
    1
 10
38.18043375209484
 20
21.78449259366658
 11
37.65925658999193
 21
21.78449259366658
 72
    1
 10
37.65925658999193
 20
21.78449259366658
 11
37.65925658999193
 21
22.08183084640478
 72
    1
 10
38.18043375209484
 20
21.98160446907729
 11
38.28901232753295
 21
21.98160446907729
 72
    1
 10
38.28901232753295
 20
21.98160446907729
 11
38.28901232753295
 21
21.86467369552856
 72
    1
 10
38.28901232753295
 20
21.86467369552856
 11
38.18043375209484
 21
21.86467369552856
 72
    1
 10
38.18043375209484
 20
21.86467369552856
 11
38.18043375209484
 21
21.98160446907729
 72
    1
 10
38.2923532067772
 20
22.30734019539161
 11
38.3335353729886
 21
22.30734019539161
 72
    1
 10
38.3335353729886
 20
22.30734019539161
 11
38.3335353729886
 21
21.55702239336687
 72
    1
 10
38.3335353729886
 20
21.55702239336687
 11
38.2923532067772
 21
21.55702239336687
 72
    1
 10
38.2923532067772
 20
21.55702239336687
 11
38.2923532067772
 21
22.30734019539161
 97
    0
 75
    0
 76
    1
 98
    0
  0
HATCH
  5
56
100
AcDbEntity
  8
0
  6
CONTINUOUS
 62
    7
370
   -3
100
AcDbHatch
 10
0
 20
0
 30
0
210
0
220
0
230
1
  2
SOLID
 70
    1
 71
    0
 91
    1
 92
    0
 93
   15
 72
    2
 10
31.48607834811106
 20
25.5444445237483
 40
0.06307685137282344
 50
0
 51
360
 73
    1
 72
    2
 10
31.48607834811106
 20
25.8444445237483
 40
0.06307685137282344
 50
0
 51
360
 73
    1
 72
    2
 10
31.48607834811106
 20
25.2444445237483
 40
0.06307685137282344
 50
0
 51
360
 73
    1
 72
    1
 10
30.61179956511439
 20
25.6692529767862
 11
31.1329767272173
 21
25.6692529767862
 72
    1
 10
31.1329767272173
 20
25.6692529767862
 11
31.1329767272173
 21
25.371914724048
 72
    1
 10
31.1329767272173
 20
25.371914724048
 11
30.61179956511439
 21
25.371914724048
 72
    1
 10
30.61179956511439
 20
25.371914724048
 11
30.61179956511439
 21
25.6692529767862
 72
    1
 10
31.1329767272173
 20
25.56902659945872
 11
31.24155530265541
 21
25.56902659945872
 72
    1
 10
31.24155530265541
 20
25.56902659945872
 11
31.24155530265541
 21
25.45209582590999
 72
    1
 10
31.24155530265541
 20
25.45209582590999
 11
31.1329767272173
 21
25.45209582590999
 72
    1
 10
31.1329767272173
 20
25.45209582590999
 11
31.1329767272173
 21
25.56902659945872
 72
    1
 10
31.24489618189966
 20
25.89476232577304
 11
31.28607834811105
 21
25.89476232577304
 72
    1
 10
31.28607834811105
 20
25.89476232577304
 11
31.28607834811105
 21
25.14444452374829
 72
    1
 10
31.28607834811105
 20
25.14444452374829
 11
31.24489618189966
 21
25.14444452374829
 72
    1
 10
31.24489618189966
 20
25.14444452374829
 11
31.24489618189966
 21
25.89476232577304
 97
    0
 75
    0
 76
    1
 98
    0
  0
HATCH
  5
57
100
AcDbEntity
  8
0
  6
CONTINUOUS
 62
    7
370
   -3
100
AcDbHatch
 10
0
 20
0
 30
0
210
0
220
0
230
1
  2
SOLID
 70
    1
 71
    0
 91
    1
 92
    0
 93
   15
 72
    2
 10
13.00100183284793
 20
29.53971686387846
 40
0.06307685137282344
 50
0
 51
360
 73
    1
 72
    2
 10
13.00100183284793
 20
29.83971686387846
 40
0.06307685137282344
 50
0
 51
360
 73
    1
 72
    2
 10
13.00100183284793
 20
29.23971686387846
 40
0.06307685137282344
 50
0
 51
360
 73
    1
 72
    1
 10
12.12672304985126
 20
29.66452531691637
 11
12.64790021195417
 21
29.66452531691637
 72
    1
 10
12.64790021195417
 20
29.66452531691637
 11
12.64790021195417
 21
29.36718706417817
 72
    1
 10
12.64790021195417
 20
29.36718706417817
 11
12.12672304985126
 21
29.36718706417817
 72
    1
 10
12.12672304985126
 20
29.36718706417817
 11
12.12672304985126
 21
29.66452531691637
 72
    1
 10
12.64790021195417
 20
29.56429893958888
 11
12.75647878739228
 21
29.56429893958888
 72
    1
 10
12.75647878739228
 20
29.56429893958888
 11
12.75647878739228
 21
29.44736816604015
 72
    1
 10
12.75647878739228
 20
29.44736816604015
 11
12.64790021195417
 21
29.44736816604015
 72
    1
 10
12.64790021195417
 20
29.44736816604015
 11
12.64790021195417
 21
29.56429893958888
 72
    1
 10
12.75981966663653
 20
29.8900346659032
 11
12.80100183284793
 21
29.8900346659032
 72
    1
 10
12.80100183284793
 20
29.8900346659032
 11
12.80100183284793
 21
29.13971686387846
 72
    1
 10
12.80100183284793
 20
29.13971686387846
 11
12.75981966663653
 21
29.13971686387846
 72
    1
 10
12.75981966663653
 20
29.13971686387846
 11
12.75981966663653
 21
29.8900346659032
 97
    0
 75
    0
 76
    1
 98
    0
  0
HATCH
  5
58
100
AcDbEntity
  8
0
  6
CONTINUOUS
 62
    7
370
   -3
100
AcDbHatch
 10
0
 20
0
 30
0
210
0
220
0
230
1
  2
SOLID
 70
    1
 71
    0
 91
    1
 92
    0
 93
   15
 72
    2
 10
8.467524854658928
 20
3.444594676530695
 40
0.06307685137282344
 50
0
 51
360
 73
    1
 72
    2
 10
8.467524854658928
 20
3.744594676530696
 40
0.06307685137282344
 50
0
 51
360
 73
    1
 72
    2
 10
8.467524854658928
 20
3.144594676530695
 40
0.06307685137282344
 50
0
 51
360
 73
    1
 72
    1
 10
7.593246071662259
 20
3.569403129568603
 11
8.114423233765169
 21
3.569403129568603
 72
    1
 10
8.114423233765169
 20
3.569403129568603
 11
8.114423233765169
 21
3.272064876830403
 72
    1
 10
8.114423233765169
 20
3.272064876830403
 11
7.593246071662259
 21
3.272064876830403
 72
    1
 10
7.593246071662259
 20
3.272064876830403
 11
7.593246071662259
 21
3.569403129568603
 72
    1
 10
8.114423233765169
 20
3.469176752241119
 11
8.223001809203277
 21
3.469176752241119
 72
    1
 10
8.223001809203277
 20
3.469176752241119
 11
8.223001809203277
 21
3.352245978692388
 72
    1
 10
8.223001809203277
 20
3.352245978692388
 11
8.114423233765169
 21
3.352245978692388
 72
    1
 10
8.114423233765169
 20
3.352245978692388
 11
8.114423233765169
 21
3.469176752241119
 72
    1
 10
8.226342688447527
 20
3.794912478555439
 11
8.267524854658927
 21
3.794912478555439
 72
    1
 10
8.267524854658927
 20
3.794912478555439
 11
8.267524854658927
 21
3.044594676530693
 72
    1
 10
8.267524854658927
 20
3.044594676530693
 11
8.226342688447527
 21
3.044594676530693
 72
    1
 10
8.226342688447527
 20
3.044594676530693
 11
8.226342688447527
 21
3.794912478555439
 97
    0
 75
    0
 76
    1
 98
    0
  0
HATCH
  5
59
100
AcDbEntity
  8
0
  6
CONTINUOUS
 62
    7
370
   -3
100
AcDbHatch
 10
0
 20
0
 30
0
210
0
220
0
230
1
  2
SOLID
 70
    1
 71
    0
 91
    1
 92
    0
 93
   15
 72
    2
 10
13
 20
17.5
 40
0.06307685137282344
 50
0
 51
360
 73
    1
 72
    2
 10
13
 20
17.8
 40
0.06307685137282344
 50
0
 51
360
 73
    1
 72
    2
 10
13
 20
17.2
 40
0.06307685137282344
 50
0
 51
360
 73
    1
 72
    1
 10
12.12572121700333
 20
17.62480845303791
 11
12.64689837910624
 21
17.62480845303791
 72
    1
 10
12.64689837910624
 20
17.62480845303791
 11
12.64689837910624
 21
17.32747020029971
 72
    1
 10
12.64689837910624
 20
17.32747020029971
 11
12.12572121700333
 21
17.32747020029971
 72
    1
 10
12.12572121700333
 20
17.32747020029971
 11
12.12572121700333
 21
17.62480845303791
 72
    1
 10
12.64689837910624
 20
17.52458207571042
 11
12.75547695454435
 21
17.52458207571042
 72
    1
 10
12.75547695454435
 20
17.52458207571042
 11
12.75547695454435
 21
17.40765130216169
 72
    1
 10
12.75547695454435
 20
17.40765130216169
 11
12.64689837910624
 21
17.40765130216169
 72
    1
 10
12.64689837910624
 20
17.40765130216169
 11
12.64689837910624
 21
17.52458207571042
 72
    1
 10
12.7588178337886
 20
17.85031780202474
 11
12.8
 21
17.85031780202474
 72
    1
 10
12.8
 20
17.85031780202474
 11
12.8
 21
17.1
 72
    1
 10
12.8
 20
17.1
 11
12.7588178337886
 21
17.1
 72
    1
 10
12.7588178337886
 20
17.1
 11
12.7588178337886
 21
17.85031780202474
 97
    0
 75
    0
 76
    1
 98
    0
  0
HATCH
  5
5A
100
AcDbEntity
  8
0
  6
ByLayer
 62
  256
370
   -1
100
AcDbHatch
 10
0
 20
0
 30
0
210
0
220
0
230
1
  2
SOLID
 70
    1
 71
    0
 91
    1
 92
    0
 93
    9
 72
    2
 10
1.917685562603378
 20
1.843907283319928
 40
0.1000000000000014
 50
0
 51
360
 73
    1
 72
    1
 10
2.354359433825785
 20
2.066613027033983
 11
2.291493433910305
 21
2.161650268583478
 72
    1
 10
2.291493433910305
 20
2.161650268583478
 11
1.954819562687899
 21
1.938944524869422
 72
    1
 10
1.954819562687899
 20
1.938944524869422
 11
2.01768556260338
 21
1.843907283319928
 72
    1
 10
2.01768556260338
 20
1.843907283319928
 11
2.354359433825785
 21
2.066613027033983
 72
    1
 10
2.42768556260338
 20
1.863907283319931
 11
2.717685562603382
 21
1.863907283319931
 72
    1
 10
2.717685562603382
 20
1.863907283319931
 11
2.717685562603379
 21
1.74390728331993
 72
    1
 10
2.717685562603379
 20
1.74390728331993
 11
2.42768556260338
 21
1.743907283319926
 72
    1
 10
2.42768556260338
 20
1.743907283319926
 11
2.42768556260338
 21
1.863907283319931
 97
    0
 75
    0
 76
    1
 98
    0
  0
HATCH
  5
5B
100
AcDbEntity
  8
0
  6
ByLayer
 62
  256
370
   -1
100
AcDbHatch
 10
0
 20
0
 30
0
210
0
220
0
230
1
  2
SOLID
 70
    1
 71
    0
 91
    1
 92
    0
 93
    9
 72
    2
 10
26.3
 20
25.6
 40
0.1000000000000014
 50
0
 51
360
 73
    1
 72
    1
 10
26.7366738712224
 20
25.82270574371405
 11
26.67380787130692
 21
25.91774298526355
 72
    1
 10
26.67380787130692
 20
25.91774298526355
 11
26.33713400008452
 21
25.69503724154949
 72
    1
 10
26.33713400008452
 20
25.69503724154949
 11
26.4
 21
25.6
 72
    1
 10
26.4
 20
25.6
 11
26.7366738712224
 21
25.82270574371405
 72
    1
 10
26.81
 20
25.62
 11
27.1
 21
25.62
 72
    1
 10
27.1
 20
25.62
 11
27.1
 21
25.5
 72
    1
 10
27.1
 20
25.5
 11
26.81
 21
25.5
 72
    1
 10
26.81
 20
25.5
 11
26.81
 21
25.62
 97
    0
 75
    0
 76
    1
 98
    0
  0
HATCH
  5
5C
100
AcDbEntity
  8
0
  6
ByLayer
 62
  256
370
   -1
100
AcDbHatch
 10
0
 20
0
 30
0
210
0
220
0
230
1
  2
SOLID
 70
    1
 71
    0
 91
    1
 92
    0
 93
    4
 72
    1
 10
1.751885726496619
 20
3.533124702663319
 11
2.678738438816717
 21
3.533124702663319
 72
    1
 10
2.678738438816717
 20
3.533124702663319
 11
2.678738438816717
 21
3.284661174360642
 72
    1
 10
2.678738438816717
 20
3.284661174360642
 11
1.751885726496619
 21
3.284661174360642
 72
    1
 10
1.751885726496619
 20
3.284661174360642
 11
1.751885726496619
 21
3.533124702663319
 97
    0
 75
    0
 76
    1
 98
    0
  0
HATCH
  5
5D
100
AcDbEntity
  8
0
  6
ByLayer
 62
  256
370
   -1
100
AcDbHatch
 10
0
 20
0
 30
0
210
0
220
0
230
1
  2
SOLID
 70
    1
 71
    0
 91
    1
 92
    0
 93
    6
 72
    2
 10
1.818887127387228
 20
3.725753730223821
 40
0.1104408682898372
 50
0
 51
360
 73
    1
 72
    2
 10
2.198561732434015
 20
3.725753730223821
 40
0.1104408682898372
 50
0
 51
360
 73
    1
 72
    2
 10
2.553110812146822
 20
3.734128905335146
 40
0.1104408682898372
 50
0
 51
360
 73
    1
 72
    2
 10
1.827262302498553
 20
3.097615596874358
 40
0.1104408682898372
 50
0
 51
360
 73
    1
 72
    2
 10
2.20693690754534
 20
3.097615596874358
 40
0.1104408682898372
 50
0
 51
360
 73
    1
 72
    2
 10
2.561485987258148
 20
3.105990771985683
 40
0.1104408682898372
 50
0
 51
360
 73
    1
 97
    0
 75
    0
 76
    1
 98
    0
  0
HATCH
  5
5E
100
AcDbEntity
  8
0
  6
ByLayer
 62
  256
370
   -1
100
AcDbHatch
 10
0
 20
0
 30
0
210
0
220
0
230
1
  2
SOLID
 70
    1
 71
    0
 91
    1
 92
    0
 93
    4
 72
    1
 10
37.66916692521698
 20
37.55616903863657
 11
38.59601963753708
 21
37.55616903863657
 72
    1
 10
38.59601963753708
 20
37.55616903863657
 11
38.59601963753708
 21
37.30770551033389
 72
    1
 10
38.59601963753708
 20
37.30770551033389
 11
37.66916692521698
 21
37.30770551033389
 72
    1
 10
37.66916692521698
 20
37.30770551033389
 11
37.66916692521698
 21
37.55616903863657
 97
    0
 75
    0
 76
    1
 98
    0
  0
HATCH
  5
5F
100
AcDbEntity
  8
0
  6
ByLayer
 62
  256
370
   -1
100
AcDbHatch
 10
0
 20
0
 30
0
210
0
220
0
230
1
  2
SOLID
 70
    1
 71
    0
 91
    1
 92
    0
 93
    6
 72
    2
 10
37.7361683261076
 20
37.74879806619707
 40
0.1104408682898372
 50
0
 51
360
 73
    1
 72
    2
 10
38.11584293115438
 20
37.74879806619707
 40
0.1104408682898372
 50
0
 51
360
 73
    1
 72
    2
 10
38.47039201086719
 20
37.75717324130839
 40
0.1104408682898372
 50
0
 51
360
 73
    1
 72
    2
 10
37.74454350121892
 20
37.12065993284761
 40
0.1104408682898372
 50
0
 51
360
 73
    1
 72
    2
 10
38.12421810626571
 20
37.12065993284761
 40
0.1104408682898372
 50
0
 51
360
 73
    1
 72
    2
 10
38.47876718597852
 20
37.12903510795893
 40
0.1104408682898372
 50
0
 51
360
 73
    1
 97
    0
 75
    0
 76
    1
 98
    0
  0
HATCH
  5
60
100
AcDbEntity
  8
0
  6
ByLayer
 62
  256
370
   -1
100
AcDbHatch
 10
0
 20
0
 30
0
210
0
220
0
230
1
  2
SOLID
 70
    1
 71
    0
 91
    1
 92
    0
 93
    4
 72
    1
 10
12.12167011112609
 20
10.0474184085543
 11
13.04852282344618
 21
10.0474184085543
 72
    1
 10
13.04852282344618
 20
10.0474184085543
 11
13.04852282344618
 21
9.798954880251626
 72
    1
 10
13.04852282344618
 20
9.798954880251626
 11
12.12167011112609
 21
9.798954880251626
 72
    1
 10
12.12167011112609
 20
9.798954880251626
 11
12.12167011112609
 21
10.0474184085543
 97
    0
 75
    0
 76
    1
 98
    0
  0
HATCH
  5
61
100
AcDbEntity
  8
0
  6
ByLayer
 62
  256
370
   -1
100
AcDbHatch
 10
0
 20
0
 30
0
210
0
220
0
230
1
  2
SOLID
 70
    1
 71
    0
 91
    1
 92
    0
 93
    6
 72
    2
 10
12.1886715120167
 20
10.24004743611481
 40
0.1104408682898372
 50
0
 51
360
 73
    1
 72
    2
 10
12.56834611706348
 20
10.24004743611481
 40
0.1104408682898372
 50
0
 51
360
 73
    1
 72
    2
 10
12.92289519677629
 20
10.24842261122613
 40
0.1104408682898372
 50
0
 51
360
 73
    1
 72
    2
 10
12.19704668712802
 20
9.611909302765342
 40
0.1104408682898372
 50
0
 51
360
 73
    1
 72
    2
 10
12.57672129217481
 20
9.611909302765342
 40
0.1104408682898372
 50
0
 51
360
 73
    1
 72
    2
 10
12.93127037188762
 20
9.620284477876668
 40
0.1104408682898372
 50
0
 51
360
 73
    1
 97
    0
 75
    0
 76
    1
 98
    0
  0
POINT
  5
62
100
AcDbEntity
  8
Cardboard Layout REV0 v8_Sketch1
  6
ByLayer
 62
  256
370
   -1
100
AcDbPoint
 10
0
 20
0
  0
LINE
  5
63
100
AcDbEntity
  8
Cardboard Layout REV0 v8_Sketch1
  6
ByLayer
 62
  256
370
   -1
100
AcDbLine
 10
1.5
 20
13.49999999999999
 11
1.5
 21
5.5
  0
LINE
  5
64
100
AcDbEntity
  8
Cardboard Layout REV0 v8_Sketch1
  6
ByLayer
 62
  256
370
   -1
100
AcDbLine
 10
48
 20
0
 11
48
 21
47.99999999999999
  0
LINE
  5
65
100
AcDbEntity
  8
Cardboard Layout REV0 v8_Sketch1
  6
ByLayer
 62
  256
370
   -1
100
AcDbLine
 10
19.30389878675125
 20
15.14697469883127
 11
19.30389878675125
 21
13.89697469883127
  0
LINE
  5
66
100
AcDbEntity
  8
Cardboard Layout REV0 v8_Sketch1
  6
ByLayer
 62
  256
370
   -1
100
AcDbLine
 10
46
 20
37.99999999999999
 11
46
 21
45.99999999999998
  0
LINE
  5
67
100
AcDbEntity
  8
Cardboard Layout REV0 v8_Sketch1
  6
ByLayer
 62
  256
370
   -1
100
AcDbLine
 10
48
 20
47.99999999999999
 11
0
 21
47.99999999999999
  0
LINE
  5
68
100
AcDbEntity
  8
Cardboard Layout REV0 v8_Sketch1
  6
ByLayer
 62
  256
370
   -1
100
AcDbLine
 10
17.19774274674247
 20
15.14697469883127
 11
17.19774274674247
 21
13.89697469883127
  0
LINE
  5
69
100
AcDbEntity
  8
Cardboard Layout REV0 v8_Sketch1
  6
ByLayer
 62
  256
370
   -1
100
AcDbLine
 10
19.30389878675125
 20
13.89697469883127
 11
17.55389878675125
 21
13.89697469883127
  0
LINE
  5
6A
100
AcDbEntity
  8
Cardboard Layout REV0 v8_Sketch1
  6
ByLayer
 62
  256
370
   -1
100
AcDbLine
 10
1.5
 20
5.5
 11
12
 21
5.5
  0
LINE
  5
6B
100
AcDbEntity
  8
Cardboard Layout REV0 v8_Sketch1
  6
ByLayer
 62
  256
370
   -1
100
AcDbLine
 10
17.55389878675125
 20
15.14697469883127
 11
19.30389878675125
 21
15.14697469883127
  0
LINE
  5
6C
100
AcDbEntity
  8
Cardboard Layout REV0 v8_Sketch1
  6
ByLayer
 62
  256
370
   -1
100
AcDbLine
 10
15.44774274674247
 20
15.14697469883127
 11
17.19774274674247
 21
15.14697469883127
  0
LINE
  5
6D
100
AcDbEntity
  8
Cardboard Layout REV0 v8_Sketch1
  6
ByLayer
 62
  256
370
   -1
100
AcDbLine
 10
17.55389878675125
 20
13.89697469883127
 11
17.55389878675125
 21
15.14697469883127
  0
LINE
  5
6E
100
AcDbEntity
  8
Cardboard Layout REV0 v8_Sketch1
  6
ByLayer
 62
  256
370
   -1
100
AcDbLine
 10
21.40002551228381
 20
13.89697469883127
 11
19.6500255122838
 21
13.89697469883127
  0
LINE
  5
6F
100
AcDbEntity
  8
Cardboard Layout REV0 v8_Sketch1
  6
ByLayer
 62
  256
370
   -1
100
AcDbLine
 10
23.53053845887773
 20
15.14697469883127
 11
23.53053845887773
 21
13.89697469883127
  0
LINE
  5
70
100
AcDbEntity
  8
Cardboard Layout REV0 v8_Sketch1
  6
ByLayer
 62
  256
370
   -1
100
AcDbLine
 10
12
 20
13.49999999999999
 11
1.499999999999998
 21
13.49999999999999
  0
LINE
  5
71
100
AcDbEntity
  8
Cardboard Layout REV0 v8_Sketch1
  6
ByLayer
 62
  256
370
   -1
100
AcDbLine
 10
24.99999998498151
 20
0.9999999849815067
 11
24.99999998498151
 21
4.499999984981506
  0
LINE
  5
72
100
AcDbEntity
  8
Cardboard Layout REV0 v8_Sketch1
  6
ByLayer
 62
  256
370
   -1
100
AcDbLine
 10
23.53053845887773
 20
13.89697469883127
 11
21.78053845887772
 21
13.89697469883127
  0
LINE
  5
73
100
AcDbEntity
  8
Cardboard Layout REV0 v8_Sketch1
  6
ByLayer
 62
  256
370
   -1
100
AcDbLine
 10
0.9999999849815067
 20
0.9999999849815067
 11
24.99999998498151
 21
0.9999999849815067
  0
LINE
  5
74
100
AcDbEntity
  8
Cardboard Layout REV0 v8_Sketch1
  6
ByLayer
 62
  256
370
   -1
100
AcDbLine
 10
0
 20
47.99999999999999
 11
0
 21
0
  0
LINE
  5
75
100
AcDbEntity
  8
Cardboard Layout REV0 v8_Sketch1
  6
ByLayer
 62
  256
370
   -1
100
AcDbLine
 10
46
 20
45.99999999999999
 11
34
 21
45.99999999999999
  0
LINE
  5
76
100
AcDbEntity
  8
Cardboard Layout REV0 v8_Sketch1
  6
ByLayer
 62
  256
370
   -1
100
AcDbLine
 10
34
 20
37.99999999999999
 11
46
 21
37.99999999999999
  0
LINE
  5
77
100
AcDbEntity
  8
Cardboard Layout REV0 v8_Sketch1
  6
ByLayer
 62
  256
370
   -1
100
AcDbLine
 10
46
 20
1.999999999999999
 11
46
 21
10.8
  0
LINE
  5
78
100
AcDbEntity
  8
Cardboard Layout REV0 v8_Sketch1
  6
ByLayer
 62
  256
370
   -1
100
AcDbLine
 10
46
 20
10.8
 11
28.25
 21
10.8
  0
LINE
  5
79
100
AcDbEntity
  8
Cardboard Layout REV0 v8_Sketch1
  6
ByLayer
 62
  256
370
   -1
100
AcDbLine
 10
17.19774274674247
 20
13.89697469883127
 11
15.44774274674247
 21
13.89697469883127
  0
LINE
  5
7A
100
AcDbEntity
  8
Cardboard Layout REV0 v8_Sketch1
  6
ByLayer
 62
  256
370
   -1
100
AcDbLine
 10
19.6500255122838
 20
13.89697469883127
 11
19.6500255122838
 21
15.14697469883127
  0
LINE
  5
7B
100
AcDbEntity
  8
Cardboard Layout REV0 v8_Sketch1
  6
ByLayer
 62
  256
370
   -1
100
AcDbLine
 10
21.78053845887772
 20
15.14697469883127
 11
23.53053845887773
 21
15.14697469883127
  0
LINE
  5
7C
100
AcDbEntity
  8
Cardboard Layout REV0 v8_Sketch1
  6
ByLayer
 62
  256
370
   -1
100
AcDbLine
 10
15.45601775175289
 20
21.66143266275376
 11
17.20601775175289
 21
21.66143266275376
  0
LINE
  5
7D
100
AcDbEntity
  8
Cardboard Layout REV0 v8_Sketch1
  6
ByLayer
 62
  256
370
   -1
100
AcDbLine
 10
34
 20
45.99999999999999
 11
34
 21
38
  0
LINE
  5
7E
100
AcDbEntity
  8
Cardboard Layout REV0 v8_Sketch1
  6
ByLayer
 62
  256
370
   -1
100
AcDbLine
 10
21.40002551228381
 20
15.14697469883127
 11
21.40002551228381
 21
13.89697469883127
  0
LINE
  5
7F
100
AcDbEntity
  8
Cardboard Layout REV0 v8_Sketch1
  6
ByLayer
 62
  256
370
   -1
100
AcDbLine
 10
0
 20
0
 11
48
 21
0
  0
LINE
  5
80
100
AcDbEntity
  8
Cardboard Layout REV0 v8_Sketch1
  6
ByLayer
 62
  256
370
   -1
100
AcDbLine
 10
0.9999999849815067
 20
4.499999984981506
 11
0.9999999849815067
 21
0.9999999849815068
  0
LINE
  5
81
100
AcDbEntity
  8
Cardboard Layout REV0 v8_Sketch1
  6
ByLayer
 62
  256
370
   -1
100
AcDbLine
 10
17.20601775175289
 20
21.66143266275376
 11
17.20601775175289
 21
20.41143266275376
  0
LINE
  5
82
100
AcDbEntity
  8
Cardboard Layout REV0 v8_Sketch1
  6
ByLayer
 62
  256
370
   -1
100
AcDbLine
 10
15.44774274674247
 20
13.89697469883127
 11
15.44774274674247
 21
15.14697469883127
  0
LINE
  5
83
100
AcDbEntity
  8
Cardboard Layout REV0 v8_Sketch1
  6
ByLayer
 62
  256
370
   -1
100
AcDbLine
 10
28.25
 20
1.999999999999999
 11
46
 21
1.999999999999999
  0
LINE
  5
84
100
AcDbEntity
  8
Cardboard Layout REV0 v8_Sketch1
  6
ByLayer
 62
  256
370
   -1
100
AcDbLine
 10
19.6500255122838
 20
15.14697469883127
 11
21.40002551228381
 21
15.14697469883127
  0
LINE
  5
85
100
AcDbEntity
  8
Cardboard Layout REV0 v8_Sketch1
  6
ByLayer
 62
  256
370
   -1
100
AcDbLine
 10
21.78053845887772
 20
13.89697469883127
 11
21.78053845887772
 21
15.14697469883127
  0
LINE
  5
86
100
AcDbEntity
  8
Cardboard Layout REV0 v8_Sketch1
  6
ByLayer
 62
  256
370
   -1
100
AcDbLine
 10
15.45601775175289
 20
20.41143266275377
 11
15.45601775175289
 21
21.66143266275377
  0
LINE
  5
87
100
AcDbEntity
  8
Cardboard Layout REV0 v8_Sketch1
  6
ByLayer
 62
  256
370
   -1
100
AcDbLine
 10
12
 20
5.5
 11
12
 21
13.49999999999999
  0
LINE
  5
88
100
AcDbEntity
  8
Cardboard Layout REV0 v8_Sketch1
  6
ByLayer
 62
  256
370
   -1
100
AcDbLine
 10
24.99999998498151
 20
4.499999984981506
 11
0.9999999849815033
 21
4.499999984981506
  0
LINE
  5
89
100
AcDbEntity
  8
Cardboard Layout REV0 v8_Sketch1
  6
ByLayer
 62
  256
370
   -1
100
AcDbLine
 10
17.20601775175289
 20
20.41143266275377
 11
15.4560177517529
 21
20.41143266275377
  0
LINE
  5
8A
100
AcDbEntity
  8
Cardboard Layout REV0 v8_Sketch1
  6
ByLayer
 62
  256
370
   -1
100
AcDbLine
 10
17.56719320603419
 20
21.66143266275376
 11
19.3171932060342
 21
21.66143266275376
  0
LINE
  5
8B
100
AcDbEntity
  8
Cardboard Layout REV0 v8_Sketch1
  6
ByLayer
 62
  256
370
   -1
100
AcDbLine
 10
28.25
 20
10.8
 11
28.25
 21
2
  0
LINE
  5
8C
100
AcDbEntity
  8
Cardboard Layout REV0 v8_Sketch1
  6
ByLayer
 62
  256
370
   -1
100
AcDbLine
 10
8.171739062997023
 20
36.59246535231299
 11
8.171739062997023
 21
35.34246535231299
  0
LINE
  5
8D
100
AcDbEntity
  8
Cardboard Layout REV0 v8_Sketch1
  6
ByLayer
 62
  256
370
   -1
100
AcDbLine
 10
6.421739062997023
 20
37.61646355349415
 11
6.421739062997023
 21
39.36646355349414
  0
LINE
  5
8E
100
AcDbEntity
  8
Cardboard Layout REV0 v8_Sketch1
  6
ByLayer
 62
  256
370
   -1
100
AcDbLine
 10
19.65688210029357
 20
20.41143266275377
 11
19.65688210029357
 21
21.66143266275377
  0
LINE
  5
8F
100
AcDbEntity
  8
Cardboard Layout REV0 v8_Sketch1
  6
ByLayer
 62
  256
370
   -1
100
AcDbLine
 10
3.350999963950289
 20
39.68989442257625
 11
4.60099996395029
 21
39.68989442257625
  0
LINE
  5
90
100
AcDbEntity
  8
Cardboard Layout REV0 v8_Sketch1
  6
ByLayer
 62
  256
370
   -1
100
AcDbLine
 10
15.50909314392396
 20
44.3000014138034
 11
13.75909314392396
 21
44.3000014138034
  0
LINE
  5
91
100
AcDbEntity
  8
Cardboard Layout REV0 v8_Sketch1
  6
ByLayer
 62
  256
370
   -1
100
AcDbLine
 10
21.40688210029357
 20
20.41143266275377
 11
19.65688210029357
 21
20.41143266275377
  0
LINE
  5
92
100
AcDbEntity
  8
Cardboard Layout REV0 v8_Sketch1
  6
ByLayer
 62
  256
370
   -1
100
AcDbLine
 10
8.74966204500387
 20
45.55000141380339
 11
10.49966204500387
 21
45.55000141380339
  0
LINE
  5
93
100
AcDbEntity
  8
Cardboard Layout REV0 v8_Sketch1
  6
ByLayer
 62
  256
370
   -1
100
AcDbLine
 10
21.40688210029357
 20
21.66143266275376
 11
21.40688210029357
 21
20.41143266275376
  0
LINE
  5
94
100
AcDbEntity
  8
Cardboard Layout REV0 v8_Sketch1
  6
ByLayer
 62
  256
370
   -1
100
AcDbLine
 10
15.95000056488307
 20
44.3000014138034
 11
15.95000056488307
 21
45.5500014138034
  0
LINE
  5
95
100
AcDbEntity
  8
Cardboard Layout REV0 v8_Sketch1
  6
ByLayer
 62
  256
370
   -1
100
AcDbLine
 10
23.49798408977441
 20
20.41143266275377
 11
21.74798408977441
 21
20.41143266275377
  0
LINE
  5
96
100
AcDbEntity
  8
Cardboard Layout REV0 v8_Sketch1
  6
ByLayer
 62
  256
370
   -1
100
AcDbLine
 10
14.78833903831822
 20
36.59246535231299
 11
14.78833903831822
 21
35.34246535231299
  0
LINE
  5
97
100
AcDbEntity
  8
Cardboard Layout REV0 v8_Sketch1
  6
ByLayer
 62
  256
370
   -1
100
AcDbLine
 10
19.65688210029357
 20
21.66143266275376
 11
21.40688210029357
 21
21.66143266275376
  0
LINE
  5
98
100
AcDbEntity
  8
Cardboard Layout REV0 v8_Sketch1
  6
ByLayer
 62
  256
370
   -1
100
AcDbLine
 10
7.671739062997024
 20
41.88068087541544
 11
7.671739062997024
 21
40.13068087541544
  0
LINE
  5
99
100
AcDbEntity
  8
Cardboard Layout REV0 v8_Sketch1
  6
ByLayer
 62
  256
370
   -1
100
AcDbLine
 10
19.3171932060342
 20
21.66143266275376
 11
19.3171932060342
 21
20.41143266275376
  0
LINE
  5
9A
100
AcDbEntity
  8
Cardboard Layout REV0 v8_Sketch1
  6
ByLayer
 62
  256
370
   -1
100
AcDbLine
 10
6.421739062997023
 20
40.13068087541544
 11
6.421739062997023
 21
41.88068087541544
  0
LINE
  5
9B
100
AcDbEntity
  8
Cardboard Layout REV0 v8_Sketch1
  6
ByLayer
 62
  256
370
   -1
100
AcDbLine
 10
4.60099996395029
 20
37.93989442257625
 11
3.35099996395029
 21
37.93989442257625
  0
LINE
  5
9C
100
AcDbEntity
  8
Cardboard Layout REV0 v8_Sketch1
  6
ByLayer
 62
  256
370
   -1
100
AcDbLine
 10
6.421739062997023
 20
41.88068087541544
 11
7.671739062997023
 21
41.88068087541544
  0
LINE
  5
9D
100
AcDbEntity
  8
Cardboard Layout REV0 v8_Sketch1
  6
ByLayer
 62
  256
370
   -1
100
AcDbLine
 10
11.50000036701442
 20
45.55000141380339
 11
13.25000036701442
 21
45.55000141380339
  0
LINE
  5
9E
100
AcDbEntity
  8
Cardboard Layout REV0 v8_Sketch1
  6
ByLayer
 62
  256
370
   -1
100
AcDbLine
 10
13.25000036701442
 20
45.55000141380339
 11
13.25000036701442
 21
44.30000141380339
  0
LINE
  5
9F
100
AcDbEntity
  8
Cardboard Layout REV0 v8_Sketch1
  6
ByLayer
 62
  256
370
   -1
100
AcDbLine
 10
13.25000036701442
 20
44.3000014138034
 11
11.50000036701442
 21
44.3000014138034
  0
LINE
  5
A0
100
AcDbEntity
  8
Cardboard Layout REV0 v8_Sketch1
  6
ByLayer
 62
  256
370
   -1
100
AcDbLine
 10
8.649135436906702
 20
35.34246535231299
 11
8.649135436906702
 21
36.59246535231299
  0
LINE
  5
A1
100
AcDbEntity
  8
Cardboard Layout REV0 v8_Sketch1
  6
ByLayer
 62
  256
370
   -1
100
AcDbLine
 10
3.350999963950289
 20
37.93989442257625
 11
3.350999963950289
 21
39.68989442257625
  0
LINE
  5
A2
100
AcDbEntity
  8
Cardboard Layout REV0 v8_Sketch1
  6
ByLayer
 62
  256
370
   -1
100
AcDbLine
 10
12.5889245143653
 20
36.59246535231299
 11
12.5889245143653
 21
35.34246535231299
  0
LINE
  5
A3
100
AcDbEntity
  8
Cardboard Layout REV0 v8_Sketch1
  6
ByLayer
 62
  256
370
   -1
100
AcDbLine
 10
10.8389245143653
 20
36.59246535231299
 11
12.5889245143653
 21
36.59246535231299
  0
LINE
  5
A4
100
AcDbEntity
  8
Cardboard Layout REV0 v8_Sketch1
  6
ByLayer
 62
  256
370
   -1
100
AcDbLine
 10
3.350999963950289
 20
41.9905253215188
 11
4.60099996395029
 21
41.9905253215188
  0
LINE
  5
A5
100
AcDbEntity
  8
Cardboard Layout REV0 v8_Sketch1
  6
ByLayer
 62
  256
370
   -1
100
AcDbLine
 10
6.421739062997023
 20
35.34246535231299
 11
6.421739062997023
 21
36.59246535231299
  0
LINE
  5
A6
100
AcDbEntity
  8
Cardboard Layout REV0 v8_Sketch1
  6
ByLayer
 62
  256
370
   -1
100
AcDbLine
 10
8.171739062997023
 20
35.34246535231299
 11
6.421739062997023
 21
35.34246535231299
  0
LINE
  5
A7
100
AcDbEntity
  8
Cardboard Layout REV0 v8_Sketch1
  6
ByLayer
 62
  256
370
   -1
100
AcDbLine
 10
4.60099996395029
 20
40.2405253215188
 11
3.35099996395029
 21
40.2405253215188
  0
LINE
  5
A8
100
AcDbEntity
  8
Cardboard Layout REV0 v8_Sketch1
  6
ByLayer
 62
  256
370
   -1
100
AcDbLine
 10
10.8389245143653
 20
35.34246535231299
 11
10.8389245143653
 21
36.59246535231299
  0
LINE
  5
A9
100
AcDbEntity
  8
Cardboard Layout REV0 v8_Sketch1
  6
ByLayer
 62
  256
370
   -1
100
AcDbLine
 10
10.3991354369067
 20
36.59246535231299
 11
10.3991354369067
 21
35.34246535231299
  0
LINE
  5
AA
100
AcDbEntity
  8
Cardboard Layout REV0 v8_Sketch1
  6
ByLayer
 62
  256
370
   -1
100
AcDbLine
 10
13.03833903831822
 20
36.59246535231299
 11
14.78833903831822
 21
36.59246535231299
  0
LINE
  5
AB
100
AcDbEntity
  8
Cardboard Layout REV0 v8_Sketch1
  6
ByLayer
 62
  256
370
   -1
100
AcDbLine
 10
14.78833903831822
 20
35.34246535231299
 11
13.03833903831822
 21
35.34246535231299
  0
LINE
  5
AC
100
AcDbEntity
  8
Cardboard Layout REV0 v8_Sketch1
  6
ByLayer
 62
  256
370
   -1
100
AcDbLine
 10
4.60099996395029
 20
35.64197573217946
 11
3.35099996395029
 21
35.64197573217946
  0
LINE
  5
AD
100
AcDbEntity
  8
Cardboard Layout REV0 v8_Sketch1
  6
ByLayer
 62
  256
370
   -1
100
AcDbLine
 10
3.350999963950289
 20
35.64197573217946
 11
3.350999963950289
 21
37.39197573217945
  0
LINE
  5
AE
100
AcDbEntity
  8
Cardboard Layout REV0 v8_Sketch1
  6
ByLayer
 62
  256
370
   -1
100
AcDbLine
 10
7.671739062997024
 20
37.61646355349415
 11
6.421739062997024
 21
37.61646355349415
  0
LINE
  5
AF
100
AcDbEntity
  8
Cardboard Layout REV0 v8_Sketch1
  6
ByLayer
 62
  256
370
   -1
100
AcDbLine
 10
4.60099996395029
 20
39.68989442257625
 11
4.60099996395029
 21
37.93989442257625
  0
LINE
  5
B0
100
AcDbEntity
  8
Cardboard Layout REV0 v8_Sketch1
  6
ByLayer
 62
  256
370
   -1
100
AcDbLine
 10
6.421739062997023
 20
36.59246535231299
 11
8.171739062997023
 21
36.59246535231299
  0
LINE
  5
B1
100
AcDbEntity
  8
Cardboard Layout REV0 v8_Sketch1
  6
ByLayer
 62
  256
370
   -1
100
AcDbLine
 10
17.56719320603419
 20
20.41143266275377
 11
17.56719320603419
 21
21.66143266275377
  0
LINE
  5
B2
100
AcDbEntity
  8
Cardboard Layout REV0 v8_Sketch1
  6
ByLayer
 62
  256
370
   -1
100
AcDbLine
 10
10.3991354369067
 20
35.34246535231299
 11
8.649135436906702
 21
35.34246535231299
  0
LINE
  5
B3
100
AcDbEntity
  8
Cardboard Layout REV0 v8_Sketch1
  6
ByLayer
 62
  256
370
   -1
100
AcDbLine
 10
10.49966204500387
 20
45.55000141380339
 11
10.49966204500387
 21
44.30000141380339
  0
LINE
  5
B4
100
AcDbEntity
  8
Cardboard Layout REV0 v8_Sketch1
  6
ByLayer
 62
  256
370
   -1
100
AcDbLine
 10
17.70000056488307
 20
45.55000141380339
 11
17.70000056488307
 21
44.30000141380339
  0
LINE
  5
B5
100
AcDbEntity
  8
Cardboard Layout REV0 v8_Sketch1
  6
ByLayer
 62
  256
370
   -1
100
AcDbLine
 10
6.421739062997023
 20
39.36646355349414
 11
7.671739062997023
 21
39.36646355349414
  0
LINE
  5
B6
100
AcDbEntity
  8
Cardboard Layout REV0 v8_Sketch1
  6
ByLayer
 62
  256
370
   -1
100
AcDbLine
 10
4.60099996395029
 20
37.39197573217945
 11
4.60099996395029
 21
35.64197573217946
  0
LINE
  5
B7
100
AcDbEntity
  8
Cardboard Layout REV0 v8_Sketch1
  6
ByLayer
 62
  256
370
   -1
100
AcDbLine
 10
7.671739062997024
 20
40.13068087541544
 11
6.421739062997024
 21
40.13068087541544
  0
LINE
  5
B8
100
AcDbEntity
  8
Cardboard Layout REV0 v8_Sketch1
  6
ByLayer
 62
  256
370
   -1
100
AcDbLine
 10
8.74966204500387
 20
44.3000014138034
 11
8.74966204500387
 21
45.5500014138034
  0
LINE
  5
B9
100
AcDbEntity
  8
Cardboard Layout REV0 v8_Sketch1
  6
ByLayer
 62
  256
370
   -1
100
AcDbLine
 10
10.49966204500387
 20
44.3000014138034
 11
8.74966204500387
 21
44.3000014138034
  0
LINE
  5
BA
100
AcDbEntity
  8
Cardboard Layout REV0 v8_Sketch1
  6
ByLayer
 62
  256
370
   -1
100
AcDbLine
 10
3.350999963950289
 20
37.39197573217945
 11
4.60099996395029
 21
37.39197573217945
  0
LINE
  5
BB
100
AcDbEntity
  8
Cardboard Layout REV0 v8_Sketch1
  6
ByLayer
 62
  256
370
   -1
100
AcDbLine
 10
7.671739062997024
 20
39.36646355349414
 11
7.671739062997024
 21
37.61646355349415
  0
LINE
  5
BC
100
AcDbEntity
  8
Cardboard Layout REV0 v8_Sketch1
  6
ByLayer
 62
  256
370
   -1
100
AcDbLine
 10
3.350999963950289
 20
40.2405253215188
 11
3.350999963950289
 21
41.99052532151879
  0
LINE
  5
BD
100
AcDbEntity
  8
Cardboard Layout REV0 v8_Sketch1
  6
ByLayer
 62
  256
370
   -1
100
AcDbLine
 10
17.70000056488307
 20
44.3000014138034
 11
15.95000056488307
 21
44.3000014138034
  0
LINE
  5
BE
100
AcDbEntity
  8
Cardboard Layout REV0 v8_Sketch1
  6
ByLayer
 62
  256
370
   -1
100
AcDbLine
 10
12.5889245143653
 20
35.34246535231299
 11
10.8389245143653
 21
35.34246535231299
  0
LINE
  5
BF
100
AcDbEntity
  8
Cardboard Layout REV0 v8_Sketch1
  6
ByLayer
 62
  256
370
   -1
100
AcDbLine
 10
19.3171932060342
 20
20.41143266275377
 11
17.56719320603419
 21
20.41143266275377
  0
LINE
  5
C0
100
AcDbEntity
  8
Cardboard Layout REV0 v8_Sketch1
  6
ByLayer
 62
  256
370
   -1
100
AcDbLine
 10
23.49798408977441
 20
21.66143266275376
 11
23.49798408977441
 21
20.41143266275376
  0
LINE
  5
C1
100
AcDbEntity
  8
Cardboard Layout REV0 v8_Sketch1
  6
ByLayer
 62
  256
370
   -1
100
AcDbLine
 10
21.74798408977441
 20
20.41143266275377
 11
21.74798408977441
 21
21.66143266275377
  0
LINE
  5
C2
100
AcDbEntity
  8
Cardboard Layout REV0 v8_Sketch1
  6
ByLayer
 62
  256
370
   -1
100
AcDbLine
 10
13.03833903831822
 20
35.34246535231299
 11
13.03833903831822
 21
36.59246535231299
  0
LINE
  5
C3
100
AcDbEntity
  8
Cardboard Layout REV0 v8_Sketch1
  6
ByLayer
 62
  256
370
   -1
100
AcDbLine
 10
8.649135436906702
 20
36.59246535231299
 11
10.3991354369067
 21
36.59246535231299
  0
LINE
  5
C4
100
AcDbEntity
  8
Cardboard Layout REV0 v8_Sketch1
  6
ByLayer
 62
  256
370
   -1
100
AcDbLine
 10
21.74798408977441
 20
21.66143266275376
 11
23.49798408977441
 21
21.66143266275376
  0
LINE
  5
C5
100
AcDbEntity
  8
Cardboard Layout REV0 v8_Sketch1
  6
ByLayer
 62
  256
370
   -1
100
AcDbLine
 10
13.75909314392396
 20
45.55000141380339
 11
15.50909314392396
 21
45.55000141380339
  0
LINE
  5
C6
100
AcDbEntity
  8
Cardboard Layout REV0 v8_Sketch1
  6
ByLayer
 62
  256
370
   -1
100
AcDbLine
 10
15.50909314392396
 20
45.55000141380339
 11
15.50909314392396
 21
44.30000141380339
  0
LINE
  5
C7
100
AcDbEntity
  8
Cardboard Layout REV0 v8_Sketch1
  6
ByLayer
 62
  256
370
   -1
100
AcDbLine
 10
13.75909314392396
 20
44.3000014138034
 11
13.75909314392396
 21
45.5500014138034
  0
LINE
  5
C8
100
AcDbEntity
  8
Cardboard Layout REV0 v8_Sketch1
  6
ByLayer
 62
  256
370
   -1
100
AcDbLine
 10
11.50000036701442
 20
44.3000014138034
 11
11.50000036701442
 21
45.5500014138034
  0
LINE
  5
C9
100
AcDbEntity
  8
Cardboard Layout REV0 v8_Sketch1
  6
ByLayer
 62
  256
370
   -1
100
AcDbLine
 10
4.60099996395029
 20
41.9905253215188
 11
4.60099996395029
 21
40.2405253215188
  0
LINE
  5
CA
100
AcDbEntity
  8
Cardboard Layout REV0 v8_Sketch1
  6
ByLayer
 62
  256
370
   -1
100
AcDbLine
 10
15.95000056488307
 20
45.55000141380339
 11
17.70000056488307
 21
45.55000141380339
  0
LINE
  5
CB
100
AcDbEntity
  8
Cardboard Layout REV0 v8_Sketch1
  6
ByLayer
 62
  256
370
   -1
100
AcDbLine
 10
46.57182221578247
 20
13.05320434661966
 11
35.57182221578248
 21
13.05320434661966
  0
LINE
  5
CC
100
AcDbEntity
  8
Cardboard Layout REV0 v8_Sketch1
  6
ByLayer
 62
  256
370
   -1
100
AcDbLine
 10
21.40688210029357
 20
23.41143266275377
 11
19.65688210029357
 21
23.41143266275377
  0
LINE
  5
CD
100
AcDbEntity
  8
Cardboard Layout REV0 v8_Sketch1
  6
ByLayer
 62
  256
370
   -1
100
AcDbLine
 10
41.09846285741784
 20
31.51576305218204
 11
46.59846285741783
 21
31.51576305218204
  0
LINE
  5
CE
100
AcDbEntity
  8
Cardboard Layout REV0 v8_Sketch1
  6
ByLayer
 62
  256
370
   -1
100
AcDbLine
 10
17.56719320603419
 20
24.66143266275377
 11
19.3171932060342
 21
24.66143266275377
  0
LINE
  5
CF
100
AcDbEntity
  8
Cardboard Layout REV0 v8_Sketch1
  6
ByLayer
 62
  256
370
   -1
100
AcDbLine
 10
35.10465776897296
 20
31.24400746383271
 11
29.60465776897296
 21
31.24400746383271
  0
LINE
  5
D0
100
AcDbEntity
  8
Cardboard Layout REV0 v8_Sketch1
  6
ByLayer
 62
  256
370
   -1
100
AcDbLine
 10
24.5804003781183
 20
45.55000141380339
 11
26.3304003781183
 21
45.55000141380339
  0
LINE
  5
D1
100
AcDbEntity
  8
Cardboard Layout REV0 v8_Sketch1
  6
ByLayer
 62
  256
370
   -1
100
AcDbLine
 10
20.5161138326789
 20
44.3000014138034
 11
18.7661138326789
 21
44.3000014138034
  0
LINE
  5
D2
100
AcDbEntity
  8
Cardboard Layout REV0 v8_Sketch1
  6
ByLayer
 62
  256
370
   -1
100
AcDbLine
 10
35.57182221578248
 20
17.06846443642802
 11
35.57182221578248
 21
18.06846443642802
  0
LINE
  5
D3
100
AcDbEntity
  8
Cardboard Layout REV0 v8_Sketch1
  6
ByLayer
 62
  256
370
   -1
100
AcDbLine
 10
46.57182221578247
 20
18.06846443642802
 11
46.57182221578247
 21
17.06846443642802
  0
LINE
  5
D4
100
AcDbEntity
  8
Cardboard Layout REV0 v8_Sketch1
  6
ByLayer
 62
  256
370
   -1
100
AcDbLine
 10
23.53053845887773
 20
18.14697469883127
 11
23.53053845887773
 21
16.89697469883127
  0
LINE
  5
D5
100
AcDbEntity
  8
Cardboard Layout REV0 v8_Sketch1
  6
ByLayer
 62
  256
370
   -1
100
AcDbLine
 10
17.56719320603419
 20
23.41143266275377
 11
17.56719320603419
 21
24.66143266275377
  0
LINE
  5
D6
100
AcDbEntity
  8
Cardboard Layout REV0 v8_Sketch1
  6
ByLayer
 62
  256
370
   -1
100
AcDbLine
 10
26.33040037811829
 20
45.55000141380339
 11
26.33040037811829
 21
44.30000141380339
  0
LINE
  5
D7
100
AcDbEntity
  8
Cardboard Layout REV0 v8_Sketch1
  6
ByLayer
 62
  256
370
   -1
100
AcDbLine
 10
23.39719354807109
 20
44.3000014138034
 11
21.64719354807109
 21
44.3000014138034
  0
LINE
  5
D8
100
AcDbEntity
  8
Cardboard Layout REV0 v8_Sketch1
  6
ByLayer
 62
  256
370
   -1
100
AcDbLine
 10
46.57182221578247
 20
19.99999971464863
 11
46.57182221578247
 21
18.99999971464863
  0
LINE
  5
D9
100
AcDbEntity
  8
Cardboard Layout REV0 v8_Sketch1
  6
ByLayer
 62
  256
370
   -1
100
AcDbLine
 10
20.5161138326789
 20
45.55000141380339
 11
20.5161138326789
 21
44.30000141380339
  0
LINE
  5
DA
100
AcDbEntity
  8
Cardboard Layout REV0 v8_Sketch1
  6
ByLayer
 62
  256
370
   -1
100
AcDbLine
 10
35.57182221578248
 20
16.04614819152843
 11
46.57182221578248
 21
16.04614819152843
  0
LINE
  5
DB
100
AcDbEntity
  8
Cardboard Layout REV0 v8_Sketch1
  6
ByLayer
 62
  256
370
   -1
100
AcDbLine
 10
46.57182221578247
 20
14.05320434661965
 11
46.57182221578247
 21
13.05320434661965
  0
LINE
  5
DC
100
AcDbEntity
  8
Cardboard Layout REV0 v8_Sketch1
  6
ByLayer
 62
  256
370
   -1
100
AcDbLine
 10
46.59846285741783
 20
27.01576305218204
 11
41.09846285741784
 21
27.01576305218204
  0
LINE
  5
DD
100
AcDbEntity
  8
Cardboard Layout REV0 v8_Sketch1
  6
ByLayer
 62
  256
370
   -1
100
AcDbLine
 10
29.60465776897296
 20
31.24400746383271
 11
29.60465776897296
 21
33.9940074638327
  0
LINE
  5
DE
100
AcDbEntity
  8
Cardboard Layout REV0 v8_Sketch1
  6
ByLayer
 62
  256
370
   -1
100
AcDbLine
 10
18.7661138326789
 20
45.55000141380339
 11
20.5161138326789
 21
45.55000141380339
  0
LINE
  5
DF
100
AcDbEntity
  8
Cardboard Layout REV0 v8_Sketch1
  6
ByLayer
 62
  256
370
   -1
100
AcDbLine
 10
18.7661138326789
 20
44.3000014138034
 11
18.7661138326789
 21
45.5500014138034
  0
LINE
  5
E0
100
AcDbEntity
  8
Cardboard Layout REV0 v8_Sketch1
  6
ByLayer
 62
  256
370
   -1
100
AcDbLine
 10
21.64719354807109
 20
45.55000141380339
 11
23.39719354807109
 21
45.55000141380339
  0
LINE
  5
E1
100
AcDbEntity
  8
Cardboard Layout REV0 v8_Sketch1
  6
ByLayer
 62
  256
370
   -1
100
AcDbLine
 10
23.39719354807109
 20
45.55000141380339
 11
23.39719354807109
 21
44.30000141380339
  0
LINE
  5
E2
100
AcDbEntity
  8
Cardboard Layout REV0 v8_Sketch1
  6
ByLayer
 62
  256
370
   -1
100
AcDbLine
 10
35.57182221578248
 20
18.99999971464863
 11
35.57182221578248
 21
19.99999971464863
  0
LINE
  5
E3
100
AcDbEntity
  8
Cardboard Layout REV0 v8_Sketch1
  6
ByLayer
 62
  256
370
   -1
100
AcDbLine
 10
41.09846285741784
 20
27.01576305218204
 11
41.09846285741784
 21
31.51576305218204
  0
LINE
  5
E4
100
AcDbEntity
  8
Cardboard Layout REV0 v8_Sketch1
  6
ByLayer
 62
  256
370
   -1
100
AcDbLine
 10
15.44774274674247
 20
18.14697469883127
 11
17.19774274674247
 21
18.14697469883127
  0
LINE
  5
E5
100
AcDbEntity
  8
Cardboard Layout REV0 v8_Sketch1
  6
ByLayer
 62
  256
370
   -1
100
AcDbLine
 10
24.5804003781183
 20
44.3000014138034
 11
24.5804003781183
 21
45.5500014138034
  0
LINE
  5
E6
100
AcDbEntity
  8
Cardboard Layout REV0 v8_Sketch1
  6
ByLayer
 62
  256
370
   -1
100
AcDbLine
 10
19.6500255122838
 20
16.89697469883127
 11
19.6500255122838
 21
18.14697469883127
  0
LINE
  5
E7
100
AcDbEntity
  8
Cardboard Layout REV0 v8_Sketch1
  6
ByLayer
 62
  256
370
   -1
100
AcDbLine
 10
21.40002551228381
 20
18.14697469883127
 11
21.40002551228381
 21
16.89697469883127
  0
LINE
  5
E8
100
AcDbEntity
  8
Cardboard Layout REV0 v8_Sketch1
  6
ByLayer
 62
  256
370
   -1
100
AcDbLine
 10
26.33040037811829
 20
44.3000014138034
 11
24.58040037811829
 21
44.3000014138034
  0
LINE
  5
E9
100
AcDbEntity
  8
Cardboard Layout REV0 v8_Sketch1
  6
ByLayer
 62
  256
370
   -1
100
AcDbLine
 10
23.53053845887773
 20
16.89697469883127
 11
21.78053845887772
 21
16.89697469883127
  0
LINE
  5
EA
100
AcDbEntity
  8
Cardboard Layout REV0 v8_Sketch1
  6
ByLayer
 62
  256
370
   -1
100
AcDbLine
 10
46.57182221578247
 20
18.99999971464863
 11
35.57182221578248
 21
18.99999971464863
  0
LINE
  5
EB
100
AcDbEntity
  8
Cardboard Layout REV0 v8_Sketch1
  6
ByLayer
 62
  256
370
   -1
100
AcDbLine
 10
17.55389878675125
 20
16.89697469883127
 11
17.55389878675125
 21
18.14697469883127
  0
LINE
  5
EC
100
AcDbEntity
  8
Cardboard Layout REV0 v8_Sketch1
  6
ByLayer
 62
  256
370
   -1
100
AcDbLine
 10
17.19774274674247
 20
18.14697469883127
 11
17.19774274674247
 21
16.89697469883127
  0
LINE
  5
ED
100
AcDbEntity
  8
Cardboard Layout REV0 v8_Sketch1
  6
ByLayer
 62
  256
370
   -1
100
AcDbLine
 10
19.30389878675125
 20
16.89697469883127
 11
17.55389878675125
 21
16.89697469883127
  0
LINE
  5
EE
100
AcDbEntity
  8
Cardboard Layout REV0 v8_Sketch1
  6
ByLayer
 62
  256
370
   -1
100
AcDbLine
 10
46.57182221578247
 20
17.06846443642802
 11
35.57182221578248
 21
17.06846443642802
  0
LINE
  5
EF
100
AcDbEntity
  8
Cardboard Layout REV0 v8_Sketch1
  6
ByLayer
 62
  256
370
   -1
100
AcDbLine
 10
21.64719354807109
 20
44.3000014138034
 11
21.64719354807109
 21
45.5500014138034
  0
LINE
  5
F0
100
AcDbEntity
  8
Cardboard Layout REV0 v8_Sketch1
  6
ByLayer
 62
  256
370
   -1
100
AcDbLine
 10
46.57182221578247
 20
15.04614819152843
 11
35.57182221578248
 21
15.04614819152843
  0
LINE
  5
F1
100
AcDbEntity
  8
Cardboard Layout REV0 v8_Sketch1
  6
ByLayer
 62
  256
370
   -1
100
AcDbLine
 10
35.57182221578248
 20
15.04614819152843
 11
35.57182221578248
 21
16.04614819152843
  0
LINE
  5
F2
100
AcDbEntity
  8
Cardboard Layout REV0 v8_Sketch1
  6
ByLayer
 62
  256
370
   -1
100
AcDbLine
 10
29.60465776897296
 20
33.99400746383271
 11
35.10465776897296
 21
33.99400746383271
  0
LINE
  5
F3
100
AcDbEntity
  8
Cardboard Layout REV0 v8_Sketch1
  6
ByLayer
 62
  256
370
   -1
100
AcDbLine
 10
35.10465776897296
 20
33.99400746383271
 11
35.10465776897296
 21
31.24400746383271
  0
LINE
  5
F4
100
AcDbEntity
  8
Cardboard Layout REV0 v8_Sketch1
  6
ByLayer
 62
  256
370
   -1
100
AcDbLine
 10
35.57182221578248
 20
18.06846443642802
 11
46.57182221578248
 21
18.06846443642802
  0
LINE
  5
F5
100
AcDbEntity
  8
Cardboard Layout REV0 v8_Sketch1
  6
ByLayer
 62
  256
370
   -1
100
AcDbLine
 10
19.6500255122838
 20
18.14697469883127
 11
21.40002551228381
 21
18.14697469883127
  0
LINE
  5
F6
100
AcDbEntity
  8
Cardboard Layout REV0 v8_Sketch1
  6
ByLayer
 62
  256
370
   -1
100
AcDbLine
 10
17.19774274674247
 20
16.89697469883127
 11
15.44774274674247
 21
16.89697469883127
  0
LINE
  5
F7
100
AcDbEntity
  8
Cardboard Layout REV0 v8_Sketch1
  6
ByLayer
 62
  256
370
   -1
100
AcDbLine
 10
19.30389878675125
 20
18.14697469883127
 11
19.30389878675125
 21
16.89697469883127
  0
LINE
  5
F8
100
AcDbEntity
  8
Cardboard Layout REV0 v8_Sketch1
  6
ByLayer
 62
  256
370
   -1
100
AcDbLine
 10
21.78053845887772
 20
18.14697469883127
 11
23.53053845887773
 21
18.14697469883127
  0
LINE
  5
F9
100
AcDbEntity
  8
Cardboard Layout REV0 v8_Sketch1
  6
ByLayer
 62
  256
370
   -1
100
AcDbLine
 10
15.45601775175289
 20
24.66143266275377
 11
17.20601775175289
 21
24.66143266275377
  0
LINE
  5
FA
100
AcDbEntity
  8
Cardboard Layout REV0 v8_Sketch1
  6
ByLayer
 62
  256
370
   -1
100
AcDbLine
 10
15.45601775175289
 20
23.41143266275377
 11
15.45601775175289
 21
24.66143266275377
  0
LINE
  5
FB
100
AcDbEntity
  8
Cardboard Layout REV0 v8_Sketch1
  6
ByLayer
 62
  256
370
   -1
100
AcDbLine
 10
17.20601775175289
 20
24.66143266275377
 11
17.20601775175289
 21
23.41143266275377
  0
LINE
  5
FC
100
AcDbEntity
  8
Cardboard Layout REV0 v8_Sketch1
  6
ByLayer
 62
  256
370
   -1
100
AcDbLine
 10
19.3171932060342
 20
23.41143266275377
 11
17.56719320603419
 21
23.41143266275377
  0
LINE
  5
FD
100
AcDbEntity
  8
Cardboard Layout REV0 v8_Sketch1
  6
ByLayer
 62
  256
370
   -1
100
AcDbLine
 10
35.57182221578248
 20
19.99999971464863
 11
46.57182221578248
 21
19.99999971464863
  0
LINE
  5
FE
100
AcDbEntity
  8
Cardboard Layout REV0 v8_Sketch1
  6
ByLayer
 62
  256
370
   -1
100
AcDbLine
 10
35.57182221578248
 20
14.05320434661965
 11
46.57182221578248
 21
14.05320434661965
  0
LINE
  5
FF
100
AcDbEntity
  8
Cardboard Layout REV0 v8_Sketch1
  6
ByLayer
 62
  256
370
   -1
100
AcDbLine
 10
46.59846285741783
 20
31.51576305218204
 11
46.59846285741783
 21
27.01576305218204
  0
LINE
  5
100
100
AcDbEntity
  8
Cardboard Layout REV0 v8_Sketch1
  6
ByLayer
 62
  256
370
   -1
100
AcDbLine
 10
17.55389878675125
 20
18.14697469883127
 11
19.30389878675125
 21
18.14697469883127
  0
LINE
  5
101
100
AcDbEntity
  8
Cardboard Layout REV0 v8_Sketch1
  6
ByLayer
 62
  256
370
   -1
100
AcDbLine
 10
21.40002551228381
 20
16.89697469883127
 11
19.6500255122838
 21
16.89697469883127
  0
LINE
  5
102
100
AcDbEntity
  8
Cardboard Layout REV0 v8_Sketch1
  6
ByLayer
 62
  256
370
   -1
100
AcDbLine
 10
19.3171932060342
 20
24.66143266275377
 11
19.3171932060342
 21
23.41143266275377
  0
LINE
  5
103
100
AcDbEntity
  8
Cardboard Layout REV0 v8_Sketch1
  6
ByLayer
 62
  256
370
   -1
100
AcDbLine
 10
21.78053845887772
 20
16.89697469883127
 11
21.78053845887772
 21
18.14697469883127
  0
LINE
  5
104
100
AcDbEntity
  8
Cardboard Layout REV0 v8_Sketch1
  6
ByLayer
 62
  256
370
   -1
100
AcDbLine
 10
35.57182221578248
 20
13.05320434661966
 11
35.57182221578248
 21
14.05320434661965
  0
LINE
  5
105
100
AcDbEntity
  8
Cardboard Layout REV0 v8_Sketch1
  6
ByLayer
 62
  256
370
   -1
100
AcDbLine
 10
19.65688210029357
 20
24.66143266275377
 11
21.40688210029357
 21
24.66143266275377
  0
LINE
  5
106
100
AcDbEntity
  8
Cardboard Layout REV0 v8_Sketch1
  6
ByLayer
 62
  256
370
   -1
100
AcDbLine
 10
19.65688210029357
 20
23.41143266275377
 11
19.65688210029357
 21
24.66143266275377
  0
LINE
  5
107
100
AcDbEntity
  8
Cardboard Layout REV0 v8_Sketch1
  6
ByLayer
 62
  256
370
   -1
100
AcDbLine
 10
46.57182221578247
 20
16.04614819152843
 11
46.57182221578247
 21
15.04614819152843
  0
LINE
  5
108
100
AcDbEntity
  8
Cardboard Layout REV0 v8_Sketch1
  6
ByLayer
 62
  256
370
   -1
100
AcDbLine
 10
17.20601775175289
 20
23.41143266275377
 11
15.4560177517529
 21
23.41143266275376
  0
LINE
  5
109
100
AcDbEntity
  8
Cardboard Layout REV0 v8_Sketch1
  6
ByLayer
 62
  256
370
   -1
100
AcDbLine
 10
21.40688210029357
 20
24.66143266275377
 11
21.40688210029357
 21
23.41143266275377
  0
LINE
  5
10A
100
AcDbEntity
  8
Cardboard Layout REV0 v8_Sketch1
  6
ByLayer
 62
  256
370
   -1
100
AcDbLine
 10
15.44774274674247
 20
16.89697469883127
 11
15.44774274674247
 21
18.14697469883127
  0
LINE
  5
10B
100
AcDbEntity
  8
Cardboard Layout REV0 v8_Sketch1
  6
ByLayer
 62
  256
370
   -1
100
AcDbLine
 10
21.74798408977441
 20
23.41143266275377
 11
21.74798408977441
 21
24.66143266275377
  0
LINE
  5
10C
100
AcDbEntity
  8
Cardboard Layout REV0 v8_Sketch1
  6
ByLayer
 62
  256
370
   -1
100
AcDbLine
 10
21.74798408977441
 20
24.66143266275377
 11
23.49798408977441
 21
24.66143266275377
  0
LINE
  5
10D
100
AcDbEntity
  8
Cardboard Layout REV0 v8_Sketch1
  6
ByLayer
 62
  256
370
   -1
100
AcDbLine
 10
23.49798408977441
 20
24.66143266275377
 11
23.49798408977441
 21
23.41143266275377
  0
LINE
  5
10E
100
AcDbEntity
  8
Cardboard Layout REV0 v8_Sketch1
  6
ByLayer
 62
  256
370
   -1
100
AcDbLine
 10
23.49798408977441
 20
23.41143266275377
 11
21.74798408977441
 21
23.41143266275377
  0
POINT
  5
10F
100
AcDbEntity
  8
Cardboard Layout REV0 v8_Sketch4
  6
ByLayer
 62
  256
370
   -1
100
AcDbPoint
 10
0
 20
0
  0
POINT
  5
110
100
AcDbEntity
  8
0
  6
ByLayer
 62
  256
370
   -1
100
AcDbPoint
 10
0
 20
0
  0
POINT
  5
111
100
AcDbEntity
  8
Cardboard Layout REV0 v8_Sketch3
  6
ByLayer
 62
  256
370
   -1
100
AcDbPoint
 10
0
 20
0
  0
LINE
  5
112
100
AcDbEntity
  8
Cardboard Layout REV0 v8_Sketch3
  6
ByLayer
 62
  256
370
   -1
100
AcDbLine
 10
34.13156519164102
 20
21.91523898805618
 11
34.14607718155418
 21
13.21690834743613
  0
LINE
  5
113
100
AcDbEntity
  8
Cardboard Layout REV0 v8_Sketch3
  6
ByLayer
 62
  256
370
   -1
100
AcDbLine
 10
34.13882118659794
 20
17.56607366774615
 11
35.57182221578248
 21
17.56846443642802
  0
LINE
  5
114
100
AcDbEntity
  8
Cardboard Layout REV0 v8_Sketch3
  6
ByLayer
 62
  256
370
   -1
100
AcDbLine
 10
34.14219513873744
 20
15.54376305182852
 11
35.57182221578248
 21
15.54614819152843
  0
LINE
  5
115
100
AcDbEntity
  8
Cardboard Layout REV0 v8_Sketch3
  6
ByLayer
 62
  256
370
   -1
100
AcDbLine
 10
30.12511619166049
 20
25.51119414342127
 11
30.12511619166049
 21
31.24400746383271
  0
LINE
  5
116
100
AcDbEntity
  8
Cardboard Layout REV0 v8_Sketch3
  6
ByLayer
 62
  256
370
   -1
100
AcDbLine
 10
34.14552008713084
 20
13.55082475414708
 11
35.57182221578248
 21
13.55320434661965
  0
LINE
  5
117
100
AcDbEntity
  8
Cardboard Layout REV0 v8_Sketch3
  6
ByLayer
 62
  256
370
   -1
100
AcDbLine
 10
35.57182221578248
 20
15.04614819152843
 11
35.57182221578248
 21
16.04614819152843
  0
LINE
  5
118
100
AcDbEntity
  8
Cardboard Layout REV0 v8_Sketch3
  6
ByLayer
 62
  256
370
   -1
100
AcDbLine
 10
12.58607310834397
 20
10.48513831591833
 11
12.58607310834397
 21
29.5096691002758
  0
LINE
  5
119
100
AcDbEntity
  8
Cardboard Layout REV0 v8_Sketch3
  6
ByLayer
 62
  256
370
   -1
100
AcDbLine
 10
12.58607310834397
 20
29.50966910027581
 11
26.55160023646899
 21
29.50966910027581
  0
LINE
  5
11A
100
AcDbEntity
  8
Cardboard Layout REV0 v8_Sketch3
  6
ByLayer
 62
  256
370
   -1
100
AcDbLine
 10
31.08189940062064
 20
21.9101510325594
 11
38.12278339041126
 21
21.92189779659051
  0
LINE
  5
11B
100
AcDbEntity
  8
Cardboard Layout REV0 v8_Sketch3
  6
ByLayer
 62
  256
370
   -1
100
AcDbLine
 10
30.12511619166049
 20
25.51119414342127
 11
31.07589154653249
 21
25.51119414342127
  0
LINE
  5
11C
100
AcDbEntity
  8
Cardboard Layout REV0 v8_Sketch3
  6
ByLayer
 62
  256
370
   -1
100
AcDbLine
 10
38.12278339041126
 20
21.92189779659051
 11
38.12278339041126
 21
37.53179858360315
  0
LINE
  5
11D
100
AcDbEntity
  8
Cardboard Layout REV0 v8_Sketch3
  6
ByLayer
 62
  256
370
   -1
100
AcDbLine
 10
41.09846285741784
 20
27.01576305218204
 11
41.09846285741784
 21
31.51576305218204
  0
LINE
  5
11E
100
AcDbEntity
  8
Cardboard Layout REV0 v8_Sketch3
  6
ByLayer
 62
  256
370
   -1
100
AcDbLine
 10
34.13559868981935
 20
19.49760356966457
 11
35.57182221578248
 21
19.49999971464862
  0
LINE
  5
11F
100
AcDbEntity
  8
Cardboard Layout REV0 v8_Sketch3
  6
ByLayer
 62
  256
370
   -1
100
AcDbLine
 10
35.57182221578248
 20
13.05320434661966
 11
35.57182221578248
 21
14.05320434661965
  0
LINE
  5
120
100
AcDbEntity
  8
Cardboard Layout REV0 v8_Sketch3
  6
ByLayer
 62
  256
370
   -1
100
AcDbLine
 10
38.12278339041126
 20
29.03857854442259
 11
41.09846285741784
 21
29.03857854442259
  0
LINE
  5
121
100
AcDbEntity
  8
Cardboard Layout REV0 v8_Sketch3
  6
ByLayer
 62
  256
370
   -1
100
AcDbLine
 10
31.07589154653249
 20
25.51119414342127
 11
31.08189940062064
 21
21.9101510325594
  0
LINE
  5
122
100
AcDbEntity
  8
Cardboard Layout REV0 v8_Sketch3
  6
ByLayer
 62
  256
370
   -1
100
AcDbLine
 10
35.10465776897296
 20
31.24400746383271
 11
29.60465776897296
 21
31.24400746383271
  0
LINE
  5
123
100
AcDbEntity
  8
Cardboard Layout REV0 v8_Sketch3
  6
ByLayer
 62
  256
370
   -1
100
AcDbLine
 10
5.621730574058426
 20
43.49999934669554
 11
26.17680612624903
 21
43.49999934669554
  0
LINE
  5
124
100
AcDbEntity
  8
Cardboard Layout REV0 v8_Sketch3
  6
ByLayer
 62
  256
370
   -1
100
AcDbLine
 10
35.57182221578248
 20
18.99999971464863
 11
35.57182221578248
 21
19.99999971464863
  0
LINE
  5
125
100
AcDbEntity
  8
Cardboard Layout REV0 v8_Sketch3
  6
ByLayer
 62
  256
370
   -1
100
AcDbLine
 10
16.14732373026823
 20
29.50966910027581
 11
16.14732373026823
 21
34.49999948186198
  0
LINE
  5
126
100
AcDbEntity
  8
Cardboard Layout REV0 v8_Sketch3
  6
ByLayer
 62
  256
370
   -1
100
AcDbLine
 10
5.621730574058426
 20
34.49999948186198
 11
5.621730574058426
 21
43.49999934669554
  0
LINE
  5
127
100
AcDbEntity
  8
Cardboard Layout REV0 v8_Sketch3
  6
ByLayer
 62
  256
370
   -1
100
AcDbLine
 10
12.58607310834397
 20
22.52363425922093
 11
23.30435760827939
 21
22.52363425922093
  0
LINE
  5
128
100
AcDbEntity
  8
Cardboard Layout REV0 v8_Sketch3
  6
ByLayer
 62
  256
370
   -1
100
AcDbLine
 10
16.14732373026823
 20
34.49999948186198
 11
5.621730574058426
 21
34.49999948186198
  0
LINE
  5
129
100
AcDbEntity
  8
Cardboard Layout REV0 v8_Sketch3
  6
ByLayer
 62
  256
370
   -1
100
AcDbLine
 10
35.57182221578248
 20
17.06846443642802
 11
35.57182221578248
 21
18.06846443642802
  0
LINE
  5
12A
100
AcDbEntity
  8
Cardboard Layout REV0 v8_Sketch3
  6
ByLayer
 62
  256
370
   -1
100
AcDbLine
 10
12.58607310834397
 20
16.03923833282942
 11
23.30435760827939
 21
16.03923833282942
  0
POINT
  5
12B
100
AcDbEntity
  8
Cardboard Layout REV0 v8_Sketch5
  6
ByLayer
 62
  256
370
   -1
100
AcDbPoint
 10
0
 20
0
  0
CIRCLE
  5
12C
100
AcDbEntity
  8
Cardboard Layout REV0 v8_Sketch5
  6
ByLayer
 62
  256
370
   -1
100
AcDbCircle
 10
36.59814423512356
 20
32.57181546216554
 40
0.5
  0
CIRCLE
  5
12D
100
AcDbEntity
  8
Cardboard Layout REV0 v8_Sketch5
  6
ByLayer
 62
  256
370
   -1
100
AcDbCircle
 10
28.39648534775671
 20
27.25606051703993
 40
0.5
  0
CIRCLE
  5
12E
100
AcDbEntity
  8
Cardboard Layout REV0 v8_Sketch5
  6
ByLayer
 62
  256
370
   -1
100
AcDbCircle
 10
20.10642067219661
 20
31.26606397891074
 40
0.5
  0
CIRCLE
  5
12F
100
AcDbEntity
  8
Cardboard Layout REV0 v8_Sketch5
  6
ByLayer
 62
  256
370
   -1
100
AcDbCircle
 10
10.09216879070536
 20
15.84729520899558
 40
0.5
  0
CIRCLE
  5
130
100
AcDbEntity
  8
Cardboard Layout REV0 v8_Sketch5
  6
ByLayer
 62
  256
370
   -1
100
AcDbCircle
 10
35.59796673649502
 20
23.50353947459991
 40
0.5
  0
CIRCLE
  5
131
100
AcDbEntity
  8
Cardboard Layout REV0 v8_Sketch5
  6
ByLayer
 62
  256
370
   -1
100
AcDbCircle
 10
32.26404174106651
 20
19.06941923067996
 40
0.5
  0
CIRCLE
  5
132
100
AcDbEntity
  8
Cardboard Layout REV0 v8_Sketch5
  6
ByLayer
 62
  256
370
   -1
100
AcDbCircle
 10
11.10948961676158
 20
21.09285571834818
 40
0.5
  0
SPLINE
  5
133
100
AcDbEntity
  8
0
  6
ByLayer
 62
  256
370
   -1
100
AcDbSpline
210
0
220
0
230
0
 70
    8
 71
    2
 72
   16
 73
   13
 74
    0
 42
1e-07
 43
1e-07
 40
0
 40
0
 40
0
 40
0.09090909090909091
 40
0.1818181818181818
 40
0.2727272727272727
 40
0.3636363636363636
 40
0.4545454545454545
 40
0.5454545454545454
 40
0.6363636363636364
 40
0.7272727272727273
 40
0.8181818181818182
 40
0.9090909090909091
 40
1
 40
1
 40
1
 10
4.008484803655425
 20
28.60423622025958
 30
0
 10
7.474014552884978
 20
29.25409634199046
 30
0
 10
10.37617872201378
 20
25.53835086741114
 30
0
 10
9.299799637080499
 20
22.61507896320817
 30
0
 10
10.40839832770619
 20
20.08764473837545
 30
0
 10
8.468707667233021
 20
17.89101715908976
 30
0
 10
5.560841028395143
 20
14.41528358570033
 30
0
 10
0.9811001220278903
 20
16.57759641439156
 30
0
 10
1.382920658847508
 20
20.48408800859678
 30
0
 10
3.643672041306376
 20
23.27677202584405
 30
0
 10
1.205948544276898
 20
25.21783732593363
 30
0
 10
1.927542950849124
 20
28.55454402591415
 30
0
 10
3.930650147273766
 20
28.60423622025958
 30
0
  0
MTEXT
  5
134
100
AcDbEntity
  8
0
  6
ByLayer
 62
  256
370
   -1
100
AcDbMText
 10
41.69643325496205
 20
29.4980176076928
 30
0
 40
0.6
 41
4.466666539465414
 71
    1
 72
    1
  1
INDUSTRIAL
  7
standard
210
0
220
0
230
1
 50
0
 73
    2
 44
1
  0
MTEXT
  5
135
100
AcDbEntity
  8
0
  6
ByLayer
 62
  256
370
   -1
100
AcDbMText
 10
30.47933786706646
 20
32.85598397387118
 30
0
 40
0.6
 41
4.133333333333445
 71
    1
 72
    1
  1
COMERCIAL
  7
standard
210
0
220
0
230
1
 50
0
 73
    2
 44
1
  0
MTEXT
  5
136
100
AcDbEntity
  8
0
  6
ByLayer
 62
  256
370
   -1
100
AcDbMText
 10
40.00271013310131
 20
43.21138211382113
 30
0
 40
0.75
 41
7.312499681996776
 71
    2
 72
    1
  1
DISTRIBUTION\PSUBSTATION B
  7
standard
210
0
220
0
230
1
 50
0
 73
    2
 44
1
  0
MTEXT
  5
137
100
AcDbEntity
  8
0
  6
ByLayer
 62
  256
370
   -1
100
AcDbMText
 10
4.804691837398533
 20
22.86370712195179
 30
0
 40
0.75
 41
2.416666666666713
 71
    1
 72
    1
  1
POND
  7
standard
210
0
220
0
230
1
 50
0
 73
    2
 44
1
  0
MTEXT
  5
138
100
AcDbEntity
  8
0
  6
ByLayer
 62
  256
370
   -1
100
AcDbMText
 10
16.60553260549388
 20
19.63081308188325
 30
0
 40
0.6
 41
5.649999872798748
 71
    1
 72
    1
  1
RESIDENTIAL 1
  7
standard
210
0
220
0
230
1
 50
0
 73
    2
 44
1
  0
MTEXT
  5
139
100
AcDbEntity
  8
0
  6
ByLayer
 62
  256
370
   -1
100
AcDbMText
 10
8.910569105691057
 20
40.32520325203252
 30
0
 40
0.6
 41
5.783333206132081
 71
    1
 72
    1
  1
RESIDENTIAL 2
  7
standard
210
0
220
0
230
1
 50
0
 73
    2
 44
1
  0
MTEXT
  5
13A
100
AcDbEntity
  8
0
  6
ByLayer
 62
  256
370
   -1
100
AcDbMText
 10
32.34959370793711
 20
7.178861788617885
 30
0
 40
0.75
 41
7.791666507665054
 71
    1
 72
    1
  1
SEL 2240 RTAC
  7
standard
210
0
220
0
230
1
 50
0
 73
    2
 44
1
  0
MTEXT
  5
13B
100
AcDbEntity
  8
0
  6
ByLayer
 62
  256
370
   -1
100
AcDbMText
 10
6.658536691366896
 20
10.95121951219512
 30
0
 40
0.75
 41
7.395833015330109
 71
    2
 72
    1
  1
DISTRIBUTION\PSUBSTATION A
  7
standard
210
0
220
0
230
1
 50
0
 73
    2
 44
1
  0
CIRCLE
  5
13C
100
AcDbEntity
  8
Cardboard Layout REV0 v8_Sketch5
  6
ByLayer
 62
  256
370
   -1
100
AcDbCircle
 10
26.46364672561153
 20
5.131733775688929
 40
0.5
  0
MTEXT
  5
13D
100
AcDbEntity
  8
0
  6
ByLayer
 62
  256
370
   -1
100
AcDbMText
 10
34.06584653519509
 20
18.31186415914864
 30
0
 40
0.00984251968503937
 41
0.03827646335518444
 71
    1
 72
    1
  1
RESET
  7
standard
210
0
220
0
230
1
 50
0
 73
    2
 44
1
  0
MTEXT
  5
13E
100
AcDbEntity
  8
0
  6
ByLayer
 62
  256
370
   -1
100
AcDbMText
 10
26.01648694003404
 20
4.269505972646191
 30
0
 40
0.25
 41
0.9722221692216848
 71
    1
 72
    1
  1
RESET
  7
standard
210
0
220
0
230
1
 50
0
 73
    2
 44
1
  0
MTEXT
  5
13F
100
AcDbEntity
  8
0
  6
ByLayer
 62
  256
370
   -1
100
AcDbMText
 10
9.268983029607265
 20
15.00315659697649
 30
0
 40
0.25
 41
1.548611111111111
 71
    1
 72
    1
  1
FAULT Z1
  7
standard
210
0
220
0
230
1
 50
0
 73
    2
 44
1
  0
MTEXT
  5
140
100
AcDbEntity
  8
0
  6
ByLayer
 62
  256
370
   -1
100
AcDbMText
 10
10.42877775039666
 20
20.2893157457829
 30
0
 40
0.25
 41
1.604166666666667
 71
    1
 72
    1
  1
FAULT Z2
  7
standard
210
0
220
0
230
1
 50
0
 73
    2
 44
1
  0
MTEXT
  5
141
100
AcDbEntity
  8
0
  6
ByLayer
 62
  256
370
   -1
100
AcDbMText
 10
19.33333333333334
 20
30.55
 30
0
 40
0.25
 41
1.604166666666682
 71
    1
 72
    1
  1
FAULT Z3
  7
standard
210
0
220
0
230
1
 50
0
 73
    2
 44
1
  0
MTEXT
  5
142
100
AcDbEntity
  8
0
  6
ByLayer
 62
  256
370
   -1
100
AcDbMText
 10
27.63888888888889
 20
26.45
 30
0
 40
0.25
 41
1.631944444444444
 71
    1
 72
    1
  1
FAULT Z4
  7
standard
210
0
220
0
230
1
 50
0
 73
    2
 44
1
  0
MTEXT
  5
143
100
AcDbEntity
  8
0
  6
ByLayer
 62
  256
370
   -1
100
AcDbMText
 10
34.83333333333334
 20
22.65
 30
0
 40
0.25
 41
1.604166666666682
 71
    1
 72
    1
  1
FAULT Z5
  7
standard
210
0
220
0
230
1
 50
0
 73
    2
 44
1
  0
MTEXT
  5
144
100
AcDbEntity
  8
0
  6
ByLayer
 62
  256
370
   -1
100
AcDbMText
 10
31.23333333333334
 20
18.25
 30
0
 40
0.25
 41
1.826388888888904
 71
    1
 72
    1
  1
FAULT DER
  7
standard
210
0
220
0
230
1
 50
0
 73
    2
 44
1
  0
MTEXT
  5
145
100
AcDbEntity
  8
0
  6
ByLayer
 62
  256
370
   -1
100
AcDbMText
 10
35.93333333333334
 20
31.85
 30
0
 40
0.25
 41
1.604166666666682
 71
    1
 72
    1
  1
FAULT Z6
  7
standard
210
0
220
0
230
1
 50
0
 73
    2
 44
1
  0
CIRCLE
  5
146
100
AcDbEntity
  8
0
  6
ByLayer
 62
  256
370
   -1
100
AcDbCircle
 10
12.1886715120167
 20
10.24004743611481
 40
0.1104408682898372
  0
CIRCLE
  5
147
100
AcDbEntity
  8
0
  6
ByLayer
 62
  256
370
   -1
100
AcDbCircle
 10
12.56834611706348
 20
10.24004743611481
 40
0.1104408682898372
  0
CIRCLE
  5
148
100
AcDbEntity
  8
0
  6
ByLayer
 62
  256
370
   -1
100
AcDbCircle
 10
12.92289519677629
 20
10.24842261122613
 40
0.1104408682898372
  0
CIRCLE
  5
149
100
AcDbEntity
  8
0
  6
ByLayer
 62
  256
370
   -1
100
AcDbCircle
 10
12.19704668712802
 20
9.611909302765342
 40
0.1104408682898372
  0
CIRCLE
  5
14A
100
AcDbEntity
  8
0
  6
ByLayer
 62
  256
370
   -1
100
AcDbCircle
 10
12.57672129217481
 20
9.611909302765342
 40
0.1104408682898372
  0
CIRCLE
  5
14B
100
AcDbEntity
  8
0
  6
ByLayer
 62
  256
370
   -1
100
AcDbCircle
 10
12.93127037188762
 20
9.620284477876668
 40
0.1104408682898372
  0
LWPOLYLINE
  5
14C
100
AcDbEntity
  8
0
  6
ByLayer
 62
  256
370
   -1
100
AcDbPolyline
 90
    4
 70
    1
 43
0
 10
12.12167011112609
 20
10.0474184085543
 10
13.04852282344618
 20
10.0474184085543
 10
13.04852282344618
 20
9.798954880251626
 10
12.12167011112609
 20
9.798954880251626
  0
LWPOLYLINE
  5
14D
100
AcDbEntity
  8
0
  6
ByLayer
 62
  256
370
   -1
100
AcDbPolyline
 90
    4
 70
    1
 43
0
 10
37.54749681409091
 20
38.00875063008227
 10
38.7474968140909
 20
38.00875063008227
 10
38.7474968140909
 20
36.90875063008227
 10
37.54749681409091
 20
36.90875063008227
  0
LWPOLYLINE
  5
14E
100
AcDbEntity
  8
0
  6
ByLayer
 62
  256
370
   -1
100
AcDbPolyline
 90
    4
 70
    1
 43
0
 10
1.630215615370533
 20
3.985706294109015
 10
2.830215615370532
 20
3.985706294109015
 10
2.830215615370532
 20
2.885706294109016
 10
1.630215615370533
 20
2.885706294109016
  0
MTEXT
  5
14F
100
AcDbEntity
  8
0
  6
ByLayer
 62
  256
370
   -1
100
AcDbMText
 10
3.084007657799106
 20
3.803034682956664
 30
0
 40
0.25
 41
3.576388835888383
 71
    1
 72
    1
  1
DISTRIBUTION FEEDER\PCIRCUIT BREAKER
  7
standard
210
0
220
0
230
1
 50
0
 73
    2
 44
1
  0
MTEXT
  5
150
100
AcDbEntity
  8
0
  6
ByLayer
 62
  256
370
   -1
100
AcDbMText
 10
16.91896699289853
 20
5.391832583836027
 30
0
 40
0.75
 41
3.500000000000093
 71
    1
 72
    1
  1
LEGEND
  7
standard
210
0
220
0
230
1
 50
0
 73
    2
 44
1
  0
LWPOLYLINE
  5
151
100
AcDbEntity
  8
0
  6
ByLayer
 62
  256
370
   -1
100
AcDbPolyline
 90
    4
 70
    1
 43
0
 10
11.88724532734613
 20
10.53766835954289
 10
13.08724532734613
 20
10.53766835954289
 10
13.08724532734613
 20
9.437668359542888
 10
11.88724532734613
 20
9.437668359542888
  0
LWPOLYLINE
  5
152
100
AcDbEntity
  8
0
  6
ByLayer
 62
  256
370
   -1
100
AcDbPolyline
 90
    4
 70
    1
 43
0
 10
26.02756419381551
 20
26.12960569064442
 10
27.22756419381551
 20
26.12960569064442
 10
27.22756419381551
 20
25.02960569064443
 10
26.02756419381551
 20
25.02960569064443
  0
LINE
  5
153
100
AcDbEntity
  8
Cardboard Layout REV0 v8_Sketch3
  6
ByLayer
 62
  256
370
   -1
100
AcDbLine
 10
27.2308007803751
 20
25.51964286515262
 11
30.12511619166049
 21
25.51119414342127
  0
LINE
  5
154
100
AcDbEntity
  8
Cardboard Layout REV0 v8_Sketch3
  6
ByLayer
 62
  256
370
   -1
100
AcDbLine
 10
26.55160023646899
 20
29.50966910027581
 11
26.55372390744534
 21
26.12696030268961
  0
CIRCLE
  5
155
100
AcDbEntity
  8
0
  6
ByLayer
 62
  256
370
   -1
100
AcDbCircle
 10
26.3
 20
25.6
 40
0.1000000000000014
  0
LWPOLYLINE
  5
156
100
AcDbEntity
  8
0
  6
ByLayer
 62
  256
370
   -1
100
AcDbPolyline
 90
    5
 70
    0
 43
0
 10
26.7366738712224
 20
25.82270574371405
 10
26.67380787130692
 20
25.91774298526355
 10
26.33713400008452
 20
25.69503724154949
 10
26.4
 20
25.6
 10
26.7366738712224
 20
25.82270574371405
  0
LWPOLYLINE
  5
157
100
AcDbEntity
  8
0
  6
ByLayer
 62
  256
370
   -1
100
AcDbPolyline
 90
    4
 70
    1
 43
0
 10
26.81
 20
25.62
 10
27.1
 20
25.62
 10
27.1
 20
25.5
 10
26.81
 20
25.5
  0
LWPOLYLINE
  5
158
100
AcDbEntity
  8
0
  6
ByLayer
 62
  256
370
   -1
100
AcDbPolyline
 90
    4
 70
    1
 43
0
 10
1.645249756418892
 20
2.373512973964355
 10
2.845249756418891
 20
2.373512973964355
 10
2.845249756418891
 20
1.273512973964357
 10
1.645249756418892
 20
1.273512973964357
  0
MTEXT
  5
159
100
AcDbEntity
  8
0
  6
ByLayer
 62
  256
370
   -1
100
AcDbMText
 10
3.053766491036332
 20
2.170011677766903
 30
0
 40
0.25
 41
2.770833333333333
 71
    1
 72
    1
  1
NORMALLY OPEN\PTIE SWITCH
  7
standard
210
0
220
0
230
1
 50
0
 73
    2
 44
1
  0
LWPOLYLINE
  5
15A
100
AcDbEntity
  8
0
  6
ByLayer
 62
  256
370
   -1
100
AcDbPolyline
 90
    4
 70
    1
 43
0
 10
12.02902205184774
 20
18.03816727323404
 10
13.22902205184774
 20
18.03816727323404
 10
13.22902205184774
 20
16.93816727323404
 10
12.02902205184774
 20
16.93816727323404
  0
LWPOLYLINE
  5
15B
100
AcDbEntity
  8
0
  6
CONTINUOUS
 62
    7
370
   -3
100
AcDbPolyline
 90
    4
 70
    1
 43
0
 10
12.12572121700333
 20
17.62480845303791
 10
12.64689837910624
 20
17.62480845303791
 10
12.64689837910624
 20
17.32747020029971
 10
12.12572121700333
 20
17.32747020029971
  0
LWPOLYLINE
  5
15C
100
AcDbEntity
  8
0
  6
CONTINUOUS
 62
    7
370
   -3
100
AcDbPolyline
 90
    4
 70
    1
 43
0
 10
12.64689837910624
 20
17.52458207571042
 10
12.75547695454435
 20
17.52458207571042
 10
12.75547695454435
 20
17.40765130216169
 10
12.64689837910624
 20
17.40765130216169
  0
LWPOLYLINE
  5
15D
100
AcDbEntity
  8
0
  6
CONTINUOUS
 62
    7
370
   -3
100
AcDbPolyline
 90
    4
 70
    1
 43
0
 10
12.7588178337886
 20
17.85031780202474
 10
12.8
 20
17.85031780202474
 10
12.8
 20
17.1
 10
12.7588178337886
 20
17.1
  0
CIRCLE
  5
15E
100
AcDbEntity
  8
0
  6
CONTINUOUS
 62
    7
370
   -3
100
AcDbCircle
 10
13
 20
17.5
 40
0.06307685137282344
  0
CIRCLE
  5
15F
100
AcDbEntity
  8
0
  6
CONTINUOUS
 62
    7
370
   -3
100
AcDbCircle
 10
13
 20
17.8
 40
0.06307685137282344
  0
CIRCLE
  5
160
100
AcDbEntity
  8
0
  6
CONTINUOUS
 62
    7
370
   -3
100
AcDbCircle
 10
13
 20
17.2
 40
0.06307685137282344
  0
LWPOLYLINE
  5
161
100
AcDbEntity
  8
0
  6
ByLayer
 62
  256
370
   -1
100
AcDbPolyline
 90
    4
 70
    1
 43
0
 10
7.496546906506662
 20
3.98276194976474
 10
8.696546906506661
 20
3.98276194976474
 10
8.696546906506661
 20
2.882761949764739
 10
7.496546906506662
 20
2.882761949764739
  0
MTEXT
  5
162
100
AcDbEntity
  8
0
  6
ByLayer
 62
  256
370
   -1
100
AcDbMText
 10
9.156739923890729
 20
3.763939840041911
 30
0
 40
0.25
 41
2.361111111111142
 71
    1
 72
    1
  1
PAD-MOUNTED\PSWITCH GEAR
  7
standard
210
0
220
0
230
1
 50
0
 73
    2
 44
1
  0
LWPOLYLINE
  5
163
100
AcDbEntity
  8
0
  6
ByLayer
 62
  256
370
   -1
100
AcDbPolyline
 90
    4
 70
    1
 43
0
 10
12.03002388469567
 20
30.07788413711251
 10
13.23002388469567
 20
30.07788413711251
 10
13.23002388469567
 20
28.9778841371125
 10
12.03002388469567
 20
28.9778841371125
  0
LWPOLYLINE
  5
164
100
AcDbEntity
  8
0
  6
ByLayer
 62
  256
370
   -1
100
AcDbPolyline
 90
    4
 70
    1
 43
0
 10
30.51510039995879
 20
26.08261179698234
 10
31.71510039995879
 20
26.08261179698234
 10
31.71510039995879
 20
24.98261179698234
 10
30.51510039995879
 20
24.98261179698234
  0
LWPOLYLINE
  5
165
100
AcDbEntity
  8
0
  6
ByLayer
 62
  256
370
   -1
100
AcDbPolyline
 90
    4
 70
    1
 43
0
 10
37.56255742483633
 20
22.49518966660091
 10
38.76255742483633
 20
22.49518966660091
 10
38.76255742483633
 20
21.39518966660091
 10
37.56255742483633
 20
21.39518966660091
  0
CIRCLE
  5
166
100
AcDbEntity
  8
0
  6
ByLayer
 62
  256
370
   -1
100
AcDbCircle
 10
34.12282990505049
 20
20.74477691751738
 40
0.5
  0
LWPOLYLINE
  5
167
100
AcDbEntity
  8
0
  6
CONTINUOUS
 62
    7
370
   -3
100
AcDbPolyline
 90
    4
 70
    1
 43
0
 10
33.8
 20
21
 10
34.5
 20
21
 10
34.5
 20
20.8
 10
33.8
 20
20.8
  0
LINE
  5
168
100
AcDbEntity
  8
0
  6
CONTINUOUS
 62
    7
370
   -3
100
AcDbLine
 10
33.8
 20
20.7
 11
34.5
 21
20.7
  0
LINE
  5
169
100
AcDbEntity
  8
0
  6
CONTINUOUS
 62
    7
370
   -3
100
AcDbLine
 10
34.5
 20
20.7
 11
34.136
 21
20.295
  0
LINE
  5
16A
100
AcDbEntity
  8
0
  6
CONTINUOUS
 62
    7
370
   -3
100
AcDbLine
 10
34.136
 20
20.295
 11
33.8
 21
20.7
  0
CIRCLE
  5
16B
100
AcDbEntity
  8
0
  6
ByLayer
 62
  256
370
   -1
100
AcDbCircle
 10
8.098289163681102
 20
1.796934592214366
 40
0.5
  0
LWPOLYLINE
  5
16C
100
AcDbEntity
  8
0
  6
CONTINUOUS
 62
    7
370
   -3
100
AcDbPolyline
 90
    4
 70
    1
 43
0
 10
7.775459258630619
 20
2.052157674696988
 10
8.475459258630615
 20
2.052157674696988
 10
8.475459258630615
 20
1.852157674696989
 10
7.775459258630619
 20
1.852157674696989
  0
MTEXT
  5
16D
100
AcDbEntity
  8
0
  6
ByLayer
 62
  256
370
   -1
100
AcDbMText
 10
9.134498564315006
 20
2.106286648164606
 30
0
 40
0.25
 41
1.583333280332812
 71
    1
 72
    1
  1
DER\PRECLOSER
  7
standard
210
0
220
0
230
1
 50
0
 73
    2
 44
1
  0
MTEXT
  5
16E
100
AcDbEntity
  8
0
  6
ByLayer
 62
  256
370
   -1
100
AcDbMText
 10
41.05211447080423
 20
21.97188054519493
 30
0
 40
0.6
 41
5.783333206132044
 71
    1
 72
    1
  1
DER\PSOLAR ARRAY
  7
standard
210
0
220
0
230
1
 50
0
 73
    2
 44
1
  0
LWPOLYLINE
  5
16F
100
AcDbEntity
  8
0
  6
CONTINUOUS
 62
    7
370
   -3
100
AcDbPolyline
 90
    4
 70
    1
 43
0
 10
17.96350147504467
 20
44.40476619154016
 10
18.56350147504467
 20
44.40476619154016
 10
18.56350147504467
 20
44.00476619154016
 10
17.96350147504467
 20
44.00476619154016
  0
LINE
  5
170
100
AcDbEntity
  8
0
  6
CONTINUOUS
 62
    7
370
   -3
100
AcDbLine
 10
17.96350147504467
 20
44.40476619154016
 11
18.56350147504467
 21
44.00476619154016
  0
LINE
  5
171
100
AcDbEntity
  8
0
  6
CONTINUOUS
 62
    7
370
   -3
100
AcDbLine
 10
18.56350147504467
 20
44.40476619154016
 11
17.96350147504467
 21
44.00476619154016
  0
LWPOLYLINE
  5
172
100
AcDbEntity
  8
0
  6
CONTINUOUS
 62
    7
370
   -3
100
AcDbPolyline
 90
    4
 70
    1
 43
0
 10
10.7
 20
44.3
 10
11.3
 20
44.3
 10
11.3
 20
43.90000000000001
 10
10.7
 20
43.90000000000001
  0
LINE
  5
173
100
AcDbEntity
  8
0
  6
CONTINUOUS
 62
    7
370
   -3
100
AcDbLine
 10
10.7
 20
44.3
 11
11.3
 21
43.90000000000001
  0
LINE
  5
174
100
AcDbEntity
  8
0
  6
CONTINUOUS
 62
    7
370
   -3
100
AcDbLine
 10
11.3
 20
44.3
 11
10.7
 21
43.90000000000001
  0
LWPOLYLINE
  5
175
100
AcDbEntity
  8
0
  6
CONTINUOUS
 62
    7
370
   -3
100
AcDbPolyline
 90
    4
 70
    1
 43
0
 10
6.132951950248865
 20
39.95174429378026
 10
6.732951950248864
 20
39.95174429378026
 10
6.732951950248864
 20
39.55174429378026
 10
6.132951950248865
 20
39.55174429378026
  0
LINE
  5
176
100
AcDbEntity
  8
0
  6
CONTINUOUS
 62
    7
370
   -3
100
AcDbLine
 10
6.132951950248865
 20
39.95174429378026
 11
6.732951950248864
 21
39.55174429378026
  0
LINE
  5
177
100
AcDbEntity
  8
0
  6
CONTINUOUS
 62
    7
370
   -3
100
AcDbLine
 10
6.732951950248864
 20
39.95174429378026
 11
6.132951950248865
 21
39.55174429378026
  0
LWPOLYLINE
  5
178
100
AcDbEntity
  8
0
  6
CONTINUOUS
 62
    7
370
   -3
100
AcDbPolyline
 90
    4
 70
    1
 43
0
 10
8.11842284098354
 20
33.97794427837358
 10
8.718422840983539
 20
33.97794427837358
 10
8.718422840983539
 20
33.57794427837358
 10
8.11842284098354
 20
33.57794427837358
  0
LINE
  5
179
100
AcDbEntity
  8
0
  6
CONTINUOUS
 62
    7
370
   -3
100
AcDbLine
 10
8.11842284098354
 20
33.97794427837358
 11
8.718422840983539
 21
33.57794427837358
  0
LINE
  5
17A
100
AcDbEntity
  8
0
  6
CONTINUOUS
 62
    7
370
   -3
100
AcDbLine
 10
8.718422840983539
 20
33.97794427837358
 11
8.11842284098354
 21
33.57794427837358
  0
LWPOLYLINE
  5
17B
100
AcDbEntity
  8
0
  6
CONTINUOUS
 62
    7
370
   -3
100
AcDbPolyline
 90
    4
 70
    1
 43
0
 10
12.5
 20
34
 10
13.1
 20
34
 10
13.1
 20
33.6
 10
12.5
 20
33.6
  0
LINE
  5
17C
100
AcDbEntity
  8
0
  6
CONTINUOUS
 62
    7
370
   -3
100
AcDbLine
 10
12.5
 20
34
 11
13.1
 21
33.6
  0
LINE
  5
17D
100
AcDbEntity
  8
0
  6
CONTINUOUS
 62
    7
370
   -3
100
AcDbLine
 10
13.1
 20
34
 11
12.5
 21
33.6
  0
LWPOLYLINE
  5
17E
100
AcDbEntity
  8
0
  6
CONTINUOUS
 62
    7
370
   -3
100
AcDbPolyline
 90
    4
 70
    1
 43
0
 10
12.57115467408465
 20
3.649882063133995
 10
13.17115467408465
 20
3.649882063133995
 10
13.17115467408465
 20
3.249882063133997
 10
12.57115467408465
 20
3.249882063133997
  0
LINE
  5
17F
100
AcDbEntity
  8
0
  6
CONTINUOUS
 62
    7
370
   -3
100
AcDbLine
 10
12.57115467408465
 20
3.649882063133995
 11
13.17115467408465
 21
3.249882063133997
  0
LINE
  5
180
100
AcDbEntity
  8
0
  6
CONTINUOUS
 62
    7
370
   -3
100
AcDbLine
 10
13.17115467408465
 20
3.649882063133995
 11
12.57115467408465
 21
3.249882063133997
  0
MTEXT
  5
181
100
AcDbEntity
  8
0
  6
ByLayer
 62
  256
370
   -1
100
AcDbMText
 10
13.59230257649159
 20
3.741017035635705
 30
0
 40
0.25
 41
2.361111111111142
 71
    1
 72
    1
  1
PAD-MOUNTED\PTRANSFORMER
  7
standard
210
0
220
0
230
1
 50
0
 73
    2
 44
1
  0
LWPOLYLINE
  5
182
100
AcDbEntity
  8
0
  6
CONTINUOUS
 62
    7
370
   -3
100
AcDbPolyline
 90
    4
 70
    1
 43
0
 10
17.1
 20
23.2
 10
17.7
 20
23.2
 10
17.7
 20
22.8
 10
17.1
 20
22.8
  0
LINE
  5
183
100
AcDbEntity
  8
0
  6
CONTINUOUS
 62
    7
370
   -3
100
AcDbLine
 10
17.1
 20
23.2
 11
17.7
 21
22.8
  0
LINE
  5
184
100
AcDbEntity
  8
0
  6
CONTINUOUS
 62
    7
370
   -3
100
AcDbLine
 10
17.7
 20
23.2
 11
17.1
 21
22.8
  0
LWPOLYLINE
  5
185
100
AcDbEntity
  8
0
  6
CONTINUOUS
 62
    7
370
   -3
100
AcDbPolyline
 90
    4
 70
    1
 43
0
 10
21.3
 20
23.2
 10
21.9
 20
23.2
 10
21.9
 20
22.8
 10
21.3
 20
22.8
  0
LINE
  5
186
100
AcDbEntity
  8
0
  6
CONTINUOUS
 62
    7
370
   -3
100
AcDbLine
 10
21.3
 20
23.2
 11
21.9
 21
22.8
  0
LINE
  5
187
100
AcDbEntity
  8
0
  6
CONTINUOUS
 62
    7
370
   -3
100
AcDbLine
 10
21.9
 20
23.2
 11
21.3
 21
22.8
  0
LWPOLYLINE
  5
188
100
AcDbEntity
  8
0
  6
CONTINUOUS
 62
    7
370
   -3
100
AcDbPolyline
 90
    4
 70
    1
 43
0
 10
17.1
 20
16.7
 10
17.7
 20
16.7
 10
17.7
 20
16.3
 10
17.1
 20
16.3
  0
LINE
  5
189
100
AcDbEntity
  8
0
  6
CONTINUOUS
 62
    7
370
   -3
100
AcDbLine
 10
17.1
 20
16.7
 11
17.7
 21
16.3
  0
LINE
  5
18A
100
AcDbEntity
  8
0
  6
CONTINUOUS
 62
    7
370
   -3
100
AcDbLine
 10
17.7
 20
16.7
 11
17.1
 21
16.3
  0
LWPOLYLINE
  5
18B
100
AcDbEntity
  8
0
  6
CONTINUOUS
 62
    7
370
   -3
100
AcDbPolyline
 90
    4
 70
    1
 43
0
 10
21.3
 20
16.7
 10
21.9
 20
16.7
 10
21.9
 20
16.3
 10
21.3
 20
16.3
  0
LINE
  5
18C
100
AcDbEntity
  8
0
  6
CONTINUOUS
 62
    7
370
   -3
100
AcDbLine
 10
21.3
 20
16.7
 11
21.9
 21
16.3
  0
LINE
  5
18D
100
AcDbEntity
  8
0
  6
CONTINUOUS
 62
    7
370
   -3
100
AcDbLine
 10
21.9
 20
16.7
 11
21.3
 21
16.3
  0
LINE
  5
18E
100
AcDbEntity
  8
0
  6
ByLayer
 62
  256
370
   -1
100
AcDbLine
 10
15.44703064281103
 20
15.14544863104198
 11
15.9
 21
14.5
  0
LINE
  5
18F
100
AcDbEntity
  8
0
  6
ByLayer
 62
  256
370
   -1
100
AcDbLine
 10
15.9
 20
14.5
 11
15.45147375422334
 21
13.89724160955095
  0
LINE
  5
190
100
AcDbEntity
  8
0
  6
ByLayer
 62
  256
370
   -1
100
AcDbLine
 10
15.9
 20
14.5
 11
16.7
 21
14.5
  0
LINE
  5
191
100
AcDbEntity
  8
0
  6
ByLayer
 62
  256
370
   -1
100
AcDbLine
 10
16.7
 20
14.5
 11
17.19722265605916
 21
15.14455587415375
  0
LINE
  5
192
100
AcDbEntity
  8
0
  6
ByLayer
 62
  256
370
   -1
100
AcDbLine
 10
16.7
 20
14.5
 11
17.2
 21
13.9
  0
LINE
  5
193
100
AcDbEntity
  8
0
  6
ByLayer
 62
  256
370
   -1
100
AcDbLine
 10
13.89774274674247
 20
2.64697469883127
 11
13.89774274674247
 21
1.39697469883127
  0
LINE
  5
194
100
AcDbEntity
  8
0
  6
ByLayer
 62
  256
370
   -1
100
AcDbLine
 10
12.14774274674247
 20
2.64697469883127
 11
13.89774274674247
 21
2.64697469883127
  0
LINE
  5
195
100
AcDbEntity
  8
0
  6
ByLayer
 62
  256
370
   -1
100
AcDbLine
 10
13.89774274674247
 20
1.39697469883127
 11
12.14774274674247
 21
1.39697469883127
  0
LINE
  5
196
100
AcDbEntity
  8
0
  6
ByLayer
 62
  256
370
   -1
100
AcDbLine
 10
12.14774274674247
 20
1.39697469883127
 11
12.14774274674247
 21
2.64697469883127
  0
LINE
  5
197
100
AcDbEntity
  8
0
  6
ByLayer
 62
  256
370
   -1
100
AcDbLine
 10
12.14703064281103
 20
2.64544863104198
 11
12.6
 21
2
  0
LINE
  5
198
100
AcDbEntity
  8
0
  6
ByLayer
 62
  256
370
   -1
100
AcDbLine
 10
12.6
 20
2
 11
12.15147375422334
 21
1.397241609550946
  0
LINE
  5
199
100
AcDbEntity
  8
0
  6
ByLayer
 62
  256
370
   -1
100
AcDbLine
 10
12.6
 20
2.000000000000002
 11
13.4
 21
2.000000000000002
  0
LINE
  5
19A
100
AcDbEntity
  8
0
  6
ByLayer
 62
  256
370
   -1
100
AcDbLine
 10
13.4
 20
2.000000000000002
 11
13.89722265605916
 21
2.644555874153752
  0
LINE
  5
19B
100
AcDbEntity
  8
0
  6
ByLayer
 62
  256
370
   -1
100
AcDbLine
 10
13.4
 20
2.000000000000002
 11
13.9
 21
1.4
  0
MTEXT
  5
19C
100
AcDbEntity
  8
0
  6
ByLayer
 62
  256
370
   -1
100
AcDbMText
 10
14.55555555555556
 20
2.25
 30
0
 40
0.25
 41
0.9999999469994625
 71
    1
 72
    1
  1
HOUSE
  7
standard
210
0
220
0
230
1
 50
0
 73
    2
 44
1
  0
LINE
  5
19D
100
AcDbEntity
  8
0
  6
ByLayer
 62
  256
370
   -1
100
AcDbLine
 10
17.54703064281104
 20
15.14544863104198
 11
18
 21
14.5
  0
LINE
  5
19E
100
AcDbEntity
  8
0
  6
ByLayer
 62
  256
370
   -1
100
AcDbLine
 10
18
 20
14.5
 11
17.55147375422334
 21
13.89724160955095
  0
LINE
  5
19F
100
AcDbEntity
  8
0
  6
ByLayer
 62
  256
370
   -1
100
AcDbLine
 10
18
 20
14.5
 11
18.8
 21
14.5
  0
LINE
  5
1A0
100
AcDbEntity
  8
0
  6
ByLayer
 62
  256
370
   -1
100
AcDbLine
 10
18.8
 20
14.5
 11
19.29722265605916
 21
15.14455587415375
  0
LINE
  5
1A1
100
AcDbEntity
  8
0
  6
ByLayer
 62
  256
370
   -1
100
AcDbLine
 10
18.8
 20
14.5
 11
19.3
 21
13.9
  0
LINE
  5
1A2
100
AcDbEntity
  8
0
  6
ByLayer
 62
  256
370
   -1
100
AcDbLine
 10
19.64703064281103
 20
15.14544863104198
 11
20.1
 21
14.5
  0
LINE
  5
1A3
100
AcDbEntity
  8
0
  6
ByLayer
 62
  256
370
   -1
100
AcDbLine
 10
20.1
 20
14.5
 11
19.65147375422334
 21
13.89724160955095
  0
LINE
  5
1A4
100
AcDbEntity
  8
0
  6
ByLayer
 62
  256
370
   -1
100
AcDbLine
 10
20.1
 20
14.5
 11
20.9
 21
14.5
  0
LINE
  5
1A5
100
AcDbEntity
  8
0
  6
ByLayer
 62
  256
370
   -1
100
AcDbLine
 10
20.9
 20
14.5
 11
21.39722265605916
 21
15.14455587415375
  0
LINE
  5
1A6
100
AcDbEntity
  8
0
  6
ByLayer
 62
  256
370
   -1
100
AcDbLine
 10
20.9
 20
14.5
 11
21.4
 21
13.9
  0
LINE
  5
1A7
100
AcDbEntity
  8
0
  6
ByLayer
 62
  256
370
   -1
100
AcDbLine
 10
21.79909193831635
 20
15.12326314985222
 11
22.25206129550532
 21
14.47781451881024
  0
LINE
  5
1A8
100
AcDbEntity
  8
0
  6
ByLayer
 62
  256
370
   -1
100
AcDbLine
 10
22.25206129550532
 20
14.47781451881024
 11
21.80353504972866
 21
13.87505612836119
  0
LINE
  5
1A9
100
AcDbEntity
  8
0
  6
ByLayer
 62
  256
370
   -1
100
AcDbLine
 10
22.25206129550532
 20
14.47781451881025
 11
23.05206129550532
 21
14.47781451881025
  0
LINE
  5
1AA
100
AcDbEntity
  8
0
  6
ByLayer
 62
  256
370
   -1
100
AcDbLine
 10
23.05206129550532
 20
14.47781451881025
 11
23.54928395156447
 21
15.122370392964
  0
LINE
  5
1AB
100
AcDbEntity
  8
0
  6
ByLayer
 62
  256
370
   -1
100
AcDbLine
 10
23.05206129550532
 20
14.47781451881025
 11
23.55206129550532
 21
13.87781451881025
  0
LINE
  5
1AC
100
AcDbEntity
  8
0
  6
ByLayer
 62
  256
370
   -1
100
AcDbLine
 10
15.44703064281103
 20
18.14544863104198
 11
15.9
 21
17.5
  0
LINE
  5
1AD
100
AcDbEntity
  8
0
  6
ByLayer
 62
  256
370
   -1
100
AcDbLine
 10
15.9
 20
17.5
 11
15.45147375422334
 21
16.89724160955095
  0
LINE
  5
1AE
100
AcDbEntity
  8
0
  6
ByLayer
 62
  256
370
   -1
100
AcDbLine
 10
15.9
 20
17.5
 11
16.7
 21
17.5
  0
LINE
  5
1AF
100
AcDbEntity
  8
0
  6
ByLayer
 62
  256
370
   -1
100
AcDbLine
 10
16.7
 20
17.5
 11
17.19722265605916
 21
18.14455587415375
  0
LINE
  5
1B0
100
AcDbEntity
  8
0
  6
ByLayer
 62
  256
370
   -1
100
AcDbLine
 10
16.7
 20
17.5
 11
17.2
 21
16.9
  0
LINE
  5
1B1
100
AcDbEntity
  8
0
  6
ByLayer
 62
  256
370
   -1
100
AcDbLine
 10
17.54703064281104
 20
18.14544863104198
 11
18
 21
17.5
  0
LINE
  5
1B2
100
AcDbEntity
  8
0
  6
ByLayer
 62
  256
370
   -1
100
AcDbLine
 10
18
 20
17.5
 11
17.55147375422334
 21
16.89724160955095
  0
LINE
  5
1B3
100
AcDbEntity
  8
0
  6
ByLayer
 62
  256
370
   -1
100
AcDbLine
 10
18
 20
17.5
 11
18.8
 21
17.5
  0
LINE
  5
1B4
100
AcDbEntity
  8
0
  6
ByLayer
 62
  256
370
   -1
100
AcDbLine
 10
18.8
 20
17.5
 11
19.29722265605916
 21
18.14455587415375
  0
LINE
  5
1B5
100
AcDbEntity
  8
0
  6
ByLayer
 62
  256
370
   -1
100
AcDbLine
 10
18.8
 20
17.5
 11
19.3
 21
16.9
  0
LINE
  5
1B6
100
AcDbEntity
  8
0
  6
ByLayer
 62
  256
370
   -1
100
AcDbLine
 10
19.64703064281103
 20
18.14544863104198
 11
20.1
 21
17.5
  0
LINE
  5
1B7
100
AcDbEntity
  8
0
  6
ByLayer
 62
  256
370
   -1
100
AcDbLine
 10
20.1
 20
17.5
 11
19.65147375422334
 21
16.89724160955095
  0
LINE
  5
1B8
100
AcDbEntity
  8
0
  6
ByLayer
 62
  256
370
   -1
100
AcDbLine
 10
20.1
 20
17.5
 11
20.9
 21
17.5
  0
LINE
  5
1B9
100
AcDbEntity
  8
0
  6
ByLayer
 62
  256
370
   -1
100
AcDbLine
 10
20.9
 20
17.5
 11
21.39722265605916
 21
18.14455587415375
  0
LINE
  5
1BA
100
AcDbEntity
  8
0
  6
ByLayer
 62
  256
370
   -1
100
AcDbLine
 10
20.9
 20
17.5
 11
21.4
 21
16.9
  0
LINE
  5
1BB
100
AcDbEntity
  8
0
  6
ByLayer
 62
  256
370
   -1
100
AcDbLine
 10
21.78488661094561
 20
18.13706487682445
 11
22.23785596813458
 21
17.49161624578247
  0
LINE
  5
1BC
100
AcDbEntity
  8
0
  6
ByLayer
 62
  256
370
   -1
100
AcDbLine
 10
22.23785596813458
 20
17.49161624578247
 11
21.78932972235792
 21
16.88885785533341
  0
LINE
  5
1BD
100
AcDbEntity
  8
0
  6
ByLayer
 62
  256
370
   -1
100
AcDbLine
 10
22.23785596813458
 20
17.49161624578247
 11
23.03785596813458
 21
17.49161624578247
  0
LINE
  5
1BE
100
AcDbEntity
  8
0
  6
ByLayer
 62
  256
370
   -1
100
AcDbLine
 10
23.03785596813458
 20
17.49161624578247
 11
23.53507862419373
 21
18.13617211993622
  0
LINE
  5
1BF
100
AcDbEntity
  8
0
  6
ByLayer
 62
  256
370
   -1
100
AcDbLine
 10
23.03785596813458
 20
17.49161624578247
 11
23.53785596813458
 21
16.89161624578247
  0
LINE
  5
1C0
100
AcDbEntity
  8
0
  6
ByLayer
 62
  256
370
   -1
100
AcDbLine
 10
15.44703064281103
 20
21.64544863104198
 11
15.9
 21
21
  0
LINE
  5
1C1
100
AcDbEntity
  8
0
  6
ByLayer
 62
  256
370
   -1
100
AcDbLine
 10
15.9
 20
21
 11
15.45147375422334
 21
20.39724160955095
  0
LINE
  5
1C2
100
AcDbEntity
  8
0
  6
ByLayer
 62
  256
370
   -1
100
AcDbLine
 10
15.9
 20
21
 11
16.7
 21
21
  0
LINE
  5
1C3
100
AcDbEntity
  8
0
  6
ByLayer
 62
  256
370
   -1
100
AcDbLine
 10
16.7
 20
21
 11
17.19722265605916
 21
21.64455587415375
  0
LINE
  5
1C4
100
AcDbEntity
  8
0
  6
ByLayer
 62
  256
370
   -1
100
AcDbLine
 10
16.7
 20
21
 11
17.2
 21
20.4
  0
LINE
  5
1C5
100
AcDbEntity
  8
0
  6
ByLayer
 62
  256
370
   -1
100
AcDbLine
 10
17.54703064281104
 20
21.64544863104198
 11
18
 21
21
  0
LINE
  5
1C6
100
AcDbEntity
  8
0
  6
ByLayer
 62
  256
370
   -1
100
AcDbLine
 10
18
 20
21
 11
17.55147375422334
 21
20.39724160955095
  0
LINE
  5
1C7
100
AcDbEntity
  8
0
  6
ByLayer
 62
  256
370
   -1
100
AcDbLine
 10
18
 20
21
 11
18.8
 21
21
  0
LINE
  5
1C8
100
AcDbEntity
  8
0
  6
ByLayer
 62
  256
370
   -1
100
AcDbLine
 10
18.8
 20
21
 11
19.29722265605916
 21
21.64455587415375
  0
LINE
  5
1C9
100
AcDbEntity
  8
0
  6
ByLayer
 62
  256
370
   -1
100
AcDbLine
 10
18.8
 20
21
 11
19.3
 21
20.4
  0
LINE
  5
1CA
100
AcDbEntity
  8
0
  6
ByLayer
 62
  256
370
   -1
100
AcDbLine
 10
19.64703064281103
 20
21.64544863104198
 11
20.1
 21
21
  0
LINE
  5
1CB
100
AcDbEntity
  8
0
  6
ByLayer
 62
  256
370
   -1
100
AcDbLine
 10
20.1
 20
21
 11
19.65147375422334
 21
20.39724160955095
  0
LINE
  5
1CC
100
AcDbEntity
  8
0
  6
ByLayer
 62
  256
370
   -1
100
AcDbLine
 10
20.1
 20
21
 11
20.9
 21
21
  0
LINE
  5
1CD
100
AcDbEntity
  8
0
  6
ByLayer
 62
  256
370
   -1
100
AcDbLine
 10
20.9
 20
21
 11
21.39722265605916
 21
21.64455587415375
  0
LINE
  5
1CE
100
AcDbEntity
  8
0
  6
ByLayer
 62
  256
370
   -1
100
AcDbLine
 10
20.9
 20
21
 11
21.4
 21
20.4
  0
LINE
  5
1CF
100
AcDbEntity
  8
0
  6
ByLayer
 62
  256
370
   -1
100
AcDbLine
 10
21.74703064281103
 20
21.64544863104198
 11
22.2
 21
21
  0
LINE
  5
1D0
100
AcDbEntity
  8
0
  6
ByLayer
 62
  256
370
   -1
100
AcDbLine
 10
22.2
 20
21
 11
21.75147375422334
 21
20.39724160955095
  0
LINE
  5
1D1
100
AcDbEntity
  8
0
  6
ByLayer
 62
  256
370
   -1
100
AcDbLine
 10
22.2
 20
21
 11
23
 21
21
  0
LINE
  5
1D2
100
AcDbEntity
  8
0
  6
ByLayer
 62
  256
370
   -1
100
AcDbLine
 10
23
 20
21
 11
23.49722265605916
 21
21.64455587415375
  0
LINE
  5
1D3
100
AcDbEntity
  8
0
  6
ByLayer
 62
  256
370
   -1
100
AcDbLine
 10
23
 20
21
 11
23.5
 21
20.4
  0
LINE
  5
1D4
100
AcDbEntity
  8
0
  6
ByLayer
 62
  256
370
   -1
100
AcDbLine
 10
15.44703064281103
 20
24.64544863104198
 11
15.9
 21
24
  0
LINE
  5
1D5
100
AcDbEntity
  8
0
  6
ByLayer
 62
  256
370
   -1
100
AcDbLine
 10
15.9
 20
24
 11
15.45147375422334
 21
23.39724160955095
  0
LINE
  5
1D6
100
AcDbEntity
  8
0
  6
ByLayer
 62
  256
370
   -1
100
AcDbLine
 10
15.9
 20
24
 11
16.7
 21
24
  0
LINE
  5
1D7
100
AcDbEntity
  8
0
  6
ByLayer
 62
  256
370
   -1
100
AcDbLine
 10
16.7
 20
24
 11
17.19722265605916
 21
24.64455587415375
  0
LINE
  5
1D8
100
AcDbEntity
  8
0
  6
ByLayer
 62
  256
370
   -1
100
AcDbLine
 10
16.7
 20
24
 11
17.2
 21
23.4
  0
LINE
  5
1D9
100
AcDbEntity
  8
0
  6
ByLayer
 62
  256
370
   -1
100
AcDbLine
 10
17.54703064281104
 20
24.64544863104198
 11
18
 21
24
  0
LINE
  5
1DA
100
AcDbEntity
  8
0
  6
ByLayer
 62
  256
370
   -1
100
AcDbLine
 10
18
 20
24
 11
17.55147375422334
 21
23.39724160955095
  0
LINE
  5
1DB
100
AcDbEntity
  8
0
  6
ByLayer
 62
  256
370
   -1
100
AcDbLine
 10
18
 20
24
 11
18.8
 21
24
  0
LINE
  5
1DC
100
AcDbEntity
  8
0
  6
ByLayer
 62
  256
370
   -1
100
AcDbLine
 10
18.8
 20
24
 11
19.29722265605916
 21
24.64455587415375
  0
LINE
  5
1DD
100
AcDbEntity
  8
0
  6
ByLayer
 62
  256
370
   -1
100
AcDbLine
 10
18.8
 20
24
 11
19.3
 21
23.4
  0
LINE
  5
1DE
100
AcDbEntity
  8
0
  6
ByLayer
 62
  256
370
   -1
100
AcDbLine
 10
19.64703064281103
 20
24.64544863104198
 11
20.1
 21
24
  0
LINE
  5
1DF
100
AcDbEntity
  8
0
  6
ByLayer
 62
  256
370
   -1
100
AcDbLine
 10
20.1
 20
24
 11
19.65147375422334
 21
23.39724160955095
  0
LINE
  5
1E0
100
AcDbEntity
  8
0
  6
ByLayer
 62
  256
370
   -1
100
AcDbLine
 10
20.1
 20
24
 11
20.9
 21
24
  0
LINE
  5
1E1
100
AcDbEntity
  8
0
  6
ByLayer
 62
  256
370
   -1
100
AcDbLine
 10
20.9
 20
24
 11
21.39722265605916
 21
24.64455587415375
  0
LINE
  5
1E2
100
AcDbEntity
  8
0
  6
ByLayer
 62
  256
370
   -1
100
AcDbLine
 10
20.9
 20
24
 11
21.4
 21
23.4
  0
LINE
  5
1E3
100
AcDbEntity
  8
0
  6
ByLayer
 62
  256
370
   -1
100
AcDbLine
 10
21.74703064281103
 20
24.64544863104198
 11
22.2
 21
24
  0
LINE
  5
1E4
100
AcDbEntity
  8
0
  6
ByLayer
 62
  256
370
   -1
100
AcDbLine
 10
22.2
 20
24
 11
21.75147375422334
 21
23.39724160955095
  0
LINE
  5
1E5
100
AcDbEntity
  8
0
  6
ByLayer
 62
  256
370
   -1
100
AcDbLine
 10
22.2
 20
24
 11
23
 21
24
  0
LINE
  5
1E6
100
AcDbEntity
  8
0
  6
ByLayer
 62
  256
370
   -1
100
AcDbLine
 10
23
 20
24
 11
23.49722265605916
 21
24.64455587415375
  0
LINE
  5
1E7
100
AcDbEntity
  8
0
  6
ByLayer
 62
  256
370
   -1
100
AcDbLine
 10
23
 20
24
 11
23.5
 21
23.4
  0
LINE
  5
1E8
100
AcDbEntity
  8
0
  6
ByLayer
 62
  256
370
   -1
100
AcDbLine
 10
6.411486896394315
 20
36.58047885910777
 11
6.864456253583283
 21
35.93503022806579
  0
LINE
  5
1E9
100
AcDbEntity
  8
0
  6
ByLayer
 62
  256
370
   -1
100
AcDbLine
 10
6.864456253583283
 20
35.93503022806579
 11
6.415930007806621
 21
35.33227183761674
  0
LINE
  5
1EA
100
AcDbEntity
  8
0
  6
ByLayer
 62
  256
370
   -1
100
AcDbLine
 10
6.864456253583283
 20
35.93503022806579
 11
7.664456253583284
 21
35.93503022806579
  0
LINE
  5
1EB
100
AcDbEntity
  8
0
  6
ByLayer
 62
  256
370
   -1
100
AcDbLine
 10
7.664456253583284
 20
35.93503022806579
 11
8.161678909642438
 21
36.57958610221954
  0
LINE
  5
1EC
100
AcDbEntity
  8
0
  6
ByLayer
 62
  256
370
   -1
100
AcDbLine
 10
7.664456253583284
 20
35.93503022806579
 11
8.164456253583284
 21
35.33503022806579
  0
LINE
  5
1ED
100
AcDbEntity
  8
0
  6
ByLayer
 62
  256
370
   -1
100
AcDbLine
 10
8.651010982277407
 20
36.58981020946561
 11
9.103980339466375
 21
35.94436157842363
  0
LINE
  5
1EE
100
AcDbEntity
  8
0
  6
ByLayer
 62
  256
370
   -1
100
AcDbLine
 10
9.103980339466375
 20
35.94436157842363
 11
8.655454093689713
 21
35.34160318797458
  0
LINE
  5
1EF
100
AcDbEntity
  8
0
  6
ByLayer
 62
  256
370
   -1
100
AcDbLine
 10
9.103980339466375
 20
35.94436157842363
 11
9.903980339466376
 21
35.94436157842363
  0
LINE
  5
1F0
100
AcDbEntity
  8
0
  6
ByLayer
 62
  256
370
   -1
100
AcDbLine
 10
9.903980339466376
 20
35.94436157842363
 11
10.40120299552553
 21
36.58891745257738
  0
LINE
  5
1F1
100
AcDbEntity
  8
0
  6
ByLayer
 62
  256
370
   -1
100
AcDbLine
 10
9.903980339466376
 20
35.94436157842363
 11
10.40398033946638
 21
35.34436157842363
  0
LINE
  5
1F2
100
AcDbEntity
  8
0
  6
ByLayer
 62
  256
370
   -1
100
AcDbLine
 10
10.84387831637127
 20
36.59447588464454
 11
11.29684767356024
 21
35.94902725360256
  0
LINE
  5
1F3
100
AcDbEntity
  8
0
  6
ByLayer
 62
  256
370
   -1
100
AcDbLine
 10
11.29684767356024
 20
35.94902725360256
 11
10.84832142778357
 21
35.3462688631535
  0
LINE
  5
1F4
100
AcDbEntity
  8
0
  6
ByLayer
 62
  256
370
   -1
100
AcDbLine
 10
11.29684767356024
 20
35.94902725360256
 11
12.09684767356024
 21
35.94902725360256
  0
LINE
  5
1F5
100
AcDbEntity
  8
0
  6
ByLayer
 62
  256
370
   -1
100
AcDbLine
 10
12.09684767356024
 20
35.94902725360256
 11
12.59407032961939
 21
36.59358312775631
  0
LINE
  5
1F6
100
AcDbEntity
  8
0
  6
ByLayer
 62
  256
370
   -1
100
AcDbLine
 10
12.09684767356024
 20
35.94902725360256
 11
12.59684767356024
 21
35.34902725360256
  0
LINE
  5
1F7
100
AcDbEntity
  8
0
  6
ByLayer
 62
  256
370
   -1
100
AcDbLine
 10
13.04141132564405
 20
36.59447588464454
 11
13.49438068283302
 21
35.94902725360256
  0
LINE
  5
1F8
100
AcDbEntity
  8
0
  6
ByLayer
 62
  256
370
   -1
100
AcDbLine
 10
13.49438068283302
 20
35.94902725360256
 11
13.04585443705636
 21
35.3462688631535
  0
LINE
  5
1F9
100
AcDbEntity
  8
0
  6
ByLayer
 62
  256
370
   -1
100
AcDbLine
 10
13.49438068283302
 20
35.94902725360256
 11
14.29438068283302
 21
35.94902725360256
  0
LINE
  5
1FA
100
AcDbEntity
  8
0
  6
ByLayer
 62
  256
370
   -1
100
AcDbLine
 10
14.29438068283302
 20
35.94902725360256
 11
14.79160333889218
 21
36.59358312775631
  0
LINE
  5
1FB
100
AcDbEntity
  8
0
  6
ByLayer
 62
  256
370
   -1
100
AcDbLine
 10
14.29438068283302
 20
35.94902725360256
 11
14.79438068283302
 21
35.34902725360256
  0
LINE
  5
1FC
100
AcDbEntity
  8
0
  6
ByLayer
 62
  256
370
   -1
100
AcDbLine
 10
8.747030642811033
 20
45.54544863104199
 11
9.200000000000001
 21
44.90000000000001
  0
LINE
  5
1FD
100
AcDbEntity
  8
0
  6
ByLayer
 62
  256
370
   -1
100
AcDbLine
 10
9.200000000000001
 20
44.90000000000001
 11
8.751473754223339
 21
44.29724160955095
  0
LINE
  5
1FE
100
AcDbEntity
  8
0
  6
ByLayer
 62
  256
370
   -1
100
AcDbLine
 10
9.200000000000001
 20
44.90000000000001
 11
10
 21
44.90000000000001
  0
LINE
  5
1FF
100
AcDbEntity
  8
0
  6
ByLayer
 62
  256
370
   -1
100
AcDbLine
 10
10
 20
44.90000000000001
 11
10.49722265605916
 21
45.54455587415376
  0
LINE
  5
200
100
AcDbEntity
  8
0
  6
ByLayer
 62
  256
370
   -1
100
AcDbLine
 10
10
 20
44.90000000000001
 11
10.5
 21
44.3
  0
LINE
  5
201
100
AcDbEntity
  8
0
  6
ByLayer
 62
  256
370
   -1
100
AcDbLine
 10
11.50510149843761
 20
45.53775263821821
 11
11.95807085562658
 21
44.89230400717623
  0
LINE
  5
202
100
AcDbEntity
  8
0
  6
ByLayer
 62
  256
370
   -1
100
AcDbLine
 10
11.95807085562658
 20
44.89230400717623
 11
11.50954460984991
 21
44.28954561672717
  0
LINE
  5
203
100
AcDbEntity
  8
0
  6
ByLayer
 62
  256
370
   -1
100
AcDbLine
 10
11.95807085562658
 20
44.89230400717623
 11
12.75807085562658
 21
44.89230400717623
  0
LINE
  5
204
100
AcDbEntity
  8
0
  6
ByLayer
 62
  256
370
   -1
100
AcDbLine
 10
12.75807085562658
 20
44.89230400717623
 11
13.25529351168573
 21
45.53685988132998
  0
LINE
  5
205
100
AcDbEntity
  8
0
  6
ByLayer
 62
  256
370
   -1
100
AcDbLine
 10
12.75807085562658
 20
44.89230400717623
 11
13.25807085562658
 21
44.29230400717623
  0
LINE
  5
206
100
AcDbEntity
  8
0
  6
ByLayer
 62
  256
370
   -1
100
AcDbLine
 10
13.74703064281103
 20
45.54544863104199
 11
14.2
 21
44.90000000000001
  0
LINE
  5
207
100
AcDbEntity
  8
0
  6
ByLayer
 62
  256
370
   -1
100
AcDbLine
 10
14.2
 20
44.90000000000001
 11
13.75147375422334
 21
44.29724160955095
  0
LINE
  5
208
100
AcDbEntity
  8
0
  6
ByLayer
 62
  256
370
   -1
100
AcDbLine
 10
14.2
 20
44.90000000000001
 11
15
 21
44.90000000000001
  0
LINE
  5
209
100
AcDbEntity
  8
0
  6
ByLayer
 62
  256
370
   -1
100
AcDbLine
 10
15
 20
44.90000000000001
 11
15.49722265605916
 21
45.54455587415376
  0
LINE
  5
20A
100
AcDbEntity
  8
0
  6
ByLayer
 62
  256
370
   -1
100
AcDbLine
 10
15
 20
44.90000000000001
 11
15.5
 21
44.3
  0
LINE
  5
20B
100
AcDbEntity
  8
0
  6
ByLayer
 62
  256
370
   -1
100
AcDbLine
 10
15.94703064281103
 20
45.54544863104199
 11
16.4
 21
44.90000000000001
  0
LINE
  5
20C
100
AcDbEntity
  8
0
  6
ByLayer
 62
  256
370
   -1
100
AcDbLine
 10
16.4
 20
44.90000000000001
 11
15.95147375422334
 21
44.29724160955095
  0
LINE
  5
20D
100
AcDbEntity
  8
0
  6
ByLayer
 62
  256
370
   -1
100
AcDbLine
 10
16.4
 20
44.90000000000001
 11
17.2
 21
44.90000000000001
  0
LINE
  5
20E
100
AcDbEntity
  8
0
  6
ByLayer
 62
  256
370
   -1
100
AcDbLine
 10
17.2
 20
44.90000000000001
 11
17.69722265605916
 21
45.54455587415376
  0
LINE
  5
20F
100
AcDbEntity
  8
0
  6
ByLayer
 62
  256
370
   -1
100
AcDbLine
 10
17.2
 20
44.90000000000001
 11
17.7
 21
44.3
  0
LINE
  5
210
100
AcDbEntity
  8
0
  6
ByLayer
 62
  256
370
   -1
100
AcDbLine
 10
18.74703064281103
 20
45.54544863104199
 11
19.2
 21
44.90000000000001
  0
LINE
  5
211
100
AcDbEntity
  8
0
  6
ByLayer
 62
  256
370
   -1
100
AcDbLine
 10
19.2
 20
44.90000000000001
 11
18.75147375422334
 21
44.29724160955095
  0
LINE
  5
212
100
AcDbEntity
  8
0
  6
ByLayer
 62
  256
370
   -1
100
AcDbLine
 10
19.2
 20
44.90000000000001
 11
20
 21
44.90000000000001
  0
LINE
  5
213
100
AcDbEntity
  8
0
  6
ByLayer
 62
  256
370
   -1
100
AcDbLine
 10
20
 20
44.90000000000001
 11
20.49722265605916
 21
45.54455587415376
  0
LINE
  5
214
100
AcDbEntity
  8
0
  6
ByLayer
 62
  256
370
   -1
100
AcDbLine
 10
20
 20
44.90000000000001
 11
20.5
 21
44.3
  0
LINE
  5
215
100
AcDbEntity
  8
0
  6
ByLayer
 62
  256
370
   -1
100
AcDbLine
 10
21.64703064281103
 20
45.54544863104198
 11
22.1
 21
44.9
  0
LINE
  5
216
100
AcDbEntity
  8
0
  6
ByLayer
 62
  256
370
   -1
100
AcDbLine
 10
22.1
 20
44.9
 11
21.65147375422334
 21
44.29724160955094
  0
LINE
  5
217
100
AcDbEntity
  8
0
  6
ByLayer
 62
  256
370
   -1
100
AcDbLine
 10
22.1
 20
44.9
 11
22.9
 21
44.9
  0
LINE
  5
218
100
AcDbEntity
  8
0
  6
ByLayer
 62
  256
370
   -1
100
AcDbLine
 10
22.9
 20
44.9
 11
23.39722265605916
 21
45.54455587415375
  0
LINE
  5
219
100
AcDbEntity
  8
0
  6
ByLayer
 62
  256
370
   -1
100
AcDbLine
 10
22.9
 20
44.9
 11
23.4
 21
44.3
  0
LINE
  5
21A
100
AcDbEntity
  8
0
  6
ByLayer
 62
  256
370
   -1
100
AcDbLine
 10
24.60055243612001
 20
45.56910510416171
 11
25.05352179330898
 21
44.92365647311973
  0
LINE
  5
21B
100
AcDbEntity
  8
0
  6
ByLayer
 62
  256
370
   -1
100
AcDbLine
 10
25.05352179330898
 20
44.92365647311973
 11
24.60499554753232
 21
44.32089808267068
  0
LINE
  5
21C
100
AcDbEntity
  8
0
  6
ByLayer
 62
  256
370
   -1
100
AcDbLine
 10
25.05352179330898
 20
44.92365647311973
 11
25.85352179330898
 21
44.92365647311973
  0
LINE
  5
21D
100
AcDbEntity
  8
0
  6
ByLayer
 62
  256
370
   -1
100
AcDbLine
 10
25.85352179330898
 20
44.92365647311973
 11
26.35074444936814
 21
45.56821234727349
  0
LINE
  5
21E
100
AcDbEntity
  8
0
  6
ByLayer
 62
  256
370
   -1
100
AcDbLine
 10
25.85352179330898
 20
44.92365647311973
 11
26.35352179330898
 21
44.32365647311973
  0
LINE
  5
21F
100
AcDbEntity
  8
0
  6
ByLayer
 62
  256
370
   -1
100
AcDbLine
 10
7.671011912465813
 20
41.88117991679477
 11
7.025563281423834
 21
41.4282105596058
  0
LINE
  5
220
100
AcDbEntity
  8
0
  6
ByLayer
 62
  256
370
   -1
100
AcDbLine
 10
7.025563281423834
 20
41.4282105596058
 11
6.422804890974779
 21
41.87673680538246
  0
LINE
  5
221
100
AcDbEntity
  8
0
  6
ByLayer
 62
  256
370
   -1
100
AcDbLine
 10
7.025563281423834
 20
41.4282105596058
 11
7.025563281423834
 21
40.6282105596058
  0
LINE
  5
222
100
AcDbEntity
  8
0
  6
ByLayer
 62
  256
370
   -1
100
AcDbLine
 10
7.025563281423834
 20
40.6282105596058
 11
7.670119155577586
 21
40.13098790354665
  0
LINE
  5
223
100
AcDbEntity
  8
0
  6
ByLayer
 62
  256
370
   -1
100
AcDbLine
 10
7.025563281423834
 20
40.6282105596058
 11
6.425563281423832
 21
40.1282105596058
  0
LINE
  5
224
100
AcDbEntity
  8
0
  6
ByLayer
 62
  256
370
   -1
100
AcDbLine
 10
7.684875898608301
 20
39.37477222567222
 11
7.039427267566322
 21
38.92180286848325
  0
LINE
  5
225
100
AcDbEntity
  8
0
  6
ByLayer
 62
  256
370
   -1
100
AcDbLine
 10
7.039427267566322
 20
38.92180286848325
 11
6.436668877117268
 21
39.37032911425992
  0
LINE
  5
226
100
AcDbEntity
  8
0
  6
ByLayer
 62
  256
370
   -1
100
AcDbLine
 10
7.039427267566322
 20
38.92180286848325
 11
7.039427267566322
 21
38.12180286848325
  0
LINE
  5
227
100
AcDbEntity
  8
0
  6
ByLayer
 62
  256
370
   -1
100
AcDbLine
 10
7.039427267566322
 20
38.12180286848325
 11
7.683983141720074
 21
37.6245802124241
  0
LINE
  5
228
100
AcDbEntity
  8
0
  6
ByLayer
 62
  256
370
   -1
100
AcDbLine
 10
7.039427267566322
 20
38.12180286848325
 11
6.43942726756632
 21
37.62180286848325
  0
LINE
  5
229
100
AcDbEntity
  8
0
  6
ByLayer
 62
  256
370
   -1
100
AcDbLine
 10
4.608451135578684
 20
37.37110652986619
 11
3.963002504536704
 21
36.91813717267722
  0
LINE
  5
22A
100
AcDbEntity
  8
0
  6
ByLayer
 62
  256
370
   -1
100
AcDbLine
 10
3.963002504536704
 20
36.91813717267722
 11
3.36024411408765
 21
37.36666341845388
  0
LINE
  5
22B
100
AcDbEntity
  8
0
  6
ByLayer
 62
  256
370
   -1
100
AcDbLine
 10
3.963002504536704
 20
36.91813717267722
 11
3.963002504536704
 21
36.11813717267722
  0
LINE
  5
22C
100
AcDbEntity
  8
0
  6
ByLayer
 62
  256
370
   -1
100
AcDbLine
 10
3.963002504536704
 20
36.11813717267722
 11
4.607558378690457
 21
35.62091451661806
  0
LINE
  5
22D
100
AcDbEntity
  8
0
  6
ByLayer
 62
  256
370
   -1
100
AcDbLine
 10
3.963002504536704
 20
36.11813717267722
 11
3.363002504536703
 21
35.61813717267722
  0
LINE
  5
22E
100
AcDbEntity
  8
0
  6
ByLayer
 62
  256
370
   -1
100
AcDbLine
 10
4.608451135578684
 20
39.69394021261478
 11
3.963002504536704
 21
39.24097085542581
  0
LINE
  5
22F
100
AcDbEntity
  8
0
  6
ByLayer
 62
  256
370
   -1
100
AcDbLine
 10
3.963002504536704
 20
39.24097085542581
 11
3.36024411408765
 21
39.68949710120247
  0
LINE
  5
230
100
AcDbEntity
  8
0
  6
ByLayer
 62
  256
370
   -1
100
AcDbLine
 10
3.963002504536704
 20
39.24097085542581
 11
3.963002504536704
 21
38.4409708554258
  0
LINE
  5
231
100
AcDbEntity
  8
0
  6
ByLayer
 62
  256
370
   -1
100
AcDbLine
 10
3.963002504536704
 20
38.4409708554258
 11
4.607558378690457
 21
37.94374819936665
  0
LINE
  5
232
100
AcDbEntity
  8
0
  6
ByLayer
 62
  256
370
   -1
100
AcDbLine
 10
3.963002504536704
 20
38.4409708554258
 11
3.363002504536703
 21
37.9409708554258
  0
LINE
  5
233
100
AcDbEntity
  8
0
  6
ByLayer
 62
  256
370
   -1
100
AcDbLine
 10
4.599585358163614
 20
41.99017656311815
 11
3.954136727121634
 21
41.53720720592918
  0
LINE
  5
234
100
AcDbEntity
  8
0
  6
ByLayer
 62
  256
370
   -1
100
AcDbLine
 10
3.954136727121634
 20
41.53720720592918
 11
3.35137833667258
 21
41.98573345170584
  0
LINE
  5
235
100
AcDbEntity
  8
0
  6
ByLayer
 62
  256
370
   -1
100
AcDbLine
 10
3.954136727121634
 20
41.53720720592918
 11
3.954136727121634
 21
40.73720720592917
  0
LINE
  5
236
100
AcDbEntity
  8
0
  6
ByLayer
 62
  256
370
   -1
100
AcDbLine
 10
3.954136727121634
 20
40.73720720592917
 11
4.598692601275387
 21
40.23998454987002
  0
LINE
  5
237
100
AcDbEntity
  8
0
  6
ByLayer
 62
  256
370
   -1
100
AcDbLine
 10
3.954136727121634
 20
40.73720720592917
 11
3.354136727121632
 21
40.23720720592917
  0
LINE
  5
238
100
AcDbEntity
  8
0
  6
ByLayer
 62
  256
370
   -1
100
AcDbLine
 10
37.8
 20
20
 11
37.8
 21
19
  0
LINE
  5
239
100
AcDbEntity
  8
0
  6
ByLayer
 62
  256
370
   -1
100
AcDbLine
 10
40
 20
20
 11
40
 21
19
  0
LINE
  5
23A
100
AcDbEntity
  8
0
  6
ByLayer
 62
  256
370
   -1
100
AcDbLine
 10
42
 20
20
 11
42
 21
19
  0
LINE
  5
23B
100
AcDbEntity
  8
0
  6
ByLayer
 62
  256
370
   -1
100
AcDbLine
 10
44.4
 20
20
 11
44.4
 21
19
  0
LINE
  5
23C
100
AcDbEntity
  8
0
  6
ByLayer
 62
  256
370
   -1
100
AcDbLine
 10
37.79938627378407
 20
18.06862565342681
 11
37.79938627378407
 21
17.06862565342681
  0
LINE
  5
23D
100
AcDbEntity
  8
0
  6
ByLayer
 62
  256
370
   -1
100
AcDbLine
 10
39.99938627378407
 20
18.06862565342681
 11
39.99938627378407
 21
17.06862565342681
  0
LINE
  5
23E
100
AcDbEntity
  8
0
  6
ByLayer
 62
  256
370
   -1
100
AcDbLine
 10
41.99938627378407
 20
18.06862565342681
 11
41.99938627378407
 21
17.06862565342681
  0
LINE
  5
23F
100
AcDbEntity
  8
0
  6
ByLayer
 62
  256
370
   -1
100
AcDbLine
 10
44.39938627378407
 20
18.06862565342681
 11
44.39938627378407
 21
17.06862565342681
  0
LINE
  5
240
100
AcDbEntity
  8
0
  6
ByLayer
 62
  256
370
   -1
100
AcDbLine
 10
37.79940352140198
 20
16.04618308540672
 11
37.79940352140198
 21
15.04618308540672
  0
LINE
  5
241
100
AcDbEntity
  8
0
  6
ByLayer
 62
  256
370
   -1
100
AcDbLine
 10
39.99940352140198
 20
16.04618308540672
 11
39.99940352140198
 21
15.04618308540672
  0
LINE
  5
242
100
AcDbEntity
  8
0
  6
ByLayer
 62
  256
370
   -1
100
AcDbLine
 10
41.99940352140198
 20
16.04618308540672
 11
41.99940352140198
 21
15.04618308540672
  0
LINE
  5
243
100
AcDbEntity
  8
0
  6
ByLayer
 62
  256
370
   -1
100
AcDbLine
 10
44.39940352140198
 20
16.04618308540672
 11
44.39940352140198
 21
15.04618308540672
  0
LINE
  5
244
100
AcDbEntity
  8
0
  6
ByLayer
 62
  256
370
   -1
100
AcDbLine
 10
37.7999372794206
 20
14.05321764608929
 11
37.7999372794206
 21
13.05321764608929
  0
LINE
  5
245
100
AcDbEntity
  8
0
  6
ByLayer
 62
  256
370
   -1
100
AcDbLine
 10
39.9999372794206
 20
14.05321764608929
 11
39.9999372794206
 21
13.05321764608929
  0
LINE
  5
246
100
AcDbEntity
  8
0
  6
ByLayer
 62
  256
370
   -1
100
AcDbLine
 10
41.9999372794206
 20
14.05321764608929
 11
41.9999372794206
 21
13.05321764608929
  0
LINE
  5
247
100
AcDbEntity
  8
0
  6
ByLayer
 62
  256
370
   -1
100
AcDbLine
 10
44.3999372794206
 20
14.05321764608929
 11
44.3999372794206
 21
13.05321764608929
  0
ENDSEC
  0
SECTION
  2
OBJECTS
  0
DICTIONARY
  5
C
330
0
100
AcDbDictionary
281
    1
  3
ACAD_GROUP
350
D
  0
DICTIONARY
  5
D
330
C
100
AcDbDictionary
281
    1
  0
PLOTSETTINGS
  5
248
100
AcDbPlotSettings
  6
1x1
 40
0
 41
0
 42
0
 43
0
  0
ENDSEC
  0
EOF
