0
SECTION
2
HEADER
9
$INSUNITS
70
1
9
$ACADVER
1
AC1014
9
$HANDSEED
5
FFFF
0
ENDSEC
0
SECTION
2
TABLES
0
TABLE
2
VPORT
5
8
100
AcDbSymbolTable
0
ENDTAB
0
TABLE
2
LTYPE
5
5
100
AcDbSymbolTable
0
LTYPE
5
14
100
AcDbSymbolTableRecord
100
AcDbLinetypeTableRecord
2
BYBLOCK
70
0
0
LTYPE
5
15
100
AcDbSymbolTableRecord
100
AcDbLinetypeTableRecord
2
BYLAYER
70
0
0
LTYPE
5
16
100
AcDbSymbolTableRecord
100
AcDbLinetypeTableRecord
2
DASHED
70
0
3
Dashed __ __ __ __ __ __ __ __ __ __ __ __ __ _
72
65
73
2
40
0.75
49
0.5
74
0
49
-0.25
74
0
0
ENDTAB
0
TABLE
2
LAYER
5
2
100
AcDbSymbolTable
70
2
0
LAYER
5
50
100
AcDbSymbolTableRecord
100
AcDbLayerTableRecord
2
0
70
0
62
7
6
CONTINUOUS
0
ENDTAB
0
TABLE
2
STYLE
5
3
100
AcDbSymbolTable
70
1
0
STYLE
5
11
100
AcDbSymbolTableRecord
100
AcDbTextStyleTableRecord
2
STANDARD
70
0
0
ENDTAB
0
TABLE
2
VIEW
5
6
100
AcDbSymbolTable
70
0
0
ENDTAB
0
TABLE
2
UCS
5
7
100
AcDbSymbolTable
70
0
0
ENDTAB
0
TABLE
2
APPID
5
9
100
AcDbSymbolTable
70
2
0
APPID
5
12
100
AcDbSymbolTableRecord
100
AcDbRegAppTableRecord
2
ACAD
70
0
0
ENDTAB
0
TABLE
2
DIMSTYLE
5
A
100
AcDbSymbolTable
70
1
0
ENDTAB
0
TABLE
2
BLOCK_RECORD
5
1
100
AcDbSymbolTable
70
1
0
BLOCK_RECORD
5
1F
100
AcDbSymbolTableRecord
100
AcDbBlockTableRecord
2
*MODEL_SPACE
0
BLOCK_RECORD
5
1B
100
AcDbSymbolTableRecord
100
AcDbBlockTableRecord
2
*PAPER_SPACE
0
ENDTAB
0
ENDSEC
0
SECTION
2
BLOCKS
0
BLOCK
5
20
100
AcDbEntity
100
AcDbBlockBegin
2
*MODEL_SPACE
0
ENDBLK
5
21
100
AcDbEntity
100
AcDbBlockEnd
0
BLOCK
5
1C
100
AcDbEntity
100
AcDbBlockBegin
2
*PAPER_SPACE
0
ENDBLK
5
1D
100
AcDbEntity
100
AcDbBlockEnd
0
ENDSEC
0
SECTION
2
ENTITIES
0
POINT
5
100
100
AcDbEntity
8
0
100
AcDbPoint
10
0
20
0
30
0
0
LWPOLYLINE
5
101
100
AcDbEntity
8
0
100
AcDbPolyline
90
4
70
1
43
0.0
10
0
20
0
10
48
20
0
10
48
20
47.999999999999993
10
0
20
47.999999999999993
0
LWPOLYLINE
5
102
100
AcDbEntity
8
0
100
AcDbPolyline
90
4
70
1
43
0.0
10
46
20
45.999999999999993
10
34
20
45.999999999999993
10
34
20
37.999999999999993
10
46
20
37.999999999999993
0
LWPOLYLINE
5
103
100
AcDbEntity
8
0
100
AcDbPolyline
90
4
70
1
43
0.0
10
1.5
20
5.5
10
12
20
5.5
10
12
20
13.499999999999996
10
1.5
20
13.499999999999996
0
LWPOLYLINE
5
104
100
AcDbEntity
8
0
100
AcDbPolyline
90
4
70
1
43
0.0
10
28.249999999999996
20
1.9999999999999998
10
46
20
1.9999999999999998
10
46
20
10.800000000000001
10
28.249999999999996
20
10.800000000000001
0
LWPOLYLINE
5
105
100
AcDbEntity
8
0
100
AcDbPolyline
90
4
70
1
43
0.0
10
0.99999998498150677
20
0.99999998498150677
10
24.999999984981503
20
0.99999998498150677
10
24.999999984981503
20
4.4999999849815069
10
0.99999998498150677
20
4.4999999849815069
0
LWPOLYLINE
5
106
100
AcDbEntity
8
0
100
AcDbPolyline
90
4
70
1
43
0.0
10
15.447742746742469
20
15.146974698831269
10
17.197742746742467
20
15.146974698831269
10
17.197742746742467
20
13.89697469883127
10
15.447742746742469
20
13.89697469883127
0
LWPOLYLINE
5
107
100
AcDbEntity
8
0
100
AcDbPolyline
90
4
70
1
43
0.0
10
17.553898786751255
20
15.146974698831269
10
19.303898786751255
20
15.146974698831269
10
19.303898786751255
20
13.89697469883127
10
17.553898786751255
20
13.89697469883127
0
LWPOLYLINE
5
108
100
AcDbEntity
8
0
100
AcDbPolyline
90
4
70
1
43
0.0
10
19.650025512283804
20
15.146974698831269
10
21.400025512283804
20
15.146974698831269
10
21.400025512283804
20
13.89697469883127
10
19.650025512283804
20
13.89697469883127
0
LWPOLYLINE
5
109
100
AcDbEntity
8
0
100
AcDbPolyline
90
4
70
1
43
0.0
10
21.780538458877725
20
15.146974698831269
10
23.530538458877725
20
15.146974698831269
10
23.530538458877725
20
13.89697469883127
10
21.780538458877725
20
13.89697469883127
0
LWPOLYLINE
5
110
100
AcDbEntity
8
0
100
AcDbPolyline
90
4
70
1
43
0.0
10
15.456017751752896
20
21.661432662753764
10
17.206017751752896
20
21.661432662753764
10
17.206017751752896
20
20.411432662753768
10
15.456017751752897
20
20.411432662753768
0
LWPOLYLINE
5
111
100
AcDbEntity
8
0
100
AcDbPolyline
90
4
70
1
43
0.0
10
17.567193206034197
20
21.661432662753764
10
19.317193206034197
20
21.661432662753764
10
19.317193206034197
20
20.411432662753768
10
17.567193206034197
20
20.411432662753768
0
LWPOLYLINE
5
112
100
AcDbEntity
8
0
100
AcDbPolyline
90
4
70
1
43
0.0
10
19.656882100293572
20
21.661432662753764
10
21.406882100293572
20
21.661432662753764
10
21.406882100293572
20
20.411432662753768
10
19.656882100293572
20
20.411432662753768
0
LWPOLYLINE
5
113
100
AcDbEntity
8
0
100
AcDbPolyline
90
4
70
1
43
0.0
10
21.747984089774409
20
21.661432662753764
10
23.497984089774409
20
21.661432662753764
10
23.497984089774409
20
20.411432662753768
10
21.747984089774409
20
20.411432662753768
0
SPLINE
5
114
100
AcDbEntity
8
0
100
AcDbSpline
70
6
71
5
72
76
73
70
74
0
42
0.000000001
43
0.0000000001
44
0.0000000001
40
0
40
0
40
0
40
0
40
0
40
0
40
0.015384615384615385
40
0.030769230769230771
40
0.046153846153846156
40
0.061538461538461542
40
0.076923076923076927
40
0.092307692307692313
40
0.1076923076923077
40
0.12307692307692308
40
0.13846153846153847
40
0.15384615384615385
40
0.16923076923076924
40
0.18461538461538463
40
0.20000000000000001
40
0.2153846153846154
40
0.23076923076923078
40
0.24615384615384617
40
0.26153846153846155
40
0.27692307692307694
40
0.29230769230769232
40
0.30769230769230771
40
0.32307692307692309
40
0.33846153846153848
40
0.35384615384615387
40
0.36923076923076925
40
0.38461538461538464
40
0.40000000000000002
40
0.41538461538461541
40
0.43076923076923079
40
0.44615384615384618
40
0.46153846153846156
40
0.47692307692307695
40
0.49230769230769234
40
0.50769230769230766
40
0.52307692307692299
40
0.53846153846153832
40
0.55384615384615365
40
0.56923076923076898
40
0.58461538461538431
40
0.59999999999999964
40
0.61538461538461497
40
0.6307692307692303
40
0.64615384615384563
40
0.66153846153846096
40
0.67692307692307629
40
0.69230769230769162
40
0.70769230769230695
40
0.72307692307692228
40
0.73846153846153761
40
0.75384615384615294
40
0.76923076923076827
40
0.7846153846153836
40
0.79999999999999893
40
0.81538461538461426
40
0.83076923076922959
40
0.84615384615384492
40
0.86153846153846025
40
0.87692307692307558
40
0.89230769230769091
40
0.90769230769230624
40
0.92307692307692157
40
0.9384615384615369
40
0.95384615384615223
40
0.96923076923076756
40
0.98461538461538289
40
1
40
1
40
1
40
1
40
1
40
1
41
1
41
1
41
1
41
1
41
1
41
1
41
1
41
1
41
1
41
1
41
1
41
1
41
1
41
1
41
1
41
1
41
1
41
1
41
1
41
1
41
1
41
1
41
1
41
1
41
1
41
1
41
1
41
1
41
1
41
1
41
1
41
1
41
1
41
1
41
1
41
1
41
1
41
1
41
1
41
1
41
1
41
1
41
1
41
1
41
1
41
1
41
1
41
1
41
1
41
1
41
1
41
1
41
1
41
1
41
1
41
1
41
1
41
1
41
1
41
1
41
1
41
1
41
1
41
1
41
1
41
1
41
1
41
1
41
1
41
1
10
10.624849733865249
20
24.201364181181507
30
0
10
10.632470791270803
20
24.316191268837223
30
0
10
10.641949023901551
20
24.543828300428615
30
0
10
10.63873752709179
20
24.878385841939306
30
0
10
10.599869557832042
20
25.308123693972536
30
0
10
10.497405952178182
20
25.815327914304092
30
0
10
10.346906766878664
20
26.292836361199168
30
0
10
10.155272737141154
20
26.743364452425695
30
0
10
9.9294828128317238
20
27.171410720878136
30
0
10
9.6755136845536693
20
27.582842539203952
30
0
10
9.3978305946340228
20
27.983213575664561
30
0
10
9.0991301874024781
20
28.375716387056507
30
0
10
8.7799231777586577
20
28.759077153042583
30
0
10
8.4383493449673992
20
29.125859292636616
30
0
10
8.0694620072485872
20
29.459590991499152
30
0
10
7.6671172230650093
20
29.737945987111974
30
0
10
7.2268371005079173
20
29.938287811428825
30
0
10
6.7485180353082166
20
30.042674364251173
30
0
10
6.2388576200165078
20
30.042588131221475
30
0
10
5.7148223182673403
20
29.945104216413164
30
0
10
5.19985703402625
20
29.768621264811703
30
0
10
4.7184864087131393
20
29.53620751589871
30
0
10
4.2911494604646867
20
29.269418020094744
30
0
10
3.9296502800237532
20
28.982712627839319
30
0
10
3.6305421802076818
20
28.675621284151187
30
0
10
3.3774094158049563
20
28.334773462718076
30
0
10
3.1492249864359398
20
27.942689630003354
30
0
10
2.9270282527685869
20
27.484692078555305
30
0
10
2.7010001412240352
20
26.956292028979526
30
0
10
2.4781699979170986
20
26.371192592683244
30
0
10
2.2767819290452285
20
25.755721617975851
30
0
10
2.1193925609265212
20
25.141978487792855
30
0
10
2.0265267114893963
20
24.561531874783263
30
0
10
2.0098985665445657
20
24.038725965144149
30
0
10
2.0662738866222412
20
23.584524628246328
30
0
10
2.1697736978530542
20
23.189084430008894
30
0
10
2.2827321110825136
20
22.829097198403073
30
0
10
2.3691838969402981
20
22.477072161278993
30
0
10
2.4063033275790184
20
22.10931387155518
30
0
10
2.3995159118420175
20
21.715967864065561
30
0
10
2.3758438806605828
20
21.299299269785575
30
0
10
2.3708821361553465
20
20.868675261047027
30
0
10
2.4189143572558192
20
20.43697789628493
30
0
10
2.5393661168105948
20
20.015682647648902
30
0
10
2.7355321326111741
20
19.613900948290585
30
0
10
3.0010289913758883
20
19.239844298927025
30
0
10
3.3238629564345681
20
18.901535714542149
30
0
10
3.6916468294745615
20
18.607915071894155
30
0
10
4.0958161092577212
20
18.369538333491434
30
0
10
4.5300178919541541
20
18.196680224967604
30
0
10
4.9888194940128141
20
18.097507289908293
30
0
10
5.4664377829400506
20
18.076441919268483
30
0
10
5.9551329648669205
20
18.131915565029615
30
0
10
6.4448817426183655
20
18.256200074254931
30
0
10
6.9250988080027494
20
18.438507370551896
30
0
10
7.3859323873594507
20
18.667410473944997
30
0
10
7.8196137481523103
20
18.93334147996746
30
0
10
8.2220691469289839
20
19.231520315985307
30
0
10
8.5935065972612108
20
19.563202314331352
30
0
10
8.9364293933638486
20
19.932710883776934
30
0
10
9.254147373981791
20
20.345286901554672
30
0
10
9.5491196549504327
20
20.804652871817265
30
0
10
9.82130527054216
20
21.310609188311066
30
0
10
10.066689108432909
20
21.85686177240353
30
0
10
10.278749229712846
20
22.432913556784925
30
0
10
10.449735063123086
20
23.025691519060846
30
0
10
10.547559236633372
20
23.502153939454995
30
0
10
10.596222679468207
20
23.854865774494293
30
0
10
10.617228676459687
20
24.086537093525774
30
0
10
10.624849733865249
20
24.201364181181507
30
0
0
LWPOLYLINE
5
115
100
AcDbEntity
8
0
100
AcDbPolyline
90
4
70
1
43
0.0
10
13.038339038318226
20
36.592465352312985
10
14.788339038318226
20
36.592465352312985
10
14.788339038318226
20
35.342465352312985
10
13.038339038318226
20
35.342465352312985
0
LWPOLYLINE
5
116
100
AcDbEntity
8
0
100
AcDbPolyline
90
4
70
1
43
0.0
10
10.838924514365301
20
36.592465352312985
10
12.588924514365301
20
36.592465352312985
10
12.588924514365301
20
35.342465352312985
10
10.838924514365301
20
35.342465352312985
0
LWPOLYLINE
5
117
100
AcDbEntity
8
0
100
AcDbPolyline
90
4
70
1
43
0.0
10
8.6491354369067039
20
36.592465352312985
10
10.399135436906704
20
36.592465352312985
10
10.399135436906704
20
35.342465352312985
10
8.6491354369067039
20
35.342465352312985
0
LWPOLYLINE
5
118
100
AcDbEntity
8
0
100
AcDbPolyline
90
4
70
1
43
0.0
10
6.4217390629970232
20
36.592465352312985
10
8.1717390629970232
20
36.592465352312985
10
8.1717390629970232
20
35.342465352312985
10
6.4217390629970232
20
35.342465352312985
0
LWPOLYLINE
5
119
100
AcDbEntity
8
0
100
AcDbPolyline
90
4
70
1
43
0.0
10
3.3509999639502897
20
37.391975732179453
10
4.6009999639502901
20
37.391975732179453
10
4.6009999639502901
20
35.641975732179453
10
3.3509999639502897
20
35.641975732179453
0
LWPOLYLINE
5
120
100
AcDbEntity
8
0
100
AcDbPolyline
90
4
70
1
43
0.0
10
6.4217390629970232
20
39.366463553494143
10
7.6717390629970241
20
39.366463553494143
10
7.6717390629970241
20
37.616463553494143
10
6.4217390629970232
20
37.616463553494143
0
LWPOLYLINE
5
121
100
AcDbEntity
8
0
100
AcDbPolyline
90
4
70
1
43
0.0
10
6.4217390629970232
20
41.880680875415443
10
7.6717390629970241
20
41.880680875415443
10
7.6717390629970241
20
40.130680875415443
10
6.4217390629970232
20
40.130680875415443
0
LWPOLYLINE
5
122
100
AcDbEntity
8
0
100
AcDbPolyline
90
4
70
1
43
0.0
10
3.3509999639502897
20
39.689894422576245
10
4.6009999639502901
20
39.689894422576245
10
4.6009999639502901
20
37.939894422576252
10
3.3509999639502897
20
37.939894422576252
0
LWPOLYLINE
5
123
100
AcDbEntity
8
0
100
AcDbPolyline
90
4
70
1
43
0.0
10
3.3509999639502897
20
41.990525321518803
10
4.6009999639502901
20
41.990525321518803
10
4.6009999639502901
20
40.240525321518795
10
3.3509999639502897
20
40.240525321518795
0
LWPOLYLINE
5
124
100
AcDbEntity
8
0
100
AcDbPolyline
90
4
70
1
43
0.0
10
8.7496620450038698
20
45.544772851333853
10
10.49966204500387
20
45.544772851333853
10
10.49966204500387
20
44.294772851333853
10
8.7496620450038698
20
44.294772851333853
0
LWPOLYLINE
5
125
100
AcDbEntity
8
0
100
AcDbPolyline
90
4
70
1
43
0.0
10
11.233026118689008
20
45.544772851333853
10
12.983026118689006
20
45.544772851333853
10
12.983026118689006
20
44.294772851333853
10
11.233026118689008
20
44.294772851333853
0
LWPOLYLINE
5
126
100
AcDbEntity
8
0
100
AcDbPolyline
90
4
70
1
43
0.0
10
13.759093143923963
20
45.544772851333853
10
15.509093143923963
20
45.544772851333853
10
15.509093143923963
20
44.294772851333853
10
13.759093143923963
20
44.294772851333853
0
LWPOLYLINE
5
127
100
AcDbEntity
8
0
100
AcDbPolyline
90
4
70
1
43
0.0
10
16.228791305822497
20
45.544772851333853
10
17.978791305822497
20
45.544772851333853
10
17.978791305822497
20
44.294772851333853
10
16.228791305822497
20
44.294772851333853
0
LWPOLYLINE
5
128
100
AcDbEntity
8
0
100
AcDbPolyline
90
4
70
1
43
0.0
10
18.766113832678901
20
45.544772851333853
10
20.516113832678901
20
45.544772851333853
10
20.516113832678901
20
44.294772851333853
10
18.766113832678901
20
44.294772851333853
0
LWPOLYLINE
5
129
100
AcDbEntity
8
0
100
AcDbPolyline
90
4
70
1
43
0.0
10
21.64719354807109
20
45.544772851333853
10
23.39719354807109
20
45.544772851333853
10
23.39719354807109
20
44.294772851333853
10
21.64719354807109
20
44.294772851333853
0
LWPOLYLINE
5
130
100
AcDbEntity
8
0
100
AcDbPolyline
90
4
70
1
43
0.0
10
24.580400378118295
20
45.544772851333853
10
26.330400378118295
20
45.544772851333853
10
26.330400378118295
20
44.294772851333853
10
24.580400378118295
20
44.294772851333853
0
LWPOLYLINE
5
131
100
AcDbEntity
8
0
100
AcDbPolyline
90
4
70
1
43
0.0
10
35.571822215782483
20
19.999999714648627
10
46.571822215782475
20
19.999999714648627
10
46.571822215782475
20
18.999999714648627
10
35.571822215782483
20
18.999999714648627
0
LWPOLYLINE
5
132
100
AcDbEntity
8
0
100
AcDbPolyline
90
4
70
1
43
0.0
10
35.571822215782483
20
18.06846443642802
10
46.571822215782475
20
18.06846443642802
10
46.571822215782475
20
17.06846443642802
10
35.571822215782483
20
17.06846443642802
0
LWPOLYLINE
5
133
100
AcDbEntity
8
0
100
AcDbPolyline
90
4
70
1
43
0.0
10
35.571822215782483
20
16.046148191528431
10
46.571822215782475
20
16.046148191528431
10
46.571822215782475
20
15.046148191528433
10
35.571822215782483
20
15.046148191528433
0
LWPOLYLINE
5
134
100
AcDbEntity
8
0
100
AcDbPolyline
90
4
70
1
43
0.0
10
35.571822215782483
20
14.053204346619655
10
46.571822215782475
20
14.053204346619655
10
46.571822215782475
20
13.053204346619657
10
35.571822215782483
20
13.053204346619657
0
LWPOLYLINE
5
135
100
AcDbEntity
8
0
100
AcDbPolyline
90
4
70
1
43
0.0
10
41.098462857417836
20
31.515763052182038
10
46.598462857417836
20
31.515763052182038
10
46.598462857417836
20
27.015763052182042
10
41.098462857417836
20
27.015763052182042
0
LWPOLYLINE
5
136
100
AcDbEntity
8
0
100
AcDbPolyline
90
4
70
1
43
0.0
10
29.604657768972956
20
33.994007463832709
10
35.104657768972956
20
33.994007463832709
10
35.104657768972956
20
31.244007463832705
10
29.604657768972956
20
31.244007463832705
0
ENDSEC
0
SECTION
2
OBJECTS
0
DICTIONARY
5
C
100
AcDbDictionary
3
ACAD_GROUP
350
D
3
ACAD_MLINESTYLE
350
17
0
DICTIONARY
5
D
100
AcDbDictionary
0
DICTIONARY
5
1A
330
C
100
AcDbDictionary
0
DICTIONARY
5
17
100
AcDbDictionary
0
ENDSEC
0
EOF
