999
dxfrw 0.6.3
  0
SECTION
  2
HEADER
  9
$ACADVER
  1
AC1021
  9
$DWGCODEPAGE
  3
ANSI_1252
  9
$INSBASE
 10
0
 20
0
 30
0
  9
$EXTMIN
 10
-10.69549198767642
 20
-27.3832685562349
 30
0
  9
$EXTMAX
 10
3200
 20
2070
 30
0
  9
$LIMMIN
 10
0
 20
0
  9
$LIMMAX
 10
420
 20
297
  9
$ORTHOMODE
 70
    0
  9
$REGENMODE
 70
    1
  9
$FILLMODE
 70
    1
  9
$QTEXTMODE
 70
    0
  9
$MIRRTEXT
 70
    0
  9
$LTSCALE
 40
1
  9
$ATTMODE
 70
    0
  9
$TEXTSIZE
 40
2.5
  9
$TRACEWID
 40
15.68
  9
$TEXTSTYLE
  7
STANDARD
  9
$CLAYER
  8
0
  9
$CELTYPE
  6
BYLAYER
  9
$CECOLOR
 62
  256
  9
$CELTSCALE
 40
1
  9
$DISPSILH
 70
    0
  9
$DIMSCALE
 40
2.5
  9
$DIMASZ
 40
2.5
  9
$DIMEXO
 40
0.625
  9
$DIMDLI
 40
3.75
  9
$DIMRND
 40
0
  9
$DIMDLE
 40
0
  9
$DIMEXE
 40
1.25
  9
$DIMTP
 40
0
  9
$DIMTM
 40
0
  9
$DIMTXT
 40
2.5
  9
$DIMCEN
 40
2.5
  9
$DIMTSZ
 40
0
  9
$DIMTOL
 70
    0
  9
$DIMLIM
 70
    0
  9
$DIMTIH
 70
    0
  9
$DIMTOH
 70
    0
  9
$DIMSE1
 70
    0
  9
$DIMSE2
 70
    0
  9
$DIMTAD
 70
    1
  9
$DIMZIN
 70
    8
  9
$DIMBLK
  1

  9
$DIMASO
 70
    1
  9
$DIMSHO
 70
    1
  9
$DIMPOST
  1

  9
$DIMAPOST
  1

  9
$DIMALT
 70
    0
  9
$DIMALTD
 70
    3
  9
$DIMALTF
 40
0.03937
  9
$DIMLFAC
 40
1
  9
$DIMTOFL
 70
    1
  9
$DIMTVP
 40
0
  9
$DIMTIX
 70
    0
  9
$DIMSOXD
 70
    0
  9
$DIMSAH
 70
    0
  9
$DIMBLK1
  1

  9
$DIMBLK2
  1

  9
$DIMSTYLE
  2
Standard
  9
$DIMCLRD
 70
    0
  9
$DIMCLRE
 70
    0
  9
$DIMCLRT
 70
    0
  9
$DIMTFAC
 40
1
  9
$DIMGAP
 40
0.625
  9
$DIMJUST
 70
    0
  9
$DIMSD1
 70
    0
  9
$DIMSD2
 70
    0
  9
$DIMTOLJ
 70
    0
  9
$DIMTZIN
 70
    8
  9
$DIMALTZ
 70
    0
  9
$DIMALTTZ
 70
    0
  9
$DIMUPT
 70
    0
  9
$DIMDEC
 70
    4
  9
$DIMTDEC
 70
    2
  9
$DIMALTU
 70
    2
  9
$DIMALTTD
 70
    3
  9
$DIMTXSTY
  7
STANDARD
  9
$DIMAUNIT
 70
    0
  9
$DIMADEC
 70
    0
  9
$DIMALTRND
 40
0
  9
$DIMAZIN
 70
    0
  9
$DIMDSEP
 70
   44
  9
$DIMATFIT
 70
    3
  9
$DIMFRAC
 70
    0
  9
$DIMLDRBLK
  1
STANDARD
  9
$DIMLUNIT
 70
    2
  9
$DIMLWD
 70
   -2
  9
$DIMLWE
 70
   -2
  9
$DIMTMOVE
 70
    0
  9
$DIMFXL
 40
1
  9
$DIMFXLON
 70
    0
  9
$DIMJOGANG
 40
0.7854
  9
$DIMTFILL
 70
    0
  9
$DIMTFILLCLR
 70
    0
  9
$DIMARCSYM
 70
    0
  9
$DIMLTYPE
  6

  9
$DIMLTEX1
  6

  9
$DIMLTEX2
  6

  9
$LUNITS
 70
    2
  9
$LUPREC
 70
    4
  9
$SKETCHINC
 40
1
  9
$FILLETRAD
 40
0
  9
$AUNITS
 70
    0
  9
$AUPREC
 70
    2
  9
$MENU
  1
.
  9
$ELEVATION
 40
0
  9
$PELEVATION
 40
0
  9
$THICKNESS
 40
0
  9
$LIMCHECK
 70
    0
  9
$CHAMFERA
 40
0
  9
$CHAMFERB
 40
0
  9
$CHAMFERC
 40
0
  9
$CHAMFERD
 40
0
  9
$SKPOLY
 70
    0
  9
$USRTIMER
 70
    1
  9
$ANGBASE
 50
0
  9
$ANGDIR
 70
    0
  9
$PDMODE
 70
   96
  9
$PDSIZE
 40
-2
  9
$PLINEWID
 40
0
  9
$SPLFRAME
 70
    0
  9
$SPLINETYPE
 70
    2
  9
$SPLINESEGS
 70
    8
  9
$HANDSEED
  5
20000
  9
$SURFTAB1
 70
    6
  9
$SURFTAB2
 70
    6
  9
$SURFTYPE
 70
    6
  9
$SURFU
 70
    6
  9
$SURFV
 70
    6
  9
$UCSBASE
  2

  9
$UCSNAME
  2

  9
$UCSORG
 10
0
 20
0
 30
0
  9
$UCSXDIR
 10
1
 20
0
 30
0
  9
$UCSYDIR
 10
0
 20
1
 30
0
  9
$UCSORTHOREF
  2

  9
$UCSORTHOVIEW
 70
    0
  9
$UCSORGTOP
 10
0
 20
0
 30
0
  9
$UCSORGBOTTOM
 10
0
 20
0
 30
0
  9
$UCSORGLEFT
 10
0
 20
0
 30
0
  9
$UCSORGRIGHT
 10
0
 20
0
 30
0
  9
$UCSORGFRONT
 10
0
 20
0
 30
0
  9
$UCSORGBACK
 10
0
 20
0
 30
0
  9
$PUCSBASE
  2

  9
$PUCSNAME
  2

  9
$PUCSORG
 10
0
 20
0
 30
0
  9
$PUCSXDIR
 10
1
 20
0
 30
0
  9
$PUCSYDIR
 10
0
 20
1
 30
0
  9
$PUCSORTHOREF
  2

  9
$PUCSORTHOVIEW
 70
    0
  9
$PUCSORGTOP
 10
0
 20
0
 30
0
  9
$PUCSORGBOTTOM
 10
0
 20
0
 30
0
  9
$PUCSORGLEFT
 10
0
 20
0
 30
0
  9
$PUCSORGRIGHT
 10
0
 20
0
 30
0
  9
$PUCSORGFRONT
 10
0
 20
0
 30
0
  9
$PUCSORGBACK
 10
0
 20
0
 30
0
  9
$USERI1
 70
    0
  9
$USERI2
 70
    0
  9
$USERI3
 70
    0
  9
$USERI4
 70
    0
  9
$USERI5
 70
    0
  9
$USERR1
 40
0
  9
$USERR2
 40
0
  9
$USERR3
 40
0
  9
$USERR4
 40
0
  9
$USERR5
 40
0
  9
$WORLDVIEW
 70
    1
  9
$SHADEDGE
 70
    3
  9
$SHADEDIF
 70
   70
  9
$TILEMODE
 70
    1
  9
$MAXACTVP
 70
   64
  9
$PINSBASE
 10
0
 20
0
 30
0
  9
$PLIMCHECK
 70
    0
  9
$PEXTMIN
 10
0
 20
0
 30
0
  9
$PEXTMAX
 10
0
 20
0
 30
0
  9
$GRIDMODE
 70
    0
  9
$SNAPSTYLE
 70
    0
  9
$PLIMMIN
 10
0
 20
0
  9
$PLIMMAX
 10
210
 20
297
  9
$UNITMODE
 70
    0
  9
$VISRETAIN
 70
    1
  9
$PLINEGEN
 70
    0
  9
$PSLTSCALE
 70
    1
  9
$TREEDEPTH
 70
 3020
  9
$CMLSTYLE
  2
Standard
  9
$CMLJUST
 70
    0
  9
$CMLSCALE
 40
20
  9
$PROXYGRAPHICS
 70
    1
  9
$MEASUREMENT
 70
    1
  9
$CELWEIGHT
370
   -1
  9
$ENDCAPS
280
    0
  9
$JOINSTYLE
280
    0
  9
$LWDISPLAY
290
    0
  9
$INSUNITS
 70
    4
  9
$HYPERLINKBASE
  1

  9
$STYLESHEET
  1

  9
$XEDIT
290
    1
  9
$CEPSNTYPE
380
    0
  9
$PSTYLEMODE
290
    1
  9
$EXTNAMES
290
    1
  9
$PSVPSCALE
 40
1
  9
$OLESTARTUP
290
    0
  9
$SORTENTS
280
  127
  9
$INDEXCTL
280
    0
  9
$HIDETEXT
280
    1
  9
$XCLIPFRAME
290
    0
  9
$HALOGAP
280
    0
  9
$OBSCOLOR
 70
  257
  9
$OBSLTYPE
280
    0
  9
$INTERSECTIONDISPLAY
280
    0
  9
$INTERSECTIONCOLOR
 70
  257
  9
$DIMASSOC
280
    1
  9
$PROJECTNAME
  1

  9
$CAMERADISPLAY
290
    0
  9
$LENSLENGTH
 40
50
  9
$CAMERAHEIGHT
 40
0
  9
$STEPSPERSEC
 40
2
  9
$STEPSIZE
 40
50
  9
$3DDWFPREC
 40
2
  9
$PSOLWIDTH
 40
5
  9
$PSOLHEIGHT
 40
80
  9
$LOFTANG1
 40
1.570796326794897
  9
$LOFTANG2
 40
1.570796326794897
  9
$LOFTMAG1
 40
0
  9
$LOFTMAG2
 40
0
  9
$LOFTPARAM
 70
    7
  9
$LOFTNORMALS
280
    1
  9
$LATITUDE
 40
1
  9
$LONGITUDE
 40
1
  9
$NORTHDIRECTION
 40
0
  9
$TIMEZONE
 70
-8000
  9
$LIGHTGLYPHDISPLAY
280
    1
  9
$TILEMODELIGHTSYNCH
280
    1
  9
$SOLIDHIST
280
    1
  9
$SHOWHIST
280
    1
  9
$DWFFRAME
280
    2
  9
$DGNFRAME
280
    0
  9
$REALWORLDSCALE
290
    1
  9
$INTERFERECOLOR
 62
    1
  9
$CSHADOW
280
    0
  9
$SHADOWPLANELOCATION
 40
0
  0
ENDSEC
  0
SECTION
  2
CLASSES
  0
ENDSEC
  0
SECTION
  2
TABLES
  0
TABLE
  2
VPORT
  5
8
330
0
100
AcDbSymbolTable
 70
    1
  0
VPORT
  5
31
330
2
100
AcDbSymbolTableRecord
100
AcDbViewportTableRecord
  2
*ACTIVE
 70
    0
 10
0
 20
0
 11
1
 21
1
 12
9.867365802122483
 22
3.680311507547111
 13
0
 23
0
 14
10
 24
10
 15
10
 25
10
 16
0
 26
0
 36
1
 17
0
 27
0
 37
0
 40
7.116520721226301
 41
2.448548812664908
 42
50
 43
0
 44
0
 50
0
 51
0
 71
    0
 72
  100
 73
    1
 74
    3
 75
    0
 76
    0
 77
    0
 78
    0
281
    0
 65
    1
110
0
120
0
130
0
111
1
121
0
131
0
112
0
122
1
132
0
 79
    0
146
0
348
10020
 60
    7
 61
    5
292
1
282
    1
141
0
142
0
 63
  250
421
3358443
  0
ENDTAB
  0
TABLE
  2
LTYPE
  5
5
330
0
100
AcDbSymbolTable
 70
    4
  0
LTYPE
  5
14
330
5
100
AcDbSymbolTableRecord
100
AcDbLinetypeTableRecord
  2
ByBlock
 70
    0
  3

 72
   65
 73
    0
 40
0
  0
LTYPE
  5
15
330
5
100
AcDbSymbolTableRecord
100
AcDbLinetypeTableRecord
  2
ByLayer
 70
    0
  3

 72
   65
 73
    0
 40
0
  0
LTYPE
  5
16
330
5
100
AcDbSymbolTableRecord
100
AcDbLinetypeTableRecord
  2
Continuous
 70
    0
  3
Solid line
 72
   65
 73
    0
 40
0
  0
LTYPE
  5
32
330
5
100
AcDbSymbolTableRecord
100
AcDbLinetypeTableRecord
  2
DOT
 70
    0
  3
Dot . . . . . . . . . . . . . . . . . . . . . .
 72
   65
 73
    2
 40
6.35
 49
0
 74
    0
 49
-6.35
 74
    0
  0
LTYPE
  5
33
330
5
100
AcDbSymbolTableRecord
100
AcDbLinetypeTableRecord
  2
DOTTINY
 70
    0
  3
Dot (.15x) .....................................
 72
   65
 73
    2
 40
0.9525
 49
0
 74
    0
 49
-0.9525
 74
    0
  0
LTYPE
  5
34
330
5
100
AcDbSymbolTableRecord
100
AcDbLinetypeTableRecord
  2
DOT2
 70
    0
  3
Dot (.5x) .....................................
 72
   65
 73
    2
 40
3.175
 49
0
 74
    0
 49
-3.175
 74
    0
  0
LTYPE
  5
35
330
5
100
AcDbSymbolTableRecord
100
AcDbLinetypeTableRecord
  2
DOTX2
 70
    0
  3
Dot (2x) .  .  .  .  .  .  .  .  .  .  .  .  .
 72
   65
 73
    2
 40
12.7
 49
0
 74
    0
 49
-12.7
 74
    0
  0
LTYPE
  5
36
330
5
100
AcDbSymbolTableRecord
100
AcDbLinetypeTableRecord
  2
DASHED
 70
    0
  3
Dashed _ _ _ _ _ _ _ _ _ _ _ _ _ _ _ _ _
 72
   65
 73
    2
 40
19.05
 49
12.7
 74
    0
 49
-6.35
 74
    0
  0
LTYPE
  5
37
330
5
100
AcDbSymbolTableRecord
100
AcDbLinetypeTableRecord
  2
DASHEDTINY
 70
    0
  3
Dashed (.15x) _ _ _ _ _ _ _ _ _ _ _ _ _ _ _ _ _
 72
   65
 73
    2
 40
2.8575
 49
1.905
 74
    0
 49
-0.9525
 74
    0
  0
LTYPE
  5
38
330
5
100
AcDbSymbolTableRecord
100
AcDbLinetypeTableRecord
  2
DASHED2
 70
    0
  3
Dashed (.5x) _ _ _ _ _ _ _ _ _ _ _ _ _ _ _ _ _
 72
   65
 73
    2
 40
9.524999999999999
 49
6.35
 74
    0
 49
-3.175
 74
    0
  0
LTYPE
  5
39
330
5
100
AcDbSymbolTableRecord
100
AcDbLinetypeTableRecord
  2
DASHEDX2
 70
    0
  3
Dashed (2x) ____  ____  ____  ____  ____  ___
 72
   65
 73
    2
 40
38.09999999999999
 49
25.4
 74
    0
 49
-12.7
 74
    0
  0
LTYPE
  5
3A
330
5
100
AcDbSymbolTableRecord
100
AcDbLinetypeTableRecord
  2
DASHDOT
 70
    0
  3
Dash dot __ . __ . __ . __ . __ . __ . __ . __
 72
   65
 73
    4
 40
25.4
 49
12.7
 74
    0
 49
-6.35
 74
    0
 49
0
 74
    0
 49
-6.35
 74
    0
  0
LTYPE
  5
3B
330
5
100
AcDbSymbolTableRecord
100
AcDbLinetypeTableRecord
  2
DASHDOTTINY
 70
    0
  3
Dash dot (.15x) _._._._._._._._._._._._._._._.
 72
   65
 73
    4
 40
3.81
 49
1.905
 74
    0
 49
-0.9525
 74
    0
 49
0
 74
    0
 49
-0.9525
 74
    0
  0
LTYPE
  5
3C
330
5
100
AcDbSymbolTableRecord
100
AcDbLinetypeTableRecord
  2
DASHDOT2
 70
    0
  3
Dash dot (.5x) _._._._._._._._._._._._._._._.
 72
   65
 73
    4
 40
12.7
 49
6.35
 74
    0
 49
-3.175
 74
    0
 49
0
 74
    0
 49
-3.175
 74
    0
  0
LTYPE
  5
3D
330
5
100
AcDbSymbolTableRecord
100
AcDbLinetypeTableRecord
  2
DASHDOTX2
 70
    0
  3
Dash dot (2x) ____  .  ____  .  ____  .  ___
 72
   65
 73
    4
 40
50.8
 49
25.4
 74
    0
 49
-12.7
 74
    0
 49
0
 74
    0
 49
-12.7
 74
    0
  0
LTYPE
  5
3E
330
5
100
AcDbSymbolTableRecord
100
AcDbLinetypeTableRecord
  2
DIVIDE
 70
    0
  3
Divide ____ . . ____ . . ____ . . ____ . . ____
 72
   65
 73
    6
 40
31.75
 49
12.7
 74
    0
 49
-6.35
 74
    0
 49
0
 74
    0
 49
-6.35
 74
    0
 49
0
 74
    0
 49
-6.35
 74
    0
  0
LTYPE
  5
3F
330
5
100
AcDbSymbolTableRecord
100
AcDbLinetypeTableRecord
  2
DIVIDETINY
 70
    0
  3
Divide (.15x) __..__..__..__..__..__..__..__.._
 72
   65
 73
    6
 40
4.7625
 49
1.905
 74
    0
 49
-0.9525
 74
    0
 49
0
 74
    0
 49
-0.9525
 74
    0
 49
0
 74
    0
 49
-0.9525
 74
    0
  0
LTYPE
  5
40
330
5
100
AcDbSymbolTableRecord
100
AcDbLinetypeTableRecord
  2
DIVIDE2
 70
    0
  3
Divide (.5x) __..__..__..__..__..__..__..__.._
 72
   65
 73
    6
 40
15.875
 49
6.35
 74
    0
 49
-3.175
 74
    0
 49
0
 74
    0
 49
-3.175
 74
    0
 49
0
 74
    0
 49
-3.175
 74
    0
  0
LTYPE
  5
41
330
5
100
AcDbSymbolTableRecord
100
AcDbLinetypeTableRecord
  2
DIVIDEX2
 70
    0
  3
Divide (2x) ________  .  .  ________  .  .  _
 72
   65
 73
    6
 40
63.5
 49
25.4
 74
    0
 49
-12.7
 74
    0
 49
0
 74
    0
 49
-12.7
 74
    0
 49
0
 74
    0
 49
-12.7
 74
    0
  0
LTYPE
  5
42
330
5
100
AcDbSymbolTableRecord
100
AcDbLinetypeTableRecord
  2
BORDER
 70
    0
  3
Border __ __ . __ __ . __ __ . __ __ . __ __ .
 72
   65
 73
    6
 40
44.45
 49
12.7
 74
    0
 49
-6.35
 74
    0
 49
12.7
 74
    0
 49
-6.35
 74
    0
 49
0
 74
    0
 49
-6.35
 74
    0
  0
LTYPE
  5
43
330
5
100
AcDbSymbolTableRecord
100
AcDbLinetypeTableRecord
  2
BORDERTINY
 70
    0
  3
Border (.15x) __.__.__.__.__.__.__.__.__.__.__.
 72
   65
 73
    6
 40
6.6675
 49
1.905
 74
    0
 49
-0.9525
 74
    0
 49
1.905
 74
    0
 49
-0.9525
 74
    0
 49
0
 74
    0
 49
-0.9525
 74
    0
  0
LTYPE
  5
44
330
5
100
AcDbSymbolTableRecord
100
AcDbLinetypeTableRecord
  2
BORDER2
 70
    0
  3
Border (.5x) __.__.__.__.__.__.__.__.__.__.__.
 72
   65
 73
    6
 40
22.225
 49
6.35
 74
    0
 49
-3.175
 74
    0
 49
6.35
 74
    0
 49
-3.175
 74
    0
 49
0
 74
    0
 49
-3.175
 74
    0
  0
LTYPE
  5
45
330
5
100
AcDbSymbolTableRecord
100
AcDbLinetypeTableRecord
  2
BORDERX2
 70
    0
  3
Border (2x) ____  ____  .  ____  ____  .  ___
 72
   65
 73
    6
 40
88.89999999999999
 49
25.4
 74
    0
 49
-12.7
 74
    0
 49
25.4
 74
    0
 49
-12.7
 74
    0
 49
0
 74
    0
 49
-12.7
 74
    0
  0
LTYPE
  5
46
330
5
100
AcDbSymbolTableRecord
100
AcDbLinetypeTableRecord
  2
CENTER
 70
    0
  3
Center ____ _ ____ _ ____ _ ____ _ ____ _ ____
 72
   65
 73
    4
 40
50.8
 49
31.75
 74
    0
 49
-6.35
 74
    0
 49
6.35
 74
    0
 49
-6.35
 74
    0
  0
LTYPE
  5
47
330
5
100
AcDbSymbolTableRecord
100
AcDbLinetypeTableRecord
  2
CENTERTINY
 70
    0
  3
Center (.15x) ___ _ ___ _ ___ _ ___ _ ___ _ ___
 72
   65
 73
    4
 40
7.619999999999999
 49
4.7625
 74
    0
 49
-0.9525
 74
    0
 49
0.9525
 74
    0
 49
-0.9525
 74
    0
  0
LTYPE
  5
48
330
5
100
AcDbSymbolTableRecord
100
AcDbLinetypeTableRecord
  2
CENTER2
 70
    0
  3
Center (.5x) ___ _ ___ _ ___ _ ___ _ ___ _ ___
 72
   65
 73
    4
 40
28.575
 49
19.05
 74
    0
 49
-3.175
 74
    0
 49
3.175
 74
    0
 49
-3.175
 74
    0
  0
LTYPE
  5
49
330
5
100
AcDbSymbolTableRecord
100
AcDbLinetypeTableRecord
  2
CENTERX2
 70
    0
  3
Center (2x) ________  __  ________  __  _____
 72
   65
 73
    4
 40
101.6
 49
63.5
 74
    0
 49
-12.7
 74
    0
 49
12.7
 74
    0
 49
-12.7
 74
    0
  0
ENDTAB
  0
TABLE
  2
LAYER
  5
2
330
0
100
AcDbSymbolTable
 70
    1
  0
LAYER
  5
10
330
2
100
AcDbSymbolTableRecord
100
AcDbLayerTableRecord
  2
0
 70
    0
 62
    7
  6
CONTINUOUS
370
   -3
390
F
  0
LAYER
  5
4A
330
2
100
AcDbSymbolTableRecord
100
AcDbLayerTableRecord
  2
CENTER
 70
    0
 62
    7
  6
CENTER
370
   -3
390
F
  0
LAYER
  5
4B
330
2
100
AcDbSymbolTableRecord
100
AcDbLayerTableRecord
  2
EASEMENT
 70
    0
 62
    6
  6
DASHDOT
370
   -3
390
F
  0
LAYER
  5
4C
330
2
100
AcDbSymbolTableRecord
100
AcDbLayerTableRecord
  2
ELECA
 70
    0
 62
    1
  6
DASHDOT
370
   -3
390
F
  0
LAYER
  5
4D
330
2
100
AcDbSymbolTableRecord
100
AcDbLayerTableRecord
  2
ELECE
 70
    0
 62
    1
  6
DASHED
370
   -3
390
F
  0
LAYER
  5
4E
330
2
100
AcDbSymbolTableRecord
100
AcDbLayerTableRecord
  2
ELECP
 70
    0
 62
    1
  6
CONTINUOUS
370
   -3
390
F
  0
LAYER
  5
4F
330
2
100
AcDbSymbolTableRecord
100
AcDbLayerTableRecord
  2
FENCE
 70
    0
 62
    8
  6
CONTINUOUS
370
   -3
390
F
  0
LAYER
  5
50
330
2
100
AcDbSymbolTableRecord
100
AcDbLayerTableRecord
  2
FIBER_OPTIC
 70
    0
 62
   30
  6
CONTINUOUS
370
   -3
390
F
  0
LAYER
  5
51
330
2
100
AcDbSymbolTableRecord
100
AcDbLayerTableRecord
  2
GASA
 70
    0
 62
    2
  6
DASHDOT
370
   -3
390
F
  0
LAYER
  5
52
330
2
100
AcDbSymbolTableRecord
100
AcDbLayerTableRecord
  2
GASE
 70
    0
 62
    2
  6
DASHED
370
   -3
390
F
  0
LAYER
  5
53
330
2
100
AcDbSymbolTableRecord
100
AcDbLayerTableRecord
  2
GASP
 70
    0
 62
    2
  6
CONTINUOUS
370
   -3
390
F
  0
LAYER
  5
54
330
2
100
AcDbSymbolTableRecord
100
AcDbLayerTableRecord
  2
GRADEE
 70
    0
 62
    8
  6
DASHED
370
   -3
390
F
  0
LAYER
  5
55
330
2
100
AcDbSymbolTableRecord
100
AcDbLayerTableRecord
  2
GRADEP
 70
    0
 62
    8
  6
DASHEDTINY
370
   -3
390
F
  0
LAYER
  5
56
330
2
100
AcDbSymbolTableRecord
100
AcDbLayerTableRecord
  2
HATCH
 70
    0
 62
    5
  6
CONTINUOUS
370
   -3
390
F
  0
LAYER
  5
57
330
2
100
AcDbSymbolTableRecord
100
AcDbLayerTableRecord
  2
JUD_LOGO
 70
    0
 62
    7
  6
CONTINUOUS
370
   -3
390
F
  0
LAYER
  5
58
330
2
100
AcDbSymbolTableRecord
100
AcDbLayerTableRecord
  2
PROPLINE
 70
    0
 62
    6
  6
DIVIDE2
370
   -3
390
F
  0
LAYER
  5
59
330
2
100
AcDbSymbolTableRecord
100
AcDbLayerTableRecord
  2
RAILROAD
 70
    0
 62
    8
  6
CONTINUOUS
370
   -3
390
F
  0
LAYER
  5
5A
330
2
100
AcDbSymbolTableRecord
100
AcDbLayerTableRecord
  2
ROADE
 70
    0
 62
    8
  6
CONTINUOUS
370
   -3
390
F
  0
LAYER
  5
5B
330
2
100
AcDbSymbolTableRecord
100
AcDbLayerTableRecord
  2
ROADP
 70
    0
 62
    7
  6
CONTINUOUS
370
   -3
390
F
  0
LAYER
  5
5C
330
2
100
AcDbSymbolTableRecord
100
AcDbLayerTableRecord
  2
ROWE
 70
    0
 62
    6
  6
CONTINUOUS
370
   -3
390
F
  0
LAYER
  5
5D
330
2
100
AcDbSymbolTableRecord
100
AcDbLayerTableRecord
  2
ROWP
 70
    0
 62
    6
  6
CONTINUOUS
370
   -3
390
F
  0
LAYER
  5
5E
330
2
100
AcDbSymbolTableRecord
100
AcDbLayerTableRecord
  2
SEWERA
 70
    0
 62
    3
  6
DASHDOT
370
   -3
390
F
  0
LAYER
  5
5F
330
2
100
AcDbSymbolTableRecord
100
AcDbLayerTableRecord
  2
SEWERE
 70
    0
 62
    3
  6
DASHED
370
   -3
390
F
  0
LAYER
  5
60
330
2
100
AcDbSymbolTableRecord
100
AcDbLayerTableRecord
  2
SEWERP
 70
    0
 62
    3
  6
CONTINUOUS
370
   -3
390
F
  0
LAYER
  5
61
330
2
100
AcDbSymbolTableRecord
100
AcDbLayerTableRecord
  2
STORMA
 70
    0
 62
    4
  6
DASHDOT
370
   -3
390
F
  0
LAYER
  5
62
330
2
100
AcDbSymbolTableRecord
100
AcDbLayerTableRecord
  2
STORME
 70
    0
 62
    4
  6
DASHED
370
   -3
390
F
  0
LAYER
  5
63
330
2
100
AcDbSymbolTableRecord
100
AcDbLayerTableRecord
  2
STORMP
 70
    0
 62
    4
  6
CONTINUOUS
370
   -3
390
F
  0
LAYER
  5
64
330
2
100
AcDbSymbolTableRecord
100
AcDbLayerTableRecord
  2
TELEPHONE
 70
    0
 62
    1
  6
CONTINUOUS
370
   -3
390
F
  0
LAYER
  5
65
330
2
100
AcDbSymbolTableRecord
100
AcDbLayerTableRecord
  2
TITLE_ALL
 70
    1
 62
    7
  6
CONTINUOUS
370
   -3
390
F
  0
LAYER
  5
66
330
2
100
AcDbSymbolTableRecord
100
AcDbLayerTableRecord
  2
TITLE_BLOCK
 70
    0
 62
    7
  6
CONTINUOUS
370
   -3
390
F
  0
LAYER
  5
67
330
2
100
AcDbSymbolTableRecord
100
AcDbLayerTableRecord
  2
TITLE_ELEC_LAYER
 70
    1
 62
    7
  6
CONTINUOUS
370
   -3
390
F
  0
LAYER
  5
68
330
2
100
AcDbSymbolTableRecord
100
AcDbLayerTableRecord
  2
TITLE_GAS_LAYER
 70
    1
 62
    7
  6
CONTINUOUS
370
   -3
390
F
  0
LAYER
  5
69
330
2
100
AcDbSymbolTableRecord
100
AcDbLayerTableRecord
  2
TITLE_SEWER_LAYER
 70
    1
 62
    7
  6
CONTINUOUS
370
   -3
390
F
  0
LAYER
  5
6A
330
2
100
AcDbSymbolTableRecord
100
AcDbLayerTableRecord
  2
TITLE_STORM_LAYER
 70
    1
 62
    7
  6
CONTINUOUS
370
   -3
390
F
  0
LAYER
  5
6B
330
2
100
AcDbSymbolTableRecord
100
AcDbLayerTableRecord
  2
TITLE_WATER_LAYER
 70
    1
 62
    7
  6
CONTINUOUS
370
   -3
390
F
  0
LAYER
  5
6C
330
2
100
AcDbSymbolTableRecord
100
AcDbLayerTableRecord
  2
TREELINE
 70
    0
 62
    8
  6
CONTINUOUS
370
   -3
390
F
  0
LAYER
  5
6D
330
2
100
AcDbSymbolTableRecord
100
AcDbLayerTableRecord
  2
WATERA
 70
    0
 62
    5
  6
DASHDOT
370
   -3
390
F
  0
LAYER
  5
6E
330
2
100
AcDbSymbolTableRecord
100
AcDbLayerTableRecord
  2
WATERE
 70
    0
 62
    5
  6
DASHED
370
   -3
390
F
  0
LAYER
  5
6F
330
2
100
AcDbSymbolTableRecord
100
AcDbLayerTableRecord
  2
WATERP
 70
    0
 62
    5
  6
CONTINUOUS
370
   -3
390
F
  0
LAYER
  5
70
330
2
100
AcDbSymbolTableRecord
100
AcDbLayerTableRecord
  2
view
 70
    0
 62
    4
  6
CONTINUOUS
370
   -3
390
F
  0
ENDTAB
  0
TABLE
  2
STYLE
  5
3
330
0
100
AcDbSymbolTable
 70
    3
  0
STYLE
  5
71
330
2
100
AcDbSymbolTableRecord
100
AcDbTextStyleTableRecord
  2
ROMANS
 70
    0
 40
0
 41
1
 50
0
 71
    0
 42
1
  3
ROMANS
  4

  0
STYLE
  5
72
330
2
100
AcDbSymbolTableRecord
100
AcDbTextStyleTableRecord
  2
ARIAL
 70
    0
 40
0
 41
1
 50
0
 71
    0
 42
1
  3
ARIAL
  4

  0
STYLE
  5
73
330
2
100
AcDbSymbolTableRecord
100
AcDbTextStyleTableRecord
  2
Standard
 70
    0
 40
0
 41
1
 50
0
 71
    0
 42
1
  3
txt
  4

  0
ENDTAB
  0
TABLE
  2
VIEW
  5
6
330
0
100
AcDbSymbolTable
 70
    0
  0
ENDTAB
  0
TABLE
  2
UCS
  5
7
330
0
100
AcDbSymbolTable
 70
    0
  0
ENDTAB
  0
TABLE
  2
APPID
  5
9
330
0
100
AcDbSymbolTable
 70
    1
  0
APPID
  5
12
330
9
100
AcDbSymbolTableRecord
100
AcDbRegAppTableRecord
  2
ACAD
 70
    0
  0
APPID
  5
74
330
9
100
AcDbSymbolTableRecord
100
AcDbRegAppTableRecord
  2
LibreCad
 70
    0
  0
ENDTAB
  0
TABLE
  2
DIMSTYLE
  5
A
330
0
100
AcDbSymbolTable
 70
    1
100
AcDbDimStyleTable
 71
    1
  0
DIMSTYLE
105
75
330
A
100
AcDbSymbolTableRecord
100
AcDbDimStyleTableRecord
  2
Standard
 70
    0
 40
1
 41
2.5
 42
0.625
 43
0.38
 44
1.25
 45
0
 46
0
 47
0
 48
0
 49
1
140
2.5
141
0.09
142
2.5
143
25.4
144
1
145
0
146
1
147
0.625
148
0
 71
    0
 72
    0
 73
    0
 74
    1
 75
    0
 76
    0
 77
    0
 78
    1
 79
    0
170
    0
171
    2
172
    0
173
    0
174
    0
175
    0
176
    0
177
    0
178
    0
179
    0
271
    4
272
    4
273
    2
274
    2
275
    0
276
    0
277
    2
278
    0
279
    0
280
    0
281
    0
282
    0
283
    1
284
    0
285
    0
286
    0
288
    0
289
    3
340
73
  0
ENDTAB
  0
TABLE
  2
BLOCK_RECORD
  5
1
330
0
100
AcDbSymbolTable
 70
    2
  0
BLOCK_RECORD
  5
1F
330
1
100
AcDbSymbolTableRecord
100
AcDbBlockTableRecord
  2
*Model_Space
 70
    0
280
    1
281
    0
  0
BLOCK_RECORD
  5
1E
330
1
100
AcDbSymbolTableRecord
100
AcDbBlockTableRecord
  2
*Paper_Space
 70
    0
280
    1
281
    0
  0
BLOCK_RECORD
  5
76
330
1
100
AcDbSymbolTableRecord
100
AcDbBlockTableRecord
  2
*U0
 70
    0
280
    1
281
    0
  0
BLOCK_RECORD
  5
79
330
1
100
AcDbSymbolTableRecord
100
AcDbBlockTableRecord
  2
A$C1405338E
 70
    0
280
    1
281
    0
  0
BLOCK_RECORD
  5
7C
330
1
100
AcDbSymbolTableRecord
100
AcDbBlockTableRecord
  2
GENAXEH
 70
    0
280
    1
281
    0
  0
BLOCK_RECORD
  5
7F
330
1
100
AcDbSymbolTableRecord
100
AcDbBlockTableRecord
  2
TITLEHA
 70
    0
280
    1
281
    0
  0
BLOCK_RECORD
  5
82
330
1
100
AcDbSymbolTableRecord
100
AcDbBlockTableRecord
  2
LEGEND
 70
    0
280
    1
281
    0
  0
BLOCK_RECORD
  5
85
330
1
100
AcDbSymbolTableRecord
100
AcDbBlockTableRecord
  2
TITLEHB
 70
    0
280
    1
281
    0
  0
BLOCK_RECORD
  5
88
330
1
100
AcDbSymbolTableRecord
100
AcDbBlockTableRecord
  2
TITLEHD
 70
    0
280
    1
281
    0
  0
BLOCK_RECORD
  5
8B
330
1
100
AcDbSymbolTableRecord
100
AcDbBlockTableRecord
  2
TITLEHC
 70
    0
280
    1
281
    0
  0
BLOCK_RECORD
  5
8E
330
1
100
AcDbSymbolTableRecord
100
AcDbBlockTableRecord
  2
NORTHA
 70
    0
280
    1
281
    0
  0
BLOCK_RECORD
  5
91
330
1
100
AcDbSymbolTableRecord
100
AcDbBlockTableRecord
  2
A$C05ecc4d1
 70
    0
280
    1
281
    0
  0
BLOCK_RECORD
  5
94
330
1
100
AcDbSymbolTableRecord
100
AcDbBlockTableRecord
  2
A$C503909a3
 70
    0
280
    1
281
    0
  0
ENDTAB
  0
ENDSEC
  0
SECTION
  2
BLOCKS
  0
BLOCK
  5
20
330
1F
100
AcDbEntity
  8
0
100
AcDbBlockBegin
  2
*Model_Space
 70
    0
 10
0
 20
0
 30
0
  3
*Model_Space
  1

  0
ENDBLK
  5
21
330
1F
100
AcDbEntity
  8
0
100
AcDbBlockEnd
  0
BLOCK
  5
1C
330
1B
100
AcDbEntity
  8
0
100
AcDbBlockBegin
  2
*Paper_Space
 70
    0
 10
0
 20
0
 30
0
  3
*Paper_Space
  1

  0
ENDBLK
  5
1D
330
1F
100
AcDbEntity
  8
0
100
AcDbBlockEnd
  0
BLOCK
  5
77
330
76
100
AcDbEntity
  8
0
100
AcDbBlockBegin
  2
*U0
 70
    0
 10
0
 20
0
  3
*U0
  1

  0
ENDBLK
  5
78
330
76
100
AcDbEntity
  8
0
100
AcDbBlockEnd
  0
BLOCK
  5
7A
330
79
100
AcDbEntity
  8
0
100
AcDbBlockBegin
  2
A$C1405338E
 70
    0
 10
0
 20
0
  3
A$C1405338E
  1

  0
TEXT
  5
97
100
AcDbEntity
  8
JUD_LOGO
  6
CONTINUOUS
 62
    8
370
   -3
100
AcDbText
 10
0.5698298906954982
 20
0.2423944647244369
 30
0
 40
0.1446934406519435
  1
Jackson Energy Authority
 50
0
 41
1
 51
0
  7
ARIAL
 71
    0
210
0
220
0
230
1
100
AcDbText
  0
LWPOLYLINE
  5
98
100
AcDbEntity
  8
JUD_LOGO
  6
CONTINUOUS
 62
    8
370
   -3
100
AcDbPolyline
 90
    2
 70
    0
 43
0
 10
0.5423331076569227
 20
0.2215037573785469
 10
3.445542092234469
 20
0.2215037573785469
  0
HATCH
  5
99
100
AcDbEntity
  8
JUD_LOGO
  6
CONTINUOUS
 62
    5
370
   -3
100
AcDbHatch
 10
0
 20
0
 30
0
210
0
220
0
230
1
  2
SOLID
 70
    1
 71
    0
 91
    3
 92
    0
 93
    4
 72
    1
 10
0.4983235054126247
 20
0.5743138824209184
 11
0.124094070494273
 21
0.5743138824209184
 72
    1
 10
0.124094070494273
 20
0.5743138824209184
 11
0.124094070494273
 21
0.2204161171857889
 72
    1
 10
0.124094070494273
 20
0.2204161171857889
 11
0.4983235054126247
 21
0.2204161171857889
 72
    1
 10
0.4983235054126247
 20
0.2204161171857889
 11
0.4983235054126247
 21
0.5743138824209184
 97
    0
 92
    0
 93
   15
 72
    2
 10
0.2296444724435969
 20
0.450830687454139
 40
0.2032792437825934
 50
66.7475614557477
 51
96.54878425384666
 73
    0
 72
    2
 10
0.2207523878903362
 20
0.311638771437116
 40
0.06436762403136362
 50
102.8284715240758
 51
158.4623933477575
 73
    0
 72
    2
 10
0.2751339508483602
 20
0.3250438767702984
 40
0.1201073470177021
 50
162.0401171126734
 51
206.1357956196769
 73
    0
 72
    2
 10
0.3324655611119395
 20
0.3418386313083287
 40
0.1690602728400508
 50
192.333846931024
 51
214.7777029917494
 73
    0
 72
    2
 10
0.4718725285935542
 20
0.2469822333852876
 40
0.3376744767775403
 50
214.5054414387471
 51
235.6336181408076
 73
    0
 72
    2
 10
0.360182763765608
 20
0.4003842382453906
 40
0.1481085760158044
 50
237.8008623018186
 51
269.7621135344077
 73
    0
 72
    2
 10
0.3669905756404924
 20
0.5123389934406136
 40
0.03690668721083386
 50
258.3974286649784
 51
327.5562859174019
 73
    0
 72
    2
 10
0.3873891370763187
 20
0.5292116305866911
 40
0.01113905358399079
 50
344.7670336161821
 51
56.96383628281942
 73
    0
 72
    2
 10
0.3595308956082524
 20
0.3574078898495332
 40
0.1659709889425017
 50
78.2033545128032
 51
131.7007755739453
 73
    1
 72
    2
 10
0.3793805045754159
 20
0.3449732342535512
 40
0.1885735578993332
 50
133.6907850819247
 51
184.0021864958275
 73
    1
 72
    2
 10
0.2600449829958656
 20
0.3406884234710393
 40
0.06934862481582962
 50
187.3540105534792
 51
240.3566098797271
 73
    1
 72
    2
 10
0.2608992366893054
 20
0.3802782655542833
 40
0.1058690789531859
 50
250.606596022559
 51
286.2988723670485
 73
    1
 72
    2
 10
0.1959271648945222
 20
0.6935329538917635
 40
0.4255365156691507
 50
282.8562058089213
 51
309.1008628314028
 73
    1
 72
    2
 10
0.4689389672293868
 20
0.3598869227009177
 40
0.005753584671814376
 50
216.3963242244705
 51
67.03157692366908
 73
    0
 72
    2
 10
0.1392165000650799
 20
0.7571016796320826
 40
0.5217457155449167
 50
50.48625556859625
 51
70.90527399857262
 73
    0
 97
    0
 92
    0
 93
    5
 72
    2
 10
-0.4137481835253628
 20
3.285335625775578
 40
2.988795871830651
 50
74.78432028713051
 51
78.02345385589258
 73
    0
 72
    1
 10
0.2064606484395206
 20
0.361597989080948
 11
0.2058762661548492
 21
0.3744469219038602
 72
    2
 10
-0.1045079075745732
 20
1.537206030444395
 40
1.203472924413207
 50
284.9459111460109
 51
293.922900853452
 73
    1
 72
    2
 10
0.3873933664154668
 20
0.4331431762241733
 40
0.005560053557091847
 50
225.6801321573232
 51
28.2091602974035
 73
    0
 72
    2
 10
0.3659282528153501
 20
0.4274303546256374
 40
0.02654462253673197
 50
353.3268397178707
 51
79.70759123122602
 73
    0
 97
    0
 75
    0
 76
    1
 98
    0
  0
HATCH
  5
9A
100
AcDbEntity
  8
JUD_LOGO
  6
CONTINUOUS
 62
  256
370
   -3
100
AcDbHatch
 10
0
 20
0
 30
0
210
0
220
0
230
1
  2
SOLID
 70
    1
 71
    0
 91
    1
 92
    0
 93
   15
 72
    2
 10
0.3793805045754158
 20
0.344973234253554
 40
0.1885735578993331
 50
175.9978135041562
 51
226.3092149180678
 73
    0
 72
    2
 10
0.3595308956082515
 20
0.3574078898495342
 40
0.1659709889425017
 50
228.2992244260469
 51
281.7966454871971
 73
    0
 72
    2
 10
0.3873891370763184
 20
0.5292116305866917
 40
0.01113905358399079
 50
303.0361637171821
 51
15.23296638381317
 73
    1
 72
    2
 10
0.3669905756404923
 20
0.5123389934406135
 40
0.03690668721083385
 50
32.44371408259788
 51
101.6025713350215
 73
    1
 72
    2
 10
0.3601827637656079
 20
0.4003842382453907
 40
0.1481085760158043
 50
90.23788646559225
 51
122.1991376981862
 73
    1
 72
    2
 10
0.4718725285935589
 20
0.2469822333852912
 40
0.3376744767775403
 50
124.3663818591956
 51
146.0405098375028
 73
    1
 72
    2
 10
0.3324655611119359
 20
0.3418386313083181
 40
0.1690602728400509
 50
146.3127713904681
 51
167.6661530689759
 73
    1
 72
    2
 10
0.2751339508483594
 20
0.3250438767702938
 40
0.1201073470177021
 50
153.8642043803261
 51
197.9598828873224
 73
    1
 72
    2
 10
0.2207523878903339
 20
0.3116387714371166
 40
0.0643676240313636
 50
201.5376066522395
 51
257.1715284759296
 73
    1
 72
    2
 10
0.2296444724435956
 20
0.4508306874541389
 40
0.2032792437825935
 50
263.4512157461547
 51
293.2524385442483
 73
    1
 72
    2
 10
0.1392165000650749
 20
0.75710167963208
 40
0.5217457155449166
 50
289.0947260014263
 51
309.877446689667
 73
    1
 72
    2
 10
0.4689389672293834
 20
0.3598869227009153
 40
0.005753584671814377
 50
326.4227680447768
 51
114.9810392935239
 73
    1
 72
    2
 10
0.1959271648945222
 20
0.6935329538917629
 40
0.4255365156691505
 50
50.51614776232859
 51
77.14379419107819
 73
    0
 72
    2
 10
0.2608992366893054
 20
0.3802782655542827
 40
0.1058690789531858
 50
73.70112763294952
 51
109.3934039774369
 73
    0
 72
    2
 10
0.2600449829958622
 20
0.3406884234710422
 40
0.06934862481582961
 50
119.6433901202629
 51
172.6459894464761
 73
    0
 97
    0
 75
    0
 76
    1
 98
    0
  0
LWPOLYLINE
  5
9B
100
AcDbEntity
  8
JUD_LOGO
  6
CONTINUOUS
 62
  256
370
   -3
100
AcDbPolyline
 90
   15
 70
    1
 43
0
 10
0.2812611035272106
 20
0.5257138909004757
 42
0.09245111918448595
 10
0.1936043145527896
 20
0.4382695913615759
 42
0.09824405878535737
 10
0.1673072740416579
 20
0.3779511785012847
 42
0.194813594365304
 10
0.160879116645301
 20
0.2880086547666135
 42
0.2476320630839215
 10
0.2064606484395206
 20
0.2488778185530733
 42
0.1307702360666256
 10
0.309895654083011
 20
0.2640629204323613
 42
0.08933126751619132
 10
0.4711841526697957
 20
0.3545894819118276
 42
1.017719452106586
 10
0.4665091230334362
 20
0.36510224567837
 42
-0.1167106562733252
 10
0.290611162799923
 20
0.2786639785411219
 42
-0.1570083519761006
 10
0.225745139722612
 20
0.280416103826969
 42
-0.2354807140621413
 10
0.191266804508114
 20
0.3318118290928977
 42
-0.2231206183581905
 10
0.2491202783573812
 20
0.4813266728036658
 42
-0.2377606666873994
 10
0.3934617957057505
 20
0.5198734652466792
 42
0.3258693318640432
 10
0.3981368253421032
 20
0.5321383542990681
 42
0.3112683925971896
 10
0.3595678332289154
 20
0.548491537693677
 42
0.1403684259130612
  0
LWPOLYLINE
  5
9C
100
AcDbEntity
  8
JUD_LOGO
  6
CONTINUOUS
 62
  256
370
   -3
100
AcDbPolyline
 90
    4
 70
    1
 43
0
 10
0.124094070494273
 20
0.2204161171857889
 10
0.124094070494273
 20
0.5743138824209184
 10
0.4983235054126247
 20
0.5743138824209184
 10
0.4983235054126247
 20
0.2204161171857889
  0
LWPOLYLINE
  5
9D
100
AcDbEntity
  8
TITLE_BLOCK
  6
ByLayer
 62
  256
370
   -3
100
AcDbPolyline
 90
    2
 70
    0
 43
0
 10
0.01187498337917958
 20
0.7125000181400125
 10
0.01187498337917958
 20
1.814001393540821e-08
  0
HATCH
  5
9E
100
AcDbEntity
  8
JUD_LOGO
  6
CONTINUOUS
 62
  256
370
   -3
100
AcDbHatch
 10
0
 20
0
 30
0
210
0
220
0
230
1
  2
SOLID
 70
    1
 71
    0
 91
    1
 92
    0
 93
    5
 72
    1
 10
0.2058762661548492
 20
0.3744469219038604
 11
0.2064606484395206
 21
0.361597989080948
 72
    2
 10
-0.4137481835253491
 20
3.285335625775581
 40
2.988795871830653
 50
281.9765461441071
 51
285.3038027354362
 73
    1
 72
    2
 10
0.3659282528153506
 20
0.4274303546256374
 40
0.02654462253673197
 50
290.2270736795138
 51
6.673160282138323
 73
    1
 72
    2
 10
0.3873933664154622
 20
0.4331431762241689
 40
0.005560053557091847
 50
331.790839702697
 51
93.70965074416
 73
    1
 72
    2
 10
-0.1045079075745703
 20
1.537206030444396
 40
1.203472924413207
 50
65.89338226667196
 51
75.05408885398916
 73
    0
 97
    0
 75
    0
 76
    1
 98
    0
  0
LWPOLYLINE
  5
9F
100
AcDbEntity
  8
JUD_LOGO
  6
CONTINUOUS
 62
  256
370
   -3
100
AcDbPolyline
 90
    5
 70
    1
 43
0
 10
0.2058762661548492
 20
0.3744469219038603
 10
0.2064606484395203
 20
0.3615979890809471
 42
0.01413432755717477
 10
0.3706710298086366
 20
0.4013128690650105
 42
0.3958308588863094
 10
0.3922930406834162
 20
0.4305149852825347
 42
0.588567945470333
 10
0.3870336287623813
 20
0.4386915799927031
 42
-0.03999242371576261
  0
LWPOLYLINE
  5
A0
100
AcDbEntity
  8
TITLE_BLOCK
  6
ByLayer
 62
    7
370
   -3
100
AcDbPolyline
 90
    2
 70
    0
 43
0
 10
3.504842691971668
 20
0.7125000181400125
 10
3.504842691971668
 20
1.814001393540821e-08
  0
ENDBLK
  5
7B
330
79
100
AcDbEntity
  8
0
100
AcDbBlockEnd
  0
BLOCK
  5
7D
330
7C
100
AcDbEntity
  8
0
100
AcDbBlockBegin
  2
GENAXEH
 70
    0
 10
0
 20
0
  3
GENAXEH
  1

  0
LINE
  5
A1
100
AcDbEntity
  8
0
  6
ByLayer
 62
  256
370
   -1
100
AcDbLine
 10
-1
 20
0
 11
1
 21
0
  0
ENDBLK
  5
7E
330
7C
100
AcDbEntity
  8
0
100
AcDbBlockEnd
  0
BLOCK
  5
80
330
7F
100
AcDbEntity
  8
0
100
AcDbBlockBegin
  2
TITLEHA
 70
    0
 10
0
 20
0
  3
TITLEHA
  1

  0
LWPOLYLINE
  5
A2
100
AcDbEntity
  8
TITLE_BLOCK
  6
ByLayer
 62
  256
370
   -1
100
AcDbPolyline
 90
    2
 70
    0
 43
0
 10
5.604692313764062
 20
0.7125000000000057
 10
5.604692313764062
 20
7.105427357601002e-15
  0
LWPOLYLINE
  5
A3
100
AcDbEntity
  8
TITLE_BLOCK
  6
ByLayer
 62
  256
370
   -1
100
AcDbPolyline
 90
    2
 70
    0
 43
0
 10
2.045555261615187
 20
0.7125000000000059
 10
2.045555261615187
 20
7.327471962526033e-15
  0
LINE
  5
A4
100
AcDbEntity
  8
TITLE_BLOCK
  6
ByLayer
 62
  256
370
   -1
100
AcDbLine
 10
0
 20
0.5343750000000055
 11
5.604692313764062
 21
0.534375000000037
  0
LINE
  5
A5
100
AcDbEntity
  8
TITLE_BLOCK
  6
ByLayer
 62
  256
370
   -1
100
AcDbLine
 10
0
 20
0.1781250000000101
 11
5.604692313764062
 21
0.1781250000000335
  0
LINE
  5
A6
100
AcDbEntity
  8
TITLE_BLOCK
  6
ByLayer
 62
  256
370
   -1
100
AcDbLine
 10
0
 20
0.3562500000000078
 11
5.604692313764062
 21
0.356250000000035
  0
LWPOLYLINE
  5
A7
100
AcDbEntity
  8
0
  6
ByLayer
 62
  256
370
   -1
100
AcDbPolyline
 90
    4
 70
    1
 43
0
 10
0
 20
0
 10
10.4
 20
0
 10
10.4
 20
7.9
 10
0
 20
7.900000000000001
  0
LWPOLYLINE
  5
A8
100
AcDbEntity
  8
TITLE_BLOCK
  6
ByLayer
 62
  256
370
   -1
100
AcDbPolyline
 90
    2
 70
    0
 43
0
 10
10.4
 20
0.7125000000000049
 10
0
 20
0.7125000000000047
  0
TEXT
  5
A9
100
AcDbEntity
  8
TITLE_STORM_LAYER
  6
ByLayer
 62
  256
370
   -1
100
AcDbText
 10
1.145857310600999
 20
0.5748403796249422
 30
0
 40
0.076
  1
STORM
 50
0
 41
1
 51
0
  7
ROMANS
 71
    0
 72
    1
 11
1.145857310600999
 21
0.5748403796249422
 31
0
210
0
220
0
230
1
100
AcDbText
  0
TEXT
  5
AA
100
AcDbEntity
  8
TITLE_WATER_LAYER
  6
ByLayer
 62
  256
370
   -1
100
AcDbText
 10
1.145857310600999
 20
0.5748403796249422
 30
0
 40
0.076
  1
WATER
 50
0
 41
1
 51
0
  7
ROMANS
 71
    0
 72
    1
 11
1.145857310600999
 21
0.5748403796249422
 31
0
210
0
220
0
230
1
100
AcDbText
  0
TEXT
  5
AB
100
AcDbEntity
  8
TITLE_ELEC_LAYER
  6
ByLayer
 62
  256
370
   -1
100
AcDbText
 10
1.145857310600999
 20
0.5748403796249422
 30
0
 40
0.076
  1
ELECTRIC
 50
0
 41
1
 51
0
  7
ROMANS
 71
    0
 72
    1
 11
1.145857310600999
 21
0.5748403796249422
 31
0
210
0
220
0
230
1
100
AcDbText
  0
TEXT
  5
AC
100
AcDbEntity
  8
TITLE_SEWER_LAYER
  6
ByLayer
 62
  256
370
   -1
100
AcDbText
 10
1.145857310600999
 20
0.5748403796249422
 30
0
 40
0.076
  1
SEWER
 50
0
 41
1
 51
0
  7
ROMANS
 71
    0
 72
    1
 11
1.145857310600999
 21
0.5748403796249422
 31
0
210
0
220
0
230
1
100
AcDbText
  0
TEXT
  5
AD
100
AcDbEntity
  8
TITLE_GAS_LAYER
  6
ByLayer
 62
  256
370
   -1
100
AcDbText
 10
1.145857310600999
 20
0.5748403796249422
 30
0
 40
0.076
  1
GAS
 50
0
 41
1
 51
0
  7
ROMANS
 71
    0
 72
    1
 11
1.145857310600999
 21
0.5748403796249422
 31
0
210
0
220
0
230
1
100
AcDbText
  0
CIRCLE
  5
AE
100
AcDbEntity
  8
TITLE_BLOCK
  6
ByLayer
 62
    7
370
   -1
100
AcDbCircle
 10
1.719407532428303
 20
0.2626971197065515
 40
0.06685866015565552
  0
TEXT
  5
AF
100
AcDbEntity
  8
TITLE_BLOCK
  6
ByLayer
 62
    7
370
   -1
100
AcDbText
 10
3.901315937629601
 20
0.5834792575734293
 30
0
 40
0.076
  1
DESIGNED BY:
 50
0
 41
0.85
 51
0
  7
ROMANS
 71
    0
210
0
220
0
230
1
100
AcDbText
  0
TEXT
  5
B0
100
AcDbEntity
  8
TITLE_BLOCK
  6
ByLayer
 62
    7
370
   -1
100
AcDbText
 10
2.106962428266586
 20
0.5715670483515805
 30
0
 40
0.076
  1
HOR. SCALE:
 50
0
 41
1
 51
0
  7
ROMANS
 71
    0
210
0
220
0
230
1
100
AcDbText
  0
LINE
  5
B1
100
AcDbEntity
  8
TITLE_BLOCK
  6
ByLayer
 62
  256
370
   -1
100
AcDbLine
 10
3.858050298113607
 20
0.7125000000000048
 11
3.8580502981136
 21
5.329070518200751e-15
  0
TEXT
  5
B2
100
AcDbEntity
  8
TITLE_BLOCK
  6
ByLayer
 62
    7
370
   -1
100
AcDbText
 10
1.391279053206642
 20
0.2296246401522382
 30
0
 40
0.076
  1
OUT
 50
0
 41
1
 51
0
  7
ROMANS
 71
    0
210
0
220
0
230
1
100
AcDbText
  0
TEXT
  5
B3
100
AcDbEntity
  8
TITLE_BLOCK
  6
ByLayer
 62
    7
370
   -1
100
AcDbText
 10
0.9190897658573256
 20
0.2296246401522382
 30
0
 40
0.076
  1
IN
 50
0
 41
1
 51
0
  7
ROMANS
 71
    0
210
0
220
0
230
1
100
AcDbText
  0
TEXT
  5
B4
100
AcDbEntity
  8
TITLE_BLOCK
  6
ByLayer
 62
    7
370
   -1
100
AcDbText
 10
9.28112704419668
 20
0.5762805065144327
 30
0
 40
0.076
  1
PROJECT ID #
 50
0
 41
1
 51
0
  7
ROMANS
 71
    0
210
0
220
0
230
1
100
AcDbText
  0
TEXT
  5
B5
100
AcDbEntity
  8
TITLE_BLOCK
  6
ByLayer
 62
    7
370
   -1
100
AcDbText
 10
2.111709043873768
 20
0.4005007509719505
 30
0
 40
0.076
  1
VER. SCALE:
 50
0
 41
1
 51
0
  7
ROMANS
 71
    0
210
0
220
0
230
1
100
AcDbText
  0
TEXT
  5
B6
100
AcDbEntity
  8
TITLE_BLOCK
  6
ByLayer
 62
    7
370
   -1
100
AcDbText
 10
2.097985031378387
 20
0.2263712193438052
 30
0
 40
0.076
  1
DATE:
 50
0
 41
1
 51
0
  7
ROMANS
 71
    0
210
0
220
0
230
1
100
AcDbText
  0
TEXT
  5
B7
100
AcDbEntity
  8
TITLE_BLOCK
  6
ByLayer
 62
    7
370
   -1
100
AcDbText
 10
0.07648049906442722
 20
0.0532101504775726
 30
0
 40
0.076
  1
GRID:
 50
0
 41
1
 51
0
  7
ROMANS
 71
    0
210
0
220
0
230
1
100
AcDbText
  0
TEXT
  5
B8
100
AcDbEntity
  8
TITLE_BLOCK
  6
ByLayer
 62
    7
370
   -1
100
AcDbText
 10
3.903745012539552
 20
0.2396718495798815
 30
0
 40
0.076
  1
CHECKED BY:
 50
0
 41
1
 51
0
  7
ROMANS
 71
    0
210
0
220
0
230
1
100
AcDbText
  0
TEXT
  5
B9
100
AcDbEntity
  8
TITLE_BLOCK
  6
ByLayer
 62
    7
370
   -1
100
AcDbText
 10
2.086693231421703
 20
0.04992561573954291
 30
0
 40
0.076
  1
SHEET         OF
 50
0
 41
1
 51
0
  7
ROMANS
 71
    0
210
0
220
0
230
1
100
AcDbText
  0
TEXT
  5
BA
100
AcDbEntity
  8
TITLE_BLOCK
  6
ByLayer
 62
    7
370
   -1
100
AcDbText
 10
0.06523206677091054
 20
0.2296246401522382
 30
0
 40
0.076
  1
CITY LIMITS:
 50
0
 41
1
 51
0
  7
ROMANS
 71
    0
210
0
220
0
230
1
100
AcDbText
  0
TEXT
  5
BB
100
AcDbEntity
  8
TITLE_BLOCK
  6
ByLayer
 62
    7
370
   -1
100
AcDbText
 10
3.901315937629597
 20
0.4133585415674972
 30
0
 40
0.076
  1
DRAWN BY:
 50
0
 41
1
 51
0
  7
ROMANS
 71
    0
210
0
220
0
230
1
100
AcDbText
  0
CIRCLE
  5
BC
100
AcDbEntity
  8
TITLE_BLOCK
  6
ByLayer
 62
    7
370
   -1
100
AcDbCircle
 10
1.161555586754556
 20
0.2626971197065515
 40
0.06685866015565552
  0
TEXT
  5
BD
100
AcDbEntity
  8
TITLE_BLOCK
  6
ByLayer
 62
    7
370
   -1
100
AcDbText
 10
3.899972954908684
 20
0.05862058760920474
 30
0
 40
0.076
  1
DEPARTMENT:
 50
0
 41
1
 51
0
  7
ROMANS
 71
    0
210
0
220
0
230
1
100
AcDbText
  0
TEXT
  5
BE
100
AcDbEntity
  8
TITLE_BLOCK
  6
ByLayer
 62
    7
370
   -1
100
AcDbText
 10
0.06484369548742208
 20
0.5772112774937828
 30
0
 40
0.076
  1
UTILITY:
 50
0
 41
1
 51
0
  7
ROMANS
 71
    0
210
0
220
0
230
1
100
AcDbText
  0
TEXT
  5
BF
100
AcDbEntity
  8
TITLE_BLOCK
  6
ByLayer
 62
    7
370
   -1
100
AcDbText
 10
0.3907628272300823
 20
0.4051952430000325
 30
0
 40
0.076
  1
DRAWING NO.
 50
0
 41
0.85
 51
0
  7
ROMANS
 71
    0
 72
    1
 11
0.3907628272300823
 21
0.4051952430000325
 31
0
210
0
220
0
230
1
100
AcDbText
  0
LINE
  5
C0
100
AcDbEntity
  8
TITLE_BLOCK
  6
ByLayer
 62
  256
370
   -1
100
AcDbLine
 10
8.956715411318358
 20
0.5343750000000205
 11
10.4
 21
0.5343750000000281
  0
LWPOLYLINE
  5
C1
100
AcDbEntity
  8
TITLE_BLOCK
  6
ByLayer
 62
  256
370
   -1
100
AcDbPolyline
 90
    2
 70
    0
 43
0
 10
8.956715411318358
 20
0.7125000000000047
 10
8.956715411318358
 20
5.218048215738236e-15
  0
LWPOLYLINE
  5
C2
100
AcDbEntity
  8
TITLE_BLOCK
  6
ByLayer
 62
  256
370
   -1
100
AcDbPolyline
 90
    2
 70
    0
 43
0
 10
8.956715411318358
 20
0.7125000000000047
 10
8.956715411318358
 20
5.218048215738236e-15
  0
LWPOLYLINE
  5
C3
100
AcDbEntity
  8
TITLE_BLOCK
  6
ByLayer
 62
  256
370
   -1
100
AcDbPolyline
 90
    3
 70
    0
 43
0
 10
10.4
 20
1.424999999999998
 10
5
 20
1.424999999999999
 10
5
 20
0.7124999999999997
  0
TEXT
  5
C4
100
AcDbEntity
  8
JUD_LOGO
  6
CONTINUOUS
 62
    8
370
   -1
100
AcDbText
 10
6.104379063265875
 20
0.240493319010872
 30
0
 40
0.138598465316805
  1
Jackson Energy Authority
 50
0
 41
1
 51
0
  7
ARIAL
 71
    0
210
0
220
0
230
1
100
AcDbText
  0
LWPOLYLINE
  5
C5
100
AcDbEntity
  8
JUD_LOGO
  6
CONTINUOUS
 62
    8
370
   -1
100
AcDbPolyline
 90
    2
 70
    0
 43
0
 10
6.07804053739266
 20
0.2204825986597835
 10
8.858956575765978
 20
0.2204825986597835
  0
LWPOLYLINE
  5
C6
100
AcDbEntity
  8
JUD_LOGO
  6
CONTINUOUS
 62
    5
370
   -1
100
AcDbPolyline
 90
   15
 70
    1
 43
0
 10
5.827965765885907
 20
0.5118783761738578
 42
0.09245111918448595
 10
5.744001376265246
 20
0.4281175252176075
 42
0.09824405878535759
 10
5.718812055721102
 20
0.3703399271792027
 42
0.1948135943653046
 10
5.712654673977082
 20
0.2841860856492874
 42
0.2476320630839194
 10
5.756316158043002
 20
0.2467035721274343
 42
0.1307702360666256
 10
5.85539413267426
 20
0.2612490263419846
 42
0.08933126751619154
 10
6.009888616160578
 20
0.3479623039786853
 42
1.017719452106645
 10
6.005410514527286
 20
0.3580322347075136
 42
-0.1167106562733252
 10
5.836921969152484
 20
0.2752350386778424
 42
-0.1570083519761006
 10
5.774788321564783
 20
0.276913358542011
 42
-0.2354807140621413
 10
5.741762330021029
 20
0.3261441226568612
 42
-0.2231206183581908
 10
5.797178820586364
 20
0.4693608972875922
 42
-0.2377606666873994
 10
5.935440186795118
 20
0.506283968930752
 42
0.3258693318640648
 10
5.939918288428403
 20
0.5180322195237493
 42
0.3112683925971875
 10
5.902973952239988
 20
0.5336965517237773
 42
0.1403684259130612
  0
LWPOLYLINE
  5
C7
100
AcDbEntity
  8
JUD_LOGO
  6
CONTINUOUS
 62
  256
370
   -1
100
AcDbPolyline
 90
    4
 70
    1
 43
0
 10
5.677419137935028
 20
0.2194407735372767
 10
5.677419137935028
 20
0.5584311722701654
 10
6.035884767906638
 20
0.5584311722701654
 10
6.035884767906638
 20
0.2194407735372767
  0
LWPOLYLINE
  5
C8
100
AcDbEntity
  8
JUD_LOGO
  6
CONTINUOUS
 62
    5
370
   -1
100
AcDbPolyline
 90
    5
 70
    1
 43
0
 10
5.755756391909521
 20
0.3669832816789574
 10
5.756316158043
 20
0.3546755892072695
 42
0.01413432755717477
 10
5.913609444762153
 20
0.392717544607812
 42
0.3958308588863053
 10
5.934320663673012
 20
0.4206895692795297
 42
0.5885679454703545
 10
5.929282795906237
 20
0.4285217382654958
 42
-0.03999242371576261
  0
HATCH
  5
C9
100
AcDbEntity
  8
HATCH
  6
ByLayer
 62
    5
370
   -1
100
AcDbHatch
 10
0
 20
0
 30
0
210
0
220
0
230
1
  2
SOLID
 70
    1
 71
    0
 91
    3
 92
    0
 93
    4
 72
    1
 10
5.677419137935028
 20
0.5584311722701654
 11
5.677419137935027
 21
0.2194407735372767
 72
    1
 10
5.677419137935027
 20
0.2194407735372767
 11
6.035884767906638
 21
0.2194407735372768
 72
    1
 10
6.035884767906638
 20
0.2194407735372768
 11
6.035884767906637
 21
0.5584311722701654
 72
    1
 10
6.035884767906637
 20
0.5584311722701654
 11
5.677419137935028
 21
0.5584311722701654
 97
    0
 92
    0
 93
   15
 72
    2
 10
5.921952047100946
 20
0.3387511250783953
 40
0.1806302041503508
 50
133.6907850819402
 51
184.0021864958315
 73
    1
 72
    2
 10
5.807643339849371
 20
0.3346468049657974
 40
0.06642742703468757
 50
187.3540105534917
 51
240.3566098797305
 73
    1
 72
    2
 10
5.808461609498422
 20
0.3725689894832777
 40
0.1014095165703571
 50
250.6065960225598
 51
286.2988723670528
 73
    1
 72
    2
 10
5.746226380322609
 20
0.6726283346840471
 40
0.4076114835770371
 50
282.8562058089228
 51
309.4838522376712
 73
    1
 72
    2
 10
6.007738005497154
 20
0.3530365987094334
 40
0.005511224295937431
 50
245.0189607064861
 51
67.03157692365942
 73
    0
 72
    2
 10
5.691904559809929
 20
0.733519331470464
 40
0.4997680277303747
 50
50.4862555685965
 51
70.9052739985716
 73
    0
 72
    2
 10
5.778523401250864
 20
0.4401495056120325
 40
0.1947164369862514
 50
66.74756145574725
 51
96.54878425384818
 73
    0
 72
    2
 10
5.770005881265185
 20
0.306820822172464
 40
0.06165624278916638
 50
102.8284715240784
 51
158.4623933477378
 73
    0
 72
    2
 10
5.822096709526308
 20
0.3196612592939945
 40
0.1150480208012308
 50
162.040117112663
 51
206.1357956196732
 73
    0
 72
    2
 10
5.877013319158855
 20
0.3357485621727853
 40
0.1619388844172647
 50
192.3338469310247
 51
214.7777029916673
 73
    0
 72
    2
 10
6.010547995370614
 20
0.2448878353950157
 40
0.3234504898573894
 50
214.5054414387032
 51
235.6336181408
 73
    0
 72
    2
 10
5.903562979830168
 20
0.3918280308477882
 40
0.1418697436701812
 50
237.8008623018037
 51
269.7621135344078
 73
    0
 72
    2
 10
5.910084023726652
 20
0.4990668744682236
 40
0.03535205317049173
 50
258.397428664977
 51
327.5562859174091
 73
    0
 72
    2
 10
5.929623329011935
 20
0.5152287792771569
 40
0.01066983910857766
 50
344.767033616206
 51
56.9638362828294
 73
    0
 72
    2
 10
5.902938570556389
 20
0.3506619910760593
 40
0.1589797315683236
 50
78.2033545128035
 51
131.700775573964
 73
    1
 97
    0
 92
    0
 93
    5
 72
    2
 10
5.92962738019706
 20
0.4232070519617355
 40
0.005325845363964021
 50
266.2903492558311
 51
28.20916029732401
 73
    0
 72
    2
 10
5.909066449518916
 20
0.4177348736610629
 40
0.02542647358047665
 50
353.3268397178643
 51
79.70759123121121
 73
    0
 72
    2
 10
5.162232612175609
 20
3.155255543689236
 40
2.86289771750871
 50
74.78432028713061
 51
78.02345385589278
 73
    0
 72
    1
 10
5.756316158043002
 20
0.3546755892072704
 11
5.755756391909521
 21
0.3669832816789573
 72
    2
 10
5.458446645567924
 20
1.480763058085776
 40
1.15277858914994
 50
284.9459111460108
 51
294.1066177333281
 73
    1
 97
    0
 75
    0
 76
    1
 98
    0
  0
ENDBLK
  5
81
330
7F
100
AcDbEntity
  8
0
100
AcDbBlockEnd
  0
BLOCK
  5
83
330
82
100
AcDbEntity
  8
0
100
AcDbBlockBegin
  2
LEGEND
 70
    0
 10
0
 20
0
  3
LEGEND
  1

  0
TEXT
  5
CA
100
AcDbEntity
  8
SEWERP
  6
ByLayer
 62
    7
370
   -1
100
AcDbText
 10
1.781290251506562
 20
2.962164218279327
 30
0
 40
0.08
  1
PROPOSED SEWER
 50
0
 41
1
 51
0
  7
ROMANS
 71
    0
210
0
220
0
230
1
100
AcDbText
  0
LWPOLYLINE
  5
CB
100
AcDbEntity
  8
SEWERP
  6
ByLayer
 62
  256
370
   -1
100
AcDbPolyline
 90
    2
 70
    0
 43
0
 10
0.8917930442689794
 20
2.997332753694195
 10
0.2035878251367649
 20
2.997332753694195
  0
LWPOLYLINE
  5
CC
100
AcDbEntity
  8
SEWERP
  6
ByLayer
 62
  256
370
   -1
100
AcDbPolyline
 90
    2
 70
    0
 43
0
 10
1.716954832614192
 20
2.997332753694195
 10
1.052527299709709
 20
2.997332753694195
  0
TEXT
  5
CD
100
AcDbEntity
  8
SEWERP
  6
ByLayer
 62
  256
370
   -1
100
AcDbText
 10
0.9753748570983589
 20
2.961624944117716
 30
0
 40
0.06
  1
S
 50
0
 41
1
 51
0
  7
ROMANS
 71
    0
 72
    1
 11
0.9753748570983589
 21
2.961624944117716
 31
0
210
0
220
0
230
1
100
AcDbText
  0
LWPOLYLINE
  5
CE
100
AcDbEntity
  8
SEWERE
  6
ByLayer
 62
  256
370
   -1
100
AcDbPolyline
 90
    2
 70
    0
 43
0
 10
0.8917930442689794
 20
2.867808944170406
 10
0.2035878251367649
 20
2.867808944170406
  0
LWPOLYLINE
  5
CF
100
AcDbEntity
  8
SEWERE
  6
ByLayer
 62
  256
370
   -1
100
AcDbPolyline
 90
    2
 70
    0
 43
0
 10
1.716954832614192
 20
2.867808944170406
 10
1.052527299709709
 20
2.867808944170406
  0
TEXT
  5
D0
100
AcDbEntity
  8
SEWERE
  6
ByLayer
 62
  256
370
   -1
100
AcDbText
 10
0.9753748570983589
 20
2.832101134593927
 30
0
 40
0.06
  1
S
 50
0
 41
1
 51
0
  7
ROMANS
 71
    0
 72
    1
 11
0.9753748570983589
 21
2.832101134593927
 31
0
210
0
220
0
230
1
100
AcDbText
  0
TEXT
  5
D1
100
AcDbEntity
  8
SEWERE
  6
ByLayer
 62
    7
370
   -1
100
AcDbText
 10
1.781290251506562
 20
2.832640408755537
 30
0
 40
0.08
  1
EXISTING SEWER
 50
0
 41
1
 51
0
  7
ROMANS
 71
    0
210
0
220
0
230
1
100
AcDbText
  0
TEXT
  5
D2
100
AcDbEntity
  8
SEWERA
  6
ByLayer
 62
  256
370
   -1
100
AcDbText
 10
0.9753748570983589
 20
2.702577325070138
 30
0
 40
0.06
  1
S
 50
0
 41
1
 51
0
  7
ROMANS
 71
    0
 72
    1
 11
0.9753748570983589
 21
2.702577325070138
 31
0
210
0
220
0
230
1
100
AcDbText
  0
LWPOLYLINE
  5
D3
100
AcDbEntity
  8
SEWERA
  6
ByLayer
 62
  256
370
   -1
100
AcDbPolyline
 90
    2
 70
    0
 43
0
 10
1.716954832614192
 20
2.738285134646617
 10
1.052527299709709
 20
2.738285134646617
  0
LWPOLYLINE
  5
D4
100
AcDbEntity
  8
SEWERA
  6
ByLayer
 62
  256
370
   -1
100
AcDbPolyline
 90
    2
 70
    0
 43
0
 10
0.8917930442689794
 20
2.738285134646617
 10
0.2035878251367649
 20
2.738285134646617
  0
TEXT
  5
D5
100
AcDbEntity
  8
SEWERA
  6
ByLayer
 62
    7
370
   -1
100
AcDbText
 10
1.781290251506107
 20
2.704920063903614
 30
0
 40
0.08
  1
ABANDONED SEWER
 50
0
 41
1
 51
0
  7
ROMANS
 71
    0
210
0
220
0
230
1
100
AcDbText
  0
TEXT
  5
D6
100
AcDbEntity
  8
WATERE
  6
ByLayer
 62
    7
370
   -1
100
AcDbText
 10
1.777301375378102
 20
2.432964695829128
 30
0
 40
0.08
  1
EXISTING WATER
 50
0
 41
1
 51
0
  7
ROMANS
 71
    0
210
0
220
0
230
1
100
AcDbText
  0
LWPOLYLINE
  5
D7
100
AcDbEntity
  8
WATERE
  6
ByLayer
 62
  256
370
   -1
100
AcDbPolyline
 90
    2
 70
    0
 43
0
 10
1.044997696620158
 20
2.466692937254379
 10
1.712965956485732
 20
2.466692937254379
  0
LWPOLYLINE
  5
D8
100
AcDbEntity
  8
WATERE
  6
ByLayer
 62
  256
370
   -1
100
AcDbPolyline
 90
    2
 70
    0
 43
0
 10
0.1995989490083048
 20
2.466692937254379
 10
0.8965313453304589
 20
2.466692937254379
  0
TEXT
  5
D9
100
AcDbEntity
  8
WATERE
  6
ByLayer
 62
  256
370
   -1
100
AcDbText
 10
0.9713859809698988
 20
2.430985127677673
 30
0
 40
0.06
  1
W
 50
0
 41
1
 51
0
  7
ROMANS
 71
    0
 72
    1
 11
0.9713859809698988
 21
2.430985127677673
 31
0
210
0
220
0
230
1
100
AcDbText
  0
TEXT
  5
DA
100
AcDbEntity
  8
WATERP
  6
ByLayer
 62
  256
370
   -1
100
AcDbText
 10
0.9713859809698988
 20
2.560508937201689
 30
0
 40
0.06
  1
W
 50
0
 41
1
 51
0
  7
ROMANS
 71
    0
 72
    1
 11
0.9713859809698988
 21
2.560508937201689
 31
0
210
0
220
0
230
1
100
AcDbText
  0
LWPOLYLINE
  5
DB
100
AcDbEntity
  8
WATERP
  6
ByLayer
 62
  256
370
   -1
100
AcDbPolyline
 90
    2
 70
    0
 43
0
 10
0.1995989490083048
 20
2.596216746778168
 10
0.8965313453304589
 20
2.596216746778168
  0
LWPOLYLINE
  5
DC
100
AcDbEntity
  8
WATERP
  6
ByLayer
 62
  256
370
   -1
100
AcDbPolyline
 90
    2
 70
    0
 43
0
 10
1.044997696620158
 20
2.596216746778168
 10
1.712965956485732
 20
2.596216746778168
  0
TEXT
  5
DD
100
AcDbEntity
  8
WATERP
  6
ByLayer
 62
    7
370
   -1
100
AcDbText
 10
1.777301375378102
 20
2.562488505352917
 30
0
 40
0.08
  1
PROPOSED WATER
 50
0
 41
1
 51
0
  7
ROMANS
 71
    0
210
0
220
0
230
1
100
AcDbText
  0
TEXT
  5
DE
100
AcDbEntity
  8
WATERA
  6
ByLayer
 62
  256
370
   -1
100
AcDbText
 10
0.9713859809698988
 20
2.301461318153883
 30
0
 40
0.06
  1
W
 50
0
 41
1
 51
0
  7
ROMANS
 71
    0
 72
    1
 11
0.9713859809698988
 21
2.301461318153883
 31
0
210
0
220
0
230
1
100
AcDbText
  0
LWPOLYLINE
  5
DF
100
AcDbEntity
  8
WATERA
  6
ByLayer
 62
  256
370
   -1
100
AcDbPolyline
 90
    2
 70
    0
 43
0
 10
0.1995989490083048
 20
2.33716912773059
 10
0.8965313453304589
 20
2.33716912773059
  0
LWPOLYLINE
  5
E0
100
AcDbEntity
  8
WATERA
  6
ByLayer
 62
  256
370
   -1
100
AcDbPolyline
 90
    2
 70
    0
 43
0
 10
1.044997696620158
 20
2.33716912773059
 10
1.712965956485732
 20
2.33716912773059
  0
TEXT
  5
E1
100
AcDbEntity
  8
WATERA
  6
ByLayer
 62
    7
370
   -1
100
AcDbText
 10
1.777301375377647
 20
2.30380405698736
 30
0
 40
0.08
  1
ABANDONED WATER
 50
0
 41
1
 51
0
  7
ROMANS
 71
    0
210
0
220
0
230
1
100
AcDbText
  0
TEXT
  5
E2
100
AcDbEntity
  8
ELECA
  6
ByLayer
 62
    7
370
   -1
100
AcDbText
 10
1.781290251506107
 20
3.482062921046349
 30
0
 40
0.08
  1
ABANDONED ELECTRIC
 50
0
 41
1
 51
0
  7
ROMANS
 71
    0
210
0
220
0
230
1
100
AcDbText
  0
TEXT
  5
E3
100
AcDbEntity
  8
GASA
  6
ByLayer
 62
    7
370
   -1
100
AcDbText
 10
1.781290251506562
 20
3.093491492474982
 30
0
 40
0.08
  1
ABANDONED GAS
 50
0
 41
1
 51
0
  7
ROMANS
 71
    0
210
0
220
0
230
1
100
AcDbText
  0
TEXT
  5
E4
100
AcDbEntity
  8
STORME
  6
ByLayer
 62
  256
370
   -1
100
AcDbText
 10
0.9793637332254548
 20
2.067502855795851
 30
0
 40
0.06
  1
ST
 50
0
 41
1
 51
0
  7
ROMANS
 71
    0
 72
    1
 11
0.9793637332254548
 21
2.067502855795851
 31
0
210
0
220
0
230
1
100
AcDbText
  0
TEXT
  5
E5
100
AcDbEntity
  8
STORMP
  6
ByLayer
 62
  256
370
   -1
100
AcDbText
 10
0.9793637332254548
 20
2.19702666531964
 30
0
 40
0.06
  1
ST
 50
0
 41
1
 51
0
  7
ROMANS
 71
    0
 72
    1
 11
0.9793637332254548
 21
2.19702666531964
 31
0
210
0
220
0
230
1
100
AcDbText
  0
LWPOLYLINE
  5
E6
100
AcDbEntity
  8
STORME
  6
ByLayer
 62
  256
370
   -1
100
AcDbPolyline
 90
    2
 70
    0
 43
0
 10
0.8917930442676152
 20
2.090666087027671
 10
0.2035878251354006
 20
2.090666087027671
  0
LWPOLYLINE
  5
E7
100
AcDbEntity
  8
STORME
  6
ByLayer
 62
  256
370
   -1
100
AcDbPolyline
 90
    2
 70
    0
 43
0
 10
1.716954832613283
 20
2.090666087027671
 10
1.052527299708345
 20
2.090666087027671
  0
LWPOLYLINE
  5
E8
100
AcDbEntity
  8
STORMP
  6
ByLayer
 62
  256
370
   -1
100
AcDbPolyline
 90
    2
 70
    0
 43
0
 10
1.052527299708345
 20
2.22018989655146
 10
1.716954832612828
 20
2.22018989655146
  0
LWPOLYLINE
  5
E9
100
AcDbEntity
  8
STORMP
  6
ByLayer
 62
  256
370
   -1
100
AcDbPolyline
 90
    2
 70
    0
 43
0
 10
0.2035878251354006
 20
2.22018989655146
 10
0.8917930442676152
 20
2.22018989655146
  0
TEXT
  5
EA
100
AcDbEntity
  8
STORME
  6
ByLayer
 62
    7
370
   -1
100
AcDbText
 10
1.781290251505197
 20
2.057301016284441
 30
0
 40
0.08
  1
EXISTING STORM
 50
0
 41
1
 51
0
  7
ROMANS
 71
    0
210
0
220
0
230
1
100
AcDbText
  0
TEXT
  5
EB
100
AcDbEntity
  8
STORMP
  6
ByLayer
 62
    7
370
   -1
100
AcDbText
 10
1.781290251505197
 20
2.186373959640264
 30
0
 40
0.08
  1
PROPOSED STORM
 50
0
 41
1
 51
0
  7
ROMANS
 71
    0
210
0
220
0
230
1
100
AcDbText
  0
TEXT
  5
EC
100
AcDbEntity
  8
STORMA
  6
ByLayer
 62
    7
370
   -1
100
AcDbText
 10
1.781290251505197
 20
1.927777206760652
 30
0
 40
0.08
  1
ABANDONED STORM
 50
0
 41
1
 51
0
  7
ROMANS
 71
    0
210
0
220
0
230
1
100
AcDbText
  0
LWPOLYLINE
  5
ED
100
AcDbEntity
  8
STORMA
  6
ByLayer
 62
  256
370
   -1
100
AcDbPolyline
 90
    2
 70
    0
 43
0
 10
1.716954832613283
 20
1.961142277503654
 10
1.052527299708345
 20
1.961142277503654
  0
LWPOLYLINE
  5
EE
100
AcDbEntity
  8
STORMA
  6
ByLayer
 62
  256
370
   -1
100
AcDbPolyline
 90
    2
 70
    0
 43
0
 10
0.8917930442676152
 20
1.961142277503654
 10
0.2035878251354006
 20
1.961142277503654
  0
TEXT
  5
EF
100
AcDbEntity
  8
STORMA
  6
ByLayer
 62
  256
370
   -1
100
AcDbText
 10
0.9793637332254548
 20
1.937979046271835
 30
0
 40
0.06
  1
ST
 50
0
 41
1
 51
0
  7
ROMANS
 71
    0
 72
    1
 11
0.9793637332254548
 21
1.937979046271835
 31
0
210
0
220
0
230
1
100
AcDbText
  0
TEXT
  5
F0
100
AcDbEntity
  8
GASA
  6
ByLayer
 62
  256
370
   -1
100
AcDbText
 10
0.979363733226819
 20
3.103693331986392
 30
0
 40
0.06
  1
G
 50
0
 41
1
 51
0
  7
ROMANS
 71
    0
 72
    1
 11
0.979363733226819
 21
3.103693331986392
 31
0
210
0
220
0
230
1
100
AcDbText
  0
LWPOLYLINE
  5
F1
100
AcDbEntity
  8
GASA
  6
ByLayer
 62
  256
370
   -1
100
AcDbPolyline
 90
    2
 70
    0
 43
0
 10
0.8917930442689794
 20
3.126856563218212
 10
0.2035878251367649
 20
3.126856563218212
  0
LWPOLYLINE
  5
F2
100
AcDbEntity
  8
GASA
  6
ByLayer
 62
  256
370
   -1
100
AcDbPolyline
 90
    2
 70
    0
 43
0
 10
1.716954832614647
 20
3.126856563218212
 10
1.052527299709709
 20
3.126856563218212
  0
TEXT
  5
F3
100
AcDbEntity
  8
ELECE
  6
ByLayer
 62
    7
370
   -1
100
AcDbText
 10
1.781290251507016
 20
3.611586730570366
 30
0
 40
0.08
  1
EXISTING ELECTRIC
 50
0
 41
1
 51
0
  7
ROMANS
 71
    0
210
0
220
0
230
1
100
AcDbText
  0
LWPOLYLINE
  5
F4
100
AcDbEntity
  8
ELECA
  6
ByLayer
 62
  256
370
   -1
100
AcDbPolyline
 90
    2
 70
    0
 43
0
 10
1.716954832615102
 20
3.515427991789579
 10
1.052527299710164
 20
3.515427991789579
  0
LWPOLYLINE
  5
F5
100
AcDbEntity
  8
ELECA
  6
ByLayer
 62
  256
370
   -1
100
AcDbPolyline
 90
    2
 70
    0
 43
0
 10
0.8917930442694342
 20
3.515427991789579
 10
0.2035878251372196
 20
3.515427991789579
  0
TEXT
  5
F6
100
AcDbEntity
  8
ELECA
  6
ByLayer
 62
  256
370
   -1
100
AcDbText
 10
0.9793637332272738
 20
3.492264760557759
 30
0
 40
0.06
  1
E
 50
0
 41
1
 51
0
  7
ROMANS
 71
    0
 72
    1
 11
0.9793637332272738
 21
3.492264760557759
 31
0
210
0
220
0
230
1
100
AcDbText
  0
LINE
  5
F7
100
AcDbEntity
  8
ROADE
  6
ByLayer
 62
  256
370
   -1
100
AcDbLine
 10
1.716954832611009
 20
1.313523229884709
 11
0.2035878251335816
 21
1.313523229884709
  0
TEXT
  5
F8
100
AcDbEntity
  8
ROADE
  6
ByLayer
 62
    7
370
   -1
100
AcDbText
 10
1.781290251503378
 20
1.278354694469613
 30
0
 40
0.08
  1
EXISTING EDGE OF PAVEMENT
 50
0
 41
1
 51
0
  7
ROMANS
 71
    0
210
0
220
0
230
1
100
AcDbText
  0
TEXT
  5
F9
100
AcDbEntity
  8
EASEMENT
  6
ByLayer
 62
    7
370
   -1
100
AcDbText
 10
1.781290251503378
 20
0.8909604734307095
 30
0
 40
0.08
  1
EASEMENT
 50
0
 41
1
 51
0
  7
ROMANS
 71
    0
210
0
220
0
230
1
100
AcDbText
  0
LINE
  5
FA
100
AcDbEntity
  8
EASEMENT
  6
ByLayer
 62
  256
370
   -1
100
AcDbLine
 10
0.2035878251335816
 20
0.9249518013133411
 11
1.716954832611009
 21
0.9249518013133411
  0
TEXT
  5
FB
100
AcDbEntity
  8
GASP
  6
ByLayer
 62
    7
370
   -1
100
AcDbText
 10
1.781290251506562
 20
3.352088245354594
 30
0
 40
0.08
  1
PROPOSED GAS
 50
0
 41
1
 51
0
  7
ROMANS
 71
    0
210
0
220
0
230
1
100
AcDbText
  0
TEXT
  5
FC
100
AcDbEntity
  8
GASE
  6
ByLayer
 62
    7
370
   -1
100
AcDbText
 10
1.781290251506562
 20
3.223015301998771
 30
0
 40
0.08
  1
EXISTING GAS
 50
0
 41
1
 51
0
  7
ROMANS
 71
    0
210
0
220
0
230
1
100
AcDbText
  0
LINE
  5
FD
100
AcDbEntity
  8
ROWE
  6
ByLayer
 62
  256
370
   -1
100
AcDbLine
 10
0.2035878251335816
 20
1.05447561083713
 11
1.716954832611009
 21
1.05447561083713
  0
LINE
  5
FE
100
AcDbEntity
  8
CENTER
  6
ByLayer
 62
  256
370
   -1
100
AcDbLine
 10
1.716954832611009
 20
1.572570848932287
 11
0.2035878251335816
 21
1.572570848932287
  0
TEXT
  5
FF
100
AcDbEntity
  8
ROWP
  6
ByLayer
 62
    7
370
   -1
100
AcDbText
 10
1.781290251503378
 20
1.150008092478288
 30
0
 40
0.08
  1
PROPOSED R.O.W.
 50
0
 41
1
 51
0
  7
ROMANS
 71
    0
210
0
220
0
230
1
100
AcDbText
  0
TEXT
  5
100
100
AcDbEntity
  8
CENTER
  6
ByLayer
 62
    7
370
   -1
100
AcDbText
 10
1.781290251503378
 20
1.539118082703567
 30
0
 40
0.08
  1
CENTER LINE
 50
0
 41
1
 51
0
  7
ROMANS
 71
    0
210
0
220
0
230
1
100
AcDbText
  0
TEXT
  5
101
100
AcDbEntity
  8
TELEPHONE
  6
ByLayer
 62
    7
370
   -1
100
AcDbText
 10
1.781290251503378
 20
1.668817283198791
 30
0
 40
0.08
  1
TELEPHONE LINE
 50
0
 41
1
 51
0
  7
ROMANS
 71
    0
210
0
220
0
230
1
100
AcDbText
  0
TEXT
  5
102
100
AcDbEntity
  8
0
  6
ByLayer
 62
    7
370
   -1
100
AcDbText
 10
1.220087443631655
 20
3.960456365484447
 30
0
 40
0.125
  1
%%ULEGEND%%U
 50
0
 41
1
 51
0
  7
ROMANS
 71
    0
210
0
220
0
230
1
100
AcDbText
  0
LINE
  5
103
100
AcDbEntity
  8
ROADP
  6
ByLayer
 62
  256
370
   -1
100
AcDbLine
 10
1.716954832611009
 20
1.443047039408498
 11
0.2035878251335816
 21
1.443047039408498
  0
TEXT
  5
104
100
AcDbEntity
  8
ROADP
  6
ByLayer
 62
    7
370
   -1
100
AcDbText
 10
1.781290251504288
 20
1.407878503993629
 30
0
 40
0.08
  1
PROPOSED EDGE OF PAVEMENT
 50
0
 41
1
 51
0
  7
ROMANS
 71
    0
210
0
220
0
230
1
100
AcDbText
  0
LWPOLYLINE
  5
105
100
AcDbEntity
  8
TELEPHONE
  6
ByLayer
 62
  256
370
   -1
100
AcDbPolyline
 90
    2
 70
    0
 43
0
 10
1.716954832611009
 20
1.702094658456076
 10
1.048538423577611
 20
1.702094658456076
  0
LWPOLYLINE
  5
106
100
AcDbEntity
  8
TELEPHONE
  6
ByLayer
 62
  256
370
   -1
100
AcDbPolyline
 90
    2
 70
    0
 43
0
 10
0.8866633620023094
 20
1.702094658456076
 10
0.2035878251335816
 20
1.702094658456076
  0
TEXT
  5
107
100
AcDbEntity
  8
TELEPHONE
  6
ByLayer
 62
  256
370
   -1
100
AcDbText
 10
0.9753748570951757
 20
1.678931427224256
 30
0
 40
0.06
  1
T
 50
0
 41
1
 51
0
  7
ROMANS
 71
    0
 72
    1
 11
0.9753748570951757
 21
1.678931427224256
 31
0
210
0
220
0
230
1
100
AcDbText
  0
LWPOLYLINE
  5
108
100
AcDbEntity
  8
GASP
  6
ByLayer
 62
  256
370
   -1
100
AcDbPolyline
 90
    2
 70
    0
 43
0
 10
0.2035878251367649
 20
3.38590418226579
 10
0.8917930442689794
 20
3.38590418226579
  0
LWPOLYLINE
  5
109
100
AcDbEntity
  8
GASP
  6
ByLayer
 62
  256
370
   -1
100
AcDbPolyline
 90
    2
 70
    0
 43
0
 10
1.052527299709709
 20
3.38590418226579
 10
1.716954832614192
 20
3.38590418226579
  0
LWPOLYLINE
  5
10A
100
AcDbEntity
  8
GASE
  6
ByLayer
 62
  256
370
   -1
100
AcDbPolyline
 90
    2
 70
    0
 43
0
 10
1.716954832614647
 20
3.256380372742001
 10
1.052527299709709
 20
3.256380372742001
  0
LWPOLYLINE
  5
10B
100
AcDbEntity
  8
GASE
  6
ByLayer
 62
  256
370
   -1
100
AcDbPolyline
 90
    2
 70
    0
 43
0
 10
0.8917930442689794
 20
3.256380372742001
 10
0.2035878251367649
 20
3.256380372742001
  0
TEXT
  5
10C
100
AcDbEntity
  8
GASP
  6
ByLayer
 62
  256
370
   -1
100
AcDbText
 10
0.979363733226819
 20
3.36274095103397
 30
0
 40
0.06
  1
G
 50
0
 41
1
 51
0
  7
ROMANS
 71
    0
 72
    1
 11
0.979363733226819
 21
3.36274095103397
 31
0
210
0
220
0
230
1
100
AcDbText
  0
TEXT
  5
10D
100
AcDbEntity
  8
GASE
  6
ByLayer
 62
  256
370
   -1
100
AcDbText
 10
0.979363733226819
 20
3.233217141510181
 30
0
 40
0.06
  1
G
 50
0
 41
1
 51
0
  7
ROMANS
 71
    0
 72
    1
 11
0.979363733226819
 21
3.233217141510181
 31
0
210
0
220
0
230
1
100
AcDbText
  0
TEXT
  5
10E
100
AcDbEntity
  8
ELECE
  6
ByLayer
 62
  256
370
   -1
100
AcDbText
 10
0.9793637332272738
 20
3.621788570081549
 30
0
 40
0.06
  1
E
 50
0
 41
1
 51
0
  7
ROMANS
 71
    0
 72
    1
 11
0.9793637332272738
 21
3.621788570081549
 31
0
210
0
220
0
230
1
100
AcDbText
  0
TEXT
  5
10F
100
AcDbEntity
  8
ELECP
  6
ByLayer
 62
  256
370
   -1
100
AcDbText
 10
0.9793637332272738
 20
3.751312379605338
 30
0
 40
0.06
  1
E
 50
0
 41
1
 51
0
  7
ROMANS
 71
    0
 72
    1
 11
0.9793637332272738
 21
3.751312379605338
 31
0
210
0
220
0
230
1
100
AcDbText
  0
LWPOLYLINE
  5
110
100
AcDbEntity
  8
ELECE
  6
ByLayer
 62
  256
370
   -1
100
AcDbPolyline
 90
    2
 70
    0
 43
0
 10
0.8917930442694342
 20
3.644951801313368
 10
0.2035878251372196
 20
3.644951801313368
  0
LWPOLYLINE
  5
111
100
AcDbEntity
  8
ELECE
  6
ByLayer
 62
  256
370
   -1
100
AcDbPolyline
 90
    2
 70
    0
 43
0
 10
1.716954832615102
 20
3.644951801313368
 10
1.052527299710164
 20
3.644951801313368
  0
LWPOLYLINE
  5
112
100
AcDbEntity
  8
ELECP
  6
ByLayer
 62
  256
370
   -1
100
AcDbPolyline
 90
    2
 70
    0
 43
0
 10
1.052527299710164
 20
3.774475610837158
 10
1.716954832614647
 20
3.774475610837158
  0
LWPOLYLINE
  5
113
100
AcDbEntity
  8
ELECP
  6
ByLayer
 62
  256
370
   -1
100
AcDbPolyline
 90
    2
 70
    0
 43
0
 10
0.2035878251372196
 20
3.774475610837158
 10
0.8917930442694342
 20
3.774475610837158
  0
TEXT
  5
114
100
AcDbEntity
  8
ELECP
  6
ByLayer
 62
    7
370
   -1
100
AcDbText
 10
1.781290251507016
 20
3.740659673926189
 30
0
 40
0.08
  1
PROPOSED ELECTRIC
 50
0
 41
1
 51
0
  7
ROMANS
 71
    0
210
0
220
0
230
1
100
AcDbText
  0
LINE
  5
115
100
AcDbEntity
  8
ROWP
  6
ByLayer
 62
  256
370
   -1
100
AcDbLine
 10
0.2035878251335816
 20
1.183999420360919
 11
1.716954832611009
 21
1.183999420360919
  0
TEXT
  5
116
100
AcDbEntity
  8
ROWE
  6
ByLayer
 62
    7
370
   -1
100
AcDbText
 10
1.781290251503378
 20
1.020484282954499
 30
0
 40
0.08
  1
EXISTING R.O.W.
 50
0
 41
1
 51
0
  7
ROMANS
 71
    0
210
0
220
0
230
1
100
AcDbText
  0
LWPOLYLINE
  5
117
100
AcDbEntity
  8
0
  6
CONTINUOUS
 62
    7
370
   -1
100
AcDbPolyline
 90
    4
 70
    1
 43
0
 10
0
 20
0
 10
9.094947017729282e-13
 20
4.172210784220511
 10
3.796323880693308
 20
4.172210784220511
 10
3.796323880692398
 20
0
  0
LINE
  5
118
100
AcDbEntity
  8
GRADEE
  6
ByLayer
 62
  256
370
   -1
100
AcDbLine
 10
0.2035878251335816
 20
0.5363803727419736
 11
1.716954832611009
 21
0.5363803727419736
  0
LINE
  5
119
100
AcDbEntity
  8
GRADEP
  6
ByLayer
 62
  256
370
   -1
100
AcDbLine
 10
0.2035878251335816
 20
0.6659041822657628
 11
1.716954832611009
 21
0.6659041822657628
  0
TEXT
  5
11A
100
AcDbEntity
  8
GRADEE
  6
ByLayer
 62
    7
370
   -1
100
AcDbText
 10
1.781290251503378
 20
0.502389044859342
 30
0
 40
0.08
  1
EXISTING GRADE
 50
0
 41
1
 51
0
  7
ROMANS
 71
    0
210
0
220
0
230
1
100
AcDbText
  0
TEXT
  5
11B
100
AcDbEntity
  8
GRADEP
  6
ByLayer
 62
    7
370
   -1
100
AcDbText
 10
1.781290251503378
 20
0.6319128543831312
 30
0
 40
0.08
  1
PROPOSED GRADE
 50
0
 41
1
 51
0
  7
ROMANS
 71
    0
210
0
220
0
230
1
100
AcDbText
  0
LINE
  5
11C
100
AcDbEntity
  8
PROPLINE
  6
ByLayer
 62
  256
370
   -1
100
AcDbLine
 10
0.2035878251335816
 20
0.7954279917895519
 11
1.716954832611009
 21
0.7954279917895519
  0
TEXT
  5
11D
100
AcDbEntity
  8
PROPLINE
  6
ByLayer
 62
    7
370
   -1
100
AcDbText
 10
1.781290251503378
 20
0.7614366639069203
 30
0
 40
0.08
  1
PROPERTY LINE
 50
0
 41
1
 51
0
  7
ROMANS
 71
    0
210
0
220
0
230
1
100
AcDbText
  0
TEXT
  5
11E
100
AcDbEntity
  8
FENCE
  6
ByLayer
 62
    7
370
   -1
100
AcDbText
 10
1.781290251503378
 20
0.3728652353355528
 30
0
 40
0.08
  1
FENCE LINE
 50
0
 41
1
 51
0
  7
ROMANS
 71
    0
210
0
220
0
230
1
100
AcDbText
  0
TEXT
  5
11F
100
AcDbEntity
  8
TREELINE
  6
ByLayer
 62
    7
370
   -1
100
AcDbText
 10
1.781290251503378
 20
0.2433414258117637
 30
0
 40
0.08
  1
TREE LINE
 50
0
 41
1
 51
0
  7
ROMANS
 71
    0
210
0
220
0
230
1
100
AcDbText
  0
LWPOLYLINE
  5
120
100
AcDbEntity
  8
FENCE
  6
CONTINUOUS
 62
  256
370
   -1
100
AcDbPolyline
 90
    2
 70
    0
 43
0
 10
0.2035878251335816
 20
0.4068565632181844
 10
1.716954832611009
 20
0.4068565632181844
  0
LWPOLYLINE
  5
121
100
AcDbEntity
  8
TREELINE
  6
CONTINUOUS
 62
  256
370
   -1
100
AcDbPolyline
 90
    2
 70
    0
 43
0
 10
0.2035878251335816
 20
0.2773327536943953
 10
1.716954832611009
 20
0.2773327536943953
  0
TEXT
  5
122
100
AcDbEntity
  8
RAILROAD
  6
ByLayer
 62
    7
370
   -1
100
AcDbText
 10
1.781290251503378
 20
0.1138176162879745
 30
0
 40
0.08
  1
RAILROAD TRACKS
 50
0
 41
1
 51
0
  7
ROMANS
 71
    0
210
0
220
0
230
1
100
AcDbText
  0
LWPOLYLINE
  5
123
100
AcDbEntity
  8
RAILROAD
  6
CONTINUOUS
 62
  256
370
   -1
100
AcDbPolyline
 90
    2
 70
    0
 43
0
 10
0.2035878251335816
 20
0.1478089441706061
 10
1.716954832611009
 20
0.1478089441706061
  0
TEXT
  5
124
100
AcDbEntity
  8
FIBER_OPTIC
  6
ByLayer
 62
  256
370
   -1
100
AcDbText
 10
0.9753748570951757
 20
1.808455236748046
 30
0
 40
0.06
  1
F
 50
0
 41
1
 51
0
  7
ROMANS
 71
    0
 72
    1
 11
0.9753748570951757
 21
1.808455236748046
 31
0
210
0
220
0
230
1
100
AcDbText
  0
LWPOLYLINE
  5
125
100
AcDbEntity
  8
FIBER_OPTIC
  6
ByLayer
 62
  256
370
   -1
100
AcDbPolyline
 90
    2
 70
    0
 43
0
 10
0.8866633620023094
 20
1.831618467979865
 10
0.2035878251335816
 20
1.831618467979865
  0
LWPOLYLINE
  5
126
100
AcDbEntity
  8
FIBER_OPTIC
  6
ByLayer
 62
  256
370
   -1
100
AcDbPolyline
 90
    2
 70
    0
 43
0
 10
1.716954832611009
 20
1.831618467979865
 10
1.048538423577611
 20
1.831618467979865
  0
TEXT
  5
127
100
AcDbEntity
  8
FIBER_OPTIC
  6
ByLayer
 62
    7
370
   -1
100
AcDbText
 10
1.781290251503378
 20
1.79834109272258
 30
0
 40
0.08
  1
FIBER-OPTIC CABLE
 50
0
 41
1
 51
0
  7
ROMANS
 71
    0
210
0
220
0
230
1
100
AcDbText
  0
ENDBLK
  5
84
330
82
100
AcDbEntity
  8
0
100
AcDbBlockEnd
  0
BLOCK
  5
86
330
85
100
AcDbEntity
  8
0
100
AcDbBlockBegin
  2
TITLEHB
 70
    0
 10
0
 20
0
  3
TITLEHB
  1

  0
LWPOLYLINE
  5
128
100
AcDbEntity
  8
TITLE_BLOCK
  6
ByLayer
 62
  256
370
   -1
100
AcDbPolyline
 90
    2
 70
    0
 43
0
 10
16
 20
0.7124999999999999
 10
0
 20
0.7124999999999996
  0
LINE
  5
129
100
AcDbEntity
  8
TITLE_BLOCK
  6
ByLayer
 62
  256
370
   -1
100
AcDbLine
 10
0
 20
0.356249999999997
 11
6.262499999999817
 21
0.3562500000000304
  0
LINE
  5
12A
100
AcDbEntity
  8
TITLE_BLOCK
  6
ByLayer
 62
  256
370
   -1
100
AcDbLine
 10
0
 20
0.1781249999999969
 11
6.262499999999817
 21
0.1781250000000304
  0
LINE
  5
12B
100
AcDbEntity
  8
TITLE_BLOCK
  6
ByLayer
 62
  256
370
   -1
100
AcDbLine
 10
0
 20
0.534374999999997
 11
6.262499999999817
 21
0.5343750000000304
  0
LWPOLYLINE
  5
12C
100
AcDbEntity
  8
TITLE_BLOCK
  6
ByLayer
 62
  256
370
   -1
100
AcDbPolyline
 90
    2
 70
    0
 43
0
 10
6.262499999999818
 20
0.7124999999999996
 10
6.262499999999818
 20
-4.440892098500626e-16
  0
LINE
  5
12D
100
AcDbEntity
  8
TITLE_BLOCK
  6
ByLayer
 62
  256
370
   -1
100
AcDbLine
 10
2.214053386235199
 20
0.7124999999999996
 11
2.214053386235206
 21
-4.440892098500626e-16
  0
LWPOLYLINE
  5
12E
100
AcDbEntity
  8
TITLE_BLOCK
  6
ByLayer
 62
  256
370
   -1
100
AcDbPolyline
 90
    4
 70
    1
 43
0
 10
0
 20
0
 10
16
 20
0
 10
16
 20
10
 10
0
 20
10
  0
LINE
  5
12F
100
AcDbEntity
  8
TITLE_BLOCK
  6
ByLayer
 62
  256
370
   -1
100
AcDbLine
 10
4.130505352616787
 20
0.7124999999999997
 11
4.13050535261678
 21
-4.440892098500626e-16
  0
TEXT
  5
130
100
AcDbEntity
  8
TITLE_STORM_LAYER
  6
ByLayer
 62
  256
370
   -1
100
AcDbText
 10
1.145857310600999
 20
0.5748403796249417
 30
0
 40
0.076
  1
STORM
 50
0
 41
1
 51
0
  7
ROMANS
 71
    0
 72
    1
 11
1.145857310600999
 21
0.5748403796249417
 31
0
210
0
220
0
230
1
100
AcDbText
  0
TEXT
  5
131
100
AcDbEntity
  8
TITLE_WATER_LAYER
  6
ByLayer
 62
  256
370
   -1
100
AcDbText
 10
1.145857310600999
 20
0.5748403796249417
 30
0
 40
0.076
  1
WATER
 50
0
 41
1
 51
0
  7
ROMANS
 71
    0
 72
    1
 11
1.145857310600999
 21
0.5748403796249417
 31
0
210
0
220
0
230
1
100
AcDbText
  0
TEXT
  5
132
100
AcDbEntity
  8
TITLE_ELEC_LAYER
  6
ByLayer
 62
  256
370
   -1
100
AcDbText
 10
1.145857310600999
 20
0.5748403796249417
 30
0
 40
0.076
  1
ELECTRIC
 50
0
 41
1
 51
0
  7
ROMANS
 71
    0
 72
    1
 11
1.145857310600999
 21
0.5748403796249417
 31
0
210
0
220
0
230
1
100
AcDbText
  0
TEXT
  5
133
100
AcDbEntity
  8
TITLE_SEWER_LAYER
  6
ByLayer
 62
  256
370
   -1
100
AcDbText
 10
1.145857310600999
 20
0.5748403796249417
 30
0
 40
0.076
  1
SEWER
 50
0
 41
1
 51
0
  7
ROMANS
 71
    0
 72
    1
 11
1.145857310600999
 21
0.5748403796249417
 31
0
210
0
220
0
230
1
100
AcDbText
  0
TEXT
  5
134
100
AcDbEntity
  8
TITLE_GAS_LAYER
  6
ByLayer
 62
  256
370
   -1
100
AcDbText
 10
1.145857310600999
 20
0.5748403796249417
 30
0
 40
0.076
  1
GAS
 50
0
 41
1
 51
0
  7
ROMANS
 71
    0
 72
    1
 11
1.145857310600999
 21
0.5748403796249417
 31
0
210
0
220
0
230
1
100
AcDbText
  0
CIRCLE
  5
135
100
AcDbEntity
  8
TITLE_BLOCK
  6
ByLayer
 62
    7
370
   -1
100
AcDbCircle
 10
1.719407532428303
 20
0.2626971197065511
 40
0.06685866015565552
  0
TEXT
  5
136
100
AcDbEntity
  8
TITLE_BLOCK
  6
ByLayer
 62
    7
370
   -1
100
AcDbText
 10
4.173770992132781
 20
0.583479257573424
 30
0
 40
0.076
  1
DESIGNED BY:
 50
0
 41
0.85
 51
0
  7
ROMANS
 71
    0
210
0
220
0
230
1
100
AcDbText
  0
TEXT
  5
137
100
AcDbEntity
  8
TITLE_BLOCK
  6
ByLayer
 62
    7
370
   -1
100
AcDbText
 10
2.275460552886598
 20
0.5715670483515738
 30
0
 40
0.076
  1
HOR. SCALE:
 50
0
 41
1
 51
0
  7
ROMANS
 71
    0
210
0
220
0
230
1
100
AcDbText
  0
TEXT
  5
138
100
AcDbEntity
  8
TITLE_BLOCK
  6
ByLayer
 62
    7
370
   -1
100
AcDbText
 10
1.391279053206642
 20
0.2296246401522377
 30
0
 40
0.076
  1
OUT
 50
0
 41
1
 51
0
  7
ROMANS
 71
    0
210
0
220
0
230
1
100
AcDbText
  0
TEXT
  5
139
100
AcDbEntity
  8
TITLE_BLOCK
  6
ByLayer
 62
    7
370
   -1
100
AcDbText
 10
0.9190897658573256
 20
0.2296246401522377
 30
0
 40
0.076
  1
IN
 50
0
 41
1
 51
0
  7
ROMANS
 71
    0
210
0
220
0
230
1
100
AcDbText
  0
TEXT
  5
13A
100
AcDbEntity
  8
TITLE_BLOCK
  6
ByLayer
 62
    7
370
   -1
100
AcDbText
 10
14.82590057626445
 20
0.5822758797622209
 30
0
 40
0.076
  1
PROJECT ID #
 50
0
 41
1
 51
0
  7
ROMANS
 71
    0
210
0
220
0
230
1
100
AcDbText
  0
TEXT
  5
13B
100
AcDbEntity
  8
TITLE_BLOCK
  6
ByLayer
 62
    7
370
   -1
100
AcDbText
 10
2.28020716849378
 20
0.4005007509719438
 30
0
 40
0.076
  1
VER. SCALE:
 50
0
 41
1
 51
0
  7
ROMANS
 71
    0
210
0
220
0
230
1
100
AcDbText
  0
TEXT
  5
13C
100
AcDbEntity
  8
TITLE_BLOCK
  6
ByLayer
 62
    7
370
   -1
100
AcDbText
 10
2.266483155998399
 20
0.2263712193437986
 30
0
 40
0.076
  1
DATE:
 50
0
 41
1
 51
0
  7
ROMANS
 71
    0
210
0
220
0
230
1
100
AcDbText
  0
TEXT
  5
13D
100
AcDbEntity
  8
TITLE_BLOCK
  6
ByLayer
 62
    7
370
   -1
100
AcDbText
 10
0.07648049906442722
 20
0.05321015047757216
 30
0
 40
0.076
  1
GRID:
 50
0
 41
1
 51
0
  7
ROMANS
 71
    0
210
0
220
0
230
1
100
AcDbText
  0
TEXT
  5
13E
100
AcDbEntity
  8
TITLE_BLOCK
  6
ByLayer
 62
    7
370
   -1
100
AcDbText
 10
4.176200067042732
 20
0.2396718495798762
 30
0
 40
0.076
  1
CHECKED BY:
 50
0
 41
1
 51
0
  7
ROMANS
 71
    0
210
0
220
0
230
1
100
AcDbText
  0
TEXT
  5
13F
100
AcDbEntity
  8
TITLE_BLOCK
  6
ByLayer
 62
    7
370
   -1
100
AcDbText
 10
2.255191356041715
 20
0.04992561573953624
 30
0
 40
0.076
  1
SHEET         OF
 50
0
 41
1
 51
0
  7
ROMANS
 71
    0
210
0
220
0
230
1
100
AcDbText
  0
TEXT
  5
140
100
AcDbEntity
  8
TITLE_BLOCK
  6
ByLayer
 62
    7
370
   -1
100
AcDbText
 10
0.06523206677091054
 20
0.2296246401522377
 30
0
 40
0.076
  1
CITY LIMITS:
 50
0
 41
1
 51
0
  7
ROMANS
 71
    0
210
0
220
0
230
1
100
AcDbText
  0
TEXT
  5
141
100
AcDbEntity
  8
TITLE_BLOCK
  6
ByLayer
 62
    7
370
   -1
100
AcDbText
 10
4.173770992132777
 20
0.4133585415674919
 30
0
 40
0.076
  1
DRAWN BY:
 50
0
 41
1
 51
0
  7
ROMANS
 71
    0
210
0
220
0
230
1
100
AcDbText
  0
CIRCLE
  5
142
100
AcDbEntity
  8
TITLE_BLOCK
  6
ByLayer
 62
    7
370
   -1
100
AcDbCircle
 10
1.161555586754556
 20
0.2626971197065511
 40
0.06685866015565552
  0
TEXT
  5
143
100
AcDbEntity
  8
TITLE_BLOCK
  6
ByLayer
 62
    7
370
   -1
100
AcDbText
 10
4.172428009411863
 20
0.05862058760919941
 30
0
 40
0.076
  1
DEPARTMENT:
 50
0
 41
1
 51
0
  7
ROMANS
 71
    0
210
0
220
0
230
1
100
AcDbText
  0
TEXT
  5
144
100
AcDbEntity
  8
TITLE_BLOCK
  6
ByLayer
 62
    7
370
   -1
100
AcDbText
 10
0.06484369548742208
 20
0.5772112774937823
 30
0
 40
0.076
  1
UTILITY:
 50
0
 41
1
 51
0
  7
ROMANS
 71
    0
210
0
220
0
230
1
100
AcDbText
  0
TEXT
  5
145
100
AcDbEntity
  8
TITLE_BLOCK
  6
ByLayer
 62
    7
370
   -1
100
AcDbText
 10
0.389621056513441
 20
0.4076462904719751
 30
0
 40
0.076
  1
DRAWING NO.
 50
0
 41
0.85
 51
0
  7
ROMANS
 71
    0
 72
    1
 11
0.389621056513441
 21
0.4076462904719751
 31
0
210
0
220
0
230
1
100
AcDbText
  0
LINE
  5
146
100
AcDbEntity
  8
TITLE_BLOCK
  6
ByLayer
 62
  256
370
   -1
100
AcDbLine
 10
14.43300733381181
 20
0.5343750000000155
 11
16
 21
0.5343750000000238
  0
LWPOLYLINE
  5
147
100
AcDbEntity
  8
TITLE_BLOCK
  6
ByLayer
 62
  256
370
   -1
100
AcDbPolyline
 90
    2
 70
    0
 43
0
 10
14.43300733381181
 20
0.7124999999999999
 10
14.43300733381181
 20
4.440892098500626e-16
  0
LWPOLYLINE
  5
148
100
AcDbEntity
  8
TITLE_BLOCK
  6
ByLayer
 62
  256
370
   -1
100
AcDbPolyline
 90
    2
 70
    0
 43
0
 10
10.93003963685666
 20
0.7124999999999998
 10
10.93003963685666
 20
3.33066907387547e-16
  0
TEXT
  5
149
100
AcDbEntity
  8
JUD_LOGO
  6
CONTINUOUS
 62
    8
370
   -1
100
AcDbText
 10
11.49799453253564
 20
0.2423944465844234
 30
0
 40
0.1446934406519435
  1
Jackson Energy Authority
 50
0
 41
1
 51
0
  7
ARIAL
 71
    0
210
0
220
0
230
1
100
AcDbText
  0
LWPOLYLINE
  5
14A
100
AcDbEntity
  8
JUD_LOGO
  6
CONTINUOUS
 62
    8
370
   -1
100
AcDbPolyline
 90
    2
 70
    0
 43
0
 10
11.47049774949706
 20
0.2215037392385333
 10
14.37370673407461
 20
0.2215037392385333
  0
HATCH
  5
14B
100
AcDbEntity
  8
JUD_LOGO
  6
CONTINUOUS
 62
    5
370
   -1
100
AcDbHatch
 10
0
 20
0
 30
0
210
0
220
0
230
1
  2
SOLID
 70
    1
 71
    0
 91
    3
 92
    0
 93
    4
 72
    1
 10
11.42648814725277
 20
0.5743138642809051
 11
11.05225871233441
 21
0.5743138642809051
 72
    1
 10
11.05225871233441
 20
0.5743138642809051
 11
11.05225871233441
 21
0.2204160990457753
 72
    1
 10
11.05225871233441
 20
0.2204160990457753
 11
11.42648814725277
 21
0.2204160990457753
 72
    1
 10
11.42648814725277
 20
0.2204160990457753
 11
11.42648814725277
 21
0.5743138642809051
 97
    0
 92
    0
 93
   15
 72
    2
 10
11.15780911428374
 20
0.4508306693141252
 40
0.2032792437825935
 50
66.74756145574521
 51
96.54878425384783
 73
    0
 72
    2
 10
11.14891702973048
 20
0.3116387532971023
 40
0.0643676240313636
 50
102.8284715240771
 51
158.4623933477604
 73
    0
 72
    2
 10
11.2032985926885
 20
0.3250438586302827
 40
0.1201073470177024
 50
162.0401171126759
 51
206.1357956196712
 73
    0
 72
    2
 10
11.26063020295208
 20
0.3418386131683082
 40
0.1690602728400506
 50
192.333846931022
 51
214.7777029917318
 73
    0
 72
    2
 10
11.4000371704337
 20
0.2469822152452781
 40
0.3376744767775403
 50
214.505441438736
 51
235.6336181408036
 73
    0
 72
    2
 10
11.28834740560575
 20
0.4003842201053772
 40
0.1481085760158044
 50
237.8008623018123
 51
269.7621135344087
 73
    0
 72
    2
 10
11.29515521748063
 20
0.5123389753006002
 40
0.03690668721083385
 50
258.3974286649774
 51
327.5562859174113
 73
    0
 72
    2
 10
11.31555377891646
 20
0.5292116124466788
 40
0.01113905358399096
 50
344.7670336162161
 51
56.96383628283209
 73
    0
 72
    2
 10
11.28769553744839
 20
0.3574078717095197
 40
0.1659709889425017
 50
78.20335451280243
 51
131.700775573947
 73
    1
 72
    2
 10
11.30754514641556
 20
0.3449732161135384
 40
0.1885735578993332
 50
133.6907850819272
 51
184.0021864958448
 73
    1
 72
    2
 10
11.188209624836
 20
0.340688405331027
 40
0.06934862481582942
 50
187.3540105535272
 51
240.356609879731
 73
    1
 72
    2
 10
11.18906387852945
 20
0.3802782474142693
 40
0.1058690789531858
 50
250.6065960225594
 51
286.2988723670528
 73
    1
 72
    2
 10
11.12409180673466
 20
0.6935329357517492
 40
0.4255365156691504
 50
282.8562058089228
 51
309.1008628314024
 73
    1
 72
    2
 10
11.39710360906952
 20
0.3598869045609019
 40
0.005753584671814376
 50
216.3963242244636
 51
67.0315769236589
 73
    0
 72
    2
 10
11.06738114190522
 20
0.7571016614920673
 40
0.5217457155449167
 50
50.4862555685963
 51
70.90527399857099
 73
    0
 97
    0
 92
    0
 93
    5
 72
    2
 10
10.51441645831479
 20
3.285335607635567
 40
2.988795871830653
 50
74.78432028713051
 51
78.02345385589278
 73
    0
 72
    1
 10
11.13462529027966
 20
0.3615979709409336
 11
11.13404090799499
 21
0.3744469037638467
 72
    2
 10
10.82365673426557
 20
1.537206012304382
 40
1.203472924413207
 50
284.945911146011
 51
293.922900853452
 73
    1
 72
    2
 10
11.3155580082556
 20
0.4331431580841538
 40
0.005560053557091847
 50
225.6801321574098
 51
28.20916029727099
 73
    0
 72
    2
 10
11.29409289465549
 20
0.4274303364856236
 40
0.02654462253673196
 50
353.3268397178581
 51
79.70759123120092
 73
    0
 97
    0
 75
    0
 76
    1
 98
    0
  0
LWPOLYLINE
  5
14C
100
AcDbEntity
  8
JUD_LOGO
  6
CONTINUOUS
 62
    5
370
   -1
100
AcDbPolyline
 90
   15
 70
    1
 43
0
 10
11.20942574536735
 20
0.5257138727604618
 42
0.09245111918448584
 10
11.12176895639293
 20
0.4382695732215621
 42
0.09824405878535737
 10
11.0954719158818
 20
0.3779511603612714
 42
0.1948135943653042
 10
11.08904375848544
 20
0.2880086366266002
 42
0.2476320630839199
 10
11.13462529027966
 20
0.2488778004130599
 42
0.1307702360666259
 10
11.23806029592315
 20
0.2640629022923472
 42
0.08933126751619154
 10
11.39934879450994
 20
0.3545894637718138
 42
1.017719452106636
 10
11.39467376487358
 20
0.365102227538356
 42
-0.1167106562733254
 10
11.21877580464006
 20
0.2786639604011079
 42
-0.1570083519761006
 10
11.15390978156275
 20
0.2804160856869561
 42
-0.235480714062139
 10
11.11943144634825
 20
0.331811810952884
 42
-0.2231206183581916
 10
11.17728492019752
 20
0.4813266546636523
 42
-0.2377606666873991
 10
11.32162643754589
 20
0.5198734471066657
 42
0.3258693318640447
 10
11.32630146718224
 20
0.5321383361590545
 42
0.3112683925971887
 10
11.28773247506906
 20
0.5484915195536635
 42
0.1403684259130614
  0
LWPOLYLINE
  5
14D
100
AcDbEntity
  8
JUD_LOGO
  6
CONTINUOUS
 62
  256
370
   -1
100
AcDbPolyline
 90
    4
 70
    1
 43
0
 10
11.05225871233441
 20
0.2204160990457753
 10
11.05225871233441
 20
0.5743138642809051
 10
11.42648814725277
 20
0.5743138642809051
 10
11.42648814725277
 20
0.2204160990457753
  0
LWPOLYLINE
  5
14E
100
AcDbEntity
  8
JUD_LOGO
  6
CONTINUOUS
 62
    5
370
   -1
100
AcDbPolyline
 90
    5
 70
    1
 43
0
 10
11.13404090799499
 20
0.3744469037638467
 10
11.13462529027966
 20
0.3615979709409332
 42
0.01413432755717477
 10
11.29883567164878
 20
0.4013128509249966
 42
0.3958308588863106
 10
11.32045768252356
 20
0.4305149671425214
 42
0.5885679454703034
 10
11.31519827060252
 20
0.4386915618526896
 42
-0.03999242371576261
  0
ENDBLK
  5
87
330
85
100
AcDbEntity
  8
0
100
AcDbBlockEnd
  0
BLOCK
  5
89
330
88
100
AcDbEntity
  8
0
100
AcDbBlockBegin
  2
TITLEHD
 70
    0
 10
0
 20
0
  3
TITLEHD
  1

  0
LWPOLYLINE
  5
14F
100
AcDbEntity
  8
TITLE_BLOCK
  6
ByLayer
 62
    7
370
   -1
100
AcDbPolyline
 90
    4
 70
    1
 43
0
 10
0
 20
0
 10
32
 20
-1.752983723092336e-18
 10
32
 20
20.7
 10
0
 20
20.7
  0
LWPOLYLINE
  5
150
100
AcDbEntity
  8
TITLE_BLOCK
  6
ByLayer
 62
    7
370
   -1
100
AcDbPolyline
 90
    3
 70
    0
 43
0
 10
32
 20
0.7125000000000004
 10
18.25
 20
0.7124999999999999
 10
18.25
 20
1.110223024625157e-16
  0
LINE
  5
151
100
AcDbEntity
  8
TITLE_BLOCK
  6
ByLayer
 62
    7
370
   -1
100
AcDbLine
 10
18.25
 20
0.5343749999999996
 11
23.5
 21
0.5343750000000276
  0
LINE
  5
152
100
AcDbEntity
  8
TITLE_BLOCK
  6
ByLayer
 62
    7
370
   -1
100
AcDbLine
 10
18.25
 20
0.1781249999999998
 11
23.5
 21
0.1781250000000277
  0
LINE
  5
153
100
AcDbEntity
  8
TITLE_BLOCK
  6
ByLayer
 62
    7
370
   -1
100
AcDbLine
 10
18.25
 20
0.3562499999999997
 11
23.5
 21
0.3562500000000279
  0
TEXT
  5
154
100
AcDbEntity
  8
TITLE_BLOCK
  6
ByLayer
 62
    7
370
   -1
100
AcDbText
 10
20.21613796980652
 20
0.04992561573953691
 30
0
 40
0.076
  1
SHEET         OF
 50
0
 41
1
 51
0
  7
ROMANS
 71
    0
210
0
220
0
230
1
100
AcDbText
  0
TEXT
  5
155
100
AcDbEntity
  8
TITLE_STORM_LAYER
  6
ByLayer
 62
    7
370
   -1
100
AcDbText
 10
19.395857310601
 20
0.5748403796249419
 30
0
 40
0.076
  1
STORM
 50
0
 41
1
 51
0
  7
ROMANS
 71
    0
 72
    1
 11
19.395857310601
 21
0.5748403796249419
 31
0
210
0
220
0
230
1
100
AcDbText
  0
TEXT
  5
156
100
AcDbEntity
  8
TITLE_WATER_LAYER
  6
ByLayer
 62
    7
370
   -1
100
AcDbText
 10
19.395857310601
 20
0.5748403796249419
 30
0
 40
0.076
  1
WATER
 50
0
 41
1
 51
0
  7
ROMANS
 71
    0
 72
    1
 11
19.395857310601
 21
0.5748403796249419
 31
0
210
0
220
0
230
1
100
AcDbText
  0
TEXT
  5
157
100
AcDbEntity
  8
TITLE_ELEC_LAYER
  6
ByLayer
 62
    7
370
   -1
100
AcDbText
 10
19.395857310601
 20
0.5748403796249419
 30
0
 40
0.076
  1
ELECTRIC
 50
0
 41
1
 51
0
  7
ROMANS
 71
    0
 72
    1
 11
19.395857310601
 21
0.5748403796249419
 31
0
210
0
220
0
230
1
100
AcDbText
  0
TEXT
  5
158
100
AcDbEntity
  8
TITLE_SEWER_LAYER
  6
ByLayer
 62
    7
370
   -1
100
AcDbText
 10
19.395857310601
 20
0.5748403796249419
 30
0
 40
0.076
  1
SEWER
 50
0
 41
1
 51
0
  7
ROMANS
 71
    0
 72
    1
 11
19.395857310601
 21
0.5748403796249419
 31
0
210
0
220
0
230
1
100
AcDbText
  0
TEXT
  5
159
100
AcDbEntity
  8
TITLE_GAS_LAYER
  6
ByLayer
 62
    7
370
   -1
100
AcDbText
 10
19.395857310601
 20
0.5748403796249419
 30
0
 40
0.076
  1
GAS
 50
0
 41
1
 51
0
  7
ROMANS
 71
    0
 72
    1
 11
19.395857310601
 21
0.5748403796249419
 31
0
210
0
220
0
230
1
100
AcDbText
  0
LINE
  5
15A
100
AcDbEntity
  8
TITLE_BLOCK
  6
ByLayer
 62
    7
370
   -1
100
AcDbLine
 10
20.175
 20
0.7124999999999997
 11
20.17500000000001
 21
-1.110223024625157e-16
  0
TEXT
  5
15B
100
AcDbEntity
  8
TITLE_BLOCK
  6
ByLayer
 62
    7
370
   -1
100
AcDbText
 10
20.2364071666514
 20
0.571567048351574
 30
0
 40
0.076
  1
HOR. SCALE:
 50
0
 41
1
 51
0
  7
ROMANS
 71
    0
210
0
220
0
230
1
100
AcDbText
  0
TEXT
  5
15C
100
AcDbEntity
  8
TITLE_BLOCK
  6
ByLayer
 62
    7
370
   -1
100
AcDbText
 10
18.31484369548743
 20
0.577211277493783
 30
0
 40
0.076
  1
UTILITY:
 50
0
 41
1
 51
0
  7
ROMANS
 71
    0
210
0
220
0
230
1
100
AcDbText
  0
TEXT
  5
15D
100
AcDbEntity
  8
TITLE_BLOCK
  6
ByLayer
 62
    7
370
   -1
100
AcDbText
 10
18.32648049906443
 20
0.05321015047757249
 30
0
 40
0.076
  1
GRID:
 50
0
 41
1
 51
0
  7
ROMANS
 71
    0
210
0
220
0
230
1
100
AcDbText
  0
TEXT
  5
15E
100
AcDbEntity
  8
TITLE_BLOCK
  6
ByLayer
 62
    7
370
   -1
100
AcDbText
 10
18.31523206677091
 20
0.2296246401522382
 30
0
 40
0.076
  1
CITY LIMITS:
 50
0
 41
1
 51
0
  7
ROMANS
 71
    0
210
0
220
0
230
1
100
AcDbText
  0
TEXT
  5
15F
100
AcDbEntity
  8
TITLE_BLOCK
  6
ByLayer
 62
    7
370
   -1
100
AcDbText
 10
18.29192265679509
 20
0.4148705876091994
 30
0
 40
0.076
  1
PROJECT ID#:
 50
0
 41
1
 51
0
  7
ROMANS
 71
    0
210
0
220
0
230
1
100
AcDbText
  0
TEXT
  5
160
100
AcDbEntity
  8
TITLE_BLOCK
  6
ByLayer
 62
    7
370
   -1
100
AcDbText
 10
19.64127905320665
 20
0.2296246401522382
 30
0
 40
0.076
  1
OUT
 50
0
 41
1
 51
0
  7
ROMANS
 71
    0
210
0
220
0
230
1
100
AcDbText
  0
TEXT
  5
161
100
AcDbEntity
  8
TITLE_BLOCK
  6
ByLayer
 62
    7
370
   -1
100
AcDbText
 10
19.16908976585733
 20
0.2296246401522382
 30
0
 40
0.076
  1
IN
 50
0
 41
1
 51
0
  7
ROMANS
 71
    0
210
0
220
0
230
1
100
AcDbText
  0
CIRCLE
  5
162
100
AcDbEntity
  8
TITLE_BLOCK
  6
ByLayer
 62
    7
370
   -1
100
AcDbCircle
 10
19.41155558675456
 20
0.2626971197065516
 40
0.06685866015565552
  0
TEXT
  5
163
100
AcDbEntity
  8
TITLE_BLOCK
  6
ByLayer
 62
    7
370
   -1
100
AcDbText
 10
20.24115378225859
 20
0.400500750971944
 30
0
 40
0.076
  1
VER. SCALE:
 50
0
 41
1
 51
0
  7
ROMANS
 71
    0
210
0
220
0
230
1
100
AcDbText
  0
TEXT
  5
164
100
AcDbEntity
  8
TITLE_BLOCK
  6
ByLayer
 62
    7
370
   -1
100
AcDbText
 10
20.22742976976321
 20
0.2263712193437991
 30
0
 40
0.076
  1
DATE:
 50
0
 41
1
 51
0
  7
ROMANS
 71
    0
210
0
220
0
230
1
100
AcDbText
  0
CIRCLE
  5
165
100
AcDbEntity
  8
TITLE_BLOCK
  6
ByLayer
 62
    7
370
   -1
100
AcDbCircle
 10
19.96940753242831
 20
0.2626971197065516
 40
0.06685866015565552
  0
TEXT
  5
166
100
AcDbEntity
  8
TITLE_BLOCK
  6
ByLayer
 62
    7
370
   -1
100
AcDbText
 10
21.880765639516
 20
0.583479257573424
 30
0
 40
0.076
  1
DESIGNED BY:
 50
0
 41
0.85
 51
0
  7
ROMANS
 71
    0
210
0
220
0
230
1
100
AcDbText
  0
LWPOLYLINE
  5
167
100
AcDbEntity
  8
TITLE_BLOCK
  6
ByLayer
 62
    7
370
   -1
100
AcDbPolyline
 90
    2
 70
    0
 43
0
 10
23.5
 20
0.7124999999999997
 10
23.5
 20
-1.110223024625157e-16
  0
LINE
  5
168
100
AcDbEntity
  8
TITLE_BLOCK
  6
ByLayer
 62
    7
370
   -1
100
AcDbLine
 10
21.8375
 20
0.7124999999999997
 11
21.8375
 21
-1.110223024625157e-16
  0
TEXT
  5
169
100
AcDbEntity
  8
TITLE_BLOCK
  6
ByLayer
 62
    7
370
   -1
100
AcDbText
 10
30.83425577051144
 20
0.5833349218770615
 30
0
 40
0.076
  1
PROJECT ID #
 50
0
 41
1
 51
0
  7
ROMANS
 71
    0
210
0
220
0
230
1
100
AcDbText
  0
TEXT
  5
16A
100
AcDbEntity
  8
TITLE_BLOCK
  6
ByLayer
 62
    7
370
   -1
100
AcDbText
 10
21.88319471442595
 20
0.2396718495798763
 30
0
 40
0.076
  1
CHECKED BY:
 50
0
 41
1
 51
0
  7
ROMANS
 71
    0
210
0
220
0
230
1
100
AcDbText
  0
TEXT
  5
16B
100
AcDbEntity
  8
TITLE_BLOCK
  6
ByLayer
 62
    7
370
   -1
100
AcDbText
 10
21.88076563951599
 20
0.4133585415674916
 30
0
 40
0.076
  1
DRAWN BY:
 50
0
 41
1
 51
0
  7
ROMANS
 71
    0
210
0
220
0
230
1
100
AcDbText
  0
LINE
  5
16C
100
AcDbEntity
  8
TITLE_BLOCK
  6
ByLayer
 62
    7
370
   -1
100
AcDbLine
 10
30.49971263654195
 20
0.5343750000000167
 11
32
 21
0.5343750000000247
  0
LWPOLYLINE
  5
16D
100
AcDbEntity
  8
TITLE_BLOCK
  6
ByLayer
 62
    7
370
   -1
100
AcDbPolyline
 90
    2
 70
    0
 43
0
 10
30.49971263654195
 20
0.7125000000000004
 10
30.49971263654195
 20
6.661338147750939e-16
  0
LWPOLYLINE
  5
16E
100
AcDbEntity
  8
TITLE_BLOCK
  6
ByLayer
 62
    7
370
   -1
100
AcDbPolyline
 90
    2
 70
    0
 43
0
 10
30.49971263654195
 20
0.7125000000000004
 10
30.49971263654195
 20
6.661338147750939e-16
  0
LWPOLYLINE
  5
16F
100
AcDbEntity
  8
TITLE_BLOCK
  6
ByLayer
 62
  256
370
   -1
100
AcDbPolyline
 90
    2
 70
    0
 43
0
 10
27.00674492794946
 20
0.7125000000000004
 10
27.00674492794946
 20
6.661338147750939e-16
  0
TEXT
  5
170
100
AcDbEntity
  8
TITLE_BLOCK
  6
ByLayer
 62
    7
370
   -1
100
AcDbText
 10
22.21418554680217
 20
0.05216605096926386
 30
0
 40
0.076
  1
DRAWING NO.
 50
0
 41
0.85
 51
0
  7
ROMANS
 71
    0
 72
    1
 11
22.21418554680217
 21
0.05216605096926386
 31
0
210
0
220
0
230
1
100
AcDbText
  0
TEXT
  5
171
100
AcDbEntity
  8
JUD_LOGO
  6
CONTINUOUS
 62
    8
370
   -1
100
AcDbText
 10
27.56469983526578
 20
0.2423944465844237
 30
0
 40
0.1446934406519435
  1
Jackson Energy Authority
 50
0
 41
1
 51
0
  7
ARIAL
 71
    0
210
0
220
0
230
1
100
AcDbText
  0
LWPOLYLINE
  5
172
100
AcDbEntity
  8
JUD_LOGO
  6
CONTINUOUS
 62
    8
370
   -1
100
AcDbPolyline
 90
    2
 70
    0
 43
0
 10
27.53720305222721
 20
0.2215037392385335
 10
30.44041203680475
 20
0.2215037392385335
  0
HATCH
  5
173
100
AcDbEntity
  8
JUD_LOGO
  6
CONTINUOUS
 62
    5
370
   -1
100
AcDbHatch
 10
0
 20
0
 30
0
210
0
220
0
230
1
  2
SOLID
 70
    1
 71
    0
 91
    3
 92
    0
 93
    4
 72
    1
 10
27.49319344998291
 20
0.2204160990457755
 11
27.4931934499829
 21
0.5743138642809051
 72
    1
 10
27.4931934499829
 20
0.5743138642809051
 11
27.11896401506456
 21
0.5743138642809053
 72
    1
 10
27.11896401506456
 20
0.5743138642809053
 11
27.11896401506456
 21
0.2204160990457756
 72
    1
 10
27.11896401506456
 20
0.2204160990457756
 11
27.49319344998291
 21
0.2204160990457755
 97
    0
 92
    0
 93
   15
 72
    2
 10
27.22451441701388
 20
0.4508306693141254
 40
0.2032792437825935
 50
66.74756145574312
 51
90.76180592345567
 73
    0
 72
    2
 10
27.21562233246062
 20
0.3116387532971028
 40
0.0643676240313636
 50
84.48211865322804
 51
173.8428080940893
 73
    0
 72
    2
 10
27.27000389541865
 20
0.325043858630283
 40
0.1201073470177024
 50
170.2650843291752
 51
206.1357956196669
 73
    0
 72
    2
 10
27.32733550568222
 20
0.341838613168305
 40
0.1690602728400507
 50
192.3338469310206
 51
214.7777029917206
 73
    0
 72
    2
 10
27.46674247316385
 20
0.2469822152452829
 40
0.3376744767775403
 50
214.5054414387286
 51
232.2507472398475
 73
    0
 72
    2
 10
27.35505270833589
 20
0.4003842201053773
 40
0.1481085760158043
 50
230.0835030788479
 51
269.7621135344081
 73
    0
 72
    2
 10
27.36186052021078
 20
0.5123389753006007
 40
0.03690668721083384
 50
258.3974286649719
 51
313.2521206914597
 73
    0
 72
    2
 10
27.3822590816466
 20
0.5292116124466816
 40
0.01113905358399079
 50
296.041372992699
 51
141.4570309892981
 73
    0
 72
    2
 10
27.35440084017853
 20
0.3574078717095198
 40
0.1659709889425017
 50
83.37577821505202
 51
131.7007755739454
 73
    1
 72
    2
 10
27.3742504491457
 20
0.3449732161135366
 40
0.1885735578993332
 50
133.6907850819246
 51
184.0021864958436
 73
    1
 72
    2
 10
27.25491492756614
 20
0.3406884053310266
 40
0.0693486248158294
 50
187.3540105535247
 51
240.3566098797242
 73
    1
 72
    2
 10
27.25576918125959
 20
0.38027824741427
 40
0.1058690789531858
 50
250.6065960225534
 51
277.13625272575
 73
    1
 72
    2
 10
27.1907971094648
 20
0.6935329357517492
 40
0.4255365156691505
 50
280.5789192838781
 51
309.1008628314012
 73
    1
 72
    2
 10
27.46380891179966
 20
0.3598869045609029
 40
0.005753584671814376
 50
216.396324224395
 51
67.0315769236411
 73
    0
 72
    2
 10
27.13408644463536
 20
0.7571016614920678
 40
0.5217457155449167
 50
50.48625556859609
 51
70.90527399857038
 73
    0
 97
    0
 92
    0
 93
    5
 72
    2
 10
26.58112176104494
 20
3.285335607635568
 40
2.988795871830653
 50
74.78432028713067
 51
78.02345385589288
 73
    0
 72
    1
 10
27.2013305930098
 20
0.3615979709409338
 11
27.20074621072513
 21
0.3744469037638469
 72
    2
 10
26.89036203699571
 20
1.537206012304382
 40
1.203472924413207
 50
284.945911146011
 51
293.9229008534521
 73
    1
 72
    2
 10
27.38226331098574
 20
0.433143158084154
 40
0.005560053557091846
 50
225.6801321574233
 51
28.20916029726132
 73
    0
 72
    2
 10
27.36079819738563
 20
0.4274303364856235
 40
0.02654462253673196
 50
353.3268397178571
 51
79.70759123120479
 73
    0
 97
    0
 75
    0
 76
    1
 98
    0
  0
LWPOLYLINE
  5
174
100
AcDbEntity
  8
JUD_LOGO
  6
CONTINUOUS
 62
    5
370
   -1
100
AcDbPolyline
 90
   15
 70
    1
 43
0
 10
27.27613104809749
 20
0.525713872760462
 42
0.09245111918448584
 10
27.18847425912307
 20
0.4382695732215623
 42
0.09824405878535737
 10
27.16217721861194
 20
0.3779511603612716
 42
0.1948135943653042
 10
27.15574906121558
 20
0.2880086366266004
 42
0.2476320630839199
 10
27.2013305930098
 20
0.2488778004130601
 42
0.1307702360666259
 10
27.30476559865329
 20
0.264062902292347
 42
0.08933126751619154
 10
27.46605409724008
 20
0.3545894637718137
 42
1.017719452106346
 10
27.46137906760372
 20
0.3651022275383578
 42
-0.116710656273325
 10
27.28548110737021
 20
0.2786639604011079
 42
-0.1570083519761006
 10
27.22061508429289
 20
0.2804160856869568
 42
-0.2354807140621418
 10
27.1861367490784
 20
0.3318118109528843
 42
-0.2231206183581898
 10
27.24399022292766
 20
0.481326654663653
 42
-0.2377606666874001
 10
27.38833174027603
 20
0.5198734471066662
 42
0.3258693318640044
 10
27.39300676991238
 20
0.5321383361590528
 42
0.3112683925971774
 10
27.3544377777992
 20
0.5484915195536644
 42
0.1403684259130616
  0
LWPOLYLINE
  5
175
100
AcDbEntity
  8
JUD_LOGO
  6
CONTINUOUS
 62
  256
370
   -1
100
AcDbPolyline
 90
    4
 70
    1
 43
0
 10
27.11896401506456
 20
0.2204160990457755
 10
27.11896401506456
 20
0.5743138642809051
 10
27.49319344998291
 20
0.5743138642809051
 10
27.49319344998291
 20
0.2204160990457755
  0
LWPOLYLINE
  5
176
100
AcDbEntity
  8
JUD_LOGO
  6
CONTINUOUS
 62
    5
370
   -1
100
AcDbPolyline
 90
    5
 70
    1
 43
0
 10
27.20074621072513
 20
0.3744469037638469
 10
27.2013305930098
 20
0.3615979709409336
 42
0.01413432755717477
 10
27.36554097437892
 20
0.4013128509249969
 42
0.3958308588863199
 10
27.3871629852537
 20
0.4305149671425217
 42
0.5885679454703008
 10
27.38190357333266
 20
0.4386915618526903
 42
-0.03999242371576261
  0
LWPOLYLINE
  5
177
100
AcDbEntity
  8
TITLE_BLOCK
  6
ByLayer
 62
  256
370
   -1
100
AcDbPolyline
 90
    2
 70
    0
 43
0
 10
23.5
 20
0.7124999999999997
 10
27.00674492794946
 20
0.7125000000000004
  0
ENDBLK
  5
8A
330
88
100
AcDbEntity
  8
0
100
AcDbBlockEnd
  0
BLOCK
  5
8C
330
8B
100
AcDbEntity
  8
0
100
AcDbBlockBegin
  2
TITLEHC
 70
    0
 10
0
 20
0
  3
TITLEHC
  1

  0
LWPOLYLINE
  5
178
100
AcDbEntity
  8
TITLE_BLOCK
  6
ByLayer
 62
    7
370
   -1
100
AcDbPolyline
 90
    4
 70
    1
 43
0
 10
0
 20
0
 10
21
 20
0
 10
21
 20
16
 10
0
 20
16
  0
LWPOLYLINE
  5
179
100
AcDbEntity
  8
TITLE_BLOCK
  6
ByLayer
 62
    7
370
   -1
100
AcDbPolyline
 90
    3
 70
    0
 43
0
 10
21
 20
0.7124999999999986
 10
6.67803198453807
 20
0.7124999999999986
 10
6.67803198453807
 20
0
  0
LINE
  5
17A
100
AcDbEntity
  8
TITLE_BLOCK
  6
ByLayer
 62
    7
370
   -1
100
AcDbLine
 10
6.67803198453807
 20
0.5343750000000007
 11
11.92803198453807
 21
0.5343750000000291
  0
LINE
  5
17B
100
AcDbEntity
  8
TITLE_BLOCK
  6
ByLayer
 62
    7
370
   -1
100
AcDbLine
 10
6.67803198453807
 20
0.1781250000000014
 11
11.92803198453807
 21
0.1781250000000263
  0
LINE
  5
17C
100
AcDbEntity
  8
TITLE_BLOCK
  6
ByLayer
 62
    7
370
   -1
100
AcDbLine
 10
6.67803198453807
 20
0.3562499999999993
 11
11.92803198453807
 21
0.3562500000000277
  0
TEXT
  5
17D
100
AcDbEntity
  8
TITLE_BLOCK
  6
ByLayer
 62
    7
370
   -1
100
AcDbText
 10
8.644169954344587
 20
0.0499256157395358
 30
0
 40
0.076
  1
SHEET         OF
 50
0
 41
1
 51
0
  7
ROMANS
 71
    0
210
0
220
0
230
1
100
AcDbText
  0
TEXT
  5
17E
100
AcDbEntity
  8
TITLE_STORM_LAYER
  6
ByLayer
 62
    7
370
   -1
100
AcDbText
 10
7.823889295139068
 20
0.5748403796249413
 30
0
 40
0.076
  1
STORM
 50
0
 41
1
 51
0
  7
ROMANS
 71
    0
 72
    1
 11
7.823889295139068
 21
0.5748403796249413
 31
0
210
0
220
0
230
1
100
AcDbText
  0
TEXT
  5
17F
100
AcDbEntity
  8
TITLE_WATER_LAYER
  6
ByLayer
 62
    7
370
   -1
100
AcDbText
 10
7.823889295139068
 20
0.5748403796249413
 30
0
 40
0.076
  1
WATER
 50
0
 41
1
 51
0
  7
ROMANS
 71
    0
 72
    1
 11
7.823889295139068
 21
0.5748403796249413
 31
0
210
0
220
0
230
1
100
AcDbText
  0
TEXT
  5
180
100
AcDbEntity
  8
TITLE_ELEC_LAYER
  6
ByLayer
 62
    7
370
   -1
100
AcDbText
 10
7.823889295139068
 20
0.5748403796249413
 30
0
 40
0.076
  1
ELECTRIC
 50
0
 41
1
 51
0
  7
ROMANS
 71
    0
 72
    1
 11
7.823889295139068
 21
0.5748403796249413
 31
0
210
0
220
0
230
1
100
AcDbText
  0
TEXT
  5
181
100
AcDbEntity
  8
TITLE_SEWER_LAYER
  6
ByLayer
 62
    7
370
   -1
100
AcDbText
 10
7.823889295139068
 20
0.5748403796249413
 30
0
 40
0.076
  1
SEWER
 50
0
 41
1
 51
0
  7
ROMANS
 71
    0
 72
    1
 11
7.823889295139068
 21
0.5748403796249413
 31
0
210
0
220
0
230
1
100
AcDbText
  0
TEXT
  5
182
100
AcDbEntity
  8
TITLE_GAS_LAYER
  6
ByLayer
 62
    7
370
   -1
100
AcDbText
 10
7.823889295139068
 20
0.5748403796249413
 30
0
 40
0.076
  1
GAS
 50
0
 41
1
 51
0
  7
ROMANS
 71
    0
 72
    1
 11
7.823889295139068
 21
0.5748403796249413
 31
0
210
0
220
0
230
1
100
AcDbText
  0
LINE
  5
183
100
AcDbEntity
  8
TITLE_BLOCK
  6
ByLayer
 62
    7
370
   -1
100
AcDbLine
 10
8.60303198453807
 20
0.7124999999999986
 11
8.603031984538074
 21
0
  0
TEXT
  5
184
100
AcDbEntity
  8
TITLE_BLOCK
  6
ByLayer
 62
    7
370
   -1
100
AcDbText
 10
8.66443915118947
 20
0.5715670483515751
 30
0
 40
0.076
  1
HOR. SCALE:
 50
0
 41
1
 51
0
  7
ROMANS
 71
    0
210
0
220
0
230
1
100
AcDbText
  0
TEXT
  5
185
100
AcDbEntity
  8
TITLE_BLOCK
  6
ByLayer
 62
    7
370
   -1
100
AcDbText
 10
6.742875680025492
 20
0.5772112774937845
 30
0
 40
0.076
  1
UTILITY:
 50
0
 41
1
 51
0
  7
ROMANS
 71
    0
210
0
220
0
230
1
100
AcDbText
  0
TEXT
  5
186
100
AcDbEntity
  8
TITLE_BLOCK
  6
ByLayer
 62
    7
370
   -1
100
AcDbText
 10
6.754512483602497
 20
0.05321015047757172
 30
0
 40
0.076
  1
GRID:
 50
0
 41
1
 51
0
  7
ROMANS
 71
    0
210
0
220
0
230
1
100
AcDbText
  0
TEXT
  5
187
100
AcDbEntity
  8
TITLE_BLOCK
  6
ByLayer
 62
    7
370
   -1
100
AcDbText
 10
6.74326405130898
 20
0.2296246401522382
 30
0
 40
0.076
  1
CITY LIMITS:
 50
0
 41
1
 51
0
  7
ROMANS
 71
    0
210
0
220
0
230
1
100
AcDbText
  0
TEXT
  5
188
100
AcDbEntity
  8
TITLE_BLOCK
  6
ByLayer
 62
    7
370
   -1
100
AcDbText
 10
6.719954641333153
 20
0.4148705876092009
 30
0
 40
0.076
  1
PROJECT ID#:
 50
0
 41
1
 51
0
  7
ROMANS
 71
    0
210
0
220
0
230
1
100
AcDbText
  0
TEXT
  5
189
100
AcDbEntity
  8
TITLE_BLOCK
  6
ByLayer
 62
    7
370
   -1
100
AcDbText
 10
8.069311037744711
 20
0.2296246401522382
 30
0
 40
0.076
  1
OUT
 50
0
 41
1
 51
0
  7
ROMANS
 71
    0
210
0
220
0
230
1
100
AcDbText
  0
TEXT
  5
18A
100
AcDbEntity
  8
TITLE_BLOCK
  6
ByLayer
 62
    7
370
   -1
100
AcDbText
 10
7.597121750395395
 20
0.2296246401522382
 30
0
 40
0.076
  1
IN
 50
0
 41
1
 51
0
  7
ROMANS
 71
    0
210
0
220
0
230
1
100
AcDbText
  0
CIRCLE
  5
18B
100
AcDbEntity
  8
TITLE_BLOCK
  6
ByLayer
 62
    7
370
   -1
100
AcDbCircle
 10
7.839587571292626
 20
0.2626971197065515
 40
0.06685866015565552
  0
TEXT
  5
18C
100
AcDbEntity
  8
TITLE_BLOCK
  6
ByLayer
 62
    7
370
   -1
100
AcDbText
 10
8.669185766796652
 20
0.4005007509719434
 30
0
 40
0.076
  1
VER. SCALE:
 50
0
 41
1
 51
0
  7
ROMANS
 71
    0
210
0
220
0
230
1
100
AcDbText
  0
TEXT
  5
18D
100
AcDbEntity
  8
TITLE_BLOCK
  6
ByLayer
 62
    7
370
   -1
100
AcDbText
 10
8.655461754301271
 20
0.2263712193438003
 30
0
 40
0.076
  1
DATE:
 50
0
 41
1
 51
0
  7
ROMANS
 71
    0
210
0
220
0
230
1
100
AcDbText
  0
CIRCLE
  5
18E
100
AcDbEntity
  8
TITLE_BLOCK
  6
ByLayer
 62
    7
370
   -1
100
AcDbCircle
 10
8.397439516966372
 20
0.2626971197065515
 40
0.06685866015565552
  0
TEXT
  5
18F
100
AcDbEntity
  8
TITLE_BLOCK
  6
ByLayer
 62
    7
370
   -1
100
AcDbText
 10
10.30879762405406
 20
0.5834792575734227
 30
0
 40
0.076
  1
DESIGNED BY:
 50
0
 41
0.85
 51
0
  7
ROMANS
 71
    0
210
0
220
0
230
1
100
AcDbText
  0
LWPOLYLINE
  5
190
100
AcDbEntity
  8
TITLE_BLOCK
  6
ByLayer
 62
    7
370
   -1
100
AcDbPolyline
 90
    2
 70
    0
 43
0
 10
11.92803198453807
 20
0.7124999999999986
 10
11.92803198453807
 20
0
  0
LINE
  5
191
100
AcDbEntity
  8
TITLE_BLOCK
  6
ByLayer
 62
    7
370
   -1
100
AcDbLine
 10
10.26553198453807
 20
0.7124999999999986
 11
10.26553198453806
 21
0
  0
TEXT
  5
192
100
AcDbEntity
  8
TITLE_BLOCK
  6
ByLayer
 62
    7
370
   -1
100
AcDbText
 10
19.7898545292687
 20
0.5853222691672073
 30
0
 40
0.076
  1
PROJECT ID #
 50
0
 41
1
 51
0
  7
ROMANS
 71
    0
210
0
220
0
230
1
100
AcDbText
  0
TEXT
  5
193
100
AcDbEntity
  8
TITLE_BLOCK
  6
ByLayer
 62
    7
370
   -1
100
AcDbText
 10
10.31122669896401
 20
0.239671849579878
 30
0
 40
0.076
  1
CHECKED BY:
 50
0
 41
1
 51
0
  7
ROMANS
 71
    0
210
0
220
0
230
1
100
AcDbText
  0
TEXT
  5
194
100
AcDbEntity
  8
TITLE_BLOCK
  6
ByLayer
 62
    7
370
   -1
100
AcDbText
 10
10.30879762405406
 20
0.4133585415674901
 30
0
 40
0.076
  1
DRAWN BY:
 50
0
 41
1
 51
0
  7
ROMANS
 71
    0
210
0
220
0
230
1
100
AcDbText
  0
LINE
  5
195
100
AcDbEntity
  8
TITLE_BLOCK
  6
ByLayer
 62
    7
370
   -1
100
AcDbLine
 10
19.42099969313056
 20
0.5343750000000185
 11
21
 21
0.534375000000022
  0
LWPOLYLINE
  5
196
100
AcDbEntity
  8
TITLE_BLOCK
  6
ByLayer
 62
    7
370
   -1
100
AcDbPolyline
 90
    2
 70
    0
 43
0
 10
19.42099969313056
 20
0.7124999999999986
 10
19.42099969313056
 20
0
  0
LWPOLYLINE
  5
197
100
AcDbEntity
  8
TITLE_BLOCK
  6
ByLayer
 62
  256
370
   -1
100
AcDbPolyline
 90
    2
 70
    0
 43
0
 10
15.92803198453807
 20
0.7124999999999986
 10
15.92803198453807
 20
0
  0
TEXT
  5
198
100
AcDbEntity
  8
TITLE_BLOCK
  6
ByLayer
 62
    7
370
   -1
100
AcDbText
 10
10.63367810634738
 20
0.05618060273042147
 30
0
 40
0.076
  1
DRAWING NO.
 50
0
 41
0.85
 51
0
  7
ROMANS
 71
    0
 72
    1
 11
10.63367810634738
 21
0.05618060273042147
 31
0
210
0
220
0
230
1
100
AcDbText
  0
LWPOLYLINE
  5
199
100
AcDbEntity
  8
JUD_LOGO
  6
CONTINUOUS
 62
    5
370
   -1
100
AcDbPolyline
 90
   15
 70
    1
 43
0
 10
16.1974181046861
 20
0.5257138727604613
 42
0.09245111918448584
 10
16.10976131571168
 20
0.4382695732215618
 42
0.09824405878535759
 10
16.08346427520055
 20
0.3779511603612709
 42
0.1948135943653039
 10
16.07703611780419
 20
0.2880086366265999
 42
0.2476320630839199
 10
16.12261764959841
 20
0.2488778004130596
 42
0.1307702360666259
 10
16.2260526552419
 20
0.2640629022923465
 42
0.08933126751619154
 10
16.38734115382869
 20
0.3545894637718132
 42
1.017719452106346
 10
16.38266612419233
 20
0.3651022275383574
 42
-0.116710656273325
 10
16.20676816395882
 20
0.2786639604011083
 42
-0.1570083519761006
 10
16.14190214088151
 20
0.2804160856869545
 42
-0.2354807140621449
 10
16.10742380566701
 20
0.3318118109528835
 42
-0.2231206183581898
 10
16.16527727951627
 20
0.4813266546636525
 42
-0.2377606666874001
 10
16.30961879686464
 20
0.5198734471066656
 42
0.3258693318640019
 10
16.31429382650099
 20
0.5321383361590521
 42
0.3112683925971774
 10
16.27572483438781
 20
0.5484915195536637
 42
0.1403684259130616
  0
LWPOLYLINE
  5
19A
100
AcDbEntity
  8
JUD_LOGO
  6
CONTINUOUS
 62
    5
370
   -1
100
AcDbPolyline
 90
    5
 70
    1
 43
0
 10
16.12203326731374
 20
0.3744469037638464
 10
16.12261764959841
 20
0.3615979709409332
 42
0.01413432755717477
 10
16.28682803096753
 20
0.4013128509249965
 42
0.3958308588863186
 10
16.30845004184231
 20
0.4305149671425211
 42
0.5885679454703008
 10
16.30319062992127
 20
0.4386915618526896
 42
-0.03999242371576261
  0
LWPOLYLINE
  5
19B
100
AcDbEntity
  8
JUD_LOGO
  6
CONTINUOUS
 62
  256
370
   -1
100
AcDbPolyline
 90
    4
 70
    1
 43
0
 10
16.04025107165317
 20
0.220416099045775
 10
16.04025107165317
 20
0.5743138642809045
 10
16.41448050657152
 20
0.5743138642809045
 10
16.41448050657152
 20
0.220416099045775
  0
HATCH
  5
19C
100
AcDbEntity
  8
JUD_LOGO
  6
CONTINUOUS
 62
    5
370
   -1
100
AcDbHatch
 10
0
 20
0
 30
0
210
0
220
0
230
1
  2
SOLID
 70
    1
 71
    0
 91
    3
 92
    0
 93
    4
 72
    1
 10
16.41448050657152
 20
0.5743138642809045
 11
16.04025107165317
 21
0.5743138642809045
 72
    1
 10
16.04025107165317
 20
0.5743138642809045
 11
16.04025107165317
 21
0.220416099045775
 72
    1
 10
16.04025107165317
 20
0.220416099045775
 11
16.41448050657152
 21
0.220416099045775
 72
    1
 10
16.41448050657152
 20
0.220416099045775
 11
16.41448050657152
 21
0.5743138642809045
 97
    0
 92
    0
 93
   15
 72
    2
 10
16.14580147360249
 20
0.4508306693141251
 40
0.2032792437825934
 50
66.7475614557474
 51
96.54878425384631
 73
    0
 72
    2
 10
16.13690938904923
 20
0.3116387532971021
 40
0.06436762403136362
 50
102.8284715240755
 51
158.4623933477575
 73
    0
 72
    2
 10
16.19129095200725
 20
0.3250438586302845
 40
0.1201073470177021
 50
162.0401171126734
 51
206.1357956196769
 73
    0
 72
    2
 10
16.24862256227083
 20
0.3418386131683148
 40
0.1690602728400508
 50
192.3338469310241
 51
214.7777029917496
 73
    0
 72
    2
 10
16.38802952975245
 20
0.2469822152452736
 40
0.3376744767775403
 50
214.5054414387471
 51
235.6336181408076
 73
    0
 72
    2
 10
16.2763397649245
 20
0.4003842201053767
 40
0.1481085760158044
 50
237.8008623018189
 51
269.7621135344081
 73
    0
 72
    2
 10
16.28314757679939
 20
0.5123389753005997
 40
0.03690668721083386
 50
258.3974286649774
 51
327.5562859174014
 73
    0
 72
    2
 10
16.30354613823521
 20
0.5292116124466771
 40
0.01113905358399079
 50
344.7670336161818
 51
56.96383628282039
 73
    0
 72
    2
 10
16.27568789676715
 20
0.3574078717095193
 40
0.1659709889425017
 50
78.20335451280305
 51
131.7007755739452
 73
    1
 72
    2
 10
16.29553750573431
 20
0.3449732161135373
 40
0.1885735578993332
 50
133.6907850819246
 51
184.0021864958275
 73
    1
 72
    2
 10
16.17620198415476
 20
0.3406884053310253
 40
0.06934862481582962
 50
187.3540105534793
 51
240.3566098797276
 73
    1
 72
    2
 10
16.1770562378482
 20
0.3802782474142694
 40
0.1058690789531859
 50
250.6065960225593
 51
286.2988723670488
 73
    1
 72
    2
 10
16.11208416605341
 20
0.6935329357517496
 40
0.4255365156691507
 50
282.8562058089216
 51
309.1008628314029
 73
    1
 72
    2
 10
16.38509596838828
 20
0.3598869045609038
 40
0.005753584671814376
 50
216.3963242244649
 51
67.03157692367773
 73
    0
 72
    2
 10
16.05537350122398
 20
0.7571016614920687
 40
0.5217457155449167
 50
50.48625556859646
 51
70.90527399857288
 73
    0
 97
    0
 92
    0
 93
    5
 72
    2
 10
15.50240881763353
 20
3.285335607635564
 40
2.988795871830651
 50
74.78432028713057
 51
78.02345385589258
 73
    0
 72
    1
 10
16.12261764959841
 20
0.361597970940934
 11
16.12203326731374
 21
0.3744469037638463
 72
    2
 10
15.81164909358432
 20
1.537206012304381
 40
1.203472924413207
 50
284.945911146011
 51
293.9229008534521
 73
    1
 72
    2
 10
16.30355036757436
 20
0.4331431580841594
 40
0.005560053557091847
 50
225.6801321573273
 51
28.20916029740081
 73
    0
 72
    2
 10
16.28208525397424
 20
0.4274303364856235
 40
0.02654462253673197
 50
353.3268397178705
 51
79.70759123122811
 73
    0
 97
    0
 75
    0
 76
    1
 98
    0
  0
LWPOLYLINE
  5
19D
100
AcDbEntity
  8
JUD_LOGO
  6
CONTINUOUS
 62
    8
370
   -1
100
AcDbPolyline
 90
    2
 70
    0
 43
0
 10
16.45849010881582
 20
0.2215037392385329
 10
19.36169909339336
 20
0.2215037392385329
  0
TEXT
  5
19E
100
AcDbEntity
  8
JUD_LOGO
  6
CONTINUOUS
 62
    8
370
   -1
100
AcDbText
 10
16.48598689185439
 20
0.242394446584423
 30
0
 40
0.1446934406519435
  1
Jackson Energy Authority
 50
0
 41
1
 51
0
  7
ARIAL
 71
    0
210
0
220
0
230
1
100
AcDbText
  0
ENDBLK
  5
8D
330
8B
100
AcDbEntity
  8
0
100
AcDbBlockEnd
  0
BLOCK
  5
8F
330
8E
100
AcDbEntity
  8
0
100
AcDbBlockBegin
  2
NORTHA
 70
    0
 10
0
 20
0
  3
NORTHA
  1

  0
LINE
  5
19F
100
AcDbEntity
  8
0
  6
CONTINUOUS
 62
    7
370
   -1
100
AcDbLine
 10
-0.05895477594003751
 20
-0.009356417890330704
 11
-0.09828224148623121
 21
-0.009356417890330704
  0
LINE
  5
1A0
100
AcDbEntity
  8
0
  6
CONTINUOUS
 62
    7
370
   -1
100
AcDbLine
 10
0.07488402506169223
 20
-0.009368614770892236
 11
0.06650046913000551
 21
-0.009356417890330704
  0
LINE
  5
1A1
100
AcDbEntity
  8
0
  6
CONTINUOUS
 62
    7
370
   -1
100
AcDbLine
 10
0.4365406209744833
 20
0.07607279467470107
 11
0.3842739734209317
 21
0.08016401634381509
  0
LINE
  5
1A2
100
AcDbEntity
  8
0
  6
CONTINUOUS
 62
    7
370
   -1
100
AcDbLine
 10
0.6418029715523517
 20
0.06000568848253351
 11
0.5971485773534368
 21
0.06350105376282045
  0
LWPOLYLINE
  5
1A3
100
AcDbEntity
  8
0
  6
CONTINUOUS
 62
    7
370
   -1
100
AcDbPolyline
 90
   21
 70
    0
 43
0
 10
0.6867126608030958
 20
0.01769097032979518
 42
0.07773564461191372
 10
0.6683975704445402
 20
-0.005035710212041529
 42
0.07962046479017205
 10
0.6582424050648115
 20
-0.03167098855715268
 42
0.09626634543291945
 10
0.6577450159757063
 20
-0.06876754174004421
 42
0.100752305554345
 10
0.6708838721942811
 20
-0.1017241023562292
 42
0.2244856087247837
 10
0.7080273334031516
 20
-0.1244437784791899
 42
0.1125499104362531
 10
0.7911817126096138
 20
-0.1146829598553723
 42
0.1005634111820131
 10
0.85127489460956
 20
-0.07854223917979657
 42
0.134878465792694
 10
0.8793025623035645
 20
-0.03391163764786152
 42
0.1327192389312524
 10
0.880970850018457
 20
0.02417432687184373
 42
0.1552289698379024
 10
0.8551277525402838
 20
0.06697760355632457
 42
0.1016164701841538
 10
0.7999423996725454
 20
0.09836072193206735
 42
0.06727792944061278
 10
0.7061488973222367
 20
0.1154461905805418
 42
0.03433224779008266
 10
0.5799716001765773
 20
0.1125680777734033
 42
0.05035393318874812
 10
0.495387064094757
 20
0.09611945952497081
 42
0.03254131175809071
 10
0.3891435174482467
 20
0.05640188314259831
 42
0.04498807051816704
 10
0.3175807329744202
 20
0.01611627147735822
 42
0.02554550711909119
 10
0.2820649843642968
 20
-0.01109200187897819
 42
0.0171166561343927
 10
0.2327304570480919
 20
-0.05605112673697474
 42
0.06564989291739884
 10
0.2040059688515611
 20
-0.09257527578051847
 42
0.042467644978161
 10
0.1728121502947033
 20
-0.1570806798529246
 42
0.042467644978161
  0
LWPOLYLINE
  5
1A4
100
AcDbEntity
  8
0
  6
CONTINUOUS
 62
    7
370
   -1
100
AcDbPolyline
 90
   17
 70
    0
 43
0
 10
0.6581353685041904
 20
-0.03219201963361227
 42
0.07691887357088467
 10
0.6739757764989918
 20
-0.04464373042196713
 42
0.08052719090239366
 10
0.6920519862542278
 20
-0.05128198907982552
 42
0.08869531487084485
 10
0.7211587792826322
 20
-0.05169860760838676
 42
0.1418974003172302
 10
0.7377859243015337
 20
-0.04377870164194066
 42
0.1529729446284253
 10
0.7468320939196929
 20
-0.02871349246311184
 42
0.1264464515901263
 10
0.7465284659647295
 20
-0.007610676218291677
 42
0.1201220440262389
 10
0.7348416992872444
 20
0.0135277170495556
 42
0.08048292140380708
 10
0.7067184800298492
 20
0.03562751598678915
 42
0.06736107083374966
 10
0.6539496087079897
 20
0.05614904643539381
 42
0.0598913914469395
 10
0.5907625637692036
 20
0.06355903328335433
 42
0.02819932706153169
 10
0.5081758175501818
 20
0.05865704188704507
 42
0.03909355527501899
 10
0.4495732168597897
 20
0.04715445983424615
 42
0.01683125709483875
 10
0.4111555334693549
 20
0.03503333592266245
 42
0.008651290696288463
 10
0.3377267582227431
 20
0.007680432849383578
 42
0.0362498273900211
 10
0.3006928205513758
 20
-0.01004281876817004
 42
0.02157796100532307
 10
0.2423773244590846
 20
-0.0467641308957808
 42
0.02157796100532307
  0
LWPOLYLINE
  5
1A5
100
AcDbEntity
  8
0
  6
CONTINUOUS
 62
    7
370
   -1
100
AcDbPolyline
 90
   15
 70
    0
 43
0
 10
0.2294072681652324
 20
-0.1685404964180179
 42
0.1552217016949971
 10
0.2207656371938356
 20
-0.1532236949285561
 42
0.2307447259483068
 10
0.2091262028179699
 20
-0.1496794245260844
 42
0.0397883559933262
 10
0.1988302193849449
 20
-0.1521717685798194
 42
0.04078929877780357
 10
0.1893060164547933
 20
-0.1561824818888908
 42
0.05364951427960623
 10
0.1821040505674318
 20
-0.1609764734591863
 42
-0.06754276798233748
 10
0.1749020846800704
 20
-0.1657704650294818
 42
-0.1598881300178175
 10
0.1612660986456831
 20
-0.1676271114904466
 42
-0.2043888281696699
 10
0.1521488415964996
 20
-0.1615885256499041
 42
-0.06739781520720478
 10
0.1478022660303395
 20
-0.1525440486964271
 42
-0.05221479824346331
 10
0.1451189054796487
 20
-0.1398963918693425
 42
-0.01357735742364338
 10
0.1433756674650795
 20
-0.1174697576882418
 42
-0.005027158997850425
 10
0.1409242971085405
 20
-0.05677631436878781
 42
-0.01077560269151307
 10
0.1407844854120412
 20
-0.04082164019450842
 42
-0.005652842618249424
 10
0.1415171302514862
 20
-0.01041862327724641
 42
-0.005652842618249424
  0
LWPOLYLINE
  5
1A6
100
AcDbEntity
  8
0
  6
CONTINUOUS
 62
    7
370
   -1
100
AcDbPolyline
 90
   13
 70
    0
 43
0
 10
0.07546765963797974
 20
-0.01041862327724647
 42
0.004820902942698753
 10
0.07557999181335623
 20
-0.03902988294180362
 42
0.00885001820913775
 10
0.07606726218091353
 20
-0.05460875968333084
 42
0.005772166797185596
 10
0.07958341743142239
 20
-0.1126453144872799
 42
0.01058817824908085
 10
0.08253449088169885
 20
-0.1442069044890103
 42
0.07120629506429434
 10
0.08936276985696166
 20
-0.1702330826158231
 42
0.06497521474366288
 10
0.1042193938828859
 20
-0.1956755388330293
 42
0.1036148210822744
 10
0.1203362625337831
 20
-0.2094171748151439
 42
0.1571158253423482
 10
0.1342476480967889
 20
-0.2120614529383147
 42
0.0844483520229327
 10
0.1492151953034409
 20
-0.207556755143969
 42
0.1190217832912246
 10
0.1577728298198053
 20
-0.2003813617895958
 10
0.1788925521159399
 20
-0.1715646186023605
 10
0.1908585822784516
 20
-0.1554008436926324
  0
LWPOLYLINE
  5
1A7
100
AcDbEntity
  8
0
  6
CONTINUOUS
 62
    7
370
   -1
100
AcDbPolyline
 90
   13
 70
    0
 43
0
 10
0.1415171302514864
 20
-0.01041862327724582
 42
0.004820902942698642
 10
0.1414047980761098
 20
0.01819263638685713
 42
0.008850018209137639
 10
0.1409175277076429
 20
0.03377151312838576
 42
0.005772166797185485
 10
0.1374013724580435
 20
0.09180806793278809
 42
0.01058817824908096
 10
0.1344502990077672
 20
0.1233696579340629
 42
0.07120629506429445
 10
0.1276220200315947
 20
0.1493958360608758
 42
0.06497521474366288
 10
0.1127653960056705
 20
0.174838292278082
 42
0.1036148210822744
 10
0.09664852735477322
 20
0.1885799282601965
 42
0.157115825342348
 10
0.08273714179267699
 20
0.1912242063833673
 42
0.0844483520229327
 10
0.06776959458511556
 20
0.1867195085894764
 42
0.1190217832912244
 10
0.05921196006875107
 20
0.1795441152346484
 10
0.03809223777352599
 20
0.1507273720474132
 10
0.02612620761101425
 20
0.1345635971376851
  0
LWPOLYLINE
  5
1A8
100
AcDbEntity
  8
0
  6
CONTINUOUS
 62
    7
370
   -1
100
AcDbPolyline
 90
   15
 70
    0
 43
0
 10
-0.01242247827576649
 20
0.1477032498630706
 42
0.1552217016949972
 10
-0.003780847305279169
 20
0.1323864483736088
 42
0.2307447259483072
 10
0.007858587070586467
 20
0.1288421779711371
 42
0.0397883559933262
 10
0.0181545705036114
 20
0.1313345220248721
 42
0.04078929877780357
 10
0.02767877343467257
 20
0.1353452353343982
 42
0.05364951427960634
 10
0.03488073932112457
 20
0.1401392269046937
 42
-0.06754276798233737
 10
0.042082705208486
 20
0.1449332184749892
 42
-0.1598881300178172
 10
0.05571869124378281
 20
0.1467898649354993
 42
-0.2043888281696699
 10
0.06483594829296635
 20
0.1407512790954115
 42
-0.06739781520720489
 10
0.06918252385821688
 20
0.1317068021414798
 42
-0.05221479824346342
 10
0.07186588440981717
 20
0.1190591453143952
 42
-0.01357735742364327
 10
0.07360912242347695
 20
0.09663251113329403
 42
-0.005027158997850203
 10
0.07606049278001603
 20
0.0359390678142973
 42
-0.01077560269151296
 10
0.07620030447742465
 20
0.01998439364001558
 42
-0.005652842618249535
 10
0.07546765963797952
 20
-0.01041862327724678
 42
-0.005652842618249535
  0
LWPOLYLINE
  5
1A9
100
AcDbEntity
  8
0
  6
CONTINUOUS
 62
    7
370
   -1
100
AcDbPolyline
 90
   17
 70
    0
 43
0
 10
-0.4349256386549314
 20
0.001879821097872984
 42
0.07691887357088455
 10
-0.4507660466497327
 20
0.01433153188622779
 42
0.08052719090239366
 10
-0.4688422564049688
 20
0.02096979054408621
 42
0.08869531487084485
 10
-0.4979490494333731
 20
0.02138640907264747
 42
0.1418974003172302
 10
-0.5145761944522746
 20
0.01346650310665609
 42
0.1529729446284252
 10
-0.5236223640704338
 20
-0.001598706072172693
 42
0.1264464515901264
 10
-0.52331873611638
 20
-0.02270152231744759
 42
0.120122044026239
 10
-0.5116319694388949
 20
-0.04383991558484015
 42
0.08048292140380686
 10
-0.4835087501805902
 20
-0.06593971452207363
 42
0.06736107083374966
 10
-0.4307398788587308
 20
-0.08646124497113297
 42
0.05989139144693961
 10
-0.3675528339208542
 20
-0.09387123181863888
 42
0.02819932706153169
 10
-0.2849660877018322
 20
-0.08896924042232951
 42
0.03909355527501877
 10
-0.2263634870105309
 20
-0.07746665836953071
 42
0.01683125709483875
 10
-0.1879458036210051
 20
-0.065345534457947
 42
0.008651290696288241
 10
-0.1145170283734853
 20
-0.03799263138466868
 42
0.03624982739002132
 10
-0.07748309070211684
 20
-0.02026937976756926
 42
0.02157796100532307
 10
-0.01916759460982581
 20
0.01645193236049625
 42
0.02157796100532307
  0
LWPOLYLINE
  5
1AA
100
AcDbEntity
  8
0
  6
CONTINUOUS
 62
    7
370
   -1
100
AcDbPolyline
 90
   21
 70
    0
 43
0
 10
-0.4635029309538368
 20
-0.04800316886553443
 42
0.07773564461191361
 10
-0.4451878405961908
 20
-0.02527648832324305
 42
0.07962046479017228
 10
-0.4350326752155524
 20
0.001358790021413384
 42
0.09626634543291945
 10
-0.4345352861264473
 20
0.03845534320430492
 42
0.100752305554345
 10
-0.4476741423459316
 20
0.07141190382094463
 42
0.2244856087247836
 10
-0.4848176035548022
 20
0.09413157994345056
 42
0.1125499104362531
 10
-0.5679719827603549
 20
0.08437076132008774
 42
0.1005634111820129
 10
-0.6280651647603008
 20
0.04823004064451198
 42
0.1348784657926941
 10
-0.6560928324543056
 20
0.003599439112576909
 42
0.1327192389312524
 10
-0.657761120169198
 20
-0.05448652540758307
 42
0.1552289698379021
 10
-0.6319180226910249
 20
-0.09728980209206374
 42
0.101616470184154
 10
-0.5767326698241961
 20
-0.128672920467352
 42
0.067277929440613
 10
-0.4829391674738873
 20
-0.1457583891162813
 42
0.03433224779008266
 10
-0.3567618703273185
 20
-0.1428802763086878
 42
0.05035393318874812
 10
-0.2721773342454985
 20
-0.1264316580602554
 42
0.03254131175809071
 10
-0.1659337875998973
 20
-0.08671408167788291
 42
0.04498807051816715
 10
-0.09437100312516153
 20
-0.04642847001264294
 42
0.02554550711909119
 10
-0.05885525451503837
 20
-0.01922019665630659
 42
0.01711665613439281
 10
-0.009520727198832832
 20
0.0257389282016903
 42
0.06564989291739895
 10
0.01920376099769772
 20
0.06226307724477895
 42
0.04246764497816111
 10
0.05039757955455565
 20
0.12676848131764
 42
0.04246764497816111
  0
LINE
  5
1AB
100
AcDbEntity
  8
0
  6
CONTINUOUS
 62
    7
370
   -1
100
AcDbLine
 10
0.07149816776382067
 20
0.1043373205336593
 11
-0.26672519535623
 21
0.1306435821099967
  0
LINE
  5
1AC
100
AcDbEntity
  8
0
  6
CONTINUOUS
 62
    7
370
   -1
100
AcDbLine
 10
-0.09828224148623121
 20
-0.009356417890330704
 11
-0.3167251953573214
 21
-0.009356417890330704
  0
LINE
  5
1AD
100
AcDbEntity
  8
0
  6
CONTINUOUS
 62
    7
370
   -1
100
AcDbLine
 10
-0.6590381820769835
 20
-0.008645881821166768
 11
-0.9167251953567757
 21
-0.009356417890330704
  0
LINE
  5
1AE
100
AcDbEntity
  8
0
  6
CONTINUOUS
 62
    7
370
   -1
100
AcDbLine
 10
0.3842739734209317
 20
0.08016401634381509
 11
0.1346686047618277
 21
0.09920168726216616
  0
LINE
  5
1AF
100
AcDbEntity
  8
0
  6
CONTINUOUS
 62
    7
370
   -1
100
AcDbLine
 10
0.06650046913000551
 20
-0.009356417890330704
 11
-0.0474381467074636
 21
-0.009356417890330704
  0
LINE
  5
1B0
100
AcDbEntity
  8
0
  6
CONTINUOUS
 62
    7
370
   -1
100
AcDbLine
 10
0.7471771047230504
 20
-0.0103467054993871
 11
0.141529342485228
 21
-0.009465574220257622
  0
ARC
  5
1B1
100
AcDbEntity
  8
0
  6
CONTINUOUS
 62
    7
370
   -1
100
AcDbCircle
 10
-1.566782278689971
 20
0.04393941544299196
 40
0.05329586390309281
100
AcDbArc
 50
270.0613675146395
 51
18.18966330065319
  0
ARC
  5
1B2
100
AcDbEntity
  8
0
  6
CONTINUOUS
 62
    7
370
   -1
100
AcDbCircle
 10
-0.4124439393535795
 20
0.1041546079907221
 40
0.1484817529157841
100
AcDbArc
 50
310.1394296473067
 51
10.26472093495173
  0
LINE
  5
1B3
100
AcDbEntity
  8
0
  6
CONTINUOUS
 62
    7
370
   -1
100
AcDbLine
 10
-0.9167251953567757
 20
-0.009356417890330704
 11
-1.51672519535623
 21
0.06064358210983301
  0
LINE
  5
1B4
100
AcDbEntity
  8
0
  6
CONTINUOUS
 62
    7
370
   -1
100
AcDbLine
 10
1.533274804643952
 20
-0.009356417890330704
 11
0.8745135051831312
 21
0.04188057206806661
  0
LINE
  5
1B5
100
AcDbEntity
  8
0
  6
CONTINUOUS
 62
    7
370
   -1
100
AcDbLine
 10
1.533274804643952
 20
-0.009356417890330704
 11
0.8837793187785792
 21
-0.009356417890330704
  0
LINE
  5
1B6
100
AcDbEntity
  8
0
  6
CONTINUOUS
 62
    7
370
   -1
100
AcDbLine
 10
-0.3167251953573214
 20
-0.009356417890330704
 11
-0.5247518487976777
 21
-0.009356417890330704
  0
LINE
  5
1B7
100
AcDbEntity
  8
0
  6
CONTINUOUS
 62
    7
370
   -1
100
AcDbLine
 10
-1.566725195356412
 20
-0.009356417890330704
 11
-1.666725195356776
 21
-0.009356417890330704
  0
LINE
  5
1B8
100
AcDbEntity
  8
0
  6
CONTINUOUS
 62
    7
370
   -1
100
AcDbLine
 10
-0.9167251953567757
 20
-0.009356417890330704
 11
-1.566725195356412
 21
-0.009356417890330704
  0
LINE
  5
1B9
100
AcDbEntity
  8
0
  6
CONTINUOUS
 62
    7
370
   -1
100
AcDbLine
 10
-1.517215924091033
 20
0.02435305285962386
 11
-1.205663516069762
 21
0.02435305285962386
  0
LINE
  5
1BA
100
AcDbEntity
  8
0
  6
CONTINUOUS
 62
    7
370
   -1
100
AcDbLine
 10
-1.515181982742433
 20
0.03060305285976028
 11
-1.259234944641321
 21
0.03060305285976028
  0
LINE
  5
1BB
100
AcDbEntity
  8
0
  6
CONTINUOUS
 62
    7
370
   -1
100
AcDbLine
 10
-1.513959626583528
 20
0.03685305285966933
 11
-1.31280637321197
 21
0.03685305285966933
  0
LINE
  5
1BC
100
AcDbEntity
  8
0
  6
CONTINUOUS
 62
    7
370
   -1
100
AcDbLine
 10
-1.513492977657734
 20
0.04310305285957838
 11
-1.366377801783528
 21
0.04310305285957838
  0
LINE
  5
1BD
100
AcDbEntity
  8
0
  6
CONTINUOUS
 62
    7
370
   -1
100
AcDbLine
 10
-1.513762078406216
 20
0.04935305285971481
 11
-1.419949230355087
 21
0.04935305285971481
  0
LINE
  5
1BE
100
AcDbEntity
  8
0
  6
CONTINUOUS
 62
    7
370
   -1
100
AcDbLine
 10
-1.514778349303015
 20
0.05560305285962386
 11
-1.473520658926645
 21
0.05560305285962386
  0
LINE
  5
1BF
100
AcDbEntity
  8
0
  6
CONTINUOUS
 62
    7
370
   -1
100
AcDbLine
 10
-1.520167565569864
 20
0.01810305285971481
 11
-1.152092087498204
 21
0.01810305285971481
  0
LINE
  5
1C0
100
AcDbEntity
  8
0
  6
CONTINUOUS
 62
    7
370
   -1
100
AcDbLine
 10
-1.524227438240814
 20
0.01185305285957838
 11
-1.098520658926645
 21
0.01185305285957838
  0
LINE
  5
1C1
100
AcDbEntity
  8
0
  6
CONTINUOUS
 62
    7
370
   -1
100
AcDbLine
 10
-1.529758334922917
 20
0.005603052859669333
 11
-1.044949230355087
 21
0.005603052859669333
  0
LINE
  5
1C2
100
AcDbEntity
  8
0
  6
CONTINUOUS
 62
    7
370
   -1
100
AcDbLine
 10
-1.537584583944408
 20
-0.0006469471402397176
 11
-0.9913778017835284
 21
-0.0006469471402397176
  0
LINE
  5
1C3
100
AcDbEntity
  8
0
  6
CONTINUOUS
 62
    7
370
   -1
100
AcDbLine
 10
-1.550778736911525
 20
-0.006896947140376142
 11
-0.9378063732119699
 21
-0.006896947140376142
  0
LINE
  5
1C4
100
AcDbEntity
  8
0
  6
CONTINUOUS
 62
    7
370
   -1
100
AcDbLine
 10
-0.2748385001841598
 20
0.04310305285957838
 11
0.07515053538827488
 21
0.04310305285957838
  0
LINE
  5
1C5
100
AcDbEntity
  8
0
  6
CONTINUOUS
 62
    7
370
   -1
100
AcDbLine
 10
-0.272755166850402
 20
0.04935305285971481
 11
0.07515053538827488
 21
0.04935305285971481
  0
LINE
  5
1C6
100
AcDbEntity
  8
0
  6
CONTINUOUS
 62
    7
370
   -1
100
AcDbLine
 10
-0.2706718335166443
 20
0.05560305285962386
 11
0.07501921179482451
 21
0.05560305285962386
  0
LINE
  5
1C7
100
AcDbEntity
  8
0
  6
CONTINUOUS
 62
    7
370
   -1
100
AcDbLine
 10
-0.2685895542681465
 20
0.06185305285976028
 11
0.07456765016740974
 21
0.06185305285976028
  0
LINE
  5
1C8
100
AcDbEntity
  8
0
  6
CONTINUOUS
 62
    7
370
   -1
100
AcDbLine
 10
-0.2676129917681465
 20
0.06810305285966933
 11
0.07411608854090446
 21
0.06810305285966933
  0
LINE
  5
1C9
100
AcDbEntity
  8
0
  6
CONTINUOUS
 62
    7
370
   -1
100
AcDbLine
 10
-0.2666364292681465
 20
0.07435305285957838
 11
0.07366452691439918
 21
0.07435305285957838
  0
LINE
  5
1CA
100
AcDbEntity
  8
0
  6
CONTINUOUS
 62
    7
370
   -1
100
AcDbLine
 10
-0.2656598667681465
 20
0.08060305285971481
 11
0.0732129652869844
 21
0.08060305285971481
  0
LINE
  5
1CB
100
AcDbEntity
  8
0
  6
CONTINUOUS
 62
    7
370
   -1
100
AcDbLine
 10
-0.2652314515762555
 20
0.08685305285962386
 11
0.07276140366047912
 21
0.08685305285962386
  0
LINE
  5
1CC
100
AcDbEntity
  8
0
  6
CONTINUOUS
 62
    7
370
   -1
100
AcDbLine
 10
-0.2652314515762555
 20
0.09310305285976028
 11
0.07230984203397384
 21
0.09310305285976028
  0
LINE
  5
1CD
100
AcDbEntity
  8
0
  6
CONTINUOUS
 62
    7
370
   -1
100
AcDbLine
 10
-0.2652314515762555
 20
0.09935305285966933
 11
0.07185828040746856
 21
0.09935305285966933
  0
LINE
  5
1CE
100
AcDbEntity
  8
0
  6
CONTINUOUS
 62
    7
370
   -1
100
AcDbLine
 10
-0.2652314515762555
 20
0.1056030528595784
 11
0.05522446642953582
 21
0.1056030528595784
  0
LINE
  5
1CF
100
AcDbEntity
  8
0
  6
CONTINUOUS
 62
    7
370
   -1
100
AcDbLine
 10
-0.2654883028872064
 20
0.1118530528597148
 11
-0.02513267642734718
 21
0.1118530528597148
  0
LINE
  5
1D0
100
AcDbEntity
  8
0
  6
CONTINUOUS
 62
    7
370
   -1
100
AcDbLine
 10
-0.2657715921104682
 20
0.1181030528596239
 11
-0.1054898192833207
 21
0.1181030528596239
  0
LINE
  5
1D1
100
AcDbEntity
  8
0
  6
CONTINUOUS
 62
    7
370
   -1
100
AcDbLine
 10
-0.2660548813328205
 20
0.1243530528597603
 11
-0.1858469621402037
 21
0.1243530528597603
  0
LINE
  5
1D2
100
AcDbEntity
  8
0
  6
CONTINUOUS
 62
    7
370
   -1
100
AcDbLine
 10
-0.2663381705560823
 20
0.1306030528596693
 11
-0.2662041049970867
 21
0.1306030528596693
  0
LINE
  5
1D3
100
AcDbEntity
  8
0
  6
CONTINUOUS
 62
    7
370
   -1
100
AcDbLine
 10
-0.2781894135223411
 20
0.03685305285966933
 11
0.07515053538827488
 21
0.03685305285966933
  0
LINE
  5
1D4
100
AcDbEntity
  8
0
  6
CONTINUOUS
 62
    7
370
   -1
100
AcDbLine
 10
-0.2819096516168429
 20
0.03060305285976028
 11
0.07515053538827488
 21
0.03060305285976028
  0
LINE
  5
1D5
100
AcDbEntity
  8
0
  6
CONTINUOUS
 62
    7
370
   -1
100
AcDbLine
 10
-0.2856298897122542
 20
0.02435305285962386
 11
0.07515053538827488
 21
0.02435305285962386
  0
LINE
  5
1D6
100
AcDbEntity
  8
0
  6
CONTINUOUS
 62
    7
370
   -1
100
AcDbLine
 10
-0.2901561550543192
 20
0.01810305285971481
 11
0.07515053538827488
 21
0.01810305285971481
  0
LINE
  5
1D7
100
AcDbEntity
  8
0
  6
CONTINUOUS
 62
    7
370
   -1
100
AcDbLine
 10
-0.2949304606099759
 20
0.01185305285957838
 11
-0.02625741053452657
 21
0.01185305285957838
  0
LINE
  5
1D8
100
AcDbEntity
  8
0
  6
CONTINUOUS
 62
    7
370
   -1
100
AcDbLine
 10
-0.02420522243301093
 20
0.01185305285957838
 11
0.07515053538827488
 21
0.01185305285957838
  0
LINE
  5
1D9
100
AcDbEntity
  8
0
  6
CONTINUOUS
 62
    7
370
   -1
100
AcDbLine
 10
-0.3001059400476151
 20
0.005603052859669333
 11
-0.0358926596272795
 21
0.005603052859669333
  0
LINE
  5
1DA
100
AcDbEntity
  8
0
  6
CONTINUOUS
 62
    7
370
   -1
100
AcDbLine
 10
-0.03105149311522837
 20
0.005603052859669333
 11
0.0751124069765865
 21
0.005603052859669333
  0
LINE
  5
1DB
100
AcDbEntity
  8
0
  6
CONTINUOUS
 62
    7
370
   -1
100
AcDbLine
 10
-0.3070493906207048
 20
-0.0006469471402397176
 11
-0.04552790871912293
 21
-0.0006469471402397176
  0
LINE
  5
1DC
100
AcDbEntity
  8
0
  6
CONTINUOUS
 62
    7
370
   -1
100
AcDbLine
 10
-0.0378977637974458
 20
-0.0006469471402397176
 11
0.07501706776656647
 21
-0.0006469471402397176
  0
LINE
  5
1DD
100
AcDbEntity
  8
0
  6
CONTINUOUS
 62
    7
370
   -1
100
AcDbLine
 10
-0.3139928411937944
 20
-0.006896947140376142
 11
-0.05516315781096637
 21
-0.006896947140376142
  0
LINE
  5
1DE
100
AcDbEntity
  8
0
  6
CONTINUOUS
 62
    7
370
   -1
100
AcDbLine
 10
-0.04474403447966324
 20
-0.006896947140376142
 11
0.07492172855563695
 21
-0.006896947140376142
  0
LINE
  5
1DF
100
AcDbEntity
  8
0
  6
CONTINUOUS
 62
    7
370
   -1
100
AcDbLine
 10
0.1391106574519654
 20
0.04935305285971481
 11
0.3730691335103984
 21
0.04935305285971481
  0
LINE
  5
1E0
100
AcDbEntity
  8
0
  6
CONTINUOUS
 62
    7
370
   -1
100
AcDbLine
 10
0.138859025642887
 20
0.05560305285962386
 11
0.3839040949969785
 21
0.05560305285962386
  0
LINE
  5
1E1
100
AcDbEntity
  8
0
  6
CONTINUOUS
 62
    7
370
   -1
100
AcDbLine
 10
0.1386073938338086
 20
0.06185305285976028
 11
0.3999755379263661
 21
0.06185305285976028
  0
LINE
  5
1E2
100
AcDbEntity
  8
0
  6
CONTINUOUS
 62
    7
370
   -1
100
AcDbLine
 10
0.1383557620256397
 20
0.06810305285966933
 11
0.4160469808557536
 21
0.06810305285966933
  0
LINE
  5
1E3
100
AcDbEntity
  8
0
  6
CONTINUOUS
 62
    7
370
   -1
100
AcDbLine
 10
0.1381041302165613
 20
0.07435305285957838
 11
0.4321184237842317
 21
0.07435305285957838
  0
LINE
  5
1E4
100
AcDbEntity
  8
0
  6
CONTINUOUS
 62
    7
370
   -1
100
AcDbLine
 10
0.1378524984074829
 20
0.08060305285971481
 11
0.3774148679922291
 21
0.08060305285971481
  0
LINE
  5
1E5
100
AcDbEntity
  8
0
  6
CONTINUOUS
 62
    7
370
   -1
100
AcDbLine
 10
0.137600866599314
 20
0.08685305285962386
 11
0.295844250808841
 21
0.08685305285962386
  0
LINE
  5
1E6
100
AcDbEntity
  8
0
  6
CONTINUOUS
 62
    7
370
   -1
100
AcDbLine
 10
0.1374495864520213
 20
0.09310305285976028
 11
0.2142736336245434
 21
0.09310305285976028
  0
LINE
  5
1E7
100
AcDbEntity
  8
0
  6
CONTINUOUS
 62
    7
370
   -1
100
AcDbLine
 10
0.1393622892601343
 20
0.04310305285957838
 11
0.3626524668434286
 21
0.04310305285957838
  0
LINE
  5
1E8
100
AcDbEntity
  8
0
  6
CONTINUOUS
 62
    7
370
   -1
100
AcDbLine
 10
0.1396139210692127
 20
0.03685305285966933
 11
0.3522358001773682
 21
0.03685305285966933
  0
LINE
  5
1E9
100
AcDbEntity
  8
0
  6
CONTINUOUS
 62
    7
370
   -1
100
AcDbLine
 10
0.1398655528782911
 20
0.03060305285976028
 11
0.3418191335103984
 21
0.03060305285976028
  0
LINE
  5
1EA
100
AcDbEntity
  8
0
  6
CONTINUOUS
 62
    7
370
   -1
100
AcDbLine
 10
0.14011718468646
 20
0.02435305285962386
 11
0.3314024668434286
 21
0.02435305285962386
  0
LINE
  5
1EB
100
AcDbEntity
  8
0
  6
CONTINUOUS
 62
    7
370
   -1
100
AcDbLine
 10
0.1403688164955383
 20
0.01810305285971481
 11
0.3209858001773682
 21
0.01810305285971481
  0
LINE
  5
1EC
100
AcDbEntity
  8
0
  6
CONTINUOUS
 62
    7
370
   -1
100
AcDbLine
 10
0.1406204483037072
 20
0.01185305285957838
 11
0.3124899015883784
 21
0.01185305285957838
  0
LINE
  5
1ED
100
AcDbEntity
  8
0
  6
CONTINUOUS
 62
    7
370
   -1
100
AcDbLine
 10
0.1408720801127856
 20
0.005603052859669333
 11
0.3042024637934446
 21
0.005603052859669333
  0
LINE
  5
1EE
100
AcDbEntity
  8
0
  6
CONTINUOUS
 62
    7
370
   -1
100
AcDbLine
 10
0.141123711921864
 20
-0.0006469471402397176
 11
0.2959150259985108
 21
-0.0006469471402397176
  0
LINE
  5
1EF
100
AcDbEntity
  8
0
  6
CONTINUOUS
 62
    7
370
   -1
100
AcDbLine
 10
0.1413753437300329
 20
-0.006896947140376142
 11
0.2876275882026675
 21
-0.006896947140376142
  0
LINE
  5
1F0
100
AcDbEntity
  8
0
  6
CONTINUOUS
 62
    7
370
   -1
100
AcDbLine
 10
0.3500202817822355
 20
0.01185305285957838
 11
0.7321904939835804
 21
0.01185305285957838
  0
LINE
  5
1F1
100
AcDbEntity
  8
0
  6
CONTINUOUS
 62
    7
370
   -1
100
AcDbLine
 10
0.3664887034565254
 20
0.01810305285971481
 11
0.727971244589753
 21
0.01810305285971481
  0
LINE
  5
1F2
100
AcDbEntity
  8
0
  6
CONTINUOUS
 62
    7
370
   -1
100
AcDbLine
 10
0.3833537828222688
 20
0.02435305285962386
 11
0.7206734173005316
 21
0.02435305285962386
  0
LINE
  5
1F3
100
AcDbEntity
  8
0
  6
CONTINUOUS
 62
    7
370
   -1
100
AcDbLine
 10
0.4002188621871028
 20
0.03060305285976028
 11
0.7100200082104493
 21
0.03060305285976028
  0
LINE
  5
1F4
100
AcDbEntity
  8
0
  6
CONTINUOUS
 62
    7
370
   -1
100
AcDbLine
 10
0.417413562296133
 20
0.03685305285966933
 11
0.6993665991194575
 21
0.03685305285966933
  0
LINE
  5
1F5
100
AcDbEntity
  8
0
  6
CONTINUOUS
 62
    7
370
   -1
100
AcDbLine
 10
0.4356427289631029
 20
0.04310305285957838
 11
0.6887131900284658
 21
0.04310305285957838
  0
LINE
  5
1F6
100
AcDbEntity
  8
0
  6
CONTINUOUS
 62
    7
370
   -1
100
AcDbLine
 10
0.4596381935498357
 20
0.04935305285971481
 11
0.6694573995364408
 21
0.04935305285971481
  0
LINE
  5
1F7
100
AcDbEntity
  8
0
  6
CONTINUOUS
 62
    7
370
   -1
100
AcDbLine
 10
0.4924424983400968
 20
0.05560305285962386
 11
0.6463919233456181
 21
0.05560305285962386
  0
LINE
  5
1F8
100
AcDbEntity
  8
0
  6
CONTINUOUS
 62
    7
370
   -1
100
AcDbLine
 10
0.5460139269116553
 20
0.06185305285976028
 11
0.5632786231426508
 21
0.06185305285976028
  0
LINE
  5
1F9
100
AcDbEntity
  8
0
  6
CONTINUOUS
 62
    7
370
   -1
100
AcDbLine
 10
0.3358905078275711
 20
0.005603052859669333
 11
0.7364097433783172
 21
0.005603052859669333
  0
LINE
  5
1FA
100
AcDbEntity
  8
0
  6
CONTINUOUS
 62
    7
370
   -1
100
AcDbLine
 10
0.3217607338738162
 20
-0.0006469471402397176
 11
0.7406289927730541
 21
-0.0006469471402397176
  0
LINE
  5
1FB
100
AcDbEntity
  8
0
  6
CONTINUOUS
 62
    7
370
   -1
100
AcDbLine
 10
0.3076309599191518
 20
-0.006896947140376142
 11
0.7448482421668814
 21
-0.006896947140376142
  0
LINE
  5
1FC
100
AcDbEntity
  8
0
  6
CONTINUOUS
 62
    7
370
   -1
100
AcDbLine
 10
0.8835001914940221
 20
-0.006896947140376142
 11
1.501653037859796
 21
-0.006896947140376142
  0
LINE
  5
1FD
100
AcDbEntity
  8
0
  6
CONTINUOUS
 62
    7
370
   -1
100
AcDbLine
 10
0.8827908740413477
 20
-0.0006469471402397176
 11
1.421295895002913
 21
-0.0006469471402397176
  0
LINE
  5
1FE
100
AcDbEntity
  8
0
  6
CONTINUOUS
 62
    7
370
   -1
100
AcDbLine
 10
0.8820815565886733
 20
0.005603052859669333
 11
1.34093875214603
 21
0.005603052859669333
  0
LINE
  5
1FF
100
AcDbEntity
  8
0
  6
CONTINUOUS
 62
    7
370
   -1
100
AcDbLine
 10
0.881337362643535
 20
0.01185305285957838
 11
1.260581609288238
 21
0.01185305285957838
  0
LINE
  5
200
100
AcDbEntity
  8
0
  6
CONTINUOUS
 62
    7
370
   -1
100
AcDbLine
 10
0.8799170285547007
 20
0.01810305285971481
 11
1.180224466431355
 21
0.01810305285971481
  0
LINE
  5
201
100
AcDbEntity
  8
0
  6
CONTINUOUS
 62
    7
370
   -1
100
AcDbLine
 10
0.8784966944658663
 20
0.02435305285962386
 11
1.099867323574472
 21
0.02435305285962386
  0
LINE
  5
202
100
AcDbEntity
  8
0
  6
CONTINUOUS
 62
    7
370
   -1
100
AcDbLine
 10
0.877076360377032
 20
0.03060305285976028
 11
1.019510180717589
 21
0.03060305285976028
  0
LINE
  5
203
100
AcDbEntity
  8
0
  6
CONTINUOUS
 62
    7
370
   -1
100
AcDbLine
 10
0.8756560262891071
 20
0.03685305285966933
 11
0.9391530378597963
 21
0.03685305285966933
  0
ENDBLK
  5
90
330
8E
100
AcDbEntity
  8
0
100
AcDbBlockEnd
  0
BLOCK
  5
92
330
91
100
AcDbEntity
  8
0
100
AcDbBlockBegin
  2
A$C05ecc4d1
 70
    0
 10
0
 20
0
  3
A$C05ecc4d1
  1

  0
LWPOLYLINE
  5
204
100
AcDbEntity
  8
0
  6
ByLayer
 62
  256
370
   -1
100
AcDbPolyline
 90
    4
 70
    1
 43
0
 10
0
 20
0.3012579057261391
 10
0.5943769385441726
 20
0.3012579057261391
 10
0.5943769385441726
 20
-0.3012579057261391
 10
0
 20
-0.3012579057261391
  0
MTEXT
  5
205
100
AcDbEntity
  8
0
  6
ByLayer
 62
  256
370
   -1
100
AcDbMText
 10
0.1906742091213971
 20
0.1173429252233831
 30
0
 40
0.25
 41
0.1666666666666667
 71
    1
 72
    5
  1
R
  7
ROMANS
210
0
220
0
230
1
 50
0
 73
    1
 44
1
  0
ENDBLK
  5
93
330
91
100
AcDbEntity
  8
0
100
AcDbBlockEnd
  0
BLOCK
  5
95
330
94
100
AcDbEntity
  8
0
100
AcDbBlockBegin
  2
A$C503909a3
 70
    0
 10
0
 20
0
  3
A$C503909a3
  1

  0
CIRCLE
  5
206
100
AcDbEntity
  8
0
  6
ByLayer
 62
  256
370
   -1
100
AcDbCircle
 10
0
 20
8.881784197001252e-16
 40
0.2627419373594364
  0
MTEXT
  5
207
100
AcDbEntity
  8
0
  6
ByLayer
 62
  256
370
   -1
100
AcDbMText
 10
-0.1165402807324014
 20
0.1208895839181174
 30
0
 40
0.25
 41
0.1666666666666667
 71
    1
 72
    5
  1
X
  7
ROMANS
210
0
220
0
230
1
 50
0
 73
    1
 44
1
  0
ENDBLK
  5
96
330
94
100
AcDbEntity
  8
0
100
AcDbBlockEnd
  0
ENDSEC
  0
SECTION
  2
ENTITIES
  0
INSERT
  5
208
100
AcDbEntity
  8
0
  6
ByLayer
 62
  256
370
   -1
100
AcDbBlockReference
  2
TITLEHA
 10
122.4175916637359
 20
126.1954508561726
 30
0
 41
50
 42
50
 43
0
 50
0
 70
    1
 71
    1
 44
0
 45
0
  0
INSERT
  5
209
100
AcDbEntity
  8
0
  6
ByLayer
 62
  256
370
   -1
100
AcDbBlockReference
  2
TITLEHC
 10
0
 20
0
 30
0
 41
100
 42
100
 43
0
 50
0
 70
    1
 71
    1
 44
0
 45
0
  0
INSERT
  5
20A
100
AcDbEntity
  8
0
  6
ByLayer
 62
  256
370
   -1
100
AcDbBlockReference
  2
TITLEHD
 10
0
 20
0
 30
0
 41
100
 42
100
 43
0
 50
0
 70
    1
 71
    1
 44
0
 45
0
  0
INSERT
  5
20B
100
AcDbEntity
  8
0
  6
ByLayer
 62
  256
370
   -1
100
AcDbBlockReference
  2
TITLEHC
 10
524.3228671076595
 20
421.5298452503221
 30
0
 41
50
 42
50
 43
0
 50
0
 70
    1
 71
    1
 44
0
 45
0
  0
INSERT
  5
20C
100
AcDbEntity
  8
0
  6
ByLayer
 62
  256
370
   -1
100
AcDbBlockReference
  2
TITLEHB
 10
174.3953744634528
 20
100.542639194372
 30
0
 41
50
 42
50
 43
0
 50
0
 70
    1
 71
    1
 44
0
 45
0
  0
MTEXT
  5
20D
100
AcDbEntity
  8
0
  6
ByLayer
 62
  256
370
   -1
100
AcDbMText
 10
16.17855391694871
 20
3.989742343719775
 30
0
 40
0.25
 41
0.1666666666666667
 71
    1
 72
    5
  1
S
  7
ROMANS
210
0
220
0
230
1
 50
0
 73
    1
 44
1
  0
LWPOLYLINE
  5
20E
100
AcDbEntity
  8
0
  6
ByLayer
 62
  256
370
   -1
100
AcDbPolyline
 90
    4
 70
    1
 43
0
 10
10.65075804788177
 20
4.176429583259186
 10
11.24513498642594
 20
4.176429583259186
 10
11.24513498642594
 20
3.573913771806907
 10
10.65075804788177
 20
3.573913771806907
  0
MTEXT
  5
20F
100
AcDbEntity
  8
0
  6
ByLayer
 62
  256
370
   -1
100
AcDbMText
 10
10.84143225700316
 20
3.99251460275643
 30
0
 40
0.25
 41
0.1666666666666667
 71
    1
 72
    5
  1
R
  7
ROMANS
210
0
220
0
230
1
 50
0
 73
    1
 44
1
  0
MTEXT
  5
210
100
AcDbEntity
  8
0
  6
ByLayer
 62
  256
370
   -1
100
AcDbMText
 10
7.286960046051703
 20
3.224976765952739
 30
0
 40
0.25
 41
0.1666666666666667
 71
    1
 72
    5
  1
R
  7
ROMANS
210
0
220
0
230
1
 50
0
 73
    1
 44
1
  0
LWPOLYLINE
  5
211
100
AcDbEntity
  8
0
  6
ByLayer
 62
  256
370
   -1
100
AcDbPolyline
 90
    4
 70
    1
 43
0
 10
7.096285836930306
 20
3.408891746455495
 10
7.690662775474479
 20
3.408891746455495
 10
7.690662775474479
 20
2.806375935003217
 10
7.096285836930306
 20
2.806375935003217
  0
MTEXT
  5
212
100
AcDbEntity
  8
0
  6
ByLayer
 62
  256
370
   -1
100
AcDbMText
 10
7.254932821636551
 20
1.527940670243428
 30
0
 40
0.1
 41
0.2619047777777778
 71
    1
 72
    5
  1
DER
  7
ROMANS
210
0
220
0
230
1
 50
0
 73
    1
 44
1
  0
MTEXT
  5
213
100
AcDbEntity
  8
0
  6
ByLayer
 62
  256
370
   -1
100
AcDbMText
 10
6.070069743051448
 20
3.99251460275643
 30
0
 40
0.25
 41
0.4285713888888889
 71
    1
 72
    5
  1
CB
  7
ROMANS
210
0
220
0
230
1
 50
0
 73
    1
 44
1
  0
CIRCLE
  5
214
100
AcDbEntity
  8
0
  6
ByLayer
 62
  256
370
   -1
100
AcDbCircle
 10
11.71462032811328
 20
4.972624789190547
 40
0.1313709686797182
  0
MTEXT
  5
215
100
AcDbEntity
  8
0
  6
ByLayer
 62
  256
370
   -1
100
AcDbMText
 10
7.662971855590664
 20
3.996061261451164
 30
0
 40
0.25
 41
0.1666666666666667
 71
    1
 72
    5
  1
X
  7
ROMANS
210
0
220
0
230
1
 50
0
 73
    1
 44
1
  0
LINE
  5
216
100
AcDbEntity
  8
0
  6
ByLayer
 62
  256
370
   -1
100
AcDbLine
 10
9.459311564670486
 20
3.875171677533046
 11
9.459311564670486
 21
6.732211133599193
  0
LINE
  5
217
100
AcDbEntity
  8
0
  6
ByLayer
 62
  256
370
   -1
100
AcDbLine
 10
11.71462032811328
 20
3.875171677533046
 11
11.71462032811328
 21
6.732211133599193
  0
LWPOLYLINE
  5
218
100
AcDbEntity
  8
0
  6
ByLayer
 62
  256
370
   -1
100
AcDbPolyline
 90
    4
 70
    1
 43
0
 10
10.28628420044998
 20
7.033469039325333
 10
10.88066113899416
 20
7.033469039325333
 10
10.88066113899416
 20
6.430953227873054
 10
10.28628420044998
 20
6.430953227873054
  0
LINE
  5
219
100
AcDbEntity
  8
0
  6
ByLayer
 62
  256
370
   -1
100
AcDbLine
 10
11.13444978124929
 20
5.519483313318858
 11
11.71462032811328
 21
5.519483313318858
  0
LINE
  5
21A
100
AcDbEntity
  8
0
  6
ByLayer
 62
  256
370
   -1
100
AcDbLine
 10
11.71462032811328
 20
5.150948108612766
 11
12.29479087497728
 21
5.150948108612766
  0
MTEXT
  5
21B
100
AcDbEntity
  8
0
  6
ByLayer
 62
  256
370
   -1
100
AcDbMText
 10
12.43051002007503
 20
3.996061261451164
 30
0
 40
0.25
 41
0.1666666666666667
 71
    1
 72
    5
  1
X
  7
ROMANS
210
0
220
0
230
1
 50
0
 73
    1
 44
1
  0
MTEXT
  5
21C
100
AcDbEntity
  8
0
  6
ByLayer
 62
  256
370
   -1
100
AcDbMText
 10
9.401495924736613
 20
4.223416525436415
 30
0
 40
0.140121480475732
 41
0.08674189110743416
 71
    1
 72
    5
  1
F
  7
ROMANS
210
0
220
0
230
1
 50
0
 73
    1
 44
1
  0
LINE
  5
21D
100
AcDbEntity
  8
0
  6
ByLayer
 62
  256
370
   -1
100
AcDbLine
 10
9.459311564670486
 20
5.150948108612766
 11
10.03948211153448
 21
5.150948108612766
  0
CIRCLE
  5
21E
100
AcDbEntity
  8
0
  6
ByLayer
 62
  256
370
   -1
100
AcDbCircle
 10
7.393474306202393
 20
1.474838255113952
 40
0.2627419373594364
  0
LINE
  5
21F
100
AcDbEntity
  8
0
  6
ByLayer
 62
  256
370
   -1
100
AcDbLine
 10
11.71462032811328
 20
4.49679806530699
 11
12.29479087497728
 21
4.49679806530699
  0
CIRCLE
  5
220
100
AcDbEntity
  8
0
  6
ByLayer
 62
  256
370
   -1
100
AcDbCircle
 10
10.18363475296348
 20
3.875171677533047
 40
0.2627419373594364
  0
MTEXT
  5
221
100
AcDbEntity
  8
0
  6
ByLayer
 62
  256
370
   -1
100
AcDbMText
 10
14.67653039322931
 20
5.322617134993056
 30
0
 40
0.25
 41
0.4166666666666666
 71
    1
 72
    5
  1
RN
  7
ROMANS
210
0
220
0
230
1
 50
0
 73
    1
 44
1
  0
CIRCLE
  5
222
100
AcDbEntity
  8
0
  6
ByLayer
 62
  256
370
   -1
100
AcDbCircle
 10
13.79393608280631
 20
3.875171677533047
 40
0.2627419373594364
  0
INSERT
  5
223
100
AcDbEntity
  8
0
  6
ByLayer
 62
  256
370
   -1
100
AcDbBlockReference
  2
TITLEHD
 10
788.5342407737116
 20
517.1151628303851
 30
0
 41
50
 42
50
 43
0
 50
0
 70
    1
 71
    1
 44
0
 45
0
  0
MTEXT
  5
224
100
AcDbEntity
  8
0
  6
ByLayer
 62
  256
370
   -1
100
AcDbMText
 10
9.401041424304285
 20
1.632450400398264
 30
0
 40
0.125
 41
0.08333333333333333
 71
    1
 72
    5
  1
X
  7
ROMANS
210
0
220
0
230
1
 50
0
 73
    1
 44
1
  0
LWPOLYLINE
  5
225
100
AcDbEntity
  8
0
  6
ByLayer
 62
  256
370
   -1
100
AcDbPolyline
 90
    4
 70
    1
 43
0
 10
9.1621230953984
 20
3.23238925901768
 10
9.756500033942572
 20
3.23238925901768
 10
9.756500033942572
 20
2.629873447565402
 10
9.1621230953984
 20
2.629873447565402
  0
LWPOLYLINE
  5
226
100
AcDbEntity
  8
0
  6
ByLayer
 62
  256
370
   -1
100
AcDbPolyline
 90
    4
 70
    1
 43
0
 10
4.887051523311825
 20
7.048962482673563
 10
16.80208066573869
 20
7.048962482673563
 10
16.80208066573869
 20
0.7013808723925301
 10
4.887051523311825
 20
0.7013808723925301
  0
CIRCLE
  5
227
100
AcDbEntity
  8
0
  6
ByLayer
 62
  256
370
   -1
100
AcDbCircle
 10
5.538540334361279
 20
3.875171677533047
 40
0.2627419373594364
  0
LINE
  5
228
100
AcDbEntity
  8
0
  6
ByLayer
 62
  256
370
   -1
100
AcDbLine
 10
4.887051523311825
 20
3.875171677533046
 11
16.80208066573869
 21
3.875171677533046
  0
MTEXT
  5
229
100
AcDbEntity
  8
0
  6
ByLayer
 62
  256
370
   -1
100
AcDbMText
 10
5.441803839947298
 20
4.004856032960635
 30
0
 40
0.25
 41
0.1666666666666667
 71
    1
 72
    5
  1
S
  7
ROMANS
210
0
220
0
230
1
 50
0
 73
    1
 44
1
  0
CIRCLE
  5
22A
100
AcDbEntity
  8
0
  6
ByLayer
 62
  256
370
   -1
100
AcDbCircle
 10
16.27529041136269
 20
3.860057988292187
 40
0.2627419373594364
  0
LWPOLYLINE
  5
22B
100
AcDbEntity
  8
0
  6
ByLayer
 62
  256
370
   -1
100
AcDbPolyline
 90
    4
 70
    1
 43
0
 10
8.262710407984429
 20
4.176429583259186
 10
8.857087346528601
 20
4.176429583259186
 10
8.857087346528601
 20
3.573913771806907
 10
8.262710407984429
 20
3.573913771806907
  0
MTEXT
  5
22C
100
AcDbEntity
  8
0
  6
ByLayer
 62
  256
370
   -1
100
AcDbMText
 10
8.453384617105826
 20
3.99251460275643
 30
0
 40
0.25
 41
0.1666666666666667
 71
    1
 72
    5
  1
R
  7
ROMANS
210
0
220
0
230
1
 50
0
 73
    1
 44
1
  0
LWPOLYLINE
  5
22D
100
AcDbEntity
  8
0
  6
ByLayer
 62
  256
370
   -1
100
AcDbPolyline
 90
    4
 70
    1
 43
0
 10
12.86625948659889
 20
4.176429583259186
 10
13.46063642514306
 20
4.176429583259186
 10
13.46063642514306
 20
3.573913771806907
 10
12.86625948659889
 20
3.573913771806907
  0
MTEXT
  5
22E
100
AcDbEntity
  8
0
  6
ByLayer
 62
  256
370
   -1
100
AcDbMText
 10
13.05693369572029
 20
3.99251460275643
 30
0
 40
0.25
 41
0.1666666666666667
 71
    1
 72
    5
  1
R
  7
ROMANS
210
0
220
0
230
1
 50
0
 73
    1
 44
1
  0
LWPOLYLINE
  5
22F
100
AcDbEntity
  8
0
  6
ByLayer
 62
  256
370
   -1
100
AcDbPolyline
 90
    4
 70
    1
 43
0
 10
14.94632597381664
 20
4.176429583259186
 10
15.54070291236081
 20
4.176429583259186
 10
15.54070291236081
 20
3.573913771806907
 10
14.94632597381664
 20
3.573913771806907
  0
MTEXT
  5
230
100
AcDbEntity
  8
0
  6
ByLayer
 62
  256
370
   -1
100
AcDbMText
 10
15.017125514447
 20
3.99251460275643
 30
0
 40
0.25
 41
0.4285713888888889
 71
    1
 72
    5
  1
CB
  7
ROMANS
210
0
220
0
230
1
 50
0
 73
    1
 44
1
  0
LWPOLYLINE
  5
231
100
AcDbEntity
  8
0
  6
ByLayer
 62
  256
370
   -1
100
AcDbPolyline
 90
    4
 70
    1
 43
0
 10
5.999270202421087
 20
4.176429583259186
 10
6.59364714096526
 20
4.176429583259186
 10
6.59364714096526
 20
3.573913771806907
 10
5.999270202421087
 20
3.573913771806907
  0
LINE
  5
232
100
AcDbEntity
  8
0
  6
ByLayer
 62
  256
370
   -1
100
AcDbLine
 10
7.393474306202393
 20
3.875171677533046
 11
7.393474306202393
 21
1.737580192473388
  0
CIRCLE
  5
233
100
AcDbEntity
  8
0
  6
ByLayer
 62
  256
370
   -1
100
AcDbCircle
 10
7.779512136323065
 20
3.875171677533047
 40
0.2627419373594364
  0
MTEXT
  5
234
100
AcDbEntity
  8
0
  6
ByLayer
 62
  256
370
   -1
100
AcDbMText
 10
10.06709447223108
 20
3.996061261451164
 30
0
 40
0.25
 41
0.1666666666666667
 71
    1
 72
    5
  1
X
  7
ROMANS
210
0
220
0
230
1
 50
0
 73
    1
 44
1
  0
CIRCLE
  5
235
100
AcDbEntity
  8
0
  6
ByLayer
 62
  256
370
   -1
100
AcDbCircle
 10
12.54705030080743
 20
3.875171677533047
 40
0.2627419373594364
  0
MTEXT
  5
236
100
AcDbEntity
  8
0
  6
ByLayer
 62
  256
370
   -1
100
AcDbMText
 10
13.67739580207391
 20
3.996061261451164
 30
0
 40
0.25
 41
0.1666666666666667
 71
    1
 72
    5
  1
X
  7
ROMANS
210
0
220
0
230
1
 50
0
 73
    1
 44
1
  0
LINE
  5
237
100
AcDbEntity
  8
0
  6
ByLayer
 62
  256
370
   -1
100
AcDbLine
 10
14.42390228152703
 20
3.875171677533046
 11
14.42390228152703
 21
1.737580192473388
  0
CIRCLE
  5
238
100
AcDbEntity
  8
0
  6
ByLayer
 62
  256
370
   -1
100
AcDbCircle
 10
14.42390228152703
 20
1.474838255113952
 40
0.2627419373594364
  0
CIRCLE
  5
239
100
AcDbEntity
  8
0
  6
ByLayer
 62
  256
370
   -1
100
AcDbCircle
 10
7.393474306202393
 20
2.301319580686987
 40
0.2627419373594364
  0
MTEXT
  5
23A
100
AcDbEntity
  8
0
  6
ByLayer
 62
  256
370
   -1
100
AcDbMText
 10
7.276934025469991
 20
2.422209164605103
 30
0
 40
0.25
 41
0.1666666666666667
 71
    1
 72
    5
  1
X
  7
ROMANS
210
0
220
0
230
1
 50
0
 73
    1
 44
1
  0
LINE
  5
23B
100
AcDbEntity
  8
0
  6
ByLayer
 62
  256
370
   -1
100
AcDbLine
 10
9.459311564670486
 20
6.732211133599193
 11
10.03948211153448
 21
6.732211133599193
  0
LINE
  5
23C
100
AcDbEntity
  8
0
  6
ByLayer
 62
  256
370
   -1
100
AcDbLine
 10
9.459311564670486
 20
5.869591796404904
 11
10.03948211153448
 21
5.869591796404904
  0
LINE
  5
23D
100
AcDbEntity
  8
0
  6
ByLayer
 62
  256
370
   -1
100
AcDbLine
 10
9.459311564670486
 20
4.49679806530699
 11
10.03948211153448
 21
4.49679806530699
  0
LINE
  5
23E
100
AcDbEntity
  8
0
  6
ByLayer
 62
  256
370
   -1
100
AcDbLine
 10
8.879141017806489
 20
4.810052986336757
 11
9.459311564670486
 21
4.810052986336757
  0
LINE
  5
23F
100
AcDbEntity
  8
0
  6
ByLayer
 62
  256
370
   -1
100
AcDbLine
 10
8.879141017806489
 20
5.519483313318858
 11
9.459311564670486
 21
5.519483313318858
  0
LINE
  5
240
100
AcDbEntity
  8
0
  6
ByLayer
 62
  256
370
   -1
100
AcDbLine
 10
8.879141017806489
 20
6.311834065815447
 11
9.459311564670486
 21
6.311834065815447
  0
LINE
  5
241
100
AcDbEntity
  8
0
  6
ByLayer
 62
  256
370
   -1
100
AcDbLine
 10
11.71462032811328
 20
5.869591796404904
 11
12.29479087497728
 21
5.869591796404904
  0
LINE
  5
242
100
AcDbEntity
  8
0
  6
ByLayer
 62
  256
370
   -1
100
AcDbLine
 10
11.13444978124929
 20
4.810052986336757
 11
11.71462032811328
 21
4.810052986336757
  0
LINE
  5
243
100
AcDbEntity
  8
0
  6
ByLayer
 62
  256
370
   -1
100
AcDbLine
 10
11.13444978124929
 20
6.311834065815447
 11
11.71462032811328
 21
6.311834065815447
  0
LINE
  5
244
100
AcDbEntity
  8
0
  6
ByLayer
 62
  256
370
   -1
100
AcDbLine
 10
11.71462032811328
 20
6.732211133599193
 11
10.03948211153448
 21
6.732211133599193
  0
MTEXT
  5
245
100
AcDbEntity
  8
0
  6
ByLayer
 62
  256
370
   -1
100
AcDbMText
 10
10.40736348745533
 20
6.849554058822577
 30
0
 40
0.25
 41
0.3809525
 71
    1
 72
    5
  1
op
  7
ROMANS
210
0
220
0
230
1
 50
0
 73
    1
 44
1
  0
CIRCLE
  5
246
100
AcDbEntity
  8
0
  6
ByLayer
 62
  256
370
   -1
100
AcDbCircle
 10
9.459311564670486
 20
5.699135621095934
 40
0.1313709686797182
  0
MTEXT
  5
247
100
AcDbEntity
  8
0
  6
ByLayer
 62
  256
370
   -1
100
AcDbMText
 10
9.401041424304285
 20
5.759580413054993
 30
0
 40
0.125
 41
0.08333333333333333
 71
    1
 72
    5
  1
X
  7
ROMANS
210
0
220
0
230
1
 50
0
 73
    1
 44
1
  0
MTEXT
  5
248
100
AcDbEntity
  8
0
  6
ByLayer
 62
  256
370
   -1
100
AcDbMText
 10
11.65635018774708
 20
5.033069581149606
 30
0
 40
0.125
 41
0.08333333333333333
 71
    1
 72
    5
  1
X
  7
ROMANS
210
0
220
0
230
1
 50
0
 73
    1
 44
1
  0
LWPOLYLINE
  5
249
100
AcDbEntity
  8
0
  6
ByLayer
 62
  256
370
   -1
100
AcDbPolyline
 90
    4
 70
    1
 43
0
 10
9.294625714854096
 20
4.32649828283526
 10
9.627765621211864
 20
4.32649828283526
 10
9.627765621211864
 20
3.98879665279234
 10
9.294625714854096
 20
3.98879665279234
  0
LWPOLYLINE
  5
24A
100
AcDbEntity
  8
0
  6
ByLayer
 62
  256
370
   -1
100
AcDbPolyline
 90
    4
 70
    1
 43
0
 10
11.5480503749344
 20
4.323165596402822
 10
11.88119028129217
 20
4.323165596402822
 10
11.88119028129217
 20
3.985463966359902
 10
11.5480503749344
 20
3.985463966359902
  0
MTEXT
  5
24B
100
AcDbEntity
  8
0
  6
ByLayer
 62
  256
370
   -1
100
AcDbMText
 10
11.65492058481692
 20
4.220083839003976
 30
0
 40
0.140121480475732
 41
0.08674189110743416
 71
    1
 72
    5
  1
F
  7
ROMANS
210
0
220
0
230
1
 50
0
 73
    1
 44
1
  0
LINE
  5
24C
100
AcDbEntity
  8
0
  6
ByLayer
 62
  256
370
   -1
100
AcDbLine
 10
9.459311564670486
 20
1.0181322214669
 11
9.459311564670486
 21
3.875171677533046
  0
MTEXT
  5
24D
100
AcDbEntity
  8
0
  6
ByLayer
 62
  256
370
   -1
100
AcDbMText
 10
9.352797304519797
 20
3.048474278514924
 30
0
 40
0.25
 41
0.1666666666666667
 71
    1
 72
    5
  1
R
  7
ROMANS
210
0
220
0
230
1
 50
0
 73
    1
 44
1
  0
LINE
  5
24E
100
AcDbEntity
  8
0
  6
ByLayer
 62
  256
370
   -1
100
AcDbLine
 10
9.459311564670486
 20
2.078116744793881
 11
10.03948211153448
 21
2.078116744793881
  0
LINE
  5
24F
100
AcDbEntity
  8
0
  6
ByLayer
 62
  256
370
   -1
100
AcDbLine
 10
9.459311564670486
 20
1.423966701488105
 11
10.03948211153448
 21
1.423966701488105
  0
LINE
  5
250
100
AcDbEntity
  8
0
  6
ByLayer
 62
  256
370
   -1
100
AcDbLine
 10
8.879141017806489
 20
1.737221622517872
 11
9.459311564670486
 21
1.737221622517872
  0
LINE
  5
251
100
AcDbEntity
  8
0
  6
ByLayer
 62
  256
370
   -1
100
AcDbLine
 10
8.879141017806489
 20
2.446651949499973
 11
9.459311564670486
 21
2.446651949499973
  0
CIRCLE
  5
252
100
AcDbEntity
  8
0
  6
ByLayer
 62
  256
370
   -1
100
AcDbCircle
 10
9.459311564670486
 20
1.572005608439206
 40
0.1313709686797182
  0
CIRCLE
  5
253
100
AcDbEntity
  8
0
  6
ByLayer
 62
  256
370
   -1
100
AcDbCircle
 10
14.91080565222941
 20
5.192932779565467
 40
0.2627419373594364
  0
MTEXT
  5
254
100
AcDbEntity
  8
0
  6
ByLayer
 62
  256
370
   -1
100
AcDbMText
 10
-10.69549198767642
 20
-0.9066005578142882
 30
0
 40
0.25
 41
16.675598
 71
    1
 72
    5
  3
Power: 120 vac with wall power to a mdb with breakers to each source, axion, etc\P\PEach device: has status indicator\P\PEach load: has clear/white indicator\P\Pvisible indication of faulted zone - flashing push button\P\PVinyl or wrap for 2d plan vi
  1
ew\P\PPushbutton fault controls and HMI fault control\P\Pbill of material\P\Ppower system analysis - milsoft
  7
ROMANS
210
0
220
0
230
1
 50
0
 73
    1
 44
1
  0
INSERT
  5
255
100
AcDbEntity
  8
0
  6
ByLayer
 62
  256
370
   -1
100
AcDbBlockReference
  2
TITLEHB
 10
17.80531067410548
 20
7.25806120185077
 30
0
 41
100
 42
100
 43
0
 50
0
 70
    1
 71
    1
 44
0
 45
0
  0
INSERT
  5
256
100
AcDbEntity
  8
0
  6
ByLayer
 62
  256
370
   -1
100
AcDbBlockReference
  2
TITLEHA
 10
17.80531067410548
 20
7.25806120185077
 30
0
 41
100
 42
100
 43
0
 50
0
 70
    1
 71
    1
 44
0
 45
0
  0
MTEXT
  5
257
100
AcDbEntity
  8
0
  6
ByLayer
 62
  256
370
   -1
100
AcDbMText
 10
36.06795672380716
 20
4.997793463232792
 30
0
 40
0.1
 41
1.5797621
 71
    1
 72
    5
  1
\pi0.13772;\LOutput\P\pi0.08991;\lFlashing \P\pi0.19519;Input
  7
ROMANS
210
0
220
0
230
1
 50
0
 73
    1
 44
1
  0
MTEXT
  5
258
100
AcDbEntity
  8
0
  6
ByLayer
 62
  256
370
   -1
100
AcDbMText
 10
30.10381485325938
 20
6.708279221889935
 30
0
 40
0.1
 41
3.18928638888889
 71
    1
 72
    5
  1
\pi0.53254;3d printed houses\P\pi0.68599;resistor at ea\P\pi0.75778;lighting led\P\pi0.17211;can house be apart of circuit?
  7
ROMANS
210
0
220
0
230
1
 50
0
 73
    1
 44
1
  0
MTEXT
  5
259
100
AcDbEntity
  8
0
  6
ByLayer
 62
  256
370
   -1
100
AcDbMText
 10
34.42777146508581
 20
4.504834469932653
 30
0
 40
0.1
 41
1.490476433333333
 71
    1
 72
    5
  1
\pi0.18348;\LInputs\P\pi0.18304;\lstatus
  7
ROMANS
210
0
220
0
230
1
 50
0
 73
    1
 44
1
  0
MTEXT
  5
25A
100
AcDbEntity
  8
0
  6
ByLayer
 62
  256
370
   -1
100
AcDbMText
 10
33.7572210863248
 20
6.262974545561909
 30
0
 40
0.1
 41
1.490476433333333
 71
    1
 72
    5
  1
\pi0.18348;\LInputs\P\pi0.18304;\lstatus
  7
ROMANS
210
0
220
0
230
1
 50
0
 73
    1
 44
1
  0
MTEXT
  5
25B
100
AcDbEntity
  8
0
  6
ByLayer
 62
  256
370
   -1
100
AcDbMText
 10
38.07270280219501
 20
5.862031619413215
 30
0
 40
0.1
 41
1.765476322222222
 71
    1
 72
    5
  1
\pi0.18348;\LInputs\P\pi0.08532;\lReturn to \P\pi0.14968;Normal
  7
ROMANS
210
0
220
0
230
1
 50
0
 73
    1
 44
1
  0
MTEXT
  5
25C
100
AcDbEntity
  8
0
  6
ByLayer
 62
  256
370
   -1
100
AcDbMText
 10
36.49339472760204
 20
4.438746109596641
 30
0
 40
0.1
 41
1.751190766666667
 71
    1
 72
    5
  1
\pi0.12601;\LOutputs\l\P\pi0.17236;Status
  7
ROMANS
210
0
220
0
230
1
 50
0
 73
    1
 44
1
  0
MTEXT
  5
25D
100
AcDbEntity
  8
0
  6
ByLayer
 62
  256
370
   -1
100
AcDbMText
 10
33.05034746591812
 20
5.602869735200141
 30
0
 40
0.1
 41
1.485714544444445
 71
    1
 72
    5
  1
\pi0.16245;\LInputs\P\pi0.19448;\lFault\P\pi0.34352;\P
  7
ROMANS
210
0
220
0
230
1
 50
0
 73
    1
 44
1
  0
MTEXT
  5
25E
100
AcDbEntity
  8
0
  6
ByLayer
 62
  256
370
   -1
100
AcDbMText
 10
35.31320611620363
 20
4.997793463232792
 30
0
 40
0.1
 41
1.485714544444445
 71
    1
 72
    5
  1
\pi0.16245;\LInputs\P\pi0.19448;\lFault\P\pi0.34352;\P
  7
ROMANS
210
0
220
0
230
1
 50
0
 73
    1
 44
1
  0
MTEXT
  5
25F
100
AcDbEntity
  8
0
  6
ByLayer
 62
  256
370
   -1
100
AcDbMText
 10
33.80509807352165
 20
5.602869735200141
 30
0
 40
0.1
 41
1.5797621
 71
    1
 72
    5
  1
\pi0.13772;\LOutput\P\pi0.08991;\lFlashing \P\pi0.19519;Input
  7
ROMANS
210
0
220
0
230
1
 50
0
 73
    1
 44
1
  0
MTEXT
  5
260
100
AcDbEntity
  8
0
  6
ByLayer
 62
  256
370
   -1
100
AcDbMText
 10
33.45123226384443
 20
-1.962855182633742
 30
0
 40
0.1
 41
1.751190766666667
 71
    1
 72
    5
  1
\pi0.12601;\LOutputs\l\P\pi0.17236;Status
  7
ROMANS
210
0
220
0
230
1
 50
0
 73
    1
 44
1
  0
MTEXT
  5
261
100
AcDbEntity
  8
0
  6
ByLayer
 62
  256
370
   -1
100
AcDbMText
 10
31.9750921420124
 20
-0.8247118340870845
 30
0
 40
0.1
 41
1.485714544444445
 71
    1
 72
    5
  1
\pi0.16245;\LInputs\P\pi0.19448;\lFault\P\pi0.34352;\P
  7
ROMANS
210
0
220
0
230
1
 50
0
 73
    1
 44
1
  0
MTEXT
  5
262
100
AcDbEntity
  8
0
  6
ByLayer
 62
  256
370
   -1
100
AcDbMText
 10
31.06387761203448
 20
-0.9422530189104634
 30
0
 40
0.1
 41
1.751190766666667
 71
    1
 72
    5
  1
\pi0.12601;\LOutputs\l\P\pi0.17236;Status
  7
ROMANS
210
0
220
0
230
1
 50
0
 73
    1
 44
1
  0
MTEXT
  5
263
100
AcDbEntity
  8
0
  6
ByLayer
 62
  256
370
   -1
100
AcDbMText
 10
38.137137654621
 20
-1.987843188945844
 30
0
 40
0.1
 41
1.485714544444445
 71
    1
 72
    5
  1
\pi0.16245;\LInputs\P\pi0.19448;\lFault\P\pi0.34352;\P
  7
ROMANS
210
0
220
0
230
1
 50
0
 73
    1
 44
1
  0
MTEXT
  5
264
100
AcDbEntity
  8
0
  6
ByLayer
 62
  256
370
   -1
100
AcDbMText
 10
33.77920118851702
 20
-0.8934923949277636
 30
0
 40
0.1
 41
1.490476433333333
 71
    1
 72
    5
  1
\pi0.18348;\LInputs\P\pi0.18304;\lstatus
  7
ROMANS
210
0
220
0
230
1
 50
0
 73
    1
 44
1
  0
MTEXT
  5
265
100
AcDbEntity
  8
0
  6
ByLayer
 62
  256
370
   -1
100
AcDbMText
 10
39.45048328576834
 20
-3.903073516153691
 30
0
 40
0.1
 41
1.217857211111111
 71
    1
 72
    5
  1
\pi-0.00146;IND\P\pi0.07736;L
  7
ROMANS
210
0
220
0
230
1
 50
0
 73
    1
 44
1
  0
MTEXT
  5
266
100
AcDbEntity
  8
0
  6
ByLayer
 62
  256
370
   -1
100
AcDbMText
 10
39.95848649391046
 20
-3.946272947592664
 30
0
 40
0.1
 41
1.822619355555556
 71
    1
 72
    5
  1
\pi0.00139;variable load\P\pi0.07707;test points
  7
ROMANS
210
0
220
0
230
1
 50
0
 73
    1
 44
1
  0
MTEXT
  5
267
100
AcDbEntity
  8
0
  6
ByLayer
 62
  256
370
   -1
100
AcDbMText
 10
34.96900767314871
 20
-2.801191011277684
 30
0
 40
0.1
 41
1.751190766666667
 71
    1
 72
    5
  1
\pi0.12601;\LOutputs\l\P\pi0.17236;Status
  7
ROMANS
210
0
220
0
230
1
 50
0
 73
    1
 44
1
  0
MTEXT
  5
268
100
AcDbEntity
  8
0
  6
ByLayer
 62
  256
370
   -1
100
AcDbMText
 10
40.04300133748751
 20
-2.009794367955269
 30
0
 40
0.1
 41
1.751190766666667
 71
    1
 72
    5
  1
\pi0.12601;\LOutputs\l\P\pi0.17236;Status
  7
ROMANS
210
0
220
0
230
1
 50
0
 73
    1
 44
1
  0
MTEXT
  5
269
100
AcDbEntity
  8
0
  6
ByLayer
 62
  256
370
   -1
100
AcDbMText
 10
32.72984274961593
 20
-0.8247118340870845
 30
0
 40
0.1
 41
1.5797621
 71
    1
 72
    5
  1
\pi0.13772;\LOutput\P\pi0.08991;\lFlashing \P\pi0.19519;Input
  7
ROMANS
210
0
220
0
230
1
 50
0
 73
    1
 44
1
  0
MTEXT
  5
26A
100
AcDbEntity
  8
0
  6
ByLayer
 62
  256
370
   -1
100
AcDbMText
 10
37.61700953198334
 20
-6.322490626142306
 30
0
 40
0.1
 41
1.751190766666667
 71
    1
 72
    5
  1
\pi0.12601;\LOutputs\l\P\pi0.17236;Status
  7
ROMANS
210
0
220
0
230
1
 50
0
 73
    1
 44
1
  0
MTEXT
  5
26B
100
AcDbEntity
  8
0
  6
ByLayer
 62
  256
370
   -1
100
AcDbMText
 10
35.94543052029363
 20
-6.246831987330291
 30
0
 40
0.1
 41
1.485714544444445
 71
    1
 72
    5
  1
\pi0.16245;\LInputs\P\pi0.19448;\lFault\P\pi0.34352;\P
  7
ROMANS
210
0
220
0
230
1
 50
0
 73
    1
 44
1
  0
MTEXT
  5
26C
100
AcDbEntity
  8
0
  6
ByLayer
 62
  256
370
   -1
100
AcDbMText
 10
38.17199165856184
 20
-6.270579485190064
 30
0
 40
0.1
 41
1.485714544444445
 71
    1
 72
    5
  1
\pi0.16245;\LInputs\P\pi0.19448;\lFault\P\pi0.34352;\P
  7
ROMANS
210
0
220
0
230
1
 50
0
 73
    1
 44
1
  0
MTEXT
  5
26D
100
AcDbEntity
  8
0
  6
ByLayer
 62
  256
370
   -1
100
AcDbMText
 10
36.70018112789715
 20
-6.246831987330291
 30
0
 40
0.1
 41
1.5797621
 71
    1
 72
    5
  1
\pi0.13772;\LOutput\P\pi0.08991;\lFlashing \P\pi0.19519;Input
  7
ROMANS
210
0
220
0
230
1
 50
0
 73
    1
 44
1
  0
MTEXT
  5
26E
100
AcDbEntity
  8
0
  6
ByLayer
 62
  256
370
   -1
100
AcDbMText
 10
40.27667018572373
 20
-6.297027784374196
 30
0
 40
0.1
 41
1.5797621
 71
    1
 72
    5
  1
\pi0.13772;\LOutput\P\pi0.08991;\lFlashing \P\pi0.19519;Input
  7
ROMANS
210
0
220
0
230
1
 50
0
 73
    1
 44
1
  0
MTEXT
  5
26F
100
AcDbEntity
  8
0
  6
ByLayer
 62
  256
370
   -1
100
AcDbMText
 10
38.92674226616536
 20
-6.270579485190064
 30
0
 40
0.1
 41
1.5797621
 71
    1
 72
    5
  1
\pi0.13772;\LOutput\P\pi0.08991;\lFlashing \P\pi0.19519;Input
  7
ROMANS
210
0
220
0
230
1
 50
0
 73
    1
 44
1
  0
MTEXT
  5
270
100
AcDbEntity
  8
0
  6
ByLayer
 62
  256
370
   -1
100
AcDbMText
 10
35.88728623922822
 20
-10.49491123598604
 30
0
 40
0.1
 41
1.751190766666667
 71
    1
 72
    5
  1
\pi0.12601;\LOutputs\l\P\pi0.17236;Status
  7
ROMANS
210
0
220
0
230
1
 50
0
 73
    1
 44
1
  0
MTEXT
  5
271
100
AcDbEntity
  8
0
  6
ByLayer
 62
  256
370
   -1
100
AcDbMText
 10
39.78834194978802
 20
-14.45862477332337
 30
0
 40
0.1
 41
1.5797621
 71
    1
 72
    5
  1
\pi0.13772;\LOutput\P\pi0.08991;\lFlashing \P\pi0.19519;Input
  7
ROMANS
210
0
220
0
230
1
 50
0
 73
    1
 44
1
  0
MTEXT
  5
272
100
AcDbEntity
  8
0
  6
ByLayer
 62
  256
370
   -1
100
AcDbMText
 10
41.31985070813803
 20
-17.60657498224452
 30
0
 40
0.1
 41
1.485714544444445
 71
    1
 72
    5
  1
\pi0.16245;\LInputs\P\pi0.19448;\lFault\P\pi0.34352;\P
  7
ROMANS
210
0
220
0
230
1
 50
0
 73
    1
 44
1
  0
MTEXT
  5
273
100
AcDbEntity
  8
0
  6
ByLayer
 62
  256
370
   -1
100
AcDbMText
 10
47.38473210638077
 20
-21.06683857091295
 30
0
 40
0.1
 41
1.841666877777778
 71
    1
 72
    5
  1
\pi0.12869;\LOutputs\P\pi0.02418;\lGen Status
  7
ROMANS
210
0
220
0
230
1
 50
0
 73
    1
 44
1
  0
MTEXT
  5
274
100
AcDbEntity
  8
0
  6
ByLayer
 62
  256
370
   -1
100
AcDbMText
 10
50.34820386078977
 20
-23.12805776583237
 30
0
 40
0.1
 41
1.433333655555556
 71
    1
 72
    5
  1
\pi0.18616;\LInputs\P\pi0.18571;\lstatus\P\pi0.36723;\P
  7
ROMANS
210
0
220
0
230
1
 50
0
 73
    1
 44
1
  0
MTEXT
  5
275
100
AcDbEntity
  8
0
  6
ByLayer
 62
  256
370
   -1
100
AcDbMText
 10
59.05014567527599
 20
-24.99508134331097
 30
0
 40
0.1
 41
1.5797621
 71
    1
 72
    5
  1
\pi0.13772;\LOutput\P\pi0.08991;\lFlashing \P\pi0.19519;Input
  7
ROMANS
210
0
220
0
230
1
 50
0
 73
    1
 44
1
  0
MTEXT
  5
276
100
AcDbEntity
  8
0
  6
ByLayer
 62
  256
370
   -1
100
AcDbMText
 10
60.64814814232229
 20
-26.91660188956823
 30
0
 40
0.1
 41
1.485714544444445
 71
    1
 72
    5
  1
\pi0.16245;\LInputs\P\pi0.19448;\lFault\P\pi0.34352;\P
  7
ROMANS
210
0
220
0
230
1
 50
0
 73
    1
 44
1
  0
ENDSEC
  0
SECTION
  2
OBJECTS
  0
DICTIONARY
  5
C
330
0
100
AcDbDictionary
281
    1
  3
ACAD_GROUP
350
D
  0
DICTIONARY
  5
D
330
C
100
AcDbDictionary
281
    1
  0
PLOTSETTINGS
  5
277
100
AcDbPlotSettings
  6
1x1
 40
0
 41
0
 42
0
 43
0
  0
ENDSEC
  0
EOF
